M48
; DRILL file {KiCad (6.0.5-0)} date 2022 May 20, Friday 22:42:23
; FORMAT={-:-/ absolute / inch / decimal}
; #@! TF.CreationDate,2022-05-20T22:42:23+09:00
; #@! TF.GenerationSoftware,Kicad,Pcbnew,(6.0.5-0)
; #@! TF.FileFunction,Plated,1,2,PTH
FMAT,2
INCH
; #@! TA.AperFunction,Plated,PTH,ViaDrill
T1C0.0157
; #@! TA.AperFunction,Plated,PTH,ComponentDrill
T2C0.0315
; #@! TA.AperFunction,Plated,PTH,ComponentDrill
T3C0.0394
; #@! TA.AperFunction,Plated,PTH,ComponentDrill
T4C0.0400
; #@! TA.AperFunction,Plated,PTH,ComponentDrill
T5C0.1200
%
G90
G05
T1
X1.0325Y0.8337
X1.0343Y0.7518
X1.5216Y1.6298
X1.5648Y1.5652
X1.5692Y1.4727
X1.5909Y1.6432
X1.7757Y1.7663
T2
X0.8Y0.5
X0.8Y0.3
X1.2Y0.5
X1.2Y0.3
T3
X0.099Y0.65
X0.199Y0.65
X0.299Y0.65
X0.399Y0.65
X0.499Y0.65
X0.599Y0.65
X0.7994Y1.7
X0.8205Y1.2502
X0.8205Y1.1502
X0.8205Y1.0502
X0.8205Y0.9502
X0.8205Y0.8502
X0.8994Y1.7
X0.9994Y1.7
X1.4Y0.3
X1.5Y0.3
X1.6Y0.3
X1.7004Y1.7
X1.8004Y1.7
X1.9004Y1.7
X2.0004Y1.7
X2.1004Y1.7
X2.2004Y1.7
X2.3004Y1.7
X2.35Y0.55
X2.35Y0.45
X2.351Y1.3492
X2.351Y1.2492
X2.351Y1.1492
X2.351Y1.0492
X2.351Y0.9492
X2.351Y0.8492
X2.351Y0.7492
X2.4004Y1.7
X2.5004Y1.7
T4
X0.74Y2.0
X0.84Y2.0
X0.94Y2.0
X1.04Y2.0
X1.1Y0.1
X1.14Y2.0
X1.2Y0.1
X1.24Y2.0
X1.3Y0.1
X1.34Y2.0
X1.4Y0.1
X1.44Y2.0
X1.5Y0.1
X1.54Y2.0
X1.6Y0.1
X1.64Y2.0
X1.7Y0.1
X1.8Y2.0
X1.8Y0.1
X1.9Y2.0
X2.0Y2.0
X2.0Y0.1
X2.1Y2.0
X2.1Y0.1
X2.2Y2.0
X2.2Y0.1
X2.3Y2.0
X2.3Y0.1
X2.4Y2.0
X2.4Y0.1
X2.5Y2.0
X2.5Y0.1
T5
X0.55Y0.1
X0.6Y2.0
X2.6Y1.4
X2.6Y0.3
T0
M30
