%TF.GenerationSoftware,KiCad,Pcbnew,(6.0.5-0)*%
%TF.CreationDate,2022-05-20T22:42:27+09:00*%
%TF.ProjectId,esp32_internet_radio_v4,65737033-325f-4696-9e74-65726e65745f,rev?*%
%TF.SameCoordinates,PX69db1f0PY7882d48*%
%TF.FileFunction,AssemblyDrawing,Top*%
%FSLAX46Y46*%
G04 Gerber Fmt 4.6, Leading zero omitted, Abs format (unit mm)*
G04 Created by KiCad (PCBNEW (6.0.5-0)) date 2022-05-20 22:42:27*
%MOMM*%
%LPD*%
G01*
G04 APERTURE LIST*
%TA.AperFunction,Profile*%
%ADD10C,0.150000*%
%TD*%
%ADD11C,0.150000*%
%ADD12C,0.100000*%
G04 APERTURE END LIST*
D10*
X68580000Y37846000D02*
X66040000Y40386000D01*
X66040000Y0D02*
X66040000Y2540000D01*
X66040000Y51816000D02*
X64516000Y53340000D01*
X66040000Y2540000D02*
X68580000Y5080000D01*
X0Y53340000D02*
X0Y0D01*
X68580000Y5080000D02*
X68580000Y37846000D01*
X0Y0D02*
X66040000Y0D01*
X64516000Y53340000D02*
X0Y53340000D01*
X66040000Y40386000D02*
X66040000Y51816000D01*
D11*
%TO.C,J1*%
X17625714Y34156429D02*
X17959047Y34156429D01*
X18101904Y33632620D02*
X17625714Y33632620D01*
X17625714Y34632620D01*
X18101904Y34632620D01*
X18530476Y33632620D02*
X18530476Y34632620D01*
X19101904Y33632620D01*
X19101904Y34632620D01*
X20149523Y33727858D02*
X20101904Y33680239D01*
X19959047Y33632620D01*
X19863809Y33632620D01*
X19720952Y33680239D01*
X19625714Y33775477D01*
X19578095Y33870715D01*
X19530476Y34061191D01*
X19530476Y34204048D01*
X19578095Y34394524D01*
X19625714Y34489762D01*
X19720952Y34585000D01*
X19863809Y34632620D01*
X19959047Y34632620D01*
X20101904Y34585000D01*
X20149523Y34537381D01*
X20768571Y34632620D02*
X20959047Y34632620D01*
X21054285Y34585000D01*
X21149523Y34489762D01*
X21197142Y34299286D01*
X21197142Y33965953D01*
X21149523Y33775477D01*
X21054285Y33680239D01*
X20959047Y33632620D01*
X20768571Y33632620D01*
X20673333Y33680239D01*
X20578095Y33775477D01*
X20530476Y33965953D01*
X20530476Y34299286D01*
X20578095Y34489762D01*
X20673333Y34585000D01*
X20768571Y34632620D01*
X21625714Y33632620D02*
X21625714Y34632620D01*
X21863809Y34632620D01*
X22006666Y34585000D01*
X22101904Y34489762D01*
X22149523Y34394524D01*
X22197142Y34204048D01*
X22197142Y34061191D01*
X22149523Y33870715D01*
X22101904Y33775477D01*
X22006666Y33680239D01*
X21863809Y33632620D01*
X21625714Y33632620D01*
X22625714Y34156429D02*
X22959047Y34156429D01*
X23101904Y33632620D02*
X22625714Y33632620D01*
X22625714Y34632620D01*
X23101904Y34632620D01*
X24101904Y33632620D02*
X23768571Y34108810D01*
X23530476Y33632620D02*
X23530476Y34632620D01*
X23911428Y34632620D01*
X24006666Y34585000D01*
X24054285Y34537381D01*
X24101904Y34442143D01*
X24101904Y34299286D01*
X24054285Y34204048D01*
X24006666Y34156429D01*
X23911428Y34108810D01*
X23530476Y34108810D01*
X20292380Y26341667D02*
X21006666Y26341667D01*
X21149523Y26294048D01*
X21244761Y26198810D01*
X21292380Y26055953D01*
X21292380Y25960715D01*
X21292380Y27341667D02*
X21292380Y26770239D01*
X21292380Y27055953D02*
X20292380Y27055953D01*
X20435238Y26960715D01*
X20530476Y26865477D01*
X20578095Y26770239D01*
%TO.C,P1*%
X34853809Y6151620D02*
X34853809Y7151620D01*
X35234761Y7151620D01*
X35330000Y7104000D01*
X35377619Y7056381D01*
X35425238Y6961143D01*
X35425238Y6818286D01*
X35377619Y6723048D01*
X35330000Y6675429D01*
X35234761Y6627810D01*
X34853809Y6627810D01*
X35996666Y6151620D02*
X35901428Y6199239D01*
X35853809Y6246858D01*
X35806190Y6342096D01*
X35806190Y6627810D01*
X35853809Y6723048D01*
X35901428Y6770667D01*
X35996666Y6818286D01*
X36139523Y6818286D01*
X36234761Y6770667D01*
X36282380Y6723048D01*
X36330000Y6627810D01*
X36330000Y6342096D01*
X36282380Y6246858D01*
X36234761Y6199239D01*
X36139523Y6151620D01*
X35996666Y6151620D01*
X36663333Y6818286D02*
X36853809Y6151620D01*
X37044285Y6627810D01*
X37234761Y6151620D01*
X37425238Y6818286D01*
X38187142Y6199239D02*
X38091904Y6151620D01*
X37901428Y6151620D01*
X37806190Y6199239D01*
X37758571Y6294477D01*
X37758571Y6675429D01*
X37806190Y6770667D01*
X37901428Y6818286D01*
X38091904Y6818286D01*
X38187142Y6770667D01*
X38234761Y6675429D01*
X38234761Y6580191D01*
X37758571Y6484953D01*
X38663333Y6151620D02*
X38663333Y6818286D01*
X38663333Y6627810D02*
X38710952Y6723048D01*
X38758571Y6770667D01*
X38853809Y6818286D01*
X38949047Y6818286D01*
%TO.C,P2*%
X54840476Y6437334D02*
X55316666Y6437334D01*
X54745238Y6151620D02*
X55078571Y7151620D01*
X55411904Y6151620D01*
X55745238Y6818286D02*
X55745238Y6151620D01*
X55745238Y6723048D02*
X55792857Y6770667D01*
X55888095Y6818286D01*
X56030952Y6818286D01*
X56126190Y6770667D01*
X56173809Y6675429D01*
X56173809Y6151620D01*
X57078571Y6151620D02*
X57078571Y6675429D01*
X57030952Y6770667D01*
X56935714Y6818286D01*
X56745238Y6818286D01*
X56650000Y6770667D01*
X57078571Y6199239D02*
X56983333Y6151620D01*
X56745238Y6151620D01*
X56650000Y6199239D01*
X56602380Y6294477D01*
X56602380Y6389715D01*
X56650000Y6484953D01*
X56745238Y6532572D01*
X56983333Y6532572D01*
X57078571Y6580191D01*
X57697619Y6151620D02*
X57602380Y6199239D01*
X57554761Y6294477D01*
X57554761Y7151620D01*
X58221428Y6151620D02*
X58126190Y6199239D01*
X58078571Y6246858D01*
X58030952Y6342096D01*
X58030952Y6627810D01*
X58078571Y6723048D01*
X58126190Y6770667D01*
X58221428Y6818286D01*
X58364285Y6818286D01*
X58459523Y6770667D01*
X58507142Y6723048D01*
X58554761Y6627810D01*
X58554761Y6342096D01*
X58507142Y6246858D01*
X58459523Y6199239D01*
X58364285Y6151620D01*
X58221428Y6151620D01*
X59411904Y6818286D02*
X59411904Y6008762D01*
X59364285Y5913524D01*
X59316666Y5865905D01*
X59221428Y5818286D01*
X59078571Y5818286D01*
X58983333Y5865905D01*
X59411904Y6199239D02*
X59316666Y6151620D01*
X59126190Y6151620D01*
X59030952Y6199239D01*
X58983333Y6246858D01*
X58935714Y6342096D01*
X58935714Y6627810D01*
X58983333Y6723048D01*
X59030952Y6770667D01*
X59126190Y6818286D01*
X59316666Y6818286D01*
X59411904Y6770667D01*
%TO.C,P4*%
X52419523Y46029620D02*
X52419523Y47029620D01*
X52657619Y47029620D01*
X52800476Y46982000D01*
X52895714Y46886762D01*
X52943333Y46791524D01*
X52990952Y46601048D01*
X52990952Y46458191D01*
X52943333Y46267715D01*
X52895714Y46172477D01*
X52800476Y46077239D01*
X52657619Y46029620D01*
X52419523Y46029620D01*
X53419523Y46029620D02*
X53419523Y46696286D01*
X53419523Y47029620D02*
X53371904Y46982000D01*
X53419523Y46934381D01*
X53467142Y46982000D01*
X53419523Y47029620D01*
X53419523Y46934381D01*
X54324285Y46696286D02*
X54324285Y45886762D01*
X54276666Y45791524D01*
X54229047Y45743905D01*
X54133809Y45696286D01*
X53990952Y45696286D01*
X53895714Y45743905D01*
X54324285Y46077239D02*
X54229047Y46029620D01*
X54038571Y46029620D01*
X53943333Y46077239D01*
X53895714Y46124858D01*
X53848095Y46220096D01*
X53848095Y46505810D01*
X53895714Y46601048D01*
X53943333Y46648667D01*
X54038571Y46696286D01*
X54229047Y46696286D01*
X54324285Y46648667D01*
X54800476Y46029620D02*
X54800476Y46696286D01*
X54800476Y47029620D02*
X54752857Y46982000D01*
X54800476Y46934381D01*
X54848095Y46982000D01*
X54800476Y47029620D01*
X54800476Y46934381D01*
X55133809Y46696286D02*
X55514761Y46696286D01*
X55276666Y47029620D02*
X55276666Y46172477D01*
X55324285Y46077239D01*
X55419523Y46029620D01*
X55514761Y46029620D01*
X56276666Y46029620D02*
X56276666Y46553429D01*
X56229047Y46648667D01*
X56133809Y46696286D01*
X55943333Y46696286D01*
X55848095Y46648667D01*
X56276666Y46077239D02*
X56181428Y46029620D01*
X55943333Y46029620D01*
X55848095Y46077239D01*
X55800476Y46172477D01*
X55800476Y46267715D01*
X55848095Y46362953D01*
X55943333Y46410572D01*
X56181428Y46410572D01*
X56276666Y46458191D01*
X56895714Y46029620D02*
X56800476Y46077239D01*
X56752857Y46172477D01*
X56752857Y47029620D01*
%TO.C,R1*%
X24114285Y10537620D02*
X24733333Y10537620D01*
X24400000Y10156667D01*
X24542857Y10156667D01*
X24638095Y10109048D01*
X24685714Y10061429D01*
X24733333Y9966191D01*
X24733333Y9728096D01*
X24685714Y9632858D01*
X24638095Y9585239D01*
X24542857Y9537620D01*
X24257142Y9537620D01*
X24161904Y9585239D01*
X24114285Y9632858D01*
X25066666Y10537620D02*
X25685714Y10537620D01*
X25352380Y10156667D01*
X25495238Y10156667D01*
X25590476Y10109048D01*
X25638095Y10061429D01*
X25685714Y9966191D01*
X25685714Y9728096D01*
X25638095Y9632858D01*
X25590476Y9585239D01*
X25495238Y9537620D01*
X25209523Y9537620D01*
X25114285Y9585239D01*
X25066666Y9632858D01*
X26304761Y10537620D02*
X26400000Y10537620D01*
X26495238Y10490000D01*
X26542857Y10442381D01*
X26590476Y10347143D01*
X26638095Y10156667D01*
X26638095Y9918572D01*
X26590476Y9728096D01*
X26542857Y9632858D01*
X26495238Y9585239D01*
X26400000Y9537620D01*
X26304761Y9537620D01*
X26209523Y9585239D01*
X26161904Y9632858D01*
X26114285Y9728096D01*
X26066666Y9918572D01*
X26066666Y10156667D01*
X26114285Y10347143D01*
X26161904Y10442381D01*
X26209523Y10490000D01*
X26304761Y10537620D01*
X25233333Y7167620D02*
X24900000Y7643810D01*
X24661904Y7167620D02*
X24661904Y8167620D01*
X25042857Y8167620D01*
X25138095Y8120000D01*
X25185714Y8072381D01*
X25233333Y7977143D01*
X25233333Y7834286D01*
X25185714Y7739048D01*
X25138095Y7691429D01*
X25042857Y7643810D01*
X24661904Y7643810D01*
X26185714Y7167620D02*
X25614285Y7167620D01*
X25900000Y7167620D02*
X25900000Y8167620D01*
X25804761Y8024762D01*
X25709523Y7929524D01*
X25614285Y7881905D01*
%TO.C,J6*%
X197380Y13271905D02*
X-802620Y13271905D01*
X-802620Y13652858D01*
X-755000Y13748096D01*
X-707381Y13795715D01*
X-612143Y13843334D01*
X-469286Y13843334D01*
X-374048Y13795715D01*
X-326429Y13748096D01*
X-278810Y13652858D01*
X-278810Y13271905D01*
X102142Y14843334D02*
X149761Y14795715D01*
X197380Y14652858D01*
X197380Y14557620D01*
X149761Y14414762D01*
X54523Y14319524D01*
X-40715Y14271905D01*
X-231191Y14224286D01*
X-374048Y14224286D01*
X-564524Y14271905D01*
X-659762Y14319524D01*
X-755000Y14414762D01*
X-802620Y14557620D01*
X-802620Y14652858D01*
X-755000Y14795715D01*
X-707381Y14843334D01*
X197380Y15271905D02*
X-802620Y15271905D01*
X-88334Y15605239D01*
X-802620Y15938572D01*
X197380Y15938572D01*
X-802620Y16890953D02*
X-802620Y16414762D01*
X-326429Y16367143D01*
X-374048Y16414762D01*
X-421667Y16510000D01*
X-421667Y16748096D01*
X-374048Y16843334D01*
X-326429Y16890953D01*
X-231191Y16938572D01*
X6904Y16938572D01*
X102142Y16890953D01*
X149761Y16843334D01*
X197380Y16748096D01*
X197380Y16510000D01*
X149761Y16414762D01*
X102142Y16367143D01*
X197380Y17890953D02*
X197380Y17319524D01*
X197380Y17605239D02*
X-802620Y17605239D01*
X-659762Y17510000D01*
X-564524Y17414762D01*
X-516905Y17319524D01*
X-802620Y18510000D02*
X-802620Y18605239D01*
X-755000Y18700477D01*
X-707381Y18748096D01*
X-612143Y18795715D01*
X-421667Y18843334D01*
X-183572Y18843334D01*
X6904Y18795715D01*
X102142Y18748096D01*
X149761Y18700477D01*
X197380Y18605239D01*
X197380Y18510000D01*
X149761Y18414762D01*
X102142Y18367143D01*
X6904Y18319524D01*
X-183572Y18271905D01*
X-421667Y18271905D01*
X-612143Y18319524D01*
X-707381Y18367143D01*
X-755000Y18414762D01*
X-802620Y18510000D01*
X-707381Y19224286D02*
X-755000Y19271905D01*
X-802620Y19367143D01*
X-802620Y19605239D01*
X-755000Y19700477D01*
X-707381Y19748096D01*
X-612143Y19795715D01*
X-516905Y19795715D01*
X-374048Y19748096D01*
X197380Y19176667D01*
X197380Y19795715D01*
X8531666Y17057620D02*
X8531666Y16343334D01*
X8484047Y16200477D01*
X8388809Y16105239D01*
X8245952Y16057620D01*
X8150714Y16057620D01*
X9436428Y17057620D02*
X9245952Y17057620D01*
X9150714Y17010000D01*
X9103095Y16962381D01*
X9007857Y16819524D01*
X8960238Y16629048D01*
X8960238Y16248096D01*
X9007857Y16152858D01*
X9055476Y16105239D01*
X9150714Y16057620D01*
X9341190Y16057620D01*
X9436428Y16105239D01*
X9484047Y16152858D01*
X9531666Y16248096D01*
X9531666Y16486191D01*
X9484047Y16581429D01*
X9436428Y16629048D01*
X9341190Y16676667D01*
X9150714Y16676667D01*
X9055476Y16629048D01*
X9007857Y16581429D01*
X8960238Y16486191D01*
%TO.C,J3*%
X57143571Y15855239D02*
X57286428Y15807620D01*
X57524523Y15807620D01*
X57619761Y15855239D01*
X57667380Y15902858D01*
X57715000Y15998096D01*
X57715000Y16093334D01*
X57667380Y16188572D01*
X57619761Y16236191D01*
X57524523Y16283810D01*
X57334047Y16331429D01*
X57238809Y16379048D01*
X57191190Y16426667D01*
X57143571Y16521905D01*
X57143571Y16617143D01*
X57191190Y16712381D01*
X57238809Y16760000D01*
X57334047Y16807620D01*
X57572142Y16807620D01*
X57715000Y16760000D01*
X58000714Y16807620D02*
X58572142Y16807620D01*
X58286428Y15807620D02*
X58286428Y16807620D01*
X58810238Y16807620D02*
X59476904Y16807620D01*
X59048333Y15807620D01*
X59762619Y16807620D02*
X60429285Y16807620D01*
X60000714Y15807620D01*
X60953095Y16379048D02*
X60857857Y16426667D01*
X60810238Y16474286D01*
X60762619Y16569524D01*
X60762619Y16617143D01*
X60810238Y16712381D01*
X60857857Y16760000D01*
X60953095Y16807620D01*
X61143571Y16807620D01*
X61238809Y16760000D01*
X61286428Y16712381D01*
X61334047Y16617143D01*
X61334047Y16569524D01*
X61286428Y16474286D01*
X61238809Y16426667D01*
X61143571Y16379048D01*
X60953095Y16379048D01*
X60857857Y16331429D01*
X60810238Y16283810D01*
X60762619Y16188572D01*
X60762619Y15998096D01*
X60810238Y15902858D01*
X60857857Y15855239D01*
X60953095Y15807620D01*
X61143571Y15807620D01*
X61238809Y15855239D01*
X61286428Y15902858D01*
X61334047Y15998096D01*
X61334047Y16188572D01*
X61286428Y16283810D01*
X61238809Y16331429D01*
X61143571Y16379048D01*
X61810238Y15807620D02*
X62000714Y15807620D01*
X62095952Y15855239D01*
X62143571Y15902858D01*
X62238809Y16045715D01*
X62286428Y16236191D01*
X62286428Y16617143D01*
X62238809Y16712381D01*
X62191190Y16760000D01*
X62095952Y16807620D01*
X61905476Y16807620D01*
X61810238Y16760000D01*
X61762619Y16712381D01*
X61715000Y16617143D01*
X61715000Y16379048D01*
X61762619Y16283810D01*
X61810238Y16236191D01*
X61905476Y16188572D01*
X62095952Y16188572D01*
X62191190Y16236191D01*
X62238809Y16283810D01*
X62286428Y16379048D01*
X59167380Y26316667D02*
X59881666Y26316667D01*
X60024523Y26269048D01*
X60119761Y26173810D01*
X60167380Y26030953D01*
X60167380Y25935715D01*
X59167380Y26697620D02*
X59167380Y27316667D01*
X59548333Y26983334D01*
X59548333Y27126191D01*
X59595952Y27221429D01*
X59643571Y27269048D01*
X59738809Y27316667D01*
X59976904Y27316667D01*
X60072142Y27269048D01*
X60119761Y27221429D01*
X60167380Y27126191D01*
X60167380Y26840477D01*
X60119761Y26745239D01*
X60072142Y26697620D01*
%TO.C,R2*%
X24114285Y15617620D02*
X24733333Y15617620D01*
X24400000Y15236667D01*
X24542857Y15236667D01*
X24638095Y15189048D01*
X24685714Y15141429D01*
X24733333Y15046191D01*
X24733333Y14808096D01*
X24685714Y14712858D01*
X24638095Y14665239D01*
X24542857Y14617620D01*
X24257142Y14617620D01*
X24161904Y14665239D01*
X24114285Y14712858D01*
X25066666Y15617620D02*
X25685714Y15617620D01*
X25352380Y15236667D01*
X25495238Y15236667D01*
X25590476Y15189048D01*
X25638095Y15141429D01*
X25685714Y15046191D01*
X25685714Y14808096D01*
X25638095Y14712858D01*
X25590476Y14665239D01*
X25495238Y14617620D01*
X25209523Y14617620D01*
X25114285Y14665239D01*
X25066666Y14712858D01*
X26304761Y15617620D02*
X26400000Y15617620D01*
X26495238Y15570000D01*
X26542857Y15522381D01*
X26590476Y15427143D01*
X26638095Y15236667D01*
X26638095Y14998572D01*
X26590476Y14808096D01*
X26542857Y14712858D01*
X26495238Y14665239D01*
X26400000Y14617620D01*
X26304761Y14617620D01*
X26209523Y14665239D01*
X26161904Y14712858D01*
X26114285Y14808096D01*
X26066666Y14998572D01*
X26066666Y15236667D01*
X26114285Y15427143D01*
X26161904Y15522381D01*
X26209523Y15570000D01*
X26304761Y15617620D01*
X25233333Y12247620D02*
X24900000Y12723810D01*
X24661904Y12247620D02*
X24661904Y13247620D01*
X25042857Y13247620D01*
X25138095Y13200000D01*
X25185714Y13152381D01*
X25233333Y13057143D01*
X25233333Y12914286D01*
X25185714Y12819048D01*
X25138095Y12771429D01*
X25042857Y12723810D01*
X24661904Y12723810D01*
X25614285Y13152381D02*
X25661904Y13200000D01*
X25757142Y13247620D01*
X25995238Y13247620D01*
X26090476Y13200000D01*
X26138095Y13152381D01*
X26185714Y13057143D01*
X26185714Y12961905D01*
X26138095Y12819048D01*
X25566666Y12247620D01*
X26185714Y12247620D01*
%TO.C,J4*%
X37766666Y8167620D02*
X37766666Y7453334D01*
X37719047Y7310477D01*
X37623809Y7215239D01*
X37480952Y7167620D01*
X37385714Y7167620D01*
X38671428Y7834286D02*
X38671428Y7167620D01*
X38433333Y8215239D02*
X38195238Y7500953D01*
X38814285Y7500953D01*
%TO.C,J7*%
X65292380Y40489524D02*
X65292380Y41060953D01*
X66292380Y40775239D02*
X65292380Y40775239D01*
X65768571Y41727620D02*
X65768571Y41394286D01*
X66292380Y41394286D02*
X65292380Y41394286D01*
X65292380Y41870477D01*
X65292380Y42108572D02*
X65292380Y42680000D01*
X66292380Y42394286D02*
X65292380Y42394286D01*
X66387619Y42775239D02*
X66387619Y43537143D01*
X66244761Y43727620D02*
X66292380Y43870477D01*
X66292380Y44108572D01*
X66244761Y44203810D01*
X66197142Y44251429D01*
X66101904Y44299048D01*
X66006666Y44299048D01*
X65911428Y44251429D01*
X65863809Y44203810D01*
X65816190Y44108572D01*
X65768571Y43918096D01*
X65720952Y43822858D01*
X65673333Y43775239D01*
X65578095Y43727620D01*
X65482857Y43727620D01*
X65387619Y43775239D01*
X65340000Y43822858D01*
X65292380Y43918096D01*
X65292380Y44156191D01*
X65340000Y44299048D01*
X66292380Y44727620D02*
X65292380Y44727620D01*
X65292380Y45108572D01*
X65340000Y45203810D01*
X65387619Y45251429D01*
X65482857Y45299048D01*
X65625714Y45299048D01*
X65720952Y45251429D01*
X65768571Y45203810D01*
X65816190Y45108572D01*
X65816190Y44727620D01*
X66292380Y45727620D02*
X65292380Y45727620D01*
X53016666Y43727620D02*
X53016666Y43013334D01*
X52969047Y42870477D01*
X52873809Y42775239D01*
X52730952Y42727620D01*
X52635714Y42727620D01*
X53397619Y43727620D02*
X54064285Y43727620D01*
X53635714Y42727620D01*
%TO.C,J2*%
X22511666Y43727620D02*
X22511666Y43013334D01*
X22464047Y42870477D01*
X22368809Y42775239D01*
X22225952Y42727620D01*
X22130714Y42727620D01*
X22940238Y43632381D02*
X22987857Y43680000D01*
X23083095Y43727620D01*
X23321190Y43727620D01*
X23416428Y43680000D01*
X23464047Y43632381D01*
X23511666Y43537143D01*
X23511666Y43441905D01*
X23464047Y43299048D01*
X22892619Y42727620D01*
X23511666Y42727620D01*
%TO.C,J5*%
X59142380Y12366667D02*
X59856666Y12366667D01*
X59999523Y12319048D01*
X60094761Y12223810D01*
X60142380Y12080953D01*
X60142380Y11985715D01*
X59142380Y13319048D02*
X59142380Y12842858D01*
X59618571Y12795239D01*
X59570952Y12842858D01*
X59523333Y12938096D01*
X59523333Y13176191D01*
X59570952Y13271429D01*
X59618571Y13319048D01*
X59713809Y13366667D01*
X59951904Y13366667D01*
X60047142Y13319048D01*
X60094761Y13271429D01*
X60142380Y13176191D01*
X60142380Y12938096D01*
X60094761Y12842858D01*
X60047142Y12795239D01*
D12*
%TO.C,J1*%
X22110000Y33025000D02*
X22110000Y20960000D01*
X22110000Y20960000D02*
X21475000Y20325000D01*
X19570000Y20325000D02*
X19570000Y33025000D01*
X21475000Y20325000D02*
X19570000Y20325000D01*
X19570000Y33025000D02*
X22110000Y33025000D01*
%TO.C,R1*%
X30480000Y7620000D02*
X28550000Y7620000D01*
X20320000Y7620000D02*
X22250000Y7620000D01*
X22250000Y6370000D02*
X28550000Y6370000D01*
X28550000Y8870000D02*
X22250000Y8870000D01*
X22250000Y8870000D02*
X22250000Y6370000D01*
X28550000Y6370000D02*
X28550000Y8870000D01*
%TO.C,J6*%
X1245000Y17780000D02*
X16485000Y17780000D01*
X15850000Y15240000D02*
X1245000Y15240000D01*
X1245000Y15240000D02*
X1245000Y17780000D01*
X16485000Y15875000D02*
X15850000Y15240000D01*
X16485000Y17780000D02*
X16485000Y15875000D01*
%TO.C,J3*%
X60350000Y35540000D02*
X60985000Y34905000D01*
X58445000Y17760000D02*
X58445000Y35540000D01*
X60985000Y17760000D02*
X58445000Y17760000D01*
X58445000Y35540000D02*
X60350000Y35540000D01*
X60985000Y34905000D02*
X60985000Y17760000D01*
%TO.C,R2*%
X28550000Y11450000D02*
X28550000Y13950000D01*
X30480000Y12700000D02*
X28550000Y12700000D01*
X22250000Y11450000D02*
X28550000Y11450000D01*
X22250000Y13950000D02*
X22250000Y11450000D01*
X20320000Y12700000D02*
X22250000Y12700000D01*
X28550000Y13950000D02*
X22250000Y13950000D01*
%TO.C,J4*%
X41910000Y8890000D02*
X41910000Y6350000D01*
X41910000Y6350000D02*
X34925000Y6350000D01*
X34925000Y6350000D02*
X34290000Y6985000D01*
X34290000Y6985000D02*
X34290000Y8890000D01*
X34290000Y8890000D02*
X41910000Y8890000D01*
%TO.C,J7*%
X41920000Y42545000D02*
X41920000Y44450000D01*
X64780000Y41910000D02*
X42555000Y41910000D01*
X42555000Y41910000D02*
X41920000Y42545000D01*
X64780000Y44450000D02*
X64780000Y41910000D01*
X41920000Y44450000D02*
X64780000Y44450000D01*
%TO.C,J2*%
X19035000Y41910000D02*
X19035000Y44450000D01*
X26655000Y43815000D02*
X26655000Y41910000D01*
X26655000Y41910000D02*
X19035000Y41910000D01*
X26020000Y44450000D02*
X26655000Y43815000D01*
X19035000Y44450000D02*
X26020000Y44450000D01*
%TO.C,J5*%
X58420000Y14605000D02*
X59055000Y15240000D01*
X58420000Y10160000D02*
X58420000Y14605000D01*
X60960000Y15240000D02*
X60960000Y10160000D01*
X59055000Y15240000D02*
X60960000Y15240000D01*
X60960000Y10160000D02*
X58420000Y10160000D01*
%TD*%
M02*
