%TF.GenerationSoftware,KiCad,Pcbnew,(6.0.5-0)*%
%TF.CreationDate,2022-05-20T22:36:50+09:00*%
%TF.ProjectId,esp32_internet_radio_v4,65737033-325f-4696-9e74-65726e65745f,rev?*%
%TF.SameCoordinates,PX69db1f0PY7882d48*%
%TF.FileFunction,Copper,L2,Bot*%
%TF.FilePolarity,Positive*%
%FSLAX46Y46*%
G04 Gerber Fmt 4.6, Leading zero omitted, Abs format (unit mm)*
G04 Created by KiCad (PCBNEW (6.0.5-0)) date 2022-05-20 22:36:50*
%MOMM*%
%LPD*%
G01*
G04 APERTURE LIST*
%TA.AperFunction,Profile*%
%ADD10C,0.150000*%
%TD*%
%TA.AperFunction,ComponentPad*%
%ADD11R,1.700000X1.700000*%
%TD*%
%TA.AperFunction,ComponentPad*%
%ADD12O,1.700000X1.700000*%
%TD*%
%TA.AperFunction,ComponentPad*%
%ADD13O,1.727200X2.032000*%
%TD*%
%TA.AperFunction,ComponentPad*%
%ADD14C,4.064000*%
%TD*%
%TA.AperFunction,ComponentPad*%
%ADD15C,1.600000*%
%TD*%
%TA.AperFunction,ComponentPad*%
%ADD16O,1.600000X1.600000*%
%TD*%
%TA.AperFunction,ViaPad*%
%ADD17C,0.600000*%
%TD*%
%TA.AperFunction,Conductor*%
%ADD18C,0.500000*%
%TD*%
G04 APERTURE END LIST*
D10*
X68580000Y37846000D02*
X66040000Y40386000D01*
X66040000Y0D02*
X66040000Y2540000D01*
X66040000Y51816000D02*
X64516000Y53340000D01*
X66040000Y2540000D02*
X68580000Y5080000D01*
X0Y53340000D02*
X0Y0D01*
X68580000Y5080000D02*
X68580000Y37846000D01*
X0Y0D02*
X66040000Y0D01*
X64516000Y53340000D02*
X0Y53340000D01*
X66040000Y40386000D02*
X66040000Y51816000D01*
D11*
%TO.P,J1,1,Pin_1*%
%TO.N,ENCODER_CLK*%
X20840000Y21595000D03*
D12*
%TO.P,J1,2,Pin_2*%
%TO.N,ENCODER_DT*%
X20840000Y24135000D03*
%TO.P,J1,3,Pin_3*%
%TO.N,ENCODER_SWITCH*%
X20840000Y26675000D03*
%TO.P,J1,4,Pin_4*%
%TO.N,ESPDUINO_3.3V*%
X20840000Y29215000D03*
%TO.P,J1,5,Pin_5*%
%TO.N,ENCODER_GND*%
X20840000Y31755000D03*
%TD*%
D13*
%TO.P,P1,1,Pin_1*%
%TO.N,ESPDUINO_IO0*%
X27940000Y2540000D03*
%TO.P,P1,2,Pin_2*%
%TO.N,/IOREF*%
X30480000Y2540000D03*
%TO.P,P1,3,Pin_3*%
%TO.N,RESET*%
X33020000Y2540000D03*
%TO.P,P1,4,Pin_4*%
%TO.N,ESPDUINO_3.3V*%
X35560000Y2540000D03*
%TO.P,P1,5,Pin_5*%
%TO.N,ESPDUINO_5V*%
X38100000Y2540000D03*
%TO.P,P1,6,Pin_6*%
%TO.N,ENCODER_GND*%
X40640000Y2540000D03*
%TO.P,P1,7,Pin_7*%
X43180000Y2540000D03*
%TO.P,P1,8,Pin_8*%
%TO.N,/Vin*%
X45720000Y2540000D03*
%TD*%
%TO.P,P2,1,Pin_1*%
%TO.N,ESPDUINO_IO2*%
X50800000Y2540000D03*
%TO.P,P2,2,Pin_2*%
%TO.N,ESPDUINO_IO4*%
X53340000Y2540000D03*
%TO.P,P2,3,Pin_3*%
%TO.N,ENCODER_CLK*%
X55880000Y2540000D03*
%TO.P,P2,4,Pin_4*%
%TO.N,ESPDUINO_IO34*%
X58420000Y2540000D03*
%TO.P,P2,5,Pin_5*%
%TO.N,ESPDUINO_IO36*%
X60960000Y2540000D03*
%TO.P,P2,6,Pin_6*%
%TO.N,ENCODER_DT*%
X63500000Y2540000D03*
%TD*%
%TO.P,P3,1,Pin_1*%
%TO.N,unconnected-(P3-Pad1)*%
X18796000Y50800000D03*
%TO.P,P3,2,Pin_2*%
%TO.N,unconnected-(P3-Pad2)*%
X21336000Y50800000D03*
%TO.P,P3,3,Pin_3*%
%TO.N,/AREF*%
X23876000Y50800000D03*
%TO.P,P3,4,Pin_4*%
%TO.N,ENCODER_GND*%
X26416000Y50800000D03*
%TO.P,P3,5,Pin_5*%
%TO.N,ESPDUINO_IO18*%
X28956000Y50800000D03*
%TO.P,P3,6,Pin_6*%
%TO.N,ESPDUINO_IO19*%
X31496000Y50800000D03*
%TO.P,P3,7,Pin_7*%
%TO.N,ESPDUINO_IO23*%
X34036000Y50800000D03*
%TO.P,P3,8,Pin_8*%
%TO.N,ESPDUINO_IO5*%
X36576000Y50800000D03*
%TO.P,P3,9,Pin_9*%
%TO.N,ESPDUINO_IO13*%
X39116000Y50800000D03*
%TO.P,P3,10,Pin_10*%
%TO.N,ESPDUINO_IO12*%
X41656000Y50800000D03*
%TD*%
%TO.P,P4,1,Pin_1*%
%TO.N,ESPDUINO_IO14*%
X45720000Y50800000D03*
%TO.P,P4,2,Pin_2*%
%TO.N,ESPDUINO_IO27*%
X48260000Y50800000D03*
%TO.P,P4,3,Pin_3*%
%TO.N,ESPDUINO_IO16*%
X50800000Y50800000D03*
%TO.P,P4,4,Pin_4*%
%TO.N,ENCODER_SWITCH*%
X53340000Y50800000D03*
%TO.P,P4,5,Pin_5*%
%TO.N,ESPDUINO_IO25*%
X55880000Y50800000D03*
%TO.P,P4,6,Pin_6*%
%TO.N,ESPDUINO_IO26*%
X58420000Y50800000D03*
%TO.P,P4,7,Pin_7*%
%TO.N,ESPDUINO_TX*%
X60960000Y50800000D03*
%TO.P,P4,8,Pin_8*%
%TO.N,ESPDUINO_RX*%
X63500000Y50800000D03*
%TD*%
D14*
%TO.P,P5,1,Pin_1*%
%TO.N,unconnected-(P5-Pad1)*%
X13970000Y2540000D03*
%TD*%
%TO.P,P6,1,Pin_1*%
%TO.N,unconnected-(P6-Pad1)*%
X66040000Y7620000D03*
%TD*%
%TO.P,P7,1,Pin_1*%
%TO.N,unconnected-(P7-Pad1)*%
X15240000Y50800000D03*
%TD*%
%TO.P,P8,1,Pin_1*%
%TO.N,unconnected-(P8-Pad1)*%
X66040000Y35560000D03*
%TD*%
D15*
%TO.P,R1,1*%
%TO.N,ESPDUINO_3.3V*%
X30480000Y7620000D03*
D16*
%TO.P,R1,2*%
%TO.N,ESPDUINO_IO0*%
X20320000Y7620000D03*
%TD*%
D11*
%TO.P,J6,1,Pin_1*%
%TO.N,PCM5102_SCK*%
X15215000Y16510000D03*
D12*
%TO.P,J6,2,Pin_2*%
%TO.N,ESPDUINO_IO27*%
X12675000Y16510000D03*
%TO.P,J6,3,Pin_3*%
%TO.N,ESPDUINO_IO25*%
X10135000Y16510000D03*
%TO.P,J6,4,Pin_4*%
%TO.N,ESPDUINO_IO26*%
X7595000Y16510000D03*
%TO.P,J6,5,Pin_5*%
%TO.N,ENCODER_GND*%
X5055000Y16510000D03*
%TO.P,J6,6,Pin_6*%
%TO.N,ESPDUINO_3.3V*%
X2515000Y16510000D03*
%TD*%
D11*
%TO.P,J3,1,Pin_1*%
%TO.N,ENCODER_GND*%
X59715000Y34270000D03*
D12*
%TO.P,J3,2,Pin_2*%
%TO.N,ESPDUINO_3.3V*%
X59715000Y31730000D03*
%TO.P,J3,3,Pin_3*%
%TO.N,ESPDUINO_IO14*%
X59715000Y29190000D03*
%TO.P,J3,4,Pin_4*%
%TO.N,ESPDUINO_IO13*%
X59715000Y26650000D03*
%TO.P,J3,5,Pin_5*%
%TO.N,ESPDUINO_IO16*%
X59715000Y24110000D03*
%TO.P,J3,6,Pin_6*%
%TO.N,ESPDUINO_IO5*%
X59715000Y21570000D03*
%TO.P,J3,7,Pin_7*%
%TO.N,ST7789_BLK*%
X59715000Y19030000D03*
%TD*%
D15*
%TO.P,R2,1*%
%TO.N,ESPDUINO_3.3V*%
X30480000Y12700000D03*
D16*
%TO.P,R2,2*%
%TO.N,RESET*%
X20320000Y12700000D03*
%TD*%
D11*
%TO.P,J4,1,Pin_1*%
%TO.N,ESPDUINO_IO15*%
X35560000Y7620000D03*
D12*
%TO.P,J4,2,Pin_2*%
%TO.N,ESPDUINO_IO33*%
X38100000Y7620000D03*
%TO.P,J4,3,Pin_3*%
%TO.N,ESPDUINO_IO32*%
X40640000Y7620000D03*
%TD*%
D11*
%TO.P,J7,1,Pin_1*%
%TO.N,TFT_MISO*%
X43190000Y43180000D03*
D12*
%TO.P,J7,2,Pin_2*%
%TO.N,ESPDUINO_3.3V*%
X45730000Y43180000D03*
%TO.P,J7,3,Pin_3*%
%TO.N,ESPDUINO_IO18*%
X48270000Y43180000D03*
%TO.P,J7,4,Pin_4*%
%TO.N,ESPDUINO_IO23*%
X50810000Y43180000D03*
%TO.P,J7,5,Pin_5*%
%TO.N,ESPDUINO_IO2*%
X53350000Y43180000D03*
%TO.P,J7,6,Pin_6*%
%TO.N,ESPDUINO_IO4*%
X55890000Y43180000D03*
%TO.P,J7,7,Pin_7*%
%TO.N,ENCODER_GND*%
X58430000Y43180000D03*
%TO.P,J7,8,Pin_8*%
X60970000Y43180000D03*
%TO.P,J7,9,Pin_9*%
%TO.N,ESPDUINO_3.3V*%
X63510000Y43180000D03*
%TD*%
D11*
%TO.P,J2,1,Pin_1*%
%TO.N,ESPDUINO_5V*%
X25385000Y43180000D03*
D12*
%TO.P,J2,2,Pin_2*%
%TO.N,ESPDUINO_IO19*%
X22845000Y43180000D03*
%TO.P,J2,3,Pin_3*%
%TO.N,ENCODER_GND*%
X20305000Y43180000D03*
%TD*%
D11*
%TO.P,J5,1,Pin_1*%
%TO.N,POWER_IN_5V_VCC*%
X59690000Y13970000D03*
D12*
%TO.P,J5,2,Pin_2*%
%TO.N,ENCODER_GND*%
X59690000Y11430000D03*
%TD*%
D17*
%TO.N,ESPDUINO_IO26*%
X45103000Y44863000D03*
%TO.N,ESPDUINO_IO25*%
X26271800Y19094900D03*
%TO.N,ESPDUINO_IO27*%
X26224800Y21176100D03*
%TO.N,ESPDUINO_IO14*%
X40409200Y41737300D03*
%TO.N,ESPDUINO_IO13*%
X39746500Y39756600D03*
%TO.N,ESPDUINO_IO5*%
X39857800Y37406300D03*
%TO.N,ENCODER_SWITCH*%
X38649800Y41396000D03*
%TD*%
D18*
%TO.N,ESPDUINO_3.3V*%
X4631300Y18626300D02*
X2515000Y16510000D01*
X19473700Y18626300D02*
X4631300Y18626300D01*
X19473700Y27848700D02*
X19473700Y18626300D01*
X20840000Y29215000D02*
X19473700Y27848700D01*
X19473700Y18626300D02*
X30480000Y7620000D01*
X35560000Y2540000D02*
X30480000Y7620000D01*
%TO.N,ESPDUINO_IO26*%
X52483000Y44863000D02*
X45103000Y44863000D01*
X58420000Y50800000D02*
X52483000Y44863000D01*
%TO.N,ESPDUINO_IO25*%
X41889500Y34712600D02*
X26271800Y19094900D01*
X41889500Y44281100D02*
X41889500Y34712600D01*
X44809200Y47200800D02*
X41889500Y44281100D01*
X52280800Y47200800D02*
X44809200Y47200800D01*
X55880000Y50800000D02*
X52280800Y47200800D01*
%TO.N,ESPDUINO_IO27*%
X41189100Y36140400D02*
X26224800Y21176100D01*
X41189100Y44571200D02*
X41189100Y36140400D01*
X45949900Y49332000D02*
X41189100Y44571200D01*
X46792000Y49332000D02*
X45949900Y49332000D01*
X48260000Y50800000D02*
X46792000Y49332000D01*
%TO.N,ESPDUINO_IO14*%
X44406100Y49486100D02*
X44406100Y50800000D01*
X40409200Y45489200D02*
X44406100Y49486100D01*
X40409200Y41737300D02*
X40409200Y45489200D01*
X45720000Y50800000D02*
X44406100Y50800000D01*
%TO.N,ESPDUINO_IO13*%
X39116000Y50800000D02*
X39116000Y49333700D01*
X39746500Y39756700D02*
X39746500Y39756600D01*
X39228000Y39756700D02*
X39746500Y39756700D01*
X37899500Y41085200D02*
X39228000Y39756700D01*
X37899500Y48117200D02*
X37899500Y41085200D01*
X39116000Y49333700D02*
X37899500Y48117200D01*
%TO.N,ESPDUINO_IO5*%
X36576000Y40688100D02*
X36576000Y50800000D01*
X39857800Y37406300D02*
X36576000Y40688100D01*
%TO.N,ESPDUINO_IO19*%
X28805700Y48109700D02*
X31496000Y50800000D01*
X27774700Y48109700D02*
X28805700Y48109700D01*
X22845000Y43180000D02*
X27774700Y48109700D01*
%TO.N,ENCODER_SWITCH*%
X38649800Y45755800D02*
X38649800Y41396000D01*
X43263100Y50369100D02*
X38649800Y45755800D01*
X43263100Y50706800D02*
X43263100Y50369100D01*
X44840600Y52284300D02*
X43263100Y50706800D01*
X51855700Y52284300D02*
X44840600Y52284300D01*
X53340000Y50800000D02*
X51855700Y52284300D01*
%TO.N,ESPDUINO_IO4*%
X55890000Y43180000D02*
X55890000Y41879700D01*
X53340000Y39329700D02*
X55890000Y41879700D01*
X53340000Y2540000D02*
X53340000Y39329700D01*
%TO.N,ESPDUINO_IO2*%
X50800000Y39329700D02*
X50800000Y2540000D01*
X53350000Y41879700D02*
X50800000Y39329700D01*
X53350000Y43180000D02*
X53350000Y41879700D01*
%TO.N,RESET*%
X22860000Y12700000D02*
X33020000Y2540000D01*
X20320000Y12700000D02*
X22860000Y12700000D01*
%TO.N,ESPDUINO_5V*%
X25385000Y43180000D02*
X25385000Y41879700D01*
X25385000Y15255000D02*
X25385000Y41879700D01*
X38100000Y2540000D02*
X25385000Y15255000D01*
%TD*%
%TA.AperFunction,Conductor*%
%TO.N,ENCODER_GND*%
G36*
X13441997Y52811498D02*
G01*
X13488490Y52757842D01*
X13498594Y52687568D01*
X13469100Y52622988D01*
X13460129Y52613650D01*
X13384394Y52542530D01*
X13180629Y52296221D01*
X13178505Y52292874D01*
X13178502Y52292870D01*
X13111830Y52187812D01*
X13009341Y52026315D01*
X13007657Y52022736D01*
X13007653Y52022729D01*
X12904875Y51804313D01*
X12873233Y51737070D01*
X12872007Y51733298D01*
X12872007Y51733297D01*
X12870107Y51727449D01*
X12774449Y51433046D01*
X12714549Y51119039D01*
X12694477Y50800000D01*
X12714549Y50480961D01*
X12774449Y50166954D01*
X12775676Y50163178D01*
X12870201Y49872263D01*
X12873233Y49862930D01*
X12874920Y49859344D01*
X12874922Y49859340D01*
X13007653Y49577271D01*
X13007657Y49577264D01*
X13009341Y49573685D01*
X13011465Y49570339D01*
X13011465Y49570338D01*
X13171914Y49317512D01*
X13180629Y49303779D01*
X13282512Y49180624D01*
X13365325Y49080521D01*
X13384394Y49057470D01*
X13617423Y48838641D01*
X13620625Y48836314D01*
X13620627Y48836313D01*
X13697071Y48780773D01*
X13876041Y48650744D01*
X13879510Y48648837D01*
X13879513Y48648835D01*
X14083677Y48536595D01*
X14156169Y48496742D01*
X14318083Y48432636D01*
X14449707Y48380522D01*
X14449710Y48380521D01*
X14453390Y48379064D01*
X14457224Y48378080D01*
X14457232Y48378077D01*
X14649153Y48328800D01*
X14763017Y48299565D01*
X14766945Y48299069D01*
X14766949Y48299068D01*
X14892642Y48283190D01*
X15080165Y48259500D01*
X15399835Y48259500D01*
X15587358Y48283190D01*
X15713051Y48299068D01*
X15713055Y48299069D01*
X15716983Y48299565D01*
X15830847Y48328800D01*
X16022768Y48378077D01*
X16022776Y48378080D01*
X16026610Y48379064D01*
X16030290Y48380521D01*
X16030293Y48380522D01*
X16161917Y48432636D01*
X16323831Y48496742D01*
X16396324Y48536595D01*
X16600487Y48648835D01*
X16600490Y48648837D01*
X16603959Y48650744D01*
X16782929Y48780773D01*
X16859373Y48836313D01*
X16859375Y48836314D01*
X16862577Y48838641D01*
X17095606Y49057470D01*
X17114676Y49080521D01*
X17197488Y49180624D01*
X17299371Y49303779D01*
X17308087Y49317512D01*
X17468535Y49570338D01*
X17468535Y49570339D01*
X17470659Y49573685D01*
X17472343Y49577264D01*
X17472347Y49577271D01*
X17542177Y49725668D01*
X17589280Y49778789D01*
X17657625Y49798012D01*
X17725512Y49777233D01*
X17747355Y49758992D01*
X17883532Y49616242D01*
X18070350Y49477246D01*
X18075102Y49474830D01*
X18272244Y49374598D01*
X18277916Y49371714D01*
X18364136Y49344942D01*
X18495193Y49304247D01*
X18495199Y49304246D01*
X18500296Y49302663D01*
X18624660Y49286180D01*
X18725848Y49272768D01*
X18725852Y49272768D01*
X18731132Y49272068D01*
X18736462Y49272268D01*
X18736463Y49272268D01*
X18847477Y49276436D01*
X18963822Y49280803D01*
X19068005Y49302663D01*
X19186486Y49327523D01*
X19186489Y49327524D01*
X19191713Y49328620D01*
X19408290Y49414150D01*
X19607359Y49534949D01*
X19611855Y49538850D01*
X19779197Y49684061D01*
X19779199Y49684063D01*
X19783230Y49687561D01*
X19786613Y49691687D01*
X19786617Y49691691D01*
X19885776Y49812626D01*
X19930872Y49867624D01*
X19956845Y49913252D01*
X20007927Y49962558D01*
X20077558Y49976420D01*
X20143629Y49950437D01*
X20170867Y49921287D01*
X20262804Y49784728D01*
X20266483Y49780871D01*
X20266485Y49780869D01*
X20351223Y49692041D01*
X20423532Y49616242D01*
X20610350Y49477246D01*
X20615102Y49474830D01*
X20812244Y49374598D01*
X20817916Y49371714D01*
X20904136Y49344942D01*
X21035193Y49304247D01*
X21035199Y49304246D01*
X21040296Y49302663D01*
X21164660Y49286180D01*
X21265848Y49272768D01*
X21265852Y49272768D01*
X21271132Y49272068D01*
X21276462Y49272268D01*
X21276463Y49272268D01*
X21387477Y49276436D01*
X21503822Y49280803D01*
X21608005Y49302663D01*
X21726486Y49327523D01*
X21726489Y49327524D01*
X21731713Y49328620D01*
X21948290Y49414150D01*
X22147359Y49534949D01*
X22151855Y49538850D01*
X22319197Y49684061D01*
X22319199Y49684063D01*
X22323230Y49687561D01*
X22326613Y49691687D01*
X22326617Y49691691D01*
X22425776Y49812626D01*
X22470872Y49867624D01*
X22496845Y49913252D01*
X22547927Y49962558D01*
X22617558Y49976420D01*
X22683629Y49950437D01*
X22710867Y49921287D01*
X22802804Y49784728D01*
X22806483Y49780871D01*
X22806485Y49780869D01*
X22891223Y49692041D01*
X22963532Y49616242D01*
X23150350Y49477246D01*
X23155102Y49474830D01*
X23352244Y49374598D01*
X23357916Y49371714D01*
X23444136Y49344942D01*
X23575193Y49304247D01*
X23575199Y49304246D01*
X23580296Y49302663D01*
X23704660Y49286180D01*
X23805848Y49272768D01*
X23805852Y49272768D01*
X23811132Y49272068D01*
X23816462Y49272268D01*
X23816463Y49272268D01*
X23927477Y49276436D01*
X24043822Y49280803D01*
X24148005Y49302663D01*
X24266486Y49327523D01*
X24266489Y49327524D01*
X24271713Y49328620D01*
X24488290Y49414150D01*
X24687359Y49534949D01*
X24691855Y49538850D01*
X24859197Y49684061D01*
X24859199Y49684063D01*
X24863230Y49687561D01*
X24866613Y49691687D01*
X24866617Y49691691D01*
X24965776Y49812626D01*
X25010872Y49867624D01*
X25037122Y49913739D01*
X25088202Y49963044D01*
X25157832Y49976906D01*
X25223904Y49950923D01*
X25251143Y49921773D01*
X25340215Y49789470D01*
X25346876Y49781184D01*
X25500180Y49620480D01*
X25508148Y49613431D01*
X25686336Y49480856D01*
X25695366Y49475257D01*
X25893347Y49374598D01*
X25903208Y49370595D01*
X26115301Y49304737D01*
X26125696Y49302452D01*
X26144041Y49300020D01*
X26158208Y49302217D01*
X26162000Y49315401D01*
X26162000Y52282488D01*
X26158027Y52296019D01*
X26147420Y52297544D01*
X26025657Y52271996D01*
X26015461Y52268936D01*
X25808903Y52187363D01*
X25799366Y52182629D01*
X25609497Y52067414D01*
X25600907Y52061150D01*
X25433163Y51915589D01*
X25425743Y51907959D01*
X25284927Y51736220D01*
X25278898Y51727449D01*
X25255467Y51686285D01*
X25204385Y51636978D01*
X25134755Y51623116D01*
X25068684Y51649099D01*
X25041445Y51678249D01*
X25005005Y51732376D01*
X24949196Y51815272D01*
X24924598Y51841058D01*
X24792152Y51979896D01*
X24788468Y51983758D01*
X24601650Y52122754D01*
X24474574Y52187363D01*
X24398842Y52225867D01*
X24398841Y52225867D01*
X24394084Y52228286D01*
X24261621Y52269417D01*
X24176807Y52295753D01*
X24176801Y52295754D01*
X24171704Y52297337D01*
X24047340Y52313820D01*
X23946152Y52327232D01*
X23946148Y52327232D01*
X23940868Y52327932D01*
X23935538Y52327732D01*
X23935537Y52327732D01*
X23824523Y52323564D01*
X23708178Y52319197D01*
X23625474Y52301844D01*
X23485514Y52272477D01*
X23485511Y52272476D01*
X23480287Y52271380D01*
X23263710Y52185850D01*
X23064641Y52065051D01*
X23060611Y52061554D01*
X22966075Y51979520D01*
X22888770Y51912439D01*
X22885387Y51908313D01*
X22885383Y51908309D01*
X22812262Y51819131D01*
X22741128Y51732376D01*
X22738490Y51727741D01*
X22738487Y51727737D01*
X22715155Y51686748D01*
X22664073Y51637442D01*
X22594442Y51623580D01*
X22528371Y51649563D01*
X22501133Y51678713D01*
X22412176Y51810845D01*
X22409196Y51815272D01*
X22384598Y51841058D01*
X22252152Y51979896D01*
X22248468Y51983758D01*
X22061650Y52122754D01*
X21934574Y52187363D01*
X21858842Y52225867D01*
X21858841Y52225867D01*
X21854084Y52228286D01*
X21721621Y52269417D01*
X21636807Y52295753D01*
X21636801Y52295754D01*
X21631704Y52297337D01*
X21507340Y52313820D01*
X21406152Y52327232D01*
X21406148Y52327232D01*
X21400868Y52327932D01*
X21395538Y52327732D01*
X21395537Y52327732D01*
X21284523Y52323564D01*
X21168178Y52319197D01*
X21085474Y52301844D01*
X20945514Y52272477D01*
X20945511Y52272476D01*
X20940287Y52271380D01*
X20723710Y52185850D01*
X20524641Y52065051D01*
X20520611Y52061554D01*
X20426075Y51979520D01*
X20348770Y51912439D01*
X20345387Y51908313D01*
X20345383Y51908309D01*
X20272262Y51819131D01*
X20201128Y51732376D01*
X20198490Y51727741D01*
X20198487Y51727737D01*
X20175155Y51686748D01*
X20124073Y51637442D01*
X20054442Y51623580D01*
X19988371Y51649563D01*
X19961133Y51678713D01*
X19872176Y51810845D01*
X19869196Y51815272D01*
X19844598Y51841058D01*
X19712152Y51979896D01*
X19708468Y51983758D01*
X19521650Y52122754D01*
X19394574Y52187363D01*
X19318842Y52225867D01*
X19318841Y52225867D01*
X19314084Y52228286D01*
X19181621Y52269417D01*
X19096807Y52295753D01*
X19096801Y52295754D01*
X19091704Y52297337D01*
X18967340Y52313820D01*
X18866152Y52327232D01*
X18866148Y52327232D01*
X18860868Y52327932D01*
X18855538Y52327732D01*
X18855537Y52327732D01*
X18744523Y52323564D01*
X18628178Y52319197D01*
X18545474Y52301844D01*
X18405514Y52272477D01*
X18405511Y52272476D01*
X18400287Y52271380D01*
X18183710Y52185850D01*
X17984641Y52065051D01*
X17980611Y52061554D01*
X17886075Y51979520D01*
X17808770Y51912439D01*
X17805384Y51908309D01*
X17805383Y51908308D01*
X17754489Y51846239D01*
X17695829Y51806244D01*
X17624859Y51804313D01*
X17564111Y51841058D01*
X17543047Y51872482D01*
X17472347Y52022729D01*
X17472343Y52022736D01*
X17470659Y52026315D01*
X17368170Y52187812D01*
X17301498Y52292870D01*
X17301495Y52292874D01*
X17299371Y52296221D01*
X17095606Y52542530D01*
X17019871Y52613650D01*
X16983906Y52674863D01*
X16986744Y52745803D01*
X17027484Y52803947D01*
X17093192Y52830835D01*
X17106124Y52831500D01*
X44010929Y52831500D01*
X44079050Y52811498D01*
X44125543Y52757842D01*
X44135647Y52687568D01*
X44106153Y52622988D01*
X44100024Y52616405D01*
X43064822Y51581203D01*
X43002510Y51547177D01*
X42931695Y51552242D01*
X42874859Y51594789D01*
X42864278Y51612724D01*
X42864026Y51612584D01*
X42861428Y51617252D01*
X42859238Y51622113D01*
X42729196Y51815272D01*
X42704598Y51841058D01*
X42572152Y51979896D01*
X42568468Y51983758D01*
X42381650Y52122754D01*
X42254574Y52187363D01*
X42178842Y52225867D01*
X42178841Y52225867D01*
X42174084Y52228286D01*
X42041621Y52269417D01*
X41956807Y52295753D01*
X41956801Y52295754D01*
X41951704Y52297337D01*
X41827340Y52313820D01*
X41726152Y52327232D01*
X41726148Y52327232D01*
X41720868Y52327932D01*
X41715538Y52327732D01*
X41715537Y52327732D01*
X41604523Y52323564D01*
X41488178Y52319197D01*
X41405474Y52301844D01*
X41265514Y52272477D01*
X41265511Y52272476D01*
X41260287Y52271380D01*
X41043710Y52185850D01*
X40844641Y52065051D01*
X40840611Y52061554D01*
X40746075Y51979520D01*
X40668770Y51912439D01*
X40665387Y51908313D01*
X40665383Y51908309D01*
X40592262Y51819131D01*
X40521128Y51732376D01*
X40518490Y51727741D01*
X40518487Y51727737D01*
X40495155Y51686748D01*
X40444073Y51637442D01*
X40374442Y51623580D01*
X40308371Y51649563D01*
X40281133Y51678713D01*
X40192176Y51810845D01*
X40189196Y51815272D01*
X40164598Y51841058D01*
X40032152Y51979896D01*
X40028468Y51983758D01*
X39841650Y52122754D01*
X39714574Y52187363D01*
X39638842Y52225867D01*
X39638841Y52225867D01*
X39634084Y52228286D01*
X39501621Y52269417D01*
X39416807Y52295753D01*
X39416801Y52295754D01*
X39411704Y52297337D01*
X39287340Y52313820D01*
X39186152Y52327232D01*
X39186148Y52327232D01*
X39180868Y52327932D01*
X39175538Y52327732D01*
X39175537Y52327732D01*
X39064523Y52323564D01*
X38948178Y52319197D01*
X38865474Y52301844D01*
X38725514Y52272477D01*
X38725511Y52272476D01*
X38720287Y52271380D01*
X38503710Y52185850D01*
X38304641Y52065051D01*
X38300611Y52061554D01*
X38206075Y51979520D01*
X38128770Y51912439D01*
X38125387Y51908313D01*
X38125383Y51908309D01*
X38052262Y51819131D01*
X37981128Y51732376D01*
X37978490Y51727741D01*
X37978487Y51727737D01*
X37955155Y51686748D01*
X37904073Y51637442D01*
X37834442Y51623580D01*
X37768371Y51649563D01*
X37741133Y51678713D01*
X37652176Y51810845D01*
X37649196Y51815272D01*
X37624598Y51841058D01*
X37492152Y51979896D01*
X37488468Y51983758D01*
X37301650Y52122754D01*
X37174574Y52187363D01*
X37098842Y52225867D01*
X37098841Y52225867D01*
X37094084Y52228286D01*
X36961621Y52269417D01*
X36876807Y52295753D01*
X36876801Y52295754D01*
X36871704Y52297337D01*
X36747340Y52313820D01*
X36646152Y52327232D01*
X36646148Y52327232D01*
X36640868Y52327932D01*
X36635538Y52327732D01*
X36635537Y52327732D01*
X36524523Y52323564D01*
X36408178Y52319197D01*
X36325474Y52301844D01*
X36185514Y52272477D01*
X36185511Y52272476D01*
X36180287Y52271380D01*
X35963710Y52185850D01*
X35764641Y52065051D01*
X35760611Y52061554D01*
X35666075Y51979520D01*
X35588770Y51912439D01*
X35585387Y51908313D01*
X35585383Y51908309D01*
X35512262Y51819131D01*
X35441128Y51732376D01*
X35438490Y51727741D01*
X35438487Y51727737D01*
X35415155Y51686748D01*
X35364073Y51637442D01*
X35294442Y51623580D01*
X35228371Y51649563D01*
X35201133Y51678713D01*
X35112176Y51810845D01*
X35109196Y51815272D01*
X35084598Y51841058D01*
X34952152Y51979896D01*
X34948468Y51983758D01*
X34761650Y52122754D01*
X34634574Y52187363D01*
X34558842Y52225867D01*
X34558841Y52225867D01*
X34554084Y52228286D01*
X34421621Y52269417D01*
X34336807Y52295753D01*
X34336801Y52295754D01*
X34331704Y52297337D01*
X34207340Y52313820D01*
X34106152Y52327232D01*
X34106148Y52327232D01*
X34100868Y52327932D01*
X34095538Y52327732D01*
X34095537Y52327732D01*
X33984523Y52323564D01*
X33868178Y52319197D01*
X33785474Y52301844D01*
X33645514Y52272477D01*
X33645511Y52272476D01*
X33640287Y52271380D01*
X33423710Y52185850D01*
X33224641Y52065051D01*
X33220611Y52061554D01*
X33126075Y51979520D01*
X33048770Y51912439D01*
X33045387Y51908313D01*
X33045383Y51908309D01*
X32972262Y51819131D01*
X32901128Y51732376D01*
X32898490Y51727741D01*
X32898487Y51727737D01*
X32875155Y51686748D01*
X32824073Y51637442D01*
X32754442Y51623580D01*
X32688371Y51649563D01*
X32661133Y51678713D01*
X32572176Y51810845D01*
X32569196Y51815272D01*
X32544598Y51841058D01*
X32412152Y51979896D01*
X32408468Y51983758D01*
X32221650Y52122754D01*
X32094574Y52187363D01*
X32018842Y52225867D01*
X32018841Y52225867D01*
X32014084Y52228286D01*
X31881621Y52269417D01*
X31796807Y52295753D01*
X31796801Y52295754D01*
X31791704Y52297337D01*
X31667340Y52313820D01*
X31566152Y52327232D01*
X31566148Y52327232D01*
X31560868Y52327932D01*
X31555538Y52327732D01*
X31555537Y52327732D01*
X31444523Y52323564D01*
X31328178Y52319197D01*
X31245474Y52301844D01*
X31105514Y52272477D01*
X31105511Y52272476D01*
X31100287Y52271380D01*
X30883710Y52185850D01*
X30684641Y52065051D01*
X30680611Y52061554D01*
X30586075Y51979520D01*
X30508770Y51912439D01*
X30505387Y51908313D01*
X30505383Y51908309D01*
X30432262Y51819131D01*
X30361128Y51732376D01*
X30358490Y51727741D01*
X30358487Y51727737D01*
X30335155Y51686748D01*
X30284073Y51637442D01*
X30214442Y51623580D01*
X30148371Y51649563D01*
X30121133Y51678713D01*
X30032176Y51810845D01*
X30029196Y51815272D01*
X30004598Y51841058D01*
X29872152Y51979896D01*
X29868468Y51983758D01*
X29681650Y52122754D01*
X29554574Y52187363D01*
X29478842Y52225867D01*
X29478841Y52225867D01*
X29474084Y52228286D01*
X29341621Y52269417D01*
X29256807Y52295753D01*
X29256801Y52295754D01*
X29251704Y52297337D01*
X29127340Y52313820D01*
X29026152Y52327232D01*
X29026148Y52327232D01*
X29020868Y52327932D01*
X29015538Y52327732D01*
X29015537Y52327732D01*
X28904523Y52323564D01*
X28788178Y52319197D01*
X28705474Y52301844D01*
X28565514Y52272477D01*
X28565511Y52272476D01*
X28560287Y52271380D01*
X28343710Y52185850D01*
X28144641Y52065051D01*
X28140611Y52061554D01*
X28046075Y51979520D01*
X27968770Y51912439D01*
X27965387Y51908313D01*
X27965383Y51908309D01*
X27892262Y51819131D01*
X27821128Y51732376D01*
X27794878Y51686261D01*
X27743798Y51636956D01*
X27674168Y51623094D01*
X27608096Y51649077D01*
X27580857Y51678227D01*
X27491785Y51810530D01*
X27485124Y51818816D01*
X27331820Y51979520D01*
X27323852Y51986569D01*
X27145664Y52119144D01*
X27136634Y52124743D01*
X26938653Y52225402D01*
X26928792Y52229405D01*
X26716699Y52295263D01*
X26706304Y52297548D01*
X26687959Y52299980D01*
X26673792Y52297783D01*
X26670000Y52284599D01*
X26670000Y49317512D01*
X26673973Y49303981D01*
X26684580Y49302456D01*
X26806343Y49328004D01*
X26816539Y49331064D01*
X27023097Y49412637D01*
X27032634Y49417371D01*
X27222503Y49532586D01*
X27231093Y49538850D01*
X27398837Y49684411D01*
X27406257Y49692041D01*
X27547073Y49863780D01*
X27553102Y49872551D01*
X27576533Y49913715D01*
X27627615Y49963022D01*
X27697245Y49976884D01*
X27763316Y49950901D01*
X27790555Y49921751D01*
X27882804Y49784728D01*
X27886483Y49780871D01*
X27886485Y49780869D01*
X27971223Y49692041D01*
X28043532Y49616242D01*
X28230350Y49477246D01*
X28235102Y49474830D01*
X28432244Y49374598D01*
X28437916Y49371714D01*
X28625576Y49313444D01*
X28660296Y49302663D01*
X28659843Y49301203D01*
X28715934Y49270415D01*
X28749823Y49208029D01*
X28744603Y49137225D01*
X28715739Y49092420D01*
X28528424Y48905105D01*
X28466112Y48871079D01*
X28439329Y48868200D01*
X27841770Y48868200D01*
X27822820Y48869633D01*
X27808585Y48871799D01*
X27808581Y48871799D01*
X27801351Y48872899D01*
X27794059Y48872306D01*
X27794056Y48872306D01*
X27748682Y48868615D01*
X27738467Y48868200D01*
X27730407Y48868200D01*
X27726773Y48867776D01*
X27726767Y48867776D01*
X27713742Y48866257D01*
X27702180Y48864909D01*
X27697832Y48864479D01*
X27675759Y48862684D01*
X27632362Y48859154D01*
X27632359Y48859153D01*
X27625064Y48858560D01*
X27618100Y48856304D01*
X27612161Y48855117D01*
X27606290Y48853730D01*
X27599019Y48852882D01*
X27592143Y48850386D01*
X27592134Y48850384D01*
X27530402Y48827975D01*
X27526298Y48826565D01*
X27456801Y48804052D01*
X27450546Y48800256D01*
X27445087Y48797757D01*
X27439639Y48795029D01*
X27432763Y48792533D01*
X27371710Y48752505D01*
X27368037Y48750187D01*
X27305593Y48712295D01*
X27297217Y48704898D01*
X27297193Y48704925D01*
X27294199Y48702270D01*
X27290968Y48699568D01*
X27284848Y48695556D01*
X27279816Y48690244D01*
X27231572Y48639317D01*
X27229194Y48636875D01*
X23152296Y44559977D01*
X23089984Y44525951D01*
X23041105Y44525025D01*
X22973284Y44537106D01*
X22899452Y44538008D01*
X22755081Y44539772D01*
X22755079Y44539772D01*
X22749911Y44539835D01*
X22529091Y44506045D01*
X22316756Y44436643D01*
X22118607Y44333493D01*
X22114474Y44330390D01*
X22114471Y44330388D01*
X21944100Y44202470D01*
X21939965Y44199365D01*
X21785629Y44037862D01*
X21782720Y44033597D01*
X21782714Y44033589D01*
X21770404Y44015543D01*
X21678204Y43880382D01*
X21677898Y43879934D01*
X21622987Y43834931D01*
X21552462Y43826760D01*
X21488715Y43858014D01*
X21468018Y43882498D01*
X21387426Y44007074D01*
X21381136Y44015243D01*
X21237806Y44172760D01*
X21230273Y44179785D01*
X21063139Y44311778D01*
X21054552Y44317483D01*
X20868117Y44420401D01*
X20858705Y44424631D01*
X20657959Y44495720D01*
X20647988Y44498354D01*
X20576837Y44511028D01*
X20563540Y44509568D01*
X20559000Y44495011D01*
X20559000Y41861483D01*
X20563064Y41847641D01*
X20576478Y41845607D01*
X20583184Y41846466D01*
X20593262Y41848608D01*
X20797255Y41909809D01*
X20806842Y41913567D01*
X20998095Y42007261D01*
X21006945Y42012536D01*
X21180328Y42136208D01*
X21188200Y42142861D01*
X21339052Y42293188D01*
X21345730Y42301035D01*
X21473022Y42478181D01*
X21474279Y42477278D01*
X21521373Y42520638D01*
X21591311Y42532855D01*
X21656751Y42505322D01*
X21684579Y42473489D01*
X21744987Y42374912D01*
X21891250Y42206062D01*
X22063126Y42063368D01*
X22256000Y41950662D01*
X22464692Y41870970D01*
X22469760Y41869939D01*
X22469763Y41869938D01*
X22564862Y41850590D01*
X22683597Y41826433D01*
X22688772Y41826243D01*
X22688774Y41826243D01*
X22901673Y41818436D01*
X22901677Y41818436D01*
X22906837Y41818247D01*
X22911957Y41818903D01*
X22911959Y41818903D01*
X23123288Y41845975D01*
X23123289Y41845975D01*
X23128416Y41846632D01*
X23133366Y41848117D01*
X23337429Y41909339D01*
X23337434Y41909341D01*
X23342384Y41910826D01*
X23542994Y42009104D01*
X23724860Y42138827D01*
X23833091Y42246681D01*
X23895462Y42280596D01*
X23966268Y42275408D01*
X24023030Y42232762D01*
X24040012Y42201659D01*
X24040534Y42200266D01*
X24084385Y42083295D01*
X24171739Y41966739D01*
X24288295Y41879385D01*
X24424684Y41828255D01*
X24486866Y41821500D01*
X24500500Y41821500D01*
X24568621Y41801498D01*
X24615114Y41747842D01*
X24626500Y41695500D01*
X24626500Y15322070D01*
X24625067Y15303120D01*
X24623278Y15291358D01*
X24621801Y15281651D01*
X24622394Y15274359D01*
X24622394Y15274356D01*
X24626085Y15228982D01*
X24626500Y15218767D01*
X24626500Y15210707D01*
X24628049Y15197417D01*
X24629789Y15182493D01*
X24630222Y15178118D01*
X24630357Y15176466D01*
X24636140Y15105363D01*
X24638396Y15098399D01*
X24639587Y15092440D01*
X24640971Y15086585D01*
X24641818Y15079319D01*
X24666735Y15010673D01*
X24668152Y15006545D01*
X24690649Y14937101D01*
X24694445Y14930846D01*
X24696951Y14925372D01*
X24699670Y14919942D01*
X24702167Y14913063D01*
X24706180Y14906943D01*
X24706180Y14906942D01*
X24742186Y14852024D01*
X24744523Y14848320D01*
X24782405Y14785893D01*
X24786121Y14781685D01*
X24786122Y14781684D01*
X24789803Y14777516D01*
X24789776Y14777492D01*
X24792429Y14774500D01*
X24795132Y14771267D01*
X24799144Y14765148D01*
X24804456Y14760116D01*
X24855383Y14711872D01*
X24857825Y14709494D01*
X30430380Y9136939D01*
X30464406Y9074627D01*
X30459341Y9003812D01*
X30416794Y8946976D01*
X30352267Y8922324D01*
X30317087Y8919246D01*
X30247482Y8933234D01*
X30217010Y8955671D01*
X20269105Y18903576D01*
X20235079Y18965888D01*
X20232200Y18992671D01*
X20232200Y20110500D01*
X20252202Y20178621D01*
X20305858Y20225114D01*
X20358200Y20236500D01*
X21738134Y20236500D01*
X21800316Y20243255D01*
X21936705Y20294385D01*
X22053261Y20381739D01*
X22140615Y20498295D01*
X22191745Y20634684D01*
X22198500Y20696866D01*
X22198500Y22493134D01*
X22191745Y22555316D01*
X22140615Y22691705D01*
X22053261Y22808261D01*
X21936705Y22895615D01*
X21924132Y22900328D01*
X21818203Y22940040D01*
X21761439Y22982682D01*
X21736739Y23049244D01*
X21751947Y23118592D01*
X21773493Y23147273D01*
X21874435Y23247863D01*
X21878096Y23251511D01*
X21913665Y23301010D01*
X22005435Y23428723D01*
X22008453Y23432923D01*
X22037147Y23490980D01*
X22105136Y23628547D01*
X22105137Y23628549D01*
X22107430Y23633189D01*
X22163269Y23816977D01*
X22170865Y23841977D01*
X22170865Y23841979D01*
X22172370Y23846931D01*
X22201529Y24068410D01*
X22203156Y24135000D01*
X22184852Y24357639D01*
X22130431Y24574298D01*
X22041354Y24779160D01*
X21938995Y24937383D01*
X21922822Y24962383D01*
X21922820Y24962386D01*
X21920014Y24966723D01*
X21769670Y25131949D01*
X21765619Y25135148D01*
X21765615Y25135152D01*
X21598414Y25267200D01*
X21598410Y25267202D01*
X21594359Y25270402D01*
X21553053Y25293204D01*
X21503084Y25343636D01*
X21488312Y25413079D01*
X21513428Y25479484D01*
X21540780Y25506091D01*
X21584603Y25537350D01*
X21719860Y25633827D01*
X21878096Y25791511D01*
X21913665Y25841010D01*
X22005435Y25968723D01*
X22008453Y25972923D01*
X22037147Y26030980D01*
X22105136Y26168547D01*
X22105137Y26168549D01*
X22107430Y26173189D01*
X22163269Y26356977D01*
X22170865Y26381977D01*
X22170865Y26381979D01*
X22172370Y26386931D01*
X22201529Y26608410D01*
X22203156Y26675000D01*
X22184852Y26897639D01*
X22130431Y27114298D01*
X22041354Y27319160D01*
X21938995Y27477383D01*
X21922822Y27502383D01*
X21922820Y27502386D01*
X21920014Y27506723D01*
X21769670Y27671949D01*
X21765619Y27675148D01*
X21765615Y27675152D01*
X21598414Y27807200D01*
X21598410Y27807202D01*
X21594359Y27810402D01*
X21553053Y27833204D01*
X21503084Y27883636D01*
X21488312Y27953079D01*
X21513428Y28019484D01*
X21540780Y28046091D01*
X21619359Y28102141D01*
X21719860Y28173827D01*
X21725980Y28179925D01*
X21874435Y28327863D01*
X21878096Y28331511D01*
X21891985Y28350839D01*
X22005435Y28508723D01*
X22008453Y28512923D01*
X22037147Y28570980D01*
X22105136Y28708547D01*
X22105137Y28708549D01*
X22107430Y28713189D01*
X22163269Y28896977D01*
X22170865Y28921977D01*
X22170865Y28921979D01*
X22172370Y28926931D01*
X22201529Y29148410D01*
X22203156Y29215000D01*
X22184852Y29437639D01*
X22130431Y29654298D01*
X22041354Y29859160D01*
X21938995Y30017383D01*
X21922822Y30042383D01*
X21922820Y30042386D01*
X21920014Y30046723D01*
X21769670Y30211949D01*
X21765619Y30215148D01*
X21765615Y30215152D01*
X21598414Y30347200D01*
X21598410Y30347202D01*
X21594359Y30350402D01*
X21552569Y30373471D01*
X21502598Y30423903D01*
X21487826Y30493346D01*
X21512942Y30559752D01*
X21540294Y30586359D01*
X21715328Y30711208D01*
X21723200Y30717861D01*
X21874052Y30868188D01*
X21880730Y30876035D01*
X22005003Y31048980D01*
X22010313Y31057817D01*
X22104670Y31248733D01*
X22108469Y31258328D01*
X22170377Y31462090D01*
X22172555Y31472163D01*
X22173986Y31483038D01*
X22171775Y31497222D01*
X22158617Y31501000D01*
X19523225Y31501000D01*
X19509694Y31497027D01*
X19508257Y31487034D01*
X19538565Y31352554D01*
X19541645Y31342725D01*
X19621770Y31145397D01*
X19626413Y31136206D01*
X19737694Y30954612D01*
X19743777Y30946301D01*
X19883213Y30785333D01*
X19890580Y30778117D01*
X20054434Y30642084D01*
X20062881Y30636169D01*
X20131969Y30595797D01*
X20180693Y30544158D01*
X20193764Y30474375D01*
X20167033Y30408604D01*
X20126584Y30375248D01*
X20113607Y30368493D01*
X20109474Y30365390D01*
X20109471Y30365388D01*
X20056215Y30325402D01*
X19934965Y30234365D01*
X19780629Y30072862D01*
X19654743Y29888320D01*
X19560688Y29685695D01*
X19500989Y29470430D01*
X19477251Y29248305D01*
X19477548Y29243152D01*
X19477548Y29243149D01*
X19478692Y29223305D01*
X19490110Y29025285D01*
X19491247Y29020240D01*
X19491966Y29015123D01*
X19490518Y29014919D01*
X19486398Y28950726D01*
X19457119Y28904800D01*
X18984789Y28432470D01*
X18970377Y28420084D01*
X18958782Y28411551D01*
X18958777Y28411546D01*
X18952882Y28407208D01*
X18948143Y28401630D01*
X18948140Y28401627D01*
X18918665Y28366932D01*
X18911735Y28359416D01*
X18906040Y28353721D01*
X18903760Y28350839D01*
X18888419Y28331449D01*
X18885628Y28328045D01*
X18843109Y28277997D01*
X18838367Y28272415D01*
X18835039Y28265899D01*
X18831672Y28260850D01*
X18828505Y28255721D01*
X18823966Y28249984D01*
X18793045Y28183825D01*
X18791142Y28179931D01*
X18757931Y28114892D01*
X18756192Y28107784D01*
X18754093Y28102141D01*
X18752176Y28096378D01*
X18749078Y28089750D01*
X18747588Y28082588D01*
X18747588Y28082587D01*
X18734214Y28018288D01*
X18733244Y28014004D01*
X18715892Y27943090D01*
X18715200Y27931936D01*
X18715164Y27931938D01*
X18714925Y27927945D01*
X18714551Y27923753D01*
X18713060Y27916585D01*
X18713258Y27909268D01*
X18715154Y27839179D01*
X18715200Y27835772D01*
X18715200Y19510800D01*
X18695198Y19442679D01*
X18641542Y19396186D01*
X18589200Y19384800D01*
X4698369Y19384800D01*
X4679421Y19386233D01*
X4672080Y19387350D01*
X4665183Y19388399D01*
X4665181Y19388399D01*
X4657951Y19389499D01*
X4650659Y19388906D01*
X4650656Y19388906D01*
X4605282Y19385215D01*
X4595067Y19384800D01*
X4587007Y19384800D01*
X4573717Y19383251D01*
X4558793Y19381511D01*
X4554418Y19381078D01*
X4488961Y19375754D01*
X4488958Y19375753D01*
X4481663Y19375160D01*
X4474699Y19372904D01*
X4468740Y19371713D01*
X4462885Y19370329D01*
X4455619Y19369482D01*
X4386973Y19344565D01*
X4382845Y19343148D01*
X4320364Y19322907D01*
X4320362Y19322906D01*
X4313401Y19320651D01*
X4307146Y19316855D01*
X4301672Y19314349D01*
X4296242Y19311630D01*
X4289363Y19309133D01*
X4283243Y19305120D01*
X4283242Y19305120D01*
X4228324Y19269114D01*
X4224620Y19266777D01*
X4162193Y19228895D01*
X4153816Y19221497D01*
X4153792Y19221524D01*
X4150800Y19218871D01*
X4147567Y19216168D01*
X4141448Y19212156D01*
X4136416Y19206844D01*
X4088172Y19155917D01*
X4085794Y19153475D01*
X2822296Y17889977D01*
X2759984Y17855951D01*
X2711105Y17855025D01*
X2643284Y17867106D01*
X2569452Y17868008D01*
X2425081Y17869772D01*
X2425079Y17869772D01*
X2419911Y17869835D01*
X2199091Y17836045D01*
X1986756Y17766643D01*
X1788607Y17663493D01*
X1784474Y17660390D01*
X1784471Y17660388D01*
X1614100Y17532470D01*
X1609965Y17529365D01*
X1584541Y17502760D01*
X1516280Y17431329D01*
X1455629Y17367862D01*
X1329743Y17183320D01*
X1235688Y16980695D01*
X1175989Y16765430D01*
X1152251Y16543305D01*
X1165110Y16320285D01*
X1166247Y16315239D01*
X1166248Y16315233D01*
X1187275Y16221931D01*
X1214222Y16102361D01*
X1298266Y15895384D01*
X1335685Y15834322D01*
X1412291Y15709312D01*
X1414987Y15704912D01*
X1561250Y15536062D01*
X1733126Y15393368D01*
X1926000Y15280662D01*
X1930825Y15278820D01*
X1930826Y15278819D01*
X1944056Y15273767D01*
X2134692Y15200970D01*
X2139760Y15199939D01*
X2139763Y15199938D01*
X2221734Y15183261D01*
X2353597Y15156433D01*
X2358772Y15156243D01*
X2358774Y15156243D01*
X2571673Y15148436D01*
X2571677Y15148436D01*
X2576837Y15148247D01*
X2581957Y15148903D01*
X2581959Y15148903D01*
X2793288Y15175975D01*
X2793289Y15175975D01*
X2798416Y15176632D01*
X2803369Y15178118D01*
X3007429Y15239339D01*
X3007434Y15239341D01*
X3012384Y15240826D01*
X3212994Y15339104D01*
X3394860Y15468827D01*
X3553096Y15626511D01*
X3612594Y15709311D01*
X3683453Y15807923D01*
X3684640Y15807070D01*
X3731960Y15850638D01*
X3801897Y15862855D01*
X3867338Y15835322D01*
X3895166Y15803489D01*
X3952694Y15709612D01*
X3958777Y15701301D01*
X4098213Y15540333D01*
X4105580Y15533117D01*
X4269434Y15397084D01*
X4277881Y15391169D01*
X4461756Y15283721D01*
X4471042Y15279271D01*
X4670001Y15203297D01*
X4679899Y15200421D01*
X4783250Y15179394D01*
X4797299Y15180590D01*
X4801000Y15190935D01*
X4801000Y16638000D01*
X4821002Y16706121D01*
X4874658Y16752614D01*
X4927000Y16764000D01*
X5183000Y16764000D01*
X5251121Y16743998D01*
X5297614Y16690342D01*
X5309000Y16638000D01*
X5309000Y15191483D01*
X5313064Y15177641D01*
X5326478Y15175607D01*
X5333184Y15176466D01*
X5343262Y15178608D01*
X5547255Y15239809D01*
X5556842Y15243567D01*
X5748095Y15337261D01*
X5756945Y15342536D01*
X5930328Y15466208D01*
X5938200Y15472861D01*
X6089052Y15623188D01*
X6095730Y15631035D01*
X6223022Y15808181D01*
X6224279Y15807278D01*
X6271373Y15850638D01*
X6341311Y15862855D01*
X6406751Y15835322D01*
X6434579Y15803489D01*
X6494987Y15704912D01*
X6641250Y15536062D01*
X6813126Y15393368D01*
X7006000Y15280662D01*
X7010825Y15278820D01*
X7010826Y15278819D01*
X7024056Y15273767D01*
X7214692Y15200970D01*
X7219760Y15199939D01*
X7219763Y15199938D01*
X7301734Y15183261D01*
X7433597Y15156433D01*
X7438772Y15156243D01*
X7438774Y15156243D01*
X7651673Y15148436D01*
X7651677Y15148436D01*
X7656837Y15148247D01*
X7661957Y15148903D01*
X7661959Y15148903D01*
X7873288Y15175975D01*
X7873289Y15175975D01*
X7878416Y15176632D01*
X7883369Y15178118D01*
X8087429Y15239339D01*
X8087434Y15239341D01*
X8092384Y15240826D01*
X8292994Y15339104D01*
X8474860Y15468827D01*
X8633096Y15626511D01*
X8692594Y15709311D01*
X8763453Y15807923D01*
X8764776Y15806972D01*
X8811645Y15850143D01*
X8881580Y15862375D01*
X8947026Y15834856D01*
X8974875Y15803006D01*
X9034987Y15704912D01*
X9181250Y15536062D01*
X9353126Y15393368D01*
X9546000Y15280662D01*
X9550825Y15278820D01*
X9550826Y15278819D01*
X9564056Y15273767D01*
X9754692Y15200970D01*
X9759760Y15199939D01*
X9759763Y15199938D01*
X9841734Y15183261D01*
X9973597Y15156433D01*
X9978772Y15156243D01*
X9978774Y15156243D01*
X10191673Y15148436D01*
X10191677Y15148436D01*
X10196837Y15148247D01*
X10201957Y15148903D01*
X10201959Y15148903D01*
X10413288Y15175975D01*
X10413289Y15175975D01*
X10418416Y15176632D01*
X10423369Y15178118D01*
X10627429Y15239339D01*
X10627434Y15239341D01*
X10632384Y15240826D01*
X10832994Y15339104D01*
X11014860Y15468827D01*
X11173096Y15626511D01*
X11232594Y15709311D01*
X11303453Y15807923D01*
X11304776Y15806972D01*
X11351645Y15850143D01*
X11421580Y15862375D01*
X11487026Y15834856D01*
X11514875Y15803006D01*
X11574987Y15704912D01*
X11721250Y15536062D01*
X11893126Y15393368D01*
X12086000Y15280662D01*
X12090825Y15278820D01*
X12090826Y15278819D01*
X12104056Y15273767D01*
X12294692Y15200970D01*
X12299760Y15199939D01*
X12299763Y15199938D01*
X12381734Y15183261D01*
X12513597Y15156433D01*
X12518772Y15156243D01*
X12518774Y15156243D01*
X12731673Y15148436D01*
X12731677Y15148436D01*
X12736837Y15148247D01*
X12741957Y15148903D01*
X12741959Y15148903D01*
X12953288Y15175975D01*
X12953289Y15175975D01*
X12958416Y15176632D01*
X12963369Y15178118D01*
X13167429Y15239339D01*
X13167434Y15239341D01*
X13172384Y15240826D01*
X13372994Y15339104D01*
X13554860Y15468827D01*
X13663091Y15576681D01*
X13725462Y15610596D01*
X13796268Y15605408D01*
X13853030Y15562762D01*
X13870012Y15531659D01*
X13914385Y15413295D01*
X14001739Y15296739D01*
X14118295Y15209385D01*
X14254684Y15158255D01*
X14316866Y15151500D01*
X16113134Y15151500D01*
X16175316Y15158255D01*
X16311705Y15209385D01*
X16428261Y15296739D01*
X16515615Y15413295D01*
X16566745Y15549684D01*
X16573500Y15611866D01*
X16573500Y17408134D01*
X16566745Y17470316D01*
X16515615Y17606705D01*
X16489883Y17641040D01*
X16471000Y17666235D01*
X16446152Y17732742D01*
X16461205Y17802124D01*
X16511379Y17852354D01*
X16571826Y17867800D01*
X19107329Y17867800D01*
X19175450Y17847798D01*
X19196424Y17830895D01*
X29144329Y7882990D01*
X29178355Y7820678D01*
X29180754Y7782913D01*
X29177676Y7747733D01*
X29151813Y7681615D01*
X29094309Y7639975D01*
X29023422Y7636035D01*
X28963061Y7669620D01*
X23443770Y13188911D01*
X23431384Y13203323D01*
X23422851Y13214918D01*
X23422846Y13214923D01*
X23418508Y13220818D01*
X23412930Y13225557D01*
X23412927Y13225560D01*
X23378232Y13255035D01*
X23370716Y13261965D01*
X23365021Y13267660D01*
X23358880Y13272518D01*
X23342749Y13285281D01*
X23339345Y13288072D01*
X23289297Y13330591D01*
X23289295Y13330592D01*
X23283715Y13335333D01*
X23277199Y13338661D01*
X23272150Y13342028D01*
X23267021Y13345195D01*
X23261284Y13349734D01*
X23195125Y13380655D01*
X23191225Y13382561D01*
X23126192Y13415769D01*
X23119084Y13417508D01*
X23113441Y13419607D01*
X23107678Y13421524D01*
X23101050Y13424622D01*
X23029583Y13439487D01*
X23025299Y13440457D01*
X22954390Y13457808D01*
X22948788Y13458156D01*
X22948785Y13458156D01*
X22943236Y13458500D01*
X22943238Y13458536D01*
X22939245Y13458775D01*
X22935053Y13459149D01*
X22927885Y13460640D01*
X22861675Y13458849D01*
X22850479Y13458546D01*
X22847072Y13458500D01*
X21451867Y13458500D01*
X21383746Y13478502D01*
X21348655Y13512228D01*
X21326198Y13544300D01*
X21164300Y13706198D01*
X21159792Y13709355D01*
X21159789Y13709357D01*
X21081611Y13764098D01*
X20976749Y13837523D01*
X20971767Y13839846D01*
X20971762Y13839849D01*
X20774225Y13931961D01*
X20774224Y13931961D01*
X20769243Y13934284D01*
X20763935Y13935706D01*
X20763933Y13935707D01*
X20553402Y13992119D01*
X20553400Y13992119D01*
X20548087Y13993543D01*
X20320000Y14013498D01*
X20091913Y13993543D01*
X20086600Y13992119D01*
X20086598Y13992119D01*
X19876067Y13935707D01*
X19876065Y13935706D01*
X19870757Y13934284D01*
X19865776Y13931961D01*
X19865775Y13931961D01*
X19668238Y13839849D01*
X19668233Y13839846D01*
X19663251Y13837523D01*
X19558389Y13764098D01*
X19480211Y13709357D01*
X19480208Y13709355D01*
X19475700Y13706198D01*
X19313802Y13544300D01*
X19182477Y13356749D01*
X19180154Y13351767D01*
X19180151Y13351762D01*
X19110934Y13203323D01*
X19085716Y13149243D01*
X19084294Y13143935D01*
X19084293Y13143933D01*
X19050426Y13017540D01*
X19026457Y12928087D01*
X19006502Y12700000D01*
X19026457Y12471913D01*
X19027881Y12466600D01*
X19027881Y12466598D01*
X19040303Y12420241D01*
X19085716Y12250757D01*
X19088039Y12245776D01*
X19088039Y12245775D01*
X19180151Y12048238D01*
X19180154Y12048233D01*
X19182477Y12043251D01*
X19185634Y12038743D01*
X19307903Y11864125D01*
X19313802Y11855700D01*
X19475700Y11693802D01*
X19480208Y11690645D01*
X19480211Y11690643D01*
X19558389Y11635902D01*
X19663251Y11562477D01*
X19668233Y11560154D01*
X19668238Y11560151D01*
X19865775Y11468039D01*
X19870757Y11465716D01*
X19876065Y11464294D01*
X19876067Y11464293D01*
X20086598Y11407881D01*
X20086600Y11407881D01*
X20091913Y11406457D01*
X20320000Y11386502D01*
X20548087Y11406457D01*
X20553400Y11407881D01*
X20553402Y11407881D01*
X20763933Y11464293D01*
X20763935Y11464294D01*
X20769243Y11465716D01*
X20774225Y11468039D01*
X20971762Y11560151D01*
X20971767Y11560154D01*
X20976749Y11562477D01*
X21081611Y11635902D01*
X21159789Y11690643D01*
X21159792Y11690645D01*
X21164300Y11693802D01*
X21326198Y11855700D01*
X21348655Y11887771D01*
X21404110Y11932099D01*
X21451867Y11941500D01*
X22493629Y11941500D01*
X22561750Y11921498D01*
X22582724Y11904595D01*
X30243407Y4243912D01*
X30277433Y4181600D01*
X30272368Y4110785D01*
X30229821Y4053949D01*
X30180186Y4031502D01*
X30089514Y4012477D01*
X30089511Y4012476D01*
X30084287Y4011380D01*
X29867710Y3925850D01*
X29668641Y3805051D01*
X29664611Y3801554D01*
X29570075Y3719520D01*
X29492770Y3652439D01*
X29489387Y3648313D01*
X29489383Y3648309D01*
X29416262Y3559131D01*
X29345128Y3472376D01*
X29342490Y3467741D01*
X29342487Y3467737D01*
X29319155Y3426748D01*
X29268073Y3377442D01*
X29198442Y3363580D01*
X29132371Y3389563D01*
X29105133Y3418713D01*
X29016388Y3550530D01*
X29013196Y3555272D01*
X28852468Y3723758D01*
X28665650Y3862754D01*
X28538574Y3927363D01*
X28462842Y3965867D01*
X28462841Y3965867D01*
X28458084Y3968286D01*
X28325621Y4009417D01*
X28240807Y4035753D01*
X28240801Y4035754D01*
X28235704Y4037337D01*
X28110368Y4053949D01*
X28010152Y4067232D01*
X28010148Y4067232D01*
X28004868Y4067932D01*
X27999538Y4067732D01*
X27999537Y4067732D01*
X27888523Y4063565D01*
X27772178Y4059197D01*
X27747167Y4053949D01*
X27549514Y4012477D01*
X27549511Y4012476D01*
X27544287Y4011380D01*
X27327710Y3925850D01*
X27128641Y3805051D01*
X27124611Y3801554D01*
X27030075Y3719520D01*
X26952770Y3652439D01*
X26949387Y3648313D01*
X26949383Y3648309D01*
X26876262Y3559131D01*
X26805128Y3472376D01*
X26802490Y3467741D01*
X26802487Y3467737D01*
X26739589Y3357240D01*
X26689935Y3270011D01*
X26688114Y3264995D01*
X26688112Y3264990D01*
X26646302Y3149806D01*
X26610485Y3051131D01*
X26569050Y2821993D01*
X26568855Y2817854D01*
X26568854Y2817847D01*
X26567970Y2799095D01*
X26567900Y2797606D01*
X26567900Y2329132D01*
X26582626Y2155580D01*
X26583964Y2150423D01*
X26583965Y2150420D01*
X26616816Y2023854D01*
X26641125Y1930194D01*
X26643317Y1925328D01*
X26643318Y1925325D01*
X26651594Y1906954D01*
X26736762Y1717887D01*
X26866804Y1524728D01*
X27027532Y1356242D01*
X27214350Y1217246D01*
X27219102Y1214830D01*
X27416244Y1114598D01*
X27421916Y1111714D01*
X27533106Y1077188D01*
X27639193Y1044247D01*
X27639199Y1044246D01*
X27644296Y1042663D01*
X27768660Y1026180D01*
X27869848Y1012768D01*
X27869852Y1012768D01*
X27875132Y1012068D01*
X27880462Y1012268D01*
X27880463Y1012268D01*
X27991477Y1016436D01*
X28107822Y1020803D01*
X28212005Y1042663D01*
X28330486Y1067523D01*
X28330489Y1067524D01*
X28335713Y1068620D01*
X28552290Y1154150D01*
X28751359Y1274949D01*
X28755855Y1278850D01*
X28923197Y1424061D01*
X28923199Y1424063D01*
X28927230Y1427561D01*
X28930613Y1431687D01*
X28930617Y1431691D01*
X29029776Y1552626D01*
X29074872Y1607624D01*
X29077672Y1612542D01*
X29100845Y1653252D01*
X29151927Y1702558D01*
X29221558Y1716420D01*
X29287629Y1690437D01*
X29314867Y1661287D01*
X29406804Y1524728D01*
X29567532Y1356242D01*
X29754350Y1217246D01*
X29759102Y1214830D01*
X29956244Y1114598D01*
X29961916Y1111714D01*
X30073106Y1077188D01*
X30179193Y1044247D01*
X30179199Y1044246D01*
X30184296Y1042663D01*
X30308660Y1026180D01*
X30409848Y1012768D01*
X30409852Y1012768D01*
X30415132Y1012068D01*
X30420462Y1012268D01*
X30420463Y1012268D01*
X30531477Y1016436D01*
X30647822Y1020803D01*
X30752005Y1042663D01*
X30870486Y1067523D01*
X30870489Y1067524D01*
X30875713Y1068620D01*
X31092290Y1154150D01*
X31291359Y1274949D01*
X31295855Y1278850D01*
X31463197Y1424061D01*
X31463199Y1424063D01*
X31467230Y1427561D01*
X31470613Y1431687D01*
X31470617Y1431691D01*
X31569776Y1552626D01*
X31614872Y1607624D01*
X31617672Y1612542D01*
X31640845Y1653252D01*
X31691927Y1702558D01*
X31761558Y1716420D01*
X31827629Y1690437D01*
X31854867Y1661287D01*
X31946804Y1524728D01*
X32107532Y1356242D01*
X32294350Y1217246D01*
X32299102Y1214830D01*
X32496244Y1114598D01*
X32501916Y1111714D01*
X32613106Y1077188D01*
X32719193Y1044247D01*
X32719199Y1044246D01*
X32724296Y1042663D01*
X32848660Y1026180D01*
X32949848Y1012768D01*
X32949852Y1012768D01*
X32955132Y1012068D01*
X32960462Y1012268D01*
X32960463Y1012268D01*
X33071477Y1016436D01*
X33187822Y1020803D01*
X33292005Y1042663D01*
X33410486Y1067523D01*
X33410489Y1067524D01*
X33415713Y1068620D01*
X33632290Y1154150D01*
X33831359Y1274949D01*
X33835855Y1278850D01*
X34003197Y1424061D01*
X34003199Y1424063D01*
X34007230Y1427561D01*
X34010613Y1431687D01*
X34010617Y1431691D01*
X34109776Y1552626D01*
X34154872Y1607624D01*
X34157672Y1612542D01*
X34180845Y1653252D01*
X34231927Y1702558D01*
X34301558Y1716420D01*
X34367629Y1690437D01*
X34394867Y1661287D01*
X34486804Y1524728D01*
X34647532Y1356242D01*
X34834350Y1217246D01*
X34839102Y1214830D01*
X35036244Y1114598D01*
X35041916Y1111714D01*
X35153106Y1077188D01*
X35259193Y1044247D01*
X35259199Y1044246D01*
X35264296Y1042663D01*
X35388660Y1026180D01*
X35489848Y1012768D01*
X35489852Y1012768D01*
X35495132Y1012068D01*
X35500462Y1012268D01*
X35500463Y1012268D01*
X35611477Y1016436D01*
X35727822Y1020803D01*
X35832005Y1042663D01*
X35950486Y1067523D01*
X35950489Y1067524D01*
X35955713Y1068620D01*
X36172290Y1154150D01*
X36371359Y1274949D01*
X36375855Y1278850D01*
X36543197Y1424061D01*
X36543199Y1424063D01*
X36547230Y1427561D01*
X36550613Y1431687D01*
X36550617Y1431691D01*
X36649776Y1552626D01*
X36694872Y1607624D01*
X36697672Y1612542D01*
X36720845Y1653252D01*
X36771927Y1702558D01*
X36841558Y1716420D01*
X36907629Y1690437D01*
X36934867Y1661287D01*
X37026804Y1524728D01*
X37187532Y1356242D01*
X37374350Y1217246D01*
X37379102Y1214830D01*
X37576244Y1114598D01*
X37581916Y1111714D01*
X37693106Y1077188D01*
X37799193Y1044247D01*
X37799199Y1044246D01*
X37804296Y1042663D01*
X37928660Y1026180D01*
X38029848Y1012768D01*
X38029852Y1012768D01*
X38035132Y1012068D01*
X38040462Y1012268D01*
X38040463Y1012268D01*
X38151477Y1016436D01*
X38267822Y1020803D01*
X38372005Y1042663D01*
X38490486Y1067523D01*
X38490489Y1067524D01*
X38495713Y1068620D01*
X38712290Y1154150D01*
X38911359Y1274949D01*
X38915855Y1278850D01*
X39083197Y1424061D01*
X39083199Y1424063D01*
X39087230Y1427561D01*
X39090613Y1431687D01*
X39090617Y1431691D01*
X39189776Y1552626D01*
X39234872Y1607624D01*
X39261122Y1653739D01*
X39312202Y1703044D01*
X39381832Y1716906D01*
X39447904Y1690923D01*
X39475143Y1661773D01*
X39564215Y1529470D01*
X39570876Y1521184D01*
X39724180Y1360480D01*
X39732148Y1353431D01*
X39910336Y1220856D01*
X39919366Y1215257D01*
X40117347Y1114598D01*
X40127208Y1110595D01*
X40339301Y1044737D01*
X40349696Y1042452D01*
X40368041Y1040020D01*
X40382208Y1042217D01*
X40386000Y1055401D01*
X40386000Y1057512D01*
X40894000Y1057512D01*
X40897973Y1043981D01*
X40908580Y1042456D01*
X41030343Y1068004D01*
X41040539Y1071064D01*
X41247097Y1152637D01*
X41256634Y1157371D01*
X41446503Y1272586D01*
X41455093Y1278850D01*
X41622837Y1424411D01*
X41630257Y1432041D01*
X41771073Y1603780D01*
X41777095Y1612542D01*
X41800810Y1654202D01*
X41851893Y1703508D01*
X41921524Y1717369D01*
X41987594Y1691385D01*
X42014832Y1662236D01*
X42104215Y1529469D01*
X42110876Y1521184D01*
X42264180Y1360480D01*
X42272148Y1353431D01*
X42450336Y1220856D01*
X42459366Y1215257D01*
X42657347Y1114598D01*
X42667208Y1110595D01*
X42879301Y1044737D01*
X42889696Y1042452D01*
X42908041Y1040020D01*
X42922208Y1042217D01*
X42926000Y1055401D01*
X42926000Y1057512D01*
X43434000Y1057512D01*
X43437973Y1043981D01*
X43448580Y1042456D01*
X43570343Y1068004D01*
X43580539Y1071064D01*
X43787097Y1152637D01*
X43796634Y1157371D01*
X43986503Y1272586D01*
X43995093Y1278850D01*
X44162837Y1424411D01*
X44170257Y1432041D01*
X44311073Y1603780D01*
X44317102Y1612551D01*
X44340533Y1653715D01*
X44391615Y1703022D01*
X44461245Y1716884D01*
X44527316Y1690901D01*
X44554555Y1661751D01*
X44646804Y1524728D01*
X44807532Y1356242D01*
X44994350Y1217246D01*
X44999102Y1214830D01*
X45196244Y1114598D01*
X45201916Y1111714D01*
X45313106Y1077188D01*
X45419193Y1044247D01*
X45419199Y1044246D01*
X45424296Y1042663D01*
X45548660Y1026180D01*
X45649848Y1012768D01*
X45649852Y1012768D01*
X45655132Y1012068D01*
X45660462Y1012268D01*
X45660463Y1012268D01*
X45771477Y1016436D01*
X45887822Y1020803D01*
X45992005Y1042663D01*
X46110486Y1067523D01*
X46110489Y1067524D01*
X46115713Y1068620D01*
X46332290Y1154150D01*
X46531359Y1274949D01*
X46535855Y1278850D01*
X46703197Y1424061D01*
X46703199Y1424063D01*
X46707230Y1427561D01*
X46710613Y1431687D01*
X46710617Y1431691D01*
X46809776Y1552626D01*
X46854872Y1607624D01*
X46857672Y1612542D01*
X46967422Y1805346D01*
X46970065Y1809989D01*
X46990239Y1865565D01*
X47047695Y2023854D01*
X47047696Y2023858D01*
X47049515Y2028869D01*
X47090950Y2258007D01*
X47091632Y2272452D01*
X47092030Y2280905D01*
X47092030Y2280914D01*
X47092100Y2282394D01*
X47092100Y2750868D01*
X47083258Y2855076D01*
X47077825Y2919109D01*
X47077824Y2919113D01*
X47077374Y2924420D01*
X47070781Y2949823D01*
X47020217Y3144637D01*
X47020216Y3144641D01*
X47018875Y3149806D01*
X47010164Y3169145D01*
X46925433Y3357240D01*
X46923238Y3362113D01*
X46793196Y3555272D01*
X46632468Y3723758D01*
X46445650Y3862754D01*
X46318574Y3927363D01*
X46242842Y3965867D01*
X46242841Y3965867D01*
X46238084Y3968286D01*
X46105621Y4009417D01*
X46020807Y4035753D01*
X46020801Y4035754D01*
X46015704Y4037337D01*
X45890368Y4053949D01*
X45790152Y4067232D01*
X45790148Y4067232D01*
X45784868Y4067932D01*
X45779538Y4067732D01*
X45779537Y4067732D01*
X45668523Y4063565D01*
X45552178Y4059197D01*
X45527167Y4053949D01*
X45329514Y4012477D01*
X45329511Y4012476D01*
X45324287Y4011380D01*
X45107710Y3925850D01*
X44908641Y3805051D01*
X44904611Y3801554D01*
X44810075Y3719520D01*
X44732770Y3652439D01*
X44729387Y3648313D01*
X44729383Y3648309D01*
X44656262Y3559131D01*
X44585128Y3472376D01*
X44558878Y3426261D01*
X44507798Y3376956D01*
X44438168Y3363094D01*
X44372096Y3389077D01*
X44344857Y3418227D01*
X44255785Y3550530D01*
X44249124Y3558816D01*
X44095820Y3719520D01*
X44087852Y3726569D01*
X43909664Y3859144D01*
X43900634Y3864743D01*
X43702653Y3965402D01*
X43692792Y3969405D01*
X43480699Y4035263D01*
X43470304Y4037548D01*
X43451959Y4039980D01*
X43437792Y4037783D01*
X43434000Y4024599D01*
X43434000Y1057512D01*
X42926000Y1057512D01*
X42926000Y2267885D01*
X42921525Y2283124D01*
X42920135Y2284329D01*
X42912452Y2286000D01*
X40912115Y2286000D01*
X40896876Y2281525D01*
X40895671Y2280135D01*
X40894000Y2272452D01*
X40894000Y1057512D01*
X40386000Y1057512D01*
X40386000Y2812115D01*
X40894000Y2812115D01*
X40898475Y2796876D01*
X40899865Y2795671D01*
X40907548Y2794000D01*
X42907885Y2794000D01*
X42923124Y2798475D01*
X42924329Y2799865D01*
X42926000Y2807548D01*
X42926000Y4022488D01*
X42922027Y4036019D01*
X42911420Y4037544D01*
X42789657Y4011996D01*
X42779461Y4008936D01*
X42572903Y3927363D01*
X42563366Y3922629D01*
X42373497Y3807414D01*
X42364907Y3801150D01*
X42197163Y3655589D01*
X42189743Y3647959D01*
X42048927Y3476220D01*
X42042905Y3467458D01*
X42019190Y3425798D01*
X41968107Y3376492D01*
X41898476Y3362631D01*
X41832406Y3388615D01*
X41805168Y3417764D01*
X41715785Y3550531D01*
X41709124Y3558816D01*
X41555820Y3719520D01*
X41547852Y3726569D01*
X41369664Y3859144D01*
X41360634Y3864743D01*
X41162653Y3965402D01*
X41152792Y3969405D01*
X40940699Y4035263D01*
X40930304Y4037548D01*
X40911959Y4039980D01*
X40897792Y4037783D01*
X40894000Y4024599D01*
X40894000Y2812115D01*
X40386000Y2812115D01*
X40386000Y4022488D01*
X40382027Y4036019D01*
X40371420Y4037544D01*
X40249657Y4011996D01*
X40239461Y4008936D01*
X40032903Y3927363D01*
X40023366Y3922629D01*
X39833497Y3807414D01*
X39824907Y3801150D01*
X39657163Y3655589D01*
X39649743Y3647959D01*
X39508927Y3476220D01*
X39502898Y3467449D01*
X39479467Y3426285D01*
X39428385Y3376978D01*
X39358755Y3363116D01*
X39292684Y3389099D01*
X39265445Y3418249D01*
X39229005Y3472376D01*
X39173196Y3555272D01*
X39012468Y3723758D01*
X38825650Y3862754D01*
X38698574Y3927363D01*
X38622842Y3965867D01*
X38622841Y3965867D01*
X38618084Y3968286D01*
X38485621Y4009417D01*
X38400807Y4035753D01*
X38400801Y4035754D01*
X38395704Y4037337D01*
X38270368Y4053949D01*
X38170152Y4067232D01*
X38170148Y4067232D01*
X38164868Y4067932D01*
X38159538Y4067732D01*
X38159537Y4067732D01*
X38048523Y4063565D01*
X37932178Y4059197D01*
X37907167Y4053949D01*
X37768563Y4024867D01*
X37697787Y4030454D01*
X37653594Y4059087D01*
X35666276Y6046405D01*
X35632250Y6108717D01*
X35637315Y6179532D01*
X35679862Y6236368D01*
X35746382Y6261179D01*
X35755371Y6261500D01*
X36458134Y6261500D01*
X36520316Y6268255D01*
X36656705Y6319385D01*
X36773261Y6406739D01*
X36860615Y6523295D01*
X36882799Y6582471D01*
X36904598Y6640618D01*
X36947240Y6697382D01*
X37013802Y6722082D01*
X37083150Y6706874D01*
X37117817Y6678886D01*
X37146250Y6646062D01*
X37318126Y6503368D01*
X37511000Y6390662D01*
X37515825Y6388820D01*
X37515826Y6388819D01*
X37588612Y6361025D01*
X37719692Y6310970D01*
X37724760Y6309939D01*
X37724763Y6309938D01*
X37807899Y6293024D01*
X37938597Y6266433D01*
X37943772Y6266243D01*
X37943774Y6266243D01*
X38156673Y6258436D01*
X38156677Y6258436D01*
X38161837Y6258247D01*
X38166957Y6258903D01*
X38166959Y6258903D01*
X38378288Y6285975D01*
X38378289Y6285975D01*
X38383416Y6286632D01*
X38388366Y6288117D01*
X38592429Y6349339D01*
X38592434Y6349341D01*
X38597384Y6350826D01*
X38797994Y6449104D01*
X38979860Y6578827D01*
X39011788Y6610643D01*
X39134435Y6732863D01*
X39138096Y6736511D01*
X39169498Y6780211D01*
X39268453Y6917923D01*
X39269776Y6916972D01*
X39316645Y6960143D01*
X39386580Y6972375D01*
X39452026Y6944856D01*
X39479875Y6913006D01*
X39539987Y6814912D01*
X39686250Y6646062D01*
X39858126Y6503368D01*
X40051000Y6390662D01*
X40055825Y6388820D01*
X40055826Y6388819D01*
X40128612Y6361025D01*
X40259692Y6310970D01*
X40264760Y6309939D01*
X40264763Y6309938D01*
X40347899Y6293024D01*
X40478597Y6266433D01*
X40483772Y6266243D01*
X40483774Y6266243D01*
X40696673Y6258436D01*
X40696677Y6258436D01*
X40701837Y6258247D01*
X40706957Y6258903D01*
X40706959Y6258903D01*
X40918288Y6285975D01*
X40918289Y6285975D01*
X40923416Y6286632D01*
X40928366Y6288117D01*
X41132429Y6349339D01*
X41132434Y6349341D01*
X41137384Y6350826D01*
X41337994Y6449104D01*
X41519860Y6578827D01*
X41551788Y6610643D01*
X41674435Y6732863D01*
X41678096Y6736511D01*
X41709498Y6780211D01*
X41805435Y6913723D01*
X41808453Y6917923D01*
X41828628Y6958743D01*
X41905136Y7113547D01*
X41905137Y7113549D01*
X41907430Y7118189D01*
X41972370Y7331931D01*
X42001529Y7553410D01*
X42003022Y7614525D01*
X42003074Y7616635D01*
X42003074Y7616639D01*
X42003156Y7620000D01*
X41984852Y7842639D01*
X41930431Y8059298D01*
X41841354Y8264160D01*
X41720014Y8451723D01*
X41569670Y8616949D01*
X41565619Y8620148D01*
X41565615Y8620152D01*
X41398414Y8752200D01*
X41398410Y8752202D01*
X41394359Y8755402D01*
X41386304Y8759849D01*
X41342136Y8784231D01*
X41198789Y8863362D01*
X41193920Y8865086D01*
X41193916Y8865088D01*
X40993087Y8936205D01*
X40993083Y8936206D01*
X40988212Y8937931D01*
X40983119Y8938838D01*
X40983116Y8938839D01*
X40773373Y8976200D01*
X40773367Y8976201D01*
X40768284Y8977106D01*
X40694452Y8978008D01*
X40550081Y8979772D01*
X40550079Y8979772D01*
X40544911Y8979835D01*
X40324091Y8946045D01*
X40111756Y8876643D01*
X39913607Y8773493D01*
X39909474Y8770390D01*
X39909471Y8770388D01*
X39739100Y8642470D01*
X39734965Y8639365D01*
X39731393Y8635627D01*
X39623729Y8522963D01*
X39580629Y8477862D01*
X39473201Y8320379D01*
X39418293Y8275379D01*
X39347768Y8267208D01*
X39284021Y8298462D01*
X39263324Y8322946D01*
X39182822Y8447383D01*
X39182820Y8447386D01*
X39180014Y8451723D01*
X39029670Y8616949D01*
X39025619Y8620148D01*
X39025615Y8620152D01*
X38858414Y8752200D01*
X38858410Y8752202D01*
X38854359Y8755402D01*
X38846304Y8759849D01*
X38802136Y8784231D01*
X38658789Y8863362D01*
X38653920Y8865086D01*
X38653916Y8865088D01*
X38453087Y8936205D01*
X38453083Y8936206D01*
X38448212Y8937931D01*
X38443119Y8938838D01*
X38443116Y8938839D01*
X38233373Y8976200D01*
X38233367Y8976201D01*
X38228284Y8977106D01*
X38154452Y8978008D01*
X38010081Y8979772D01*
X38010079Y8979772D01*
X38004911Y8979835D01*
X37784091Y8946045D01*
X37571756Y8876643D01*
X37373607Y8773493D01*
X37369474Y8770390D01*
X37369471Y8770388D01*
X37199100Y8642470D01*
X37194965Y8639365D01*
X37138537Y8580316D01*
X37114283Y8554936D01*
X37052759Y8519506D01*
X36981846Y8522963D01*
X36924060Y8564209D01*
X36905207Y8597757D01*
X36863767Y8708297D01*
X36860615Y8716705D01*
X36773261Y8833261D01*
X36656705Y8920615D01*
X36520316Y8971745D01*
X36458134Y8978500D01*
X34661866Y8978500D01*
X34599684Y8971745D01*
X34463295Y8920615D01*
X34346739Y8833261D01*
X34259385Y8716705D01*
X34208255Y8580316D01*
X34201500Y8518134D01*
X34201500Y7815371D01*
X34181498Y7747250D01*
X34127842Y7700757D01*
X34057568Y7690653D01*
X33992988Y7720147D01*
X33986405Y7726276D01*
X30529620Y11183061D01*
X30495594Y11245373D01*
X30500659Y11316188D01*
X30543206Y11373024D01*
X30607733Y11397677D01*
X30634791Y11400044D01*
X30708087Y11406457D01*
X30713400Y11407881D01*
X30713402Y11407881D01*
X30923933Y11464293D01*
X30923935Y11464294D01*
X30929243Y11465716D01*
X30934225Y11468039D01*
X31131762Y11560151D01*
X31131767Y11560154D01*
X31136749Y11562477D01*
X31241611Y11635902D01*
X31319789Y11690643D01*
X31319792Y11690645D01*
X31324300Y11693802D01*
X31486198Y11855700D01*
X31492098Y11864125D01*
X31614366Y12038743D01*
X31617523Y12043251D01*
X31619846Y12048233D01*
X31619849Y12048238D01*
X31711961Y12245775D01*
X31711961Y12245776D01*
X31714284Y12250757D01*
X31759698Y12420241D01*
X31772119Y12466598D01*
X31772119Y12466600D01*
X31773543Y12471913D01*
X31793498Y12700000D01*
X31773543Y12928087D01*
X31749574Y13017540D01*
X31715707Y13143933D01*
X31715706Y13143935D01*
X31714284Y13149243D01*
X31689066Y13203323D01*
X31619849Y13351762D01*
X31619846Y13351767D01*
X31617523Y13356749D01*
X31486198Y13544300D01*
X31324300Y13706198D01*
X31319792Y13709355D01*
X31319789Y13709357D01*
X31241611Y13764098D01*
X31136749Y13837523D01*
X31131767Y13839846D01*
X31131762Y13839849D01*
X30934225Y13931961D01*
X30934224Y13931961D01*
X30929243Y13934284D01*
X30923935Y13935706D01*
X30923933Y13935707D01*
X30713402Y13992119D01*
X30713400Y13992119D01*
X30708087Y13993543D01*
X30480000Y14013498D01*
X30251913Y13993543D01*
X30246600Y13992119D01*
X30246598Y13992119D01*
X30036067Y13935707D01*
X30036065Y13935706D01*
X30030757Y13934284D01*
X30025776Y13931961D01*
X30025775Y13931961D01*
X29828238Y13839849D01*
X29828233Y13839846D01*
X29823251Y13837523D01*
X29718389Y13764098D01*
X29640211Y13709357D01*
X29640208Y13709355D01*
X29635700Y13706198D01*
X29473802Y13544300D01*
X29342477Y13356749D01*
X29340154Y13351767D01*
X29340151Y13351762D01*
X29270934Y13203323D01*
X29245716Y13149243D01*
X29244294Y13143935D01*
X29244293Y13143933D01*
X29210426Y13017540D01*
X29186457Y12928087D01*
X29185978Y12922607D01*
X29177677Y12827733D01*
X29151813Y12761615D01*
X29094310Y12719976D01*
X29023423Y12716035D01*
X28963061Y12749620D01*
X26180405Y15532276D01*
X26146379Y15594588D01*
X26143500Y15621371D01*
X26143500Y18156283D01*
X26163502Y18224404D01*
X26217158Y18270897D01*
X26258080Y18281764D01*
X26417885Y18296308D01*
X26435400Y18297902D01*
X26442102Y18300080D01*
X26442104Y18300080D01*
X26601209Y18351776D01*
X26601212Y18351777D01*
X26607908Y18353953D01*
X26763712Y18446831D01*
X26895066Y18571918D01*
X26995443Y18722998D01*
X26997943Y18729580D01*
X26997949Y18729591D01*
X26999859Y18734620D01*
X27028551Y18778970D01*
X42378411Y34128830D01*
X42392823Y34141216D01*
X42404418Y34149749D01*
X42404423Y34149754D01*
X42410318Y34154092D01*
X42415057Y34159670D01*
X42415060Y34159673D01*
X42444535Y34194368D01*
X42451465Y34201884D01*
X42457160Y34207579D01*
X42474781Y34229851D01*
X42477572Y34233255D01*
X42520091Y34283303D01*
X42520092Y34283305D01*
X42524833Y34288885D01*
X42528161Y34295401D01*
X42531528Y34300450D01*
X42534695Y34305579D01*
X42539234Y34311316D01*
X42570155Y34377475D01*
X42572061Y34381375D01*
X42605269Y34446408D01*
X42607008Y34453516D01*
X42609107Y34459159D01*
X42611024Y34464922D01*
X42614122Y34471550D01*
X42628987Y34543017D01*
X42629957Y34547301D01*
X42645973Y34612755D01*
X42647308Y34618210D01*
X42648000Y34629364D01*
X42648036Y34629362D01*
X42648275Y34633355D01*
X42648649Y34637547D01*
X42650140Y34644715D01*
X42648046Y34722121D01*
X42648000Y34725528D01*
X42648000Y41695500D01*
X42668002Y41763621D01*
X42721658Y41810114D01*
X42774000Y41821500D01*
X44088134Y41821500D01*
X44150316Y41828255D01*
X44286705Y41879385D01*
X44403261Y41966739D01*
X44490615Y42083295D01*
X44512799Y42142471D01*
X44534598Y42200618D01*
X44577240Y42257382D01*
X44643802Y42282082D01*
X44713150Y42266874D01*
X44747817Y42238886D01*
X44776250Y42206062D01*
X44948126Y42063368D01*
X45141000Y41950662D01*
X45349692Y41870970D01*
X45354760Y41869939D01*
X45354763Y41869938D01*
X45449862Y41850590D01*
X45568597Y41826433D01*
X45573772Y41826243D01*
X45573774Y41826243D01*
X45786673Y41818436D01*
X45786677Y41818436D01*
X45791837Y41818247D01*
X45796957Y41818903D01*
X45796959Y41818903D01*
X46008288Y41845975D01*
X46008289Y41845975D01*
X46013416Y41846632D01*
X46018366Y41848117D01*
X46222429Y41909339D01*
X46222434Y41909341D01*
X46227384Y41910826D01*
X46427994Y42009104D01*
X46609860Y42138827D01*
X46768096Y42296511D01*
X46898453Y42477923D01*
X46899776Y42476972D01*
X46946645Y42520143D01*
X47016580Y42532375D01*
X47082026Y42504856D01*
X47109875Y42473006D01*
X47169987Y42374912D01*
X47316250Y42206062D01*
X47488126Y42063368D01*
X47681000Y41950662D01*
X47889692Y41870970D01*
X47894760Y41869939D01*
X47894763Y41869938D01*
X47989862Y41850590D01*
X48108597Y41826433D01*
X48113772Y41826243D01*
X48113774Y41826243D01*
X48326673Y41818436D01*
X48326677Y41818436D01*
X48331837Y41818247D01*
X48336957Y41818903D01*
X48336959Y41818903D01*
X48548288Y41845975D01*
X48548289Y41845975D01*
X48553416Y41846632D01*
X48558366Y41848117D01*
X48762429Y41909339D01*
X48762434Y41909341D01*
X48767384Y41910826D01*
X48967994Y42009104D01*
X49149860Y42138827D01*
X49308096Y42296511D01*
X49438453Y42477923D01*
X49439776Y42476972D01*
X49486645Y42520143D01*
X49556580Y42532375D01*
X49622026Y42504856D01*
X49649875Y42473006D01*
X49709987Y42374912D01*
X49856250Y42206062D01*
X50028126Y42063368D01*
X50221000Y41950662D01*
X50429692Y41870970D01*
X50434760Y41869939D01*
X50434763Y41869938D01*
X50529862Y41850590D01*
X50648597Y41826433D01*
X50653772Y41826243D01*
X50653774Y41826243D01*
X50866673Y41818436D01*
X50866677Y41818436D01*
X50871837Y41818247D01*
X50876957Y41818903D01*
X50876959Y41818903D01*
X51088288Y41845975D01*
X51088289Y41845975D01*
X51093416Y41846632D01*
X51098366Y41848117D01*
X51302429Y41909339D01*
X51302434Y41909341D01*
X51307384Y41910826D01*
X51507994Y42009104D01*
X51689860Y42138827D01*
X51848096Y42296511D01*
X51978453Y42477923D01*
X51979776Y42476972D01*
X52026645Y42520143D01*
X52096580Y42532375D01*
X52162026Y42504856D01*
X52189875Y42473006D01*
X52249987Y42374912D01*
X52396250Y42206062D01*
X52403233Y42200265D01*
X52442868Y42141364D01*
X52444368Y42070383D01*
X52411844Y42014225D01*
X50311089Y39913470D01*
X50296677Y39901084D01*
X50285082Y39892551D01*
X50285077Y39892546D01*
X50279182Y39888208D01*
X50274443Y39882630D01*
X50274440Y39882627D01*
X50244965Y39847932D01*
X50238035Y39840416D01*
X50232340Y39834721D01*
X50230060Y39831839D01*
X50214719Y39812449D01*
X50211928Y39809045D01*
X50169409Y39758997D01*
X50164667Y39753415D01*
X50161339Y39746899D01*
X50157972Y39741850D01*
X50154805Y39736721D01*
X50150266Y39730984D01*
X50119345Y39664825D01*
X50117442Y39660931D01*
X50084231Y39595892D01*
X50082492Y39588784D01*
X50080393Y39583141D01*
X50078476Y39577378D01*
X50075378Y39570750D01*
X50073888Y39563588D01*
X50073888Y39563587D01*
X50060514Y39499288D01*
X50059544Y39495004D01*
X50042192Y39424090D01*
X50041500Y39412936D01*
X50041464Y39412938D01*
X50041225Y39408945D01*
X50040851Y39404753D01*
X50039360Y39397585D01*
X50039558Y39390268D01*
X50041454Y39320179D01*
X50041500Y39316772D01*
X50041500Y3907100D01*
X50021498Y3838979D01*
X49990672Y3806283D01*
X49988641Y3805051D01*
X49812770Y3652439D01*
X49809387Y3648313D01*
X49809383Y3648309D01*
X49736262Y3559131D01*
X49665128Y3472376D01*
X49662490Y3467741D01*
X49662487Y3467737D01*
X49599589Y3357240D01*
X49549935Y3270011D01*
X49548114Y3264995D01*
X49548112Y3264990D01*
X49506302Y3149806D01*
X49470485Y3051131D01*
X49429050Y2821993D01*
X49428855Y2817854D01*
X49428854Y2817847D01*
X49427970Y2799095D01*
X49427900Y2797606D01*
X49427900Y2329132D01*
X49442626Y2155580D01*
X49443964Y2150423D01*
X49443965Y2150420D01*
X49476816Y2023854D01*
X49501125Y1930194D01*
X49503317Y1925328D01*
X49503318Y1925325D01*
X49511594Y1906954D01*
X49596762Y1717887D01*
X49726804Y1524728D01*
X49887532Y1356242D01*
X50074350Y1217246D01*
X50079102Y1214830D01*
X50276244Y1114598D01*
X50281916Y1111714D01*
X50393106Y1077188D01*
X50499193Y1044247D01*
X50499199Y1044246D01*
X50504296Y1042663D01*
X50628660Y1026180D01*
X50729848Y1012768D01*
X50729852Y1012768D01*
X50735132Y1012068D01*
X50740462Y1012268D01*
X50740463Y1012268D01*
X50851477Y1016436D01*
X50967822Y1020803D01*
X51072005Y1042663D01*
X51190486Y1067523D01*
X51190489Y1067524D01*
X51195713Y1068620D01*
X51412290Y1154150D01*
X51611359Y1274949D01*
X51615855Y1278850D01*
X51783197Y1424061D01*
X51783199Y1424063D01*
X51787230Y1427561D01*
X51790613Y1431687D01*
X51790617Y1431691D01*
X51889776Y1552626D01*
X51934872Y1607624D01*
X51937672Y1612542D01*
X51960845Y1653252D01*
X52011927Y1702558D01*
X52081558Y1716420D01*
X52147629Y1690437D01*
X52174867Y1661287D01*
X52266804Y1524728D01*
X52427532Y1356242D01*
X52614350Y1217246D01*
X52619102Y1214830D01*
X52816244Y1114598D01*
X52821916Y1111714D01*
X52933106Y1077188D01*
X53039193Y1044247D01*
X53039199Y1044246D01*
X53044296Y1042663D01*
X53168660Y1026180D01*
X53269848Y1012768D01*
X53269852Y1012768D01*
X53275132Y1012068D01*
X53280462Y1012268D01*
X53280463Y1012268D01*
X53391477Y1016436D01*
X53507822Y1020803D01*
X53612005Y1042663D01*
X53730486Y1067523D01*
X53730489Y1067524D01*
X53735713Y1068620D01*
X53952290Y1154150D01*
X54151359Y1274949D01*
X54155855Y1278850D01*
X54323197Y1424061D01*
X54323199Y1424063D01*
X54327230Y1427561D01*
X54330613Y1431687D01*
X54330617Y1431691D01*
X54429776Y1552626D01*
X54474872Y1607624D01*
X54477672Y1612542D01*
X54500845Y1653252D01*
X54551927Y1702558D01*
X54621558Y1716420D01*
X54687629Y1690437D01*
X54714867Y1661287D01*
X54806804Y1524728D01*
X54967532Y1356242D01*
X55154350Y1217246D01*
X55159102Y1214830D01*
X55356244Y1114598D01*
X55361916Y1111714D01*
X55473106Y1077188D01*
X55579193Y1044247D01*
X55579199Y1044246D01*
X55584296Y1042663D01*
X55708660Y1026180D01*
X55809848Y1012768D01*
X55809852Y1012768D01*
X55815132Y1012068D01*
X55820462Y1012268D01*
X55820463Y1012268D01*
X55931477Y1016436D01*
X56047822Y1020803D01*
X56152005Y1042663D01*
X56270486Y1067523D01*
X56270489Y1067524D01*
X56275713Y1068620D01*
X56492290Y1154150D01*
X56691359Y1274949D01*
X56695855Y1278850D01*
X56863197Y1424061D01*
X56863199Y1424063D01*
X56867230Y1427561D01*
X56870613Y1431687D01*
X56870617Y1431691D01*
X56969776Y1552626D01*
X57014872Y1607624D01*
X57017672Y1612542D01*
X57040845Y1653252D01*
X57091927Y1702558D01*
X57161558Y1716420D01*
X57227629Y1690437D01*
X57254867Y1661287D01*
X57346804Y1524728D01*
X57507532Y1356242D01*
X57694350Y1217246D01*
X57699102Y1214830D01*
X57896244Y1114598D01*
X57901916Y1111714D01*
X58013106Y1077188D01*
X58119193Y1044247D01*
X58119199Y1044246D01*
X58124296Y1042663D01*
X58248660Y1026180D01*
X58349848Y1012768D01*
X58349852Y1012768D01*
X58355132Y1012068D01*
X58360462Y1012268D01*
X58360463Y1012268D01*
X58471477Y1016436D01*
X58587822Y1020803D01*
X58692005Y1042663D01*
X58810486Y1067523D01*
X58810489Y1067524D01*
X58815713Y1068620D01*
X59032290Y1154150D01*
X59231359Y1274949D01*
X59235855Y1278850D01*
X59403197Y1424061D01*
X59403199Y1424063D01*
X59407230Y1427561D01*
X59410613Y1431687D01*
X59410617Y1431691D01*
X59509776Y1552626D01*
X59554872Y1607624D01*
X59557672Y1612542D01*
X59580845Y1653252D01*
X59631927Y1702558D01*
X59701558Y1716420D01*
X59767629Y1690437D01*
X59794867Y1661287D01*
X59886804Y1524728D01*
X60047532Y1356242D01*
X60234350Y1217246D01*
X60239102Y1214830D01*
X60436244Y1114598D01*
X60441916Y1111714D01*
X60553106Y1077188D01*
X60659193Y1044247D01*
X60659199Y1044246D01*
X60664296Y1042663D01*
X60788660Y1026180D01*
X60889848Y1012768D01*
X60889852Y1012768D01*
X60895132Y1012068D01*
X60900462Y1012268D01*
X60900463Y1012268D01*
X61011477Y1016436D01*
X61127822Y1020803D01*
X61232005Y1042663D01*
X61350486Y1067523D01*
X61350489Y1067524D01*
X61355713Y1068620D01*
X61572290Y1154150D01*
X61771359Y1274949D01*
X61775855Y1278850D01*
X61943197Y1424061D01*
X61943199Y1424063D01*
X61947230Y1427561D01*
X61950613Y1431687D01*
X61950617Y1431691D01*
X62049776Y1552626D01*
X62094872Y1607624D01*
X62097672Y1612542D01*
X62120845Y1653252D01*
X62171927Y1702558D01*
X62241558Y1716420D01*
X62307629Y1690437D01*
X62334867Y1661287D01*
X62426804Y1524728D01*
X62587532Y1356242D01*
X62774350Y1217246D01*
X62779102Y1214830D01*
X62976244Y1114598D01*
X62981916Y1111714D01*
X63093106Y1077188D01*
X63199193Y1044247D01*
X63199199Y1044246D01*
X63204296Y1042663D01*
X63328660Y1026180D01*
X63429848Y1012768D01*
X63429852Y1012768D01*
X63435132Y1012068D01*
X63440462Y1012268D01*
X63440463Y1012268D01*
X63551477Y1016436D01*
X63667822Y1020803D01*
X63772005Y1042663D01*
X63890486Y1067523D01*
X63890489Y1067524D01*
X63895713Y1068620D01*
X64112290Y1154150D01*
X64311359Y1274949D01*
X64315855Y1278850D01*
X64483197Y1424061D01*
X64483199Y1424063D01*
X64487230Y1427561D01*
X64490613Y1431687D01*
X64490617Y1431691D01*
X64589776Y1552626D01*
X64634872Y1607624D01*
X64637672Y1612542D01*
X64747422Y1805346D01*
X64750065Y1809989D01*
X64770239Y1865565D01*
X64827695Y2023854D01*
X64827696Y2023858D01*
X64829515Y2028869D01*
X64870950Y2258007D01*
X64871632Y2272452D01*
X64872030Y2280905D01*
X64872030Y2280914D01*
X64872100Y2282394D01*
X64872100Y2750868D01*
X64863258Y2855076D01*
X64857825Y2919109D01*
X64857824Y2919113D01*
X64857374Y2924420D01*
X64850781Y2949823D01*
X64800217Y3144637D01*
X64800216Y3144641D01*
X64798875Y3149806D01*
X64790164Y3169145D01*
X64705433Y3357240D01*
X64703238Y3362113D01*
X64573196Y3555272D01*
X64412468Y3723758D01*
X64225650Y3862754D01*
X64098574Y3927363D01*
X64022842Y3965867D01*
X64022841Y3965867D01*
X64018084Y3968286D01*
X63885621Y4009417D01*
X63800807Y4035753D01*
X63800801Y4035754D01*
X63795704Y4037337D01*
X63670368Y4053949D01*
X63570152Y4067232D01*
X63570148Y4067232D01*
X63564868Y4067932D01*
X63559538Y4067732D01*
X63559537Y4067732D01*
X63448523Y4063565D01*
X63332178Y4059197D01*
X63307167Y4053949D01*
X63109514Y4012477D01*
X63109511Y4012476D01*
X63104287Y4011380D01*
X62887710Y3925850D01*
X62688641Y3805051D01*
X62684611Y3801554D01*
X62590075Y3719520D01*
X62512770Y3652439D01*
X62509387Y3648313D01*
X62509383Y3648309D01*
X62436262Y3559131D01*
X62365128Y3472376D01*
X62362490Y3467741D01*
X62362487Y3467737D01*
X62339155Y3426748D01*
X62288073Y3377442D01*
X62218442Y3363580D01*
X62152371Y3389563D01*
X62125133Y3418713D01*
X62036388Y3550530D01*
X62033196Y3555272D01*
X61872468Y3723758D01*
X61685650Y3862754D01*
X61558574Y3927363D01*
X61482842Y3965867D01*
X61482841Y3965867D01*
X61478084Y3968286D01*
X61345621Y4009417D01*
X61260807Y4035753D01*
X61260801Y4035754D01*
X61255704Y4037337D01*
X61130368Y4053949D01*
X61030152Y4067232D01*
X61030148Y4067232D01*
X61024868Y4067932D01*
X61019538Y4067732D01*
X61019537Y4067732D01*
X60908523Y4063565D01*
X60792178Y4059197D01*
X60767167Y4053949D01*
X60569514Y4012477D01*
X60569511Y4012476D01*
X60564287Y4011380D01*
X60347710Y3925850D01*
X60148641Y3805051D01*
X60144611Y3801554D01*
X60050075Y3719520D01*
X59972770Y3652439D01*
X59969387Y3648313D01*
X59969383Y3648309D01*
X59896262Y3559131D01*
X59825128Y3472376D01*
X59822490Y3467741D01*
X59822487Y3467737D01*
X59799155Y3426748D01*
X59748073Y3377442D01*
X59678442Y3363580D01*
X59612371Y3389563D01*
X59585133Y3418713D01*
X59496388Y3550530D01*
X59493196Y3555272D01*
X59332468Y3723758D01*
X59145650Y3862754D01*
X59018574Y3927363D01*
X58942842Y3965867D01*
X58942841Y3965867D01*
X58938084Y3968286D01*
X58805621Y4009417D01*
X58720807Y4035753D01*
X58720801Y4035754D01*
X58715704Y4037337D01*
X58590368Y4053949D01*
X58490152Y4067232D01*
X58490148Y4067232D01*
X58484868Y4067932D01*
X58479538Y4067732D01*
X58479537Y4067732D01*
X58368523Y4063565D01*
X58252178Y4059197D01*
X58227167Y4053949D01*
X58029514Y4012477D01*
X58029511Y4012476D01*
X58024287Y4011380D01*
X57807710Y3925850D01*
X57608641Y3805051D01*
X57604611Y3801554D01*
X57510075Y3719520D01*
X57432770Y3652439D01*
X57429387Y3648313D01*
X57429383Y3648309D01*
X57356262Y3559131D01*
X57285128Y3472376D01*
X57282490Y3467741D01*
X57282487Y3467737D01*
X57259155Y3426748D01*
X57208073Y3377442D01*
X57138442Y3363580D01*
X57072371Y3389563D01*
X57045133Y3418713D01*
X56956388Y3550530D01*
X56953196Y3555272D01*
X56792468Y3723758D01*
X56605650Y3862754D01*
X56478574Y3927363D01*
X56402842Y3965867D01*
X56402841Y3965867D01*
X56398084Y3968286D01*
X56265621Y4009417D01*
X56180807Y4035753D01*
X56180801Y4035754D01*
X56175704Y4037337D01*
X56050368Y4053949D01*
X55950152Y4067232D01*
X55950148Y4067232D01*
X55944868Y4067932D01*
X55939538Y4067732D01*
X55939537Y4067732D01*
X55828523Y4063565D01*
X55712178Y4059197D01*
X55687167Y4053949D01*
X55489514Y4012477D01*
X55489511Y4012476D01*
X55484287Y4011380D01*
X55267710Y3925850D01*
X55068641Y3805051D01*
X55064611Y3801554D01*
X54970075Y3719520D01*
X54892770Y3652439D01*
X54889387Y3648313D01*
X54889383Y3648309D01*
X54816262Y3559131D01*
X54745128Y3472376D01*
X54742490Y3467741D01*
X54742487Y3467737D01*
X54719155Y3426748D01*
X54668073Y3377442D01*
X54598442Y3363580D01*
X54532371Y3389563D01*
X54505133Y3418713D01*
X54416388Y3550530D01*
X54413196Y3555272D01*
X54252468Y3723758D01*
X54200089Y3762729D01*
X54149287Y3800527D01*
X54106574Y3857237D01*
X54098500Y3901616D01*
X54098500Y11162034D01*
X58358257Y11162034D01*
X58388565Y11027554D01*
X58391645Y11017725D01*
X58471770Y10820397D01*
X58476413Y10811206D01*
X58587694Y10629612D01*
X58593777Y10621301D01*
X58733213Y10460333D01*
X58740580Y10453117D01*
X58904434Y10317084D01*
X58912881Y10311169D01*
X59096756Y10203721D01*
X59106042Y10199271D01*
X59305001Y10123297D01*
X59314899Y10120421D01*
X59418250Y10099394D01*
X59432299Y10100590D01*
X59436000Y10110935D01*
X59436000Y10111483D01*
X59944000Y10111483D01*
X59948064Y10097641D01*
X59961478Y10095607D01*
X59968184Y10096466D01*
X59978262Y10098608D01*
X60182255Y10159809D01*
X60191842Y10163567D01*
X60383095Y10257261D01*
X60391945Y10262536D01*
X60565328Y10386208D01*
X60573200Y10392861D01*
X60724052Y10543188D01*
X60730730Y10551035D01*
X60855003Y10723980D01*
X60860313Y10732817D01*
X60954670Y10923733D01*
X60958469Y10933328D01*
X61020377Y11137090D01*
X61022555Y11147163D01*
X61023986Y11158038D01*
X61021775Y11172222D01*
X61008617Y11176000D01*
X59962115Y11176000D01*
X59946876Y11171525D01*
X59945671Y11170135D01*
X59944000Y11162452D01*
X59944000Y10111483D01*
X59436000Y10111483D01*
X59436000Y11157885D01*
X59431525Y11173124D01*
X59430135Y11174329D01*
X59422452Y11176000D01*
X58373225Y11176000D01*
X58359694Y11172027D01*
X58358257Y11162034D01*
X54098500Y11162034D01*
X54098500Y13071866D01*
X58331500Y13071866D01*
X58338255Y13009684D01*
X58389385Y12873295D01*
X58476739Y12756739D01*
X58593295Y12669385D01*
X58601704Y12666233D01*
X58601705Y12666232D01*
X58710960Y12625274D01*
X58767725Y12582633D01*
X58792425Y12516071D01*
X58777218Y12446722D01*
X58757825Y12420241D01*
X58634590Y12291283D01*
X58628104Y12283273D01*
X58508098Y12107351D01*
X58503000Y12098377D01*
X58413338Y11905217D01*
X58409775Y11895530D01*
X58354389Y11695817D01*
X58355912Y11687393D01*
X58368292Y11684000D01*
X61008344Y11684000D01*
X61021875Y11687973D01*
X61023180Y11697053D01*
X60981214Y11864125D01*
X60977894Y11873876D01*
X60892972Y12069186D01*
X60888105Y12078261D01*
X60772426Y12257074D01*
X60766136Y12265243D01*
X60622293Y12423323D01*
X60591241Y12487169D01*
X60599635Y12557667D01*
X60644812Y12612436D01*
X60671256Y12626105D01*
X60778297Y12666233D01*
X60786705Y12669385D01*
X60903261Y12756739D01*
X60990615Y12873295D01*
X61041745Y13009684D01*
X61048500Y13071866D01*
X61048500Y14868134D01*
X61041745Y14930316D01*
X60990615Y15066705D01*
X60903261Y15183261D01*
X60786705Y15270615D01*
X60650316Y15321745D01*
X60588134Y15328500D01*
X58791866Y15328500D01*
X58729684Y15321745D01*
X58593295Y15270615D01*
X58476739Y15183261D01*
X58389385Y15066705D01*
X58338255Y14930316D01*
X58331500Y14868134D01*
X58331500Y13071866D01*
X54098500Y13071866D01*
X54098500Y19063305D01*
X58352251Y19063305D01*
X58352548Y19058152D01*
X58352548Y19058149D01*
X58357868Y18965888D01*
X58365110Y18840285D01*
X58366247Y18835239D01*
X58366248Y18835233D01*
X58378928Y18778970D01*
X58414222Y18622361D01*
X58498266Y18415384D01*
X58614987Y18224912D01*
X58761250Y18056062D01*
X58933126Y17913368D01*
X59126000Y17800662D01*
X59334692Y17720970D01*
X59339760Y17719939D01*
X59339763Y17719938D01*
X59433658Y17700835D01*
X59553597Y17676433D01*
X59558772Y17676243D01*
X59558774Y17676243D01*
X59771673Y17668436D01*
X59771677Y17668436D01*
X59776837Y17668247D01*
X59781957Y17668903D01*
X59781959Y17668903D01*
X59993288Y17695975D01*
X59993289Y17695975D01*
X59998416Y17696632D01*
X60003366Y17698117D01*
X60207429Y17759339D01*
X60207434Y17759341D01*
X60212384Y17760826D01*
X60412994Y17859104D01*
X60594860Y17988827D01*
X60753096Y18146511D01*
X60809068Y18224404D01*
X60880435Y18323723D01*
X60883453Y18327923D01*
X60898101Y18357560D01*
X60980136Y18523547D01*
X60980137Y18523549D01*
X60982430Y18528189D01*
X61047370Y18741931D01*
X61076529Y18963410D01*
X61078156Y19030000D01*
X61059852Y19252639D01*
X61005431Y19469298D01*
X60916354Y19674160D01*
X60795014Y19861723D01*
X60644670Y20026949D01*
X60640619Y20030148D01*
X60640615Y20030152D01*
X60473414Y20162200D01*
X60473410Y20162202D01*
X60469359Y20165402D01*
X60428053Y20188204D01*
X60378084Y20238636D01*
X60363312Y20308079D01*
X60388428Y20374484D01*
X60415780Y20401091D01*
X60459603Y20432350D01*
X60594860Y20528827D01*
X60753096Y20686511D01*
X60812594Y20769311D01*
X60880435Y20863723D01*
X60883453Y20867923D01*
X60982430Y21068189D01*
X61047370Y21281931D01*
X61076529Y21503410D01*
X61078156Y21570000D01*
X61059852Y21792639D01*
X61005431Y22009298D01*
X60916354Y22214160D01*
X60829413Y22348550D01*
X60797822Y22397383D01*
X60797820Y22397386D01*
X60795014Y22401723D01*
X60644670Y22566949D01*
X60640619Y22570148D01*
X60640615Y22570152D01*
X60473414Y22702200D01*
X60473410Y22702202D01*
X60469359Y22705402D01*
X60428053Y22728204D01*
X60378084Y22778636D01*
X60363312Y22848079D01*
X60388428Y22914484D01*
X60415780Y22941091D01*
X60474088Y22982682D01*
X60594860Y23068827D01*
X60753096Y23226511D01*
X60812594Y23309311D01*
X60880435Y23403723D01*
X60883453Y23407923D01*
X60898102Y23437562D01*
X60980136Y23603547D01*
X60980137Y23603549D01*
X60982430Y23608189D01*
X61047370Y23821931D01*
X61076529Y24043410D01*
X61078156Y24110000D01*
X61059852Y24332639D01*
X61005431Y24549298D01*
X60916354Y24754160D01*
X60795014Y24941723D01*
X60644670Y25106949D01*
X60640619Y25110148D01*
X60640615Y25110152D01*
X60473414Y25242200D01*
X60473410Y25242202D01*
X60469359Y25245402D01*
X60428053Y25268204D01*
X60378084Y25318636D01*
X60363312Y25388079D01*
X60388428Y25454484D01*
X60415780Y25481091D01*
X60459603Y25512350D01*
X60594860Y25608827D01*
X60753096Y25766511D01*
X60812594Y25849311D01*
X60880435Y25943723D01*
X60883453Y25947923D01*
X60898102Y25977562D01*
X60980136Y26143547D01*
X60980137Y26143549D01*
X60982430Y26148189D01*
X61047370Y26361931D01*
X61076529Y26583410D01*
X61078156Y26650000D01*
X61059852Y26872639D01*
X61005431Y27089298D01*
X60916354Y27294160D01*
X60795014Y27481723D01*
X60644670Y27646949D01*
X60640619Y27650148D01*
X60640615Y27650152D01*
X60473414Y27782200D01*
X60473410Y27782202D01*
X60469359Y27785402D01*
X60428053Y27808204D01*
X60378084Y27858636D01*
X60363312Y27928079D01*
X60388428Y27994484D01*
X60415780Y28021091D01*
X60459603Y28052350D01*
X60594860Y28148827D01*
X60753096Y28306511D01*
X60812594Y28389311D01*
X60880435Y28483723D01*
X60883453Y28487923D01*
X60898102Y28517562D01*
X60980136Y28683547D01*
X60980137Y28683549D01*
X60982430Y28688189D01*
X61047370Y28901931D01*
X61076529Y29123410D01*
X61078156Y29190000D01*
X61059852Y29412639D01*
X61005431Y29629298D01*
X60916354Y29834160D01*
X60795014Y30021723D01*
X60644670Y30186949D01*
X60640619Y30190148D01*
X60640615Y30190152D01*
X60473414Y30322200D01*
X60473410Y30322202D01*
X60469359Y30325402D01*
X60428053Y30348204D01*
X60378084Y30398636D01*
X60363312Y30468079D01*
X60388428Y30534484D01*
X60415780Y30561091D01*
X60464436Y30595797D01*
X60594860Y30688827D01*
X60617320Y30711208D01*
X60749435Y30842863D01*
X60753096Y30846511D01*
X60768673Y30868188D01*
X60880435Y31023723D01*
X60883453Y31027923D01*
X60898228Y31057817D01*
X60980136Y31223547D01*
X60980137Y31223549D01*
X60982430Y31228189D01*
X61047370Y31441931D01*
X61076529Y31663410D01*
X61078156Y31730000D01*
X61059852Y31952639D01*
X61005431Y32169298D01*
X60916354Y32374160D01*
X60795014Y32561723D01*
X60791540Y32565541D01*
X60791533Y32565550D01*
X60647435Y32723912D01*
X60616383Y32787758D01*
X60624779Y32858256D01*
X60669956Y32913024D01*
X60696400Y32926693D01*
X60803052Y32966675D01*
X60818649Y32975214D01*
X60920724Y33051715D01*
X60933285Y33064276D01*
X61009786Y33166351D01*
X61018324Y33181946D01*
X61063478Y33302394D01*
X61067105Y33317649D01*
X61072631Y33368514D01*
X61073000Y33375328D01*
X61073000Y33997885D01*
X61068525Y34013124D01*
X61067135Y34014329D01*
X61059452Y34016000D01*
X58375116Y34016000D01*
X58359877Y34011525D01*
X58358672Y34010135D01*
X58357001Y34002452D01*
X58357001Y33375331D01*
X58357371Y33368510D01*
X58362895Y33317648D01*
X58366521Y33302396D01*
X58411676Y33181946D01*
X58420214Y33166351D01*
X58496715Y33064276D01*
X58509276Y33051715D01*
X58611351Y32975214D01*
X58626946Y32966676D01*
X58735827Y32925858D01*
X58792591Y32883216D01*
X58817291Y32816655D01*
X58802083Y32747306D01*
X58782691Y32720825D01*
X58682789Y32616283D01*
X58655629Y32587862D01*
X58529743Y32403320D01*
X58514003Y32369410D01*
X58449392Y32230217D01*
X58435688Y32200695D01*
X58375989Y31985430D01*
X58352251Y31763305D01*
X58352548Y31758152D01*
X58352548Y31758149D01*
X58358011Y31663410D01*
X58365110Y31540285D01*
X58366247Y31535239D01*
X58366248Y31535233D01*
X58377111Y31487034D01*
X58414222Y31322361D01*
X58498266Y31115384D01*
X58614987Y30924912D01*
X58761250Y30756062D01*
X58933126Y30613368D01*
X58979347Y30586359D01*
X59006445Y30570524D01*
X59055169Y30518886D01*
X59068240Y30449103D01*
X59041509Y30383331D01*
X59001055Y30349973D01*
X58988607Y30343493D01*
X58984474Y30340390D01*
X58984471Y30340388D01*
X58814100Y30212470D01*
X58809965Y30209365D01*
X58806393Y30205627D01*
X58679520Y30072862D01*
X58655629Y30047862D01*
X58529743Y29863320D01*
X58514003Y29829410D01*
X58447293Y29685695D01*
X58435688Y29660695D01*
X58375989Y29445430D01*
X58352251Y29223305D01*
X58352548Y29218152D01*
X58352548Y29218149D01*
X58364254Y29015123D01*
X58365110Y29000285D01*
X58366247Y28995239D01*
X58366248Y28995233D01*
X58380485Y28932061D01*
X58414222Y28782361D01*
X58498266Y28575384D01*
X58500965Y28570980D01*
X58598663Y28411551D01*
X58614987Y28384912D01*
X58761250Y28216062D01*
X58933126Y28073368D01*
X58979805Y28046091D01*
X59006445Y28030524D01*
X59055169Y27978886D01*
X59068240Y27909103D01*
X59041509Y27843331D01*
X59001055Y27809973D01*
X58988607Y27803493D01*
X58984474Y27800390D01*
X58984471Y27800388D01*
X58814100Y27672470D01*
X58809965Y27669365D01*
X58655629Y27507862D01*
X58529743Y27323320D01*
X58435688Y27120695D01*
X58375989Y26905430D01*
X58352251Y26683305D01*
X58352548Y26678152D01*
X58352548Y26678149D01*
X58358011Y26583410D01*
X58365110Y26460285D01*
X58366247Y26455239D01*
X58366248Y26455233D01*
X58380485Y26392061D01*
X58414222Y26242361D01*
X58498266Y26035384D01*
X58614987Y25844912D01*
X58761250Y25676062D01*
X58933126Y25533368D01*
X58979805Y25506091D01*
X59006445Y25490524D01*
X59055169Y25438886D01*
X59068240Y25369103D01*
X59041509Y25303331D01*
X59001055Y25269973D01*
X58988607Y25263493D01*
X58984474Y25260390D01*
X58984471Y25260388D01*
X58814100Y25132470D01*
X58809965Y25129365D01*
X58655629Y24967862D01*
X58529743Y24783320D01*
X58435688Y24580695D01*
X58375989Y24365430D01*
X58352251Y24143305D01*
X58352548Y24138152D01*
X58352548Y24138149D01*
X58358011Y24043410D01*
X58365110Y23920285D01*
X58366247Y23915239D01*
X58366248Y23915233D01*
X58380485Y23852061D01*
X58414222Y23702361D01*
X58498266Y23495384D01*
X58614987Y23304912D01*
X58761250Y23136062D01*
X58933126Y22993368D01*
X58951413Y22982682D01*
X59006445Y22950524D01*
X59055169Y22898886D01*
X59068240Y22829103D01*
X59041509Y22763331D01*
X59001055Y22729973D01*
X58988607Y22723493D01*
X58984474Y22720390D01*
X58984471Y22720388D01*
X58814100Y22592470D01*
X58809965Y22589365D01*
X58655629Y22427862D01*
X58529743Y22243320D01*
X58435688Y22040695D01*
X58375989Y21825430D01*
X58352251Y21603305D01*
X58352548Y21598152D01*
X58352548Y21598149D01*
X58358011Y21503410D01*
X58365110Y21380285D01*
X58366247Y21375239D01*
X58366248Y21375233D01*
X58386119Y21287061D01*
X58414222Y21162361D01*
X58498266Y20955384D01*
X58614987Y20764912D01*
X58761250Y20596062D01*
X58933126Y20453368D01*
X58982035Y20424788D01*
X59006445Y20410524D01*
X59055169Y20358886D01*
X59068240Y20289103D01*
X59041509Y20223331D01*
X59001055Y20189973D01*
X58988607Y20183493D01*
X58984474Y20180390D01*
X58984471Y20180388D01*
X58960247Y20162200D01*
X58809965Y20049365D01*
X58655629Y19887862D01*
X58529743Y19703320D01*
X58514003Y19669410D01*
X58440379Y19510800D01*
X58435688Y19500695D01*
X58375989Y19285430D01*
X58352251Y19063305D01*
X54098500Y19063305D01*
X54098500Y34542115D01*
X58357000Y34542115D01*
X58361475Y34526876D01*
X58362865Y34525671D01*
X58370548Y34524000D01*
X59442885Y34524000D01*
X59458124Y34528475D01*
X59459329Y34529865D01*
X59461000Y34537548D01*
X59461000Y34542115D01*
X59969000Y34542115D01*
X59973475Y34526876D01*
X59974865Y34525671D01*
X59982548Y34524000D01*
X61054884Y34524000D01*
X61070123Y34528475D01*
X61071328Y34529865D01*
X61072999Y34537548D01*
X61072999Y35164669D01*
X61072629Y35171490D01*
X61067105Y35222352D01*
X61063479Y35237604D01*
X61018324Y35358054D01*
X61009786Y35373649D01*
X60933285Y35475724D01*
X60920724Y35488285D01*
X60818649Y35564786D01*
X60803054Y35573324D01*
X60682606Y35618478D01*
X60667351Y35622105D01*
X60616486Y35627631D01*
X60609672Y35628000D01*
X59987115Y35628000D01*
X59971876Y35623525D01*
X59970671Y35622135D01*
X59969000Y35614452D01*
X59969000Y34542115D01*
X59461000Y34542115D01*
X59461000Y35609884D01*
X59456525Y35625123D01*
X59455135Y35626328D01*
X59447452Y35627999D01*
X58820331Y35627999D01*
X58813510Y35627629D01*
X58762648Y35622105D01*
X58747396Y35618479D01*
X58626946Y35573324D01*
X58611351Y35564786D01*
X58509276Y35488285D01*
X58496715Y35475724D01*
X58420214Y35373649D01*
X58411676Y35358054D01*
X58366522Y35237606D01*
X58362895Y35222351D01*
X58357369Y35171486D01*
X58357000Y35164672D01*
X58357000Y34542115D01*
X54098500Y34542115D01*
X54098500Y38963329D01*
X54118502Y39031450D01*
X54135405Y39052424D01*
X56378911Y41295930D01*
X56393323Y41308316D01*
X56404918Y41316849D01*
X56404923Y41316854D01*
X56410818Y41321192D01*
X56415557Y41326770D01*
X56415560Y41326773D01*
X56445035Y41361468D01*
X56451965Y41368984D01*
X56457661Y41374680D01*
X56459924Y41377541D01*
X56459929Y41377546D01*
X56475285Y41396956D01*
X56478074Y41400358D01*
X56520596Y41450409D01*
X56520597Y41450410D01*
X56525333Y41455985D01*
X56528661Y41462502D01*
X56532027Y41467550D01*
X56535190Y41472672D01*
X56539735Y41478416D01*
X56570664Y41544595D01*
X56572563Y41548479D01*
X56605769Y41613508D01*
X56607510Y41620623D01*
X56609613Y41626278D01*
X56611523Y41632019D01*
X56614622Y41638650D01*
X56629493Y41710142D01*
X56630464Y41714430D01*
X56646474Y41779856D01*
X56646475Y41779862D01*
X56647808Y41785310D01*
X56648500Y41796464D01*
X56648535Y41796462D01*
X56648775Y41800434D01*
X56649152Y41804655D01*
X56650641Y41811815D01*
X56648546Y41889242D01*
X56648500Y41892650D01*
X56648500Y41987368D01*
X56668502Y42055489D01*
X56701331Y42089946D01*
X56769860Y42138827D01*
X56928096Y42296511D01*
X57058453Y42477923D01*
X57059640Y42477070D01*
X57106960Y42520638D01*
X57176897Y42532855D01*
X57242338Y42505322D01*
X57270166Y42473489D01*
X57327694Y42379612D01*
X57333777Y42371301D01*
X57473213Y42210333D01*
X57480580Y42203117D01*
X57644434Y42067084D01*
X57652881Y42061169D01*
X57836756Y41953721D01*
X57846042Y41949271D01*
X58045001Y41873297D01*
X58054899Y41870421D01*
X58158250Y41849394D01*
X58172299Y41850590D01*
X58176000Y41860935D01*
X58176000Y41861483D01*
X58684000Y41861483D01*
X58688064Y41847641D01*
X58701478Y41845607D01*
X58708184Y41846466D01*
X58718262Y41848608D01*
X58922255Y41909809D01*
X58931842Y41913567D01*
X59123095Y42007261D01*
X59131945Y42012536D01*
X59305328Y42136208D01*
X59313200Y42142861D01*
X59464052Y42293188D01*
X59470730Y42301035D01*
X59598022Y42478181D01*
X59599147Y42477373D01*
X59646669Y42521124D01*
X59716607Y42533339D01*
X59782046Y42505803D01*
X59809870Y42473972D01*
X59867690Y42379617D01*
X59873777Y42371301D01*
X60013213Y42210333D01*
X60020580Y42203117D01*
X60184434Y42067084D01*
X60192881Y42061169D01*
X60376756Y41953721D01*
X60386042Y41949271D01*
X60585001Y41873297D01*
X60594899Y41870421D01*
X60698250Y41849394D01*
X60712299Y41850590D01*
X60716000Y41860935D01*
X60716000Y41861483D01*
X61224000Y41861483D01*
X61228064Y41847641D01*
X61241478Y41845607D01*
X61248184Y41846466D01*
X61258262Y41848608D01*
X61462255Y41909809D01*
X61471842Y41913567D01*
X61663095Y42007261D01*
X61671945Y42012536D01*
X61845328Y42136208D01*
X61853200Y42142861D01*
X62004052Y42293188D01*
X62010730Y42301035D01*
X62138022Y42478181D01*
X62139279Y42477278D01*
X62186373Y42520638D01*
X62256311Y42532855D01*
X62321751Y42505322D01*
X62349579Y42473489D01*
X62409987Y42374912D01*
X62556250Y42206062D01*
X62728126Y42063368D01*
X62921000Y41950662D01*
X63129692Y41870970D01*
X63134760Y41869939D01*
X63134763Y41869938D01*
X63229862Y41850590D01*
X63348597Y41826433D01*
X63353772Y41826243D01*
X63353774Y41826243D01*
X63566673Y41818436D01*
X63566677Y41818436D01*
X63571837Y41818247D01*
X63576957Y41818903D01*
X63576959Y41818903D01*
X63788288Y41845975D01*
X63788289Y41845975D01*
X63793416Y41846632D01*
X63798366Y41848117D01*
X64002429Y41909339D01*
X64002434Y41909341D01*
X64007384Y41910826D01*
X64207994Y42009104D01*
X64389860Y42138827D01*
X64548096Y42296511D01*
X64678453Y42477923D01*
X64691995Y42505322D01*
X64775136Y42673547D01*
X64775137Y42673549D01*
X64777430Y42678189D01*
X64842370Y42891931D01*
X64871529Y43113410D01*
X64873156Y43180000D01*
X64854852Y43402639D01*
X64800431Y43619298D01*
X64711354Y43824160D01*
X64590014Y44011723D01*
X64439670Y44176949D01*
X64435619Y44180148D01*
X64435615Y44180152D01*
X64268414Y44312200D01*
X64268410Y44312202D01*
X64264359Y44315402D01*
X64228028Y44335458D01*
X64171657Y44366576D01*
X64068789Y44423362D01*
X64063920Y44425086D01*
X64063916Y44425088D01*
X63863087Y44496205D01*
X63863083Y44496206D01*
X63858212Y44497931D01*
X63853119Y44498838D01*
X63853116Y44498839D01*
X63643373Y44536200D01*
X63643367Y44536201D01*
X63638284Y44537106D01*
X63564452Y44538008D01*
X63420081Y44539772D01*
X63420079Y44539772D01*
X63414911Y44539835D01*
X63194091Y44506045D01*
X62981756Y44436643D01*
X62783607Y44333493D01*
X62779474Y44330390D01*
X62779471Y44330388D01*
X62609100Y44202470D01*
X62604965Y44199365D01*
X62450629Y44037862D01*
X62447720Y44033597D01*
X62447714Y44033589D01*
X62435404Y44015543D01*
X62343204Y43880382D01*
X62342898Y43879934D01*
X62287987Y43834931D01*
X62217462Y43826760D01*
X62153715Y43858014D01*
X62133018Y43882498D01*
X62052426Y44007074D01*
X62046136Y44015243D01*
X61902806Y44172760D01*
X61895273Y44179785D01*
X61728139Y44311778D01*
X61719552Y44317483D01*
X61533117Y44420401D01*
X61523705Y44424631D01*
X61322959Y44495720D01*
X61312988Y44498354D01*
X61241837Y44511028D01*
X61228540Y44509568D01*
X61224000Y44495011D01*
X61224000Y41861483D01*
X60716000Y41861483D01*
X60716000Y42907885D01*
X60711525Y42923124D01*
X60710135Y42924329D01*
X60702452Y42926000D01*
X58702115Y42926000D01*
X58686876Y42921525D01*
X58685671Y42920135D01*
X58684000Y42912452D01*
X58684000Y41861483D01*
X58176000Y41861483D01*
X58176000Y43452115D01*
X58684000Y43452115D01*
X58688475Y43436876D01*
X58689865Y43435671D01*
X58697548Y43434000D01*
X60697885Y43434000D01*
X60713124Y43438475D01*
X60714329Y43439865D01*
X60716000Y43447548D01*
X60716000Y44496898D01*
X60712082Y44510242D01*
X60697806Y44512229D01*
X60659324Y44506340D01*
X60649288Y44503949D01*
X60446868Y44437788D01*
X60437359Y44433791D01*
X60248463Y44335458D01*
X60239738Y44329964D01*
X60069433Y44202095D01*
X60061726Y44195252D01*
X59914590Y44041283D01*
X59908104Y44033273D01*
X59803193Y43879479D01*
X59748282Y43834476D01*
X59677757Y43826305D01*
X59614010Y43857559D01*
X59593313Y43882043D01*
X59512427Y44007074D01*
X59506136Y44015243D01*
X59362806Y44172760D01*
X59355273Y44179785D01*
X59188139Y44311778D01*
X59179552Y44317483D01*
X58993117Y44420401D01*
X58983705Y44424631D01*
X58782959Y44495720D01*
X58772988Y44498354D01*
X58701837Y44511028D01*
X58688540Y44509568D01*
X58684000Y44495011D01*
X58684000Y43452115D01*
X58176000Y43452115D01*
X58176000Y44496898D01*
X58172082Y44510242D01*
X58157806Y44512229D01*
X58119324Y44506340D01*
X58109288Y44503949D01*
X57906868Y44437788D01*
X57897359Y44433791D01*
X57708463Y44335458D01*
X57699738Y44329964D01*
X57529433Y44202095D01*
X57521726Y44195252D01*
X57374590Y44041283D01*
X57368109Y44033278D01*
X57263498Y43879926D01*
X57208587Y43834924D01*
X57138062Y43826753D01*
X57074315Y43858007D01*
X57053618Y43882491D01*
X56972822Y44007383D01*
X56972820Y44007386D01*
X56970014Y44011723D01*
X56819670Y44176949D01*
X56815619Y44180148D01*
X56815615Y44180152D01*
X56648414Y44312200D01*
X56648410Y44312202D01*
X56644359Y44315402D01*
X56608028Y44335458D01*
X56551657Y44366576D01*
X56448789Y44423362D01*
X56443920Y44425086D01*
X56443916Y44425088D01*
X56243087Y44496205D01*
X56243083Y44496206D01*
X56238212Y44497931D01*
X56233119Y44498838D01*
X56233116Y44498839D01*
X56023373Y44536200D01*
X56023367Y44536201D01*
X56018284Y44537106D01*
X55944452Y44538008D01*
X55800081Y44539772D01*
X55800079Y44539772D01*
X55794911Y44539835D01*
X55574091Y44506045D01*
X55361756Y44436643D01*
X55163607Y44333493D01*
X55159474Y44330390D01*
X55159471Y44330388D01*
X54989100Y44202470D01*
X54984965Y44199365D01*
X54830629Y44037862D01*
X54723201Y43880379D01*
X54668293Y43835379D01*
X54597768Y43827208D01*
X54534021Y43858462D01*
X54513324Y43882946D01*
X54432822Y44007383D01*
X54432820Y44007386D01*
X54430014Y44011723D01*
X54279670Y44176949D01*
X54275619Y44180148D01*
X54275615Y44180152D01*
X54108414Y44312200D01*
X54108410Y44312202D01*
X54104359Y44315402D01*
X54068028Y44335458D01*
X54011657Y44366576D01*
X53908789Y44423362D01*
X53903920Y44425086D01*
X53903916Y44425088D01*
X53703087Y44496205D01*
X53703083Y44496206D01*
X53698212Y44497931D01*
X53693119Y44498838D01*
X53693116Y44498839D01*
X53505144Y44532322D01*
X53441586Y44563960D01*
X53405223Y44624937D01*
X53407600Y44695894D01*
X53438145Y44745464D01*
X57972099Y49279418D01*
X58034411Y49313444D01*
X58098558Y49310655D01*
X58124296Y49302663D01*
X58129585Y49301962D01*
X58349848Y49272768D01*
X58349852Y49272768D01*
X58355132Y49272068D01*
X58360462Y49272268D01*
X58360463Y49272268D01*
X58471477Y49276436D01*
X58587822Y49280803D01*
X58692005Y49302663D01*
X58810486Y49327523D01*
X58810489Y49327524D01*
X58815713Y49328620D01*
X59032290Y49414150D01*
X59231359Y49534949D01*
X59235855Y49538850D01*
X59403197Y49684061D01*
X59403199Y49684063D01*
X59407230Y49687561D01*
X59410613Y49691687D01*
X59410617Y49691691D01*
X59509776Y49812626D01*
X59554872Y49867624D01*
X59580845Y49913252D01*
X59631927Y49962558D01*
X59701558Y49976420D01*
X59767629Y49950437D01*
X59794867Y49921287D01*
X59886804Y49784728D01*
X59890483Y49780871D01*
X59890485Y49780869D01*
X59975223Y49692041D01*
X60047532Y49616242D01*
X60234350Y49477246D01*
X60239102Y49474830D01*
X60436244Y49374598D01*
X60441916Y49371714D01*
X60528136Y49344942D01*
X60659193Y49304247D01*
X60659199Y49304246D01*
X60664296Y49302663D01*
X60788660Y49286180D01*
X60889848Y49272768D01*
X60889852Y49272768D01*
X60895132Y49272068D01*
X60900462Y49272268D01*
X60900463Y49272268D01*
X61011477Y49276436D01*
X61127822Y49280803D01*
X61232005Y49302663D01*
X61350486Y49327523D01*
X61350489Y49327524D01*
X61355713Y49328620D01*
X61572290Y49414150D01*
X61771359Y49534949D01*
X61775855Y49538850D01*
X61943197Y49684061D01*
X61943199Y49684063D01*
X61947230Y49687561D01*
X61950613Y49691687D01*
X61950617Y49691691D01*
X62049776Y49812626D01*
X62094872Y49867624D01*
X62120845Y49913252D01*
X62171927Y49962558D01*
X62241558Y49976420D01*
X62307629Y49950437D01*
X62334867Y49921287D01*
X62426804Y49784728D01*
X62430483Y49780871D01*
X62430485Y49780869D01*
X62515223Y49692041D01*
X62587532Y49616242D01*
X62774350Y49477246D01*
X62779102Y49474830D01*
X62976244Y49374598D01*
X62981916Y49371714D01*
X63068136Y49344942D01*
X63199193Y49304247D01*
X63199199Y49304246D01*
X63204296Y49302663D01*
X63328660Y49286180D01*
X63429848Y49272768D01*
X63429852Y49272768D01*
X63435132Y49272068D01*
X63440462Y49272268D01*
X63440463Y49272268D01*
X63551477Y49276436D01*
X63667822Y49280803D01*
X63772005Y49302663D01*
X63890486Y49327523D01*
X63890489Y49327524D01*
X63895713Y49328620D01*
X64112290Y49414150D01*
X64311359Y49534949D01*
X64315855Y49538850D01*
X64483197Y49684061D01*
X64483199Y49684063D01*
X64487230Y49687561D01*
X64490613Y49691687D01*
X64490617Y49691691D01*
X64589776Y49812626D01*
X64634872Y49867624D01*
X64665696Y49921773D01*
X64747422Y50065346D01*
X64750065Y50069989D01*
X64770239Y50125565D01*
X64827695Y50283854D01*
X64827696Y50283858D01*
X64829515Y50288869D01*
X64870950Y50518007D01*
X64872100Y50542394D01*
X64872100Y51010868D01*
X64857374Y51184420D01*
X64798875Y51409806D01*
X64790164Y51429145D01*
X64721667Y51581203D01*
X64703238Y51622113D01*
X64573196Y51815272D01*
X64548598Y51841058D01*
X64416152Y51979896D01*
X64412468Y51983758D01*
X64225650Y52122754D01*
X64098574Y52187363D01*
X64022842Y52225867D01*
X64022841Y52225867D01*
X64018084Y52228286D01*
X63885621Y52269417D01*
X63800807Y52295753D01*
X63800801Y52295754D01*
X63795704Y52297337D01*
X63671340Y52313820D01*
X63570152Y52327232D01*
X63570148Y52327232D01*
X63564868Y52327932D01*
X63559538Y52327732D01*
X63559537Y52327732D01*
X63448523Y52323564D01*
X63332178Y52319197D01*
X63249474Y52301844D01*
X63109514Y52272477D01*
X63109511Y52272476D01*
X63104287Y52271380D01*
X62887710Y52185850D01*
X62688641Y52065051D01*
X62684611Y52061554D01*
X62590075Y51979520D01*
X62512770Y51912439D01*
X62509387Y51908313D01*
X62509383Y51908309D01*
X62436262Y51819131D01*
X62365128Y51732376D01*
X62362490Y51727741D01*
X62362487Y51727737D01*
X62339155Y51686748D01*
X62288073Y51637442D01*
X62218442Y51623580D01*
X62152371Y51649563D01*
X62125133Y51678713D01*
X62036176Y51810845D01*
X62033196Y51815272D01*
X62008598Y51841058D01*
X61876152Y51979896D01*
X61872468Y51983758D01*
X61685650Y52122754D01*
X61558574Y52187363D01*
X61482842Y52225867D01*
X61482841Y52225867D01*
X61478084Y52228286D01*
X61345621Y52269417D01*
X61260807Y52295753D01*
X61260801Y52295754D01*
X61255704Y52297337D01*
X61131340Y52313820D01*
X61030152Y52327232D01*
X61030148Y52327232D01*
X61024868Y52327932D01*
X61019538Y52327732D01*
X61019537Y52327732D01*
X60908523Y52323564D01*
X60792178Y52319197D01*
X60709474Y52301844D01*
X60569514Y52272477D01*
X60569511Y52272476D01*
X60564287Y52271380D01*
X60347710Y52185850D01*
X60148641Y52065051D01*
X60144611Y52061554D01*
X60050075Y51979520D01*
X59972770Y51912439D01*
X59969387Y51908313D01*
X59969383Y51908309D01*
X59896262Y51819131D01*
X59825128Y51732376D01*
X59822490Y51727741D01*
X59822487Y51727737D01*
X59799155Y51686748D01*
X59748073Y51637442D01*
X59678442Y51623580D01*
X59612371Y51649563D01*
X59585133Y51678713D01*
X59496176Y51810845D01*
X59493196Y51815272D01*
X59468598Y51841058D01*
X59336152Y51979896D01*
X59332468Y51983758D01*
X59145650Y52122754D01*
X59018574Y52187363D01*
X58942842Y52225867D01*
X58942841Y52225867D01*
X58938084Y52228286D01*
X58805621Y52269417D01*
X58720807Y52295753D01*
X58720801Y52295754D01*
X58715704Y52297337D01*
X58591340Y52313820D01*
X58490152Y52327232D01*
X58490148Y52327232D01*
X58484868Y52327932D01*
X58479538Y52327732D01*
X58479537Y52327732D01*
X58368523Y52323564D01*
X58252178Y52319197D01*
X58169474Y52301844D01*
X58029514Y52272477D01*
X58029511Y52272476D01*
X58024287Y52271380D01*
X57807710Y52185850D01*
X57608641Y52065051D01*
X57604611Y52061554D01*
X57510075Y51979520D01*
X57432770Y51912439D01*
X57429387Y51908313D01*
X57429383Y51908309D01*
X57356262Y51819131D01*
X57285128Y51732376D01*
X57282490Y51727741D01*
X57282487Y51727737D01*
X57259155Y51686748D01*
X57208073Y51637442D01*
X57138442Y51623580D01*
X57072371Y51649563D01*
X57045133Y51678713D01*
X56956176Y51810845D01*
X56953196Y51815272D01*
X56928598Y51841058D01*
X56796152Y51979896D01*
X56792468Y51983758D01*
X56605650Y52122754D01*
X56478574Y52187363D01*
X56402842Y52225867D01*
X56402841Y52225867D01*
X56398084Y52228286D01*
X56265621Y52269417D01*
X56180807Y52295753D01*
X56180801Y52295754D01*
X56175704Y52297337D01*
X56051340Y52313820D01*
X55950152Y52327232D01*
X55950148Y52327232D01*
X55944868Y52327932D01*
X55939538Y52327732D01*
X55939537Y52327732D01*
X55828523Y52323564D01*
X55712178Y52319197D01*
X55629474Y52301844D01*
X55489514Y52272477D01*
X55489511Y52272476D01*
X55484287Y52271380D01*
X55267710Y52185850D01*
X55068641Y52065051D01*
X55064611Y52061554D01*
X54970075Y51979520D01*
X54892770Y51912439D01*
X54889387Y51908313D01*
X54889383Y51908309D01*
X54816262Y51819131D01*
X54745128Y51732376D01*
X54742490Y51727741D01*
X54742487Y51727737D01*
X54719155Y51686748D01*
X54668073Y51637442D01*
X54598442Y51623580D01*
X54532371Y51649563D01*
X54505133Y51678713D01*
X54416176Y51810845D01*
X54413196Y51815272D01*
X54388598Y51841058D01*
X54256152Y51979896D01*
X54252468Y51983758D01*
X54065650Y52122754D01*
X53938574Y52187363D01*
X53862842Y52225867D01*
X53862841Y52225867D01*
X53858084Y52228286D01*
X53725621Y52269417D01*
X53640807Y52295753D01*
X53640801Y52295754D01*
X53635704Y52297337D01*
X53511340Y52313820D01*
X53410152Y52327232D01*
X53410148Y52327232D01*
X53404868Y52327932D01*
X53399538Y52327732D01*
X53399537Y52327732D01*
X53288523Y52323564D01*
X53172178Y52319197D01*
X53122341Y52308740D01*
X53008563Y52284867D01*
X52937787Y52290454D01*
X52893594Y52319087D01*
X52596276Y52616405D01*
X52562250Y52678717D01*
X52567315Y52749532D01*
X52609862Y52806368D01*
X52676382Y52831179D01*
X52685371Y52831500D01*
X64253183Y52831500D01*
X64321304Y52811498D01*
X64342278Y52794595D01*
X65494595Y51642277D01*
X65528621Y51579965D01*
X65531500Y51553182D01*
X65531500Y40457072D01*
X65530145Y40444942D01*
X65530627Y40444903D01*
X65529907Y40435956D01*
X65527926Y40427200D01*
X65529945Y40394656D01*
X65531258Y40373492D01*
X65531500Y40365690D01*
X65531500Y40349487D01*
X65532136Y40345047D01*
X65532984Y40339122D01*
X65534013Y40329072D01*
X65536945Y40281823D01*
X65539994Y40273377D01*
X65540593Y40270486D01*
X65544822Y40253520D01*
X65545648Y40250695D01*
X65546920Y40241813D01*
X65566522Y40198702D01*
X65570327Y40189353D01*
X65586404Y40144819D01*
X65591699Y40137571D01*
X65593080Y40134973D01*
X65601915Y40119855D01*
X65603494Y40117386D01*
X65607208Y40109218D01*
X65613064Y40102422D01*
X65638115Y40073348D01*
X65644401Y40065431D01*
X65649548Y40058385D01*
X65649553Y40058380D01*
X65652425Y40054448D01*
X65663400Y40043473D01*
X65669758Y40036626D01*
X65702287Y39998873D01*
X65709822Y39993989D01*
X65716066Y39988542D01*
X65727931Y39978942D01*
X68034595Y37672277D01*
X68068621Y37609965D01*
X68071500Y37583182D01*
X68071500Y37428523D01*
X68051498Y37360402D01*
X67997842Y37313909D01*
X67927568Y37303805D01*
X67859247Y37336673D01*
X67662577Y37521359D01*
X67403959Y37709256D01*
X67258895Y37789006D01*
X67127293Y37861355D01*
X67127290Y37861357D01*
X67123831Y37863258D01*
X66904296Y37950178D01*
X66830293Y37979478D01*
X66830290Y37979479D01*
X66826610Y37980936D01*
X66822776Y37981920D01*
X66822768Y37981923D01*
X66595084Y38040382D01*
X66516983Y38060435D01*
X66513055Y38060931D01*
X66513051Y38060932D01*
X66387358Y38076810D01*
X66199835Y38100500D01*
X65880165Y38100500D01*
X65692642Y38076810D01*
X65566949Y38060932D01*
X65566945Y38060931D01*
X65563017Y38060435D01*
X65484916Y38040382D01*
X65257232Y37981923D01*
X65257224Y37981920D01*
X65253390Y37980936D01*
X65249710Y37979479D01*
X65249707Y37979478D01*
X65175704Y37950178D01*
X64956169Y37863258D01*
X64952710Y37861357D01*
X64952707Y37861355D01*
X64821105Y37789006D01*
X64676041Y37709256D01*
X64417423Y37521359D01*
X64184394Y37302530D01*
X63980629Y37056221D01*
X63978505Y37052874D01*
X63978502Y37052870D01*
X63811465Y36789662D01*
X63809341Y36786315D01*
X63807657Y36782736D01*
X63807653Y36782729D01*
X63718747Y36593793D01*
X63673233Y36497070D01*
X63574449Y36193046D01*
X63514549Y35879039D01*
X63494477Y35560000D01*
X63514549Y35240961D01*
X63574449Y34926954D01*
X63673233Y34622930D01*
X63674920Y34619344D01*
X63674922Y34619340D01*
X63807653Y34337271D01*
X63807657Y34337264D01*
X63809341Y34333685D01*
X63811465Y34330339D01*
X63811465Y34330338D01*
X63926071Y34149749D01*
X63980629Y34063779D01*
X64184394Y33817470D01*
X64187284Y33814756D01*
X64187285Y33814755D01*
X64220753Y33783327D01*
X64417423Y33598641D01*
X64676041Y33410744D01*
X64679510Y33408837D01*
X64679513Y33408835D01*
X64873125Y33302396D01*
X64956169Y33256742D01*
X65118083Y33192636D01*
X65249707Y33140522D01*
X65249710Y33140521D01*
X65253390Y33139064D01*
X65257224Y33138080D01*
X65257232Y33138077D01*
X65445124Y33089835D01*
X65563017Y33059565D01*
X65566945Y33059069D01*
X65566949Y33059068D01*
X65692642Y33043190D01*
X65880165Y33019500D01*
X66199835Y33019500D01*
X66387358Y33043190D01*
X66513051Y33059068D01*
X66513055Y33059069D01*
X66516983Y33059565D01*
X66634876Y33089835D01*
X66822768Y33138077D01*
X66822776Y33138080D01*
X66826610Y33139064D01*
X66830290Y33140521D01*
X66830293Y33140522D01*
X66961917Y33192636D01*
X67123831Y33256742D01*
X67206876Y33302396D01*
X67400487Y33408835D01*
X67400490Y33408837D01*
X67403959Y33410744D01*
X67662577Y33598641D01*
X67859248Y33783327D01*
X67922597Y33815378D01*
X67993219Y33808091D01*
X68048690Y33763781D01*
X68071500Y33691477D01*
X68071500Y9488523D01*
X68051498Y9420402D01*
X67997842Y9373909D01*
X67927568Y9363805D01*
X67859247Y9396673D01*
X67662577Y9581359D01*
X67403959Y9769256D01*
X67123831Y9923258D01*
X66961917Y9987364D01*
X66830293Y10039478D01*
X66830290Y10039479D01*
X66826610Y10040936D01*
X66822776Y10041920D01*
X66822768Y10041923D01*
X66598932Y10099394D01*
X66516983Y10120435D01*
X66513055Y10120931D01*
X66513051Y10120932D01*
X66387358Y10136810D01*
X66199835Y10160500D01*
X65880165Y10160500D01*
X65692642Y10136810D01*
X65566949Y10120932D01*
X65566945Y10120931D01*
X65563017Y10120435D01*
X65481068Y10099394D01*
X65257232Y10041923D01*
X65257224Y10041920D01*
X65253390Y10040936D01*
X65249710Y10039479D01*
X65249707Y10039478D01*
X65118083Y9987364D01*
X64956169Y9923258D01*
X64676041Y9769256D01*
X64417423Y9581359D01*
X64184394Y9362530D01*
X63980629Y9116221D01*
X63978505Y9112874D01*
X63978502Y9112870D01*
X63829608Y8878250D01*
X63809341Y8846315D01*
X63807657Y8842736D01*
X63807653Y8842729D01*
X63680475Y8572460D01*
X63673233Y8557070D01*
X63574449Y8253046D01*
X63514549Y7939039D01*
X63494477Y7620000D01*
X63514549Y7300961D01*
X63574449Y6986954D01*
X63673233Y6682930D01*
X63674920Y6679344D01*
X63674922Y6679340D01*
X63807653Y6397271D01*
X63807657Y6397264D01*
X63809341Y6393685D01*
X63811465Y6390339D01*
X63811465Y6390338D01*
X63954233Y6165373D01*
X63980629Y6123779D01*
X64184394Y5877470D01*
X64187284Y5874756D01*
X64187285Y5874755D01*
X64220753Y5843327D01*
X64417423Y5658641D01*
X64676041Y5470744D01*
X64956169Y5316742D01*
X65022126Y5290628D01*
X65249707Y5200522D01*
X65249710Y5200521D01*
X65253390Y5199064D01*
X65257224Y5198080D01*
X65257232Y5198077D01*
X65449153Y5148800D01*
X65563017Y5119565D01*
X65566945Y5119069D01*
X65566949Y5119068D01*
X65692642Y5103190D01*
X65880165Y5079500D01*
X66199835Y5079500D01*
X66387358Y5103190D01*
X66513051Y5119068D01*
X66513055Y5119069D01*
X66516983Y5119565D01*
X66630847Y5148800D01*
X66822768Y5198077D01*
X66822776Y5198080D01*
X66826610Y5199064D01*
X66830290Y5200521D01*
X66830293Y5200522D01*
X67057874Y5290628D01*
X67123831Y5316742D01*
X67403959Y5470744D01*
X67662577Y5658641D01*
X67859248Y5843327D01*
X67922597Y5875378D01*
X67993219Y5868091D01*
X68048690Y5823781D01*
X68071500Y5751477D01*
X68071500Y5342818D01*
X68051498Y5274697D01*
X68034595Y5253723D01*
X65730696Y2949823D01*
X65721156Y2942200D01*
X65721470Y2941832D01*
X65714634Y2936014D01*
X65707042Y2931224D01*
X65701100Y2924496D01*
X65671407Y2890875D01*
X65666061Y2885188D01*
X65654618Y2873745D01*
X65648978Y2866220D01*
X65648341Y2865370D01*
X65641967Y2857541D01*
X65610622Y2822049D01*
X65606808Y2813926D01*
X65605174Y2811438D01*
X65596186Y2796477D01*
X65594771Y2793892D01*
X65589384Y2786705D01*
X65586233Y2778299D01*
X65572759Y2742358D01*
X65568833Y2733042D01*
X65548719Y2690200D01*
X65547338Y2681331D01*
X65546472Y2678498D01*
X65542042Y2661611D01*
X65541408Y2658726D01*
X65538255Y2650316D01*
X65537590Y2641361D01*
X65534746Y2603094D01*
X65533592Y2593048D01*
X65531500Y2579614D01*
X65531500Y2564094D01*
X65531154Y2554757D01*
X65527461Y2505059D01*
X65529335Y2496280D01*
X65529898Y2488022D01*
X65531500Y2472839D01*
X65531500Y634500D01*
X65511498Y566379D01*
X65457842Y519886D01*
X65405500Y508500D01*
X15836124Y508500D01*
X15768003Y528502D01*
X15721510Y582158D01*
X15711406Y652432D01*
X15740900Y717012D01*
X15749871Y726350D01*
X15822715Y794755D01*
X15822716Y794756D01*
X15825606Y797470D01*
X16029371Y1043779D01*
X16038087Y1057512D01*
X16198535Y1310338D01*
X16198535Y1310339D01*
X16200659Y1313685D01*
X16202343Y1317264D01*
X16202347Y1317271D01*
X16335078Y1599340D01*
X16335080Y1599344D01*
X16336767Y1602930D01*
X16339800Y1612263D01*
X16434324Y1903178D01*
X16435551Y1906954D01*
X16495451Y2220961D01*
X16515523Y2540000D01*
X16495451Y2859039D01*
X16435551Y3173046D01*
X16339890Y3467458D01*
X16337993Y3473297D01*
X16337993Y3473298D01*
X16336767Y3477070D01*
X16335078Y3480660D01*
X16202347Y3762729D01*
X16202343Y3762736D01*
X16200659Y3766315D01*
X16098170Y3927812D01*
X16031498Y4032870D01*
X16031495Y4032874D01*
X16029371Y4036221D01*
X15825606Y4282530D01*
X15592577Y4501359D01*
X15333959Y4689256D01*
X15330487Y4691165D01*
X15057293Y4841355D01*
X15057290Y4841357D01*
X15053831Y4843258D01*
X14783527Y4950279D01*
X14760293Y4959478D01*
X14760290Y4959479D01*
X14756610Y4960936D01*
X14752776Y4961920D01*
X14752768Y4961923D01*
X14560847Y5011200D01*
X14446983Y5040435D01*
X14443055Y5040931D01*
X14443051Y5040932D01*
X14287423Y5060592D01*
X14129835Y5080500D01*
X13810165Y5080500D01*
X13652577Y5060592D01*
X13496949Y5040932D01*
X13496945Y5040931D01*
X13493017Y5040435D01*
X13379153Y5011200D01*
X13187232Y4961923D01*
X13187224Y4961920D01*
X13183390Y4960936D01*
X13179710Y4959479D01*
X13179707Y4959478D01*
X13156473Y4950279D01*
X12886169Y4843258D01*
X12882710Y4841357D01*
X12882707Y4841355D01*
X12609513Y4691165D01*
X12606041Y4689256D01*
X12347423Y4501359D01*
X12114394Y4282530D01*
X11910629Y4036221D01*
X11908505Y4032874D01*
X11908502Y4032870D01*
X11841830Y3927812D01*
X11739341Y3766315D01*
X11737657Y3762736D01*
X11737653Y3762729D01*
X11604922Y3480660D01*
X11603233Y3477070D01*
X11602007Y3473298D01*
X11602007Y3473297D01*
X11600110Y3467458D01*
X11504449Y3173046D01*
X11444549Y2859039D01*
X11424477Y2540000D01*
X11444549Y2220961D01*
X11504449Y1906954D01*
X11505676Y1903178D01*
X11600201Y1612263D01*
X11603233Y1602930D01*
X11604920Y1599344D01*
X11604922Y1599340D01*
X11737653Y1317271D01*
X11737657Y1317264D01*
X11739341Y1313685D01*
X11741465Y1310339D01*
X11741465Y1310338D01*
X11901914Y1057512D01*
X11910629Y1043779D01*
X12114394Y797470D01*
X12117284Y794756D01*
X12117285Y794755D01*
X12190129Y726350D01*
X12226094Y665137D01*
X12223256Y594197D01*
X12182516Y536053D01*
X12116808Y509165D01*
X12103876Y508500D01*
X634500Y508500D01*
X566379Y528502D01*
X519886Y582158D01*
X508500Y634500D01*
X508500Y7620000D01*
X19006502Y7620000D01*
X19026457Y7391913D01*
X19027881Y7386600D01*
X19027881Y7386598D01*
X19041155Y7337061D01*
X19085716Y7170757D01*
X19088039Y7165776D01*
X19088039Y7165775D01*
X19180151Y6968238D01*
X19180154Y6968233D01*
X19182477Y6963251D01*
X19210968Y6922562D01*
X19289078Y6811010D01*
X19313802Y6775700D01*
X19475700Y6613802D01*
X19480208Y6610645D01*
X19480211Y6610643D01*
X19520445Y6582471D01*
X19663251Y6482477D01*
X19668233Y6480154D01*
X19668238Y6480151D01*
X19865775Y6388039D01*
X19870757Y6385716D01*
X19876065Y6384294D01*
X19876067Y6384293D01*
X20086598Y6327881D01*
X20086600Y6327881D01*
X20091913Y6326457D01*
X20320000Y6306502D01*
X20548087Y6326457D01*
X20553400Y6327881D01*
X20553402Y6327881D01*
X20763933Y6384293D01*
X20763935Y6384294D01*
X20769243Y6385716D01*
X20774225Y6388039D01*
X20971762Y6480151D01*
X20971767Y6480154D01*
X20976749Y6482477D01*
X21119555Y6582471D01*
X21159789Y6610643D01*
X21159792Y6610645D01*
X21164300Y6613802D01*
X21326198Y6775700D01*
X21350923Y6811010D01*
X21429032Y6922562D01*
X21457523Y6963251D01*
X21459846Y6968233D01*
X21459849Y6968238D01*
X21551961Y7165775D01*
X21551961Y7165776D01*
X21554284Y7170757D01*
X21598846Y7337061D01*
X21612119Y7386598D01*
X21612119Y7386600D01*
X21613543Y7391913D01*
X21633498Y7620000D01*
X21613543Y7848087D01*
X21588127Y7942939D01*
X21555707Y8063933D01*
X21555706Y8063935D01*
X21554284Y8069243D01*
X21551961Y8074225D01*
X21459849Y8271762D01*
X21459846Y8271767D01*
X21457523Y8276749D01*
X21384098Y8381611D01*
X21329357Y8459789D01*
X21329355Y8459792D01*
X21326198Y8464300D01*
X21164300Y8626198D01*
X21159792Y8629355D01*
X21159789Y8629357D01*
X21024780Y8723891D01*
X20976749Y8757523D01*
X20971767Y8759846D01*
X20971762Y8759849D01*
X20774225Y8851961D01*
X20774224Y8851961D01*
X20769243Y8854284D01*
X20763935Y8855706D01*
X20763933Y8855707D01*
X20553402Y8912119D01*
X20553400Y8912119D01*
X20548087Y8913543D01*
X20320000Y8933498D01*
X20091913Y8913543D01*
X20086600Y8912119D01*
X20086598Y8912119D01*
X19876067Y8855707D01*
X19876065Y8855706D01*
X19870757Y8854284D01*
X19865776Y8851961D01*
X19865775Y8851961D01*
X19668238Y8759849D01*
X19668233Y8759846D01*
X19663251Y8757523D01*
X19615220Y8723891D01*
X19480211Y8629357D01*
X19480208Y8629355D01*
X19475700Y8626198D01*
X19313802Y8464300D01*
X19310645Y8459792D01*
X19310643Y8459789D01*
X19255902Y8381611D01*
X19182477Y8276749D01*
X19180154Y8271767D01*
X19180151Y8271762D01*
X19088039Y8074225D01*
X19085716Y8069243D01*
X19084294Y8063935D01*
X19084293Y8063933D01*
X19051873Y7942939D01*
X19026457Y7848087D01*
X19006502Y7620000D01*
X508500Y7620000D01*
X508500Y32020817D01*
X19504389Y32020817D01*
X19505912Y32012393D01*
X19518292Y32009000D01*
X20567885Y32009000D01*
X20583124Y32013475D01*
X20584329Y32014865D01*
X20586000Y32022548D01*
X20586000Y32027115D01*
X21094000Y32027115D01*
X21098475Y32011876D01*
X21099865Y32010671D01*
X21107548Y32009000D01*
X22158344Y32009000D01*
X22171875Y32012973D01*
X22173180Y32022053D01*
X22131214Y32189125D01*
X22127894Y32198876D01*
X22042972Y32394186D01*
X22038105Y32403261D01*
X21922426Y32582074D01*
X21916136Y32590243D01*
X21772806Y32747760D01*
X21765273Y32754785D01*
X21598139Y32886778D01*
X21589552Y32892483D01*
X21403117Y32995401D01*
X21393705Y32999631D01*
X21192959Y33070720D01*
X21182988Y33073354D01*
X21111837Y33086028D01*
X21098540Y33084568D01*
X21094000Y33070011D01*
X21094000Y32027115D01*
X20586000Y32027115D01*
X20586000Y33071898D01*
X20582082Y33085242D01*
X20567806Y33087229D01*
X20529324Y33081340D01*
X20519288Y33078949D01*
X20316868Y33012788D01*
X20307359Y33008791D01*
X20118463Y32910458D01*
X20109738Y32904964D01*
X19939433Y32777095D01*
X19931726Y32770252D01*
X19784590Y32616283D01*
X19778104Y32608273D01*
X19658098Y32432351D01*
X19653000Y32423377D01*
X19563338Y32230217D01*
X19559775Y32220530D01*
X19504389Y32020817D01*
X508500Y32020817D01*
X508500Y42912034D01*
X18973257Y42912034D01*
X19003565Y42777554D01*
X19006645Y42767725D01*
X19086770Y42570397D01*
X19091413Y42561206D01*
X19202694Y42379612D01*
X19208777Y42371301D01*
X19348213Y42210333D01*
X19355580Y42203117D01*
X19519434Y42067084D01*
X19527881Y42061169D01*
X19711756Y41953721D01*
X19721042Y41949271D01*
X19920001Y41873297D01*
X19929899Y41870421D01*
X20033250Y41849394D01*
X20047299Y41850590D01*
X20051000Y41860935D01*
X20051000Y42907885D01*
X20046525Y42923124D01*
X20045135Y42924329D01*
X20037452Y42926000D01*
X18988225Y42926000D01*
X18974694Y42922027D01*
X18973257Y42912034D01*
X508500Y42912034D01*
X508500Y43445817D01*
X18969389Y43445817D01*
X18970912Y43437393D01*
X18983292Y43434000D01*
X20032885Y43434000D01*
X20048124Y43438475D01*
X20049329Y43439865D01*
X20051000Y43447548D01*
X20051000Y44496898D01*
X20047082Y44510242D01*
X20032806Y44512229D01*
X19994324Y44506340D01*
X19984288Y44503949D01*
X19781868Y44437788D01*
X19772359Y44433791D01*
X19583463Y44335458D01*
X19574738Y44329964D01*
X19404433Y44202095D01*
X19396726Y44195252D01*
X19249590Y44041283D01*
X19243104Y44033273D01*
X19123098Y43857351D01*
X19118000Y43848377D01*
X19028338Y43655217D01*
X19024775Y43645530D01*
X18969389Y43445817D01*
X508500Y43445817D01*
X508500Y52705500D01*
X528502Y52773621D01*
X582158Y52820114D01*
X634500Y52831500D01*
X13373876Y52831500D01*
X13441997Y52811498D01*
G37*
%TD.AperFunction*%
%TD*%
%TA.AperFunction,NonConductor*%
G36*
X37923629Y49950437D02*
G01*
X37950867Y49921287D01*
X38042804Y49784728D01*
X38046483Y49780871D01*
X38046485Y49780869D01*
X38178309Y49642682D01*
X38210856Y49579585D01*
X38204124Y49508908D01*
X38176234Y49466615D01*
X37549595Y48839976D01*
X37487283Y48805950D01*
X37416468Y48811015D01*
X37359632Y48853562D01*
X37334821Y48920082D01*
X37334500Y48929071D01*
X37334500Y49432900D01*
X37354502Y49501021D01*
X37385328Y49533717D01*
X37387359Y49534949D01*
X37563230Y49687561D01*
X37566613Y49691687D01*
X37566617Y49691691D01*
X37665776Y49812626D01*
X37710872Y49867624D01*
X37736845Y49913252D01*
X37787927Y49962558D01*
X37857558Y49976420D01*
X37923629Y49950437D01*
G37*
%TD.AperFunction*%
%TA.AperFunction,NonConductor*%
G36*
X52147629Y49950437D02*
G01*
X52174867Y49921287D01*
X52266804Y49784728D01*
X52270483Y49780871D01*
X52270485Y49780869D01*
X52355223Y49692041D01*
X52427532Y49616242D01*
X52614350Y49477246D01*
X52619102Y49474830D01*
X52816244Y49374598D01*
X52821916Y49371714D01*
X53009576Y49313444D01*
X53044296Y49302663D01*
X53043843Y49301203D01*
X53099934Y49270415D01*
X53133823Y49208029D01*
X53128603Y49137225D01*
X53099739Y49092420D01*
X52003524Y47996205D01*
X51941212Y47962179D01*
X51914429Y47959300D01*
X45954071Y47959300D01*
X45885950Y47979302D01*
X45839457Y48032958D01*
X45829353Y48103232D01*
X45858847Y48167812D01*
X45864976Y48174395D01*
X46227176Y48536595D01*
X46289488Y48570621D01*
X46316271Y48573500D01*
X46724930Y48573500D01*
X46743880Y48572067D01*
X46758115Y48569901D01*
X46758119Y48569901D01*
X46765349Y48568801D01*
X46772641Y48569394D01*
X46772644Y48569394D01*
X46818018Y48573085D01*
X46828233Y48573500D01*
X46836293Y48573500D01*
X46849583Y48575049D01*
X46864507Y48576789D01*
X46868882Y48577222D01*
X46934339Y48582546D01*
X46934342Y48582547D01*
X46941637Y48583140D01*
X46948601Y48585396D01*
X46954560Y48586587D01*
X46960415Y48587971D01*
X46967681Y48588818D01*
X47036327Y48613735D01*
X47040455Y48615152D01*
X47102936Y48635393D01*
X47102938Y48635394D01*
X47109899Y48637649D01*
X47116154Y48641445D01*
X47121628Y48643951D01*
X47127058Y48646670D01*
X47133937Y48649167D01*
X47140058Y48653180D01*
X47194976Y48689186D01*
X47198680Y48691523D01*
X47261107Y48729405D01*
X47269484Y48736803D01*
X47269508Y48736776D01*
X47272500Y48739429D01*
X47275733Y48742132D01*
X47281852Y48746144D01*
X47335128Y48802383D01*
X47337506Y48804825D01*
X47812099Y49279418D01*
X47874411Y49313444D01*
X47938558Y49310655D01*
X47964296Y49302663D01*
X47969585Y49301962D01*
X48189848Y49272768D01*
X48189852Y49272768D01*
X48195132Y49272068D01*
X48200462Y49272268D01*
X48200463Y49272268D01*
X48311477Y49276436D01*
X48427822Y49280803D01*
X48532005Y49302663D01*
X48650486Y49327523D01*
X48650489Y49327524D01*
X48655713Y49328620D01*
X48872290Y49414150D01*
X49071359Y49534949D01*
X49075855Y49538850D01*
X49243197Y49684061D01*
X49243199Y49684063D01*
X49247230Y49687561D01*
X49250613Y49691687D01*
X49250617Y49691691D01*
X49349776Y49812626D01*
X49394872Y49867624D01*
X49420845Y49913252D01*
X49471927Y49962558D01*
X49541558Y49976420D01*
X49607629Y49950437D01*
X49634867Y49921287D01*
X49726804Y49784728D01*
X49730483Y49780871D01*
X49730485Y49780869D01*
X49815223Y49692041D01*
X49887532Y49616242D01*
X50074350Y49477246D01*
X50079102Y49474830D01*
X50276244Y49374598D01*
X50281916Y49371714D01*
X50368136Y49344942D01*
X50499193Y49304247D01*
X50499199Y49304246D01*
X50504296Y49302663D01*
X50628660Y49286180D01*
X50729848Y49272768D01*
X50729852Y49272768D01*
X50735132Y49272068D01*
X50740462Y49272268D01*
X50740463Y49272268D01*
X50851477Y49276436D01*
X50967822Y49280803D01*
X51072005Y49302663D01*
X51190486Y49327523D01*
X51190489Y49327524D01*
X51195713Y49328620D01*
X51412290Y49414150D01*
X51611359Y49534949D01*
X51615855Y49538850D01*
X51783197Y49684061D01*
X51783199Y49684063D01*
X51787230Y49687561D01*
X51790613Y49691687D01*
X51790617Y49691691D01*
X51889776Y49812626D01*
X51934872Y49867624D01*
X51960845Y49913252D01*
X52011927Y49962558D01*
X52081558Y49976420D01*
X52147629Y49950437D01*
G37*
%TD.AperFunction*%
%TA.AperFunction,NonConductor*%
G36*
X40463629Y49950437D02*
G01*
X40490867Y49921287D01*
X40582804Y49784728D01*
X40586483Y49780871D01*
X40586485Y49780869D01*
X40671223Y49692041D01*
X40743532Y49616242D01*
X40930350Y49477246D01*
X40935102Y49474830D01*
X41019723Y49431806D01*
X41071381Y49383102D01*
X41088507Y49314202D01*
X41065664Y49246981D01*
X41051713Y49230394D01*
X38873095Y47051776D01*
X38810783Y47017750D01*
X38739968Y47022815D01*
X38683132Y47065362D01*
X38658321Y47131882D01*
X38658000Y47140871D01*
X38658000Y47750829D01*
X38678002Y47818950D01*
X38694905Y47839924D01*
X39604911Y48749930D01*
X39619323Y48762316D01*
X39630918Y48770849D01*
X39630923Y48770854D01*
X39636818Y48775192D01*
X39641557Y48780770D01*
X39641560Y48780773D01*
X39671035Y48815468D01*
X39677965Y48822984D01*
X39683661Y48828680D01*
X39685924Y48831541D01*
X39685929Y48831546D01*
X39701293Y48850966D01*
X39704082Y48854367D01*
X39715834Y48868200D01*
X39751333Y48909985D01*
X39754659Y48916498D01*
X39758020Y48921537D01*
X39761196Y48926679D01*
X39765734Y48932416D01*
X39796655Y48998575D01*
X39798561Y49002475D01*
X39831769Y49067508D01*
X39833508Y49074617D01*
X39835604Y49080251D01*
X39837523Y49086021D01*
X39840622Y49092650D01*
X39855491Y49164135D01*
X39856461Y49168418D01*
X39873808Y49239310D01*
X39874500Y49250464D01*
X39874535Y49250462D01*
X39874775Y49254434D01*
X39875152Y49258655D01*
X39876641Y49265815D01*
X39874546Y49343242D01*
X39874500Y49346650D01*
X39874500Y49432900D01*
X39894502Y49501021D01*
X39925328Y49533717D01*
X39927359Y49534949D01*
X40103230Y49687561D01*
X40106613Y49691687D01*
X40106617Y49691691D01*
X40205776Y49812626D01*
X40250872Y49867624D01*
X40276845Y49913252D01*
X40327927Y49962558D01*
X40397558Y49976420D01*
X40463629Y49950437D01*
G37*
%TD.AperFunction*%
%TA.AperFunction,NonConductor*%
G36*
X55558558Y49310655D02*
G01*
X55584296Y49302663D01*
X55584297Y49302663D01*
X55583843Y49301201D01*
X55639929Y49270420D01*
X55673821Y49208036D01*
X55668606Y49137231D01*
X55639739Y49092420D01*
X52205724Y45658405D01*
X52143412Y45624379D01*
X52116629Y45621500D01*
X45404966Y45621500D01*
X45362699Y45628801D01*
X45295424Y45652757D01*
X45295422Y45652758D01*
X45288790Y45655119D01*
X45281802Y45655952D01*
X45281799Y45655953D01*
X45158698Y45670632D01*
X45108680Y45676596D01*
X45101677Y45675860D01*
X45101676Y45675860D01*
X44935288Y45658372D01*
X44935286Y45658371D01*
X44928288Y45657636D01*
X44756579Y45599182D01*
X44750575Y45595488D01*
X44608095Y45507834D01*
X44608092Y45507832D01*
X44602088Y45504138D01*
X44597053Y45499207D01*
X44597050Y45499205D01*
X44477525Y45382157D01*
X44472493Y45377229D01*
X44374235Y45224762D01*
X44312197Y45054315D01*
X44289463Y44874360D01*
X44307163Y44693840D01*
X44309387Y44687155D01*
X44310851Y44680267D01*
X44308532Y44679774D01*
X44310658Y44619965D01*
X44274420Y44558913D01*
X44210928Y44527144D01*
X44159429Y44528564D01*
X44157713Y44528972D01*
X44150316Y44531745D01*
X44100966Y44537106D01*
X44091531Y44538131D01*
X44088134Y44538500D01*
X43523771Y44538500D01*
X43455650Y44558502D01*
X43409157Y44612158D01*
X43399053Y44682432D01*
X43428547Y44747012D01*
X43434676Y44753595D01*
X45086476Y46405395D01*
X45148788Y46439421D01*
X45175571Y46442300D01*
X52213730Y46442300D01*
X52232680Y46440867D01*
X52246915Y46438701D01*
X52246919Y46438701D01*
X52254149Y46437601D01*
X52261441Y46438194D01*
X52261444Y46438194D01*
X52306818Y46441885D01*
X52317033Y46442300D01*
X52325093Y46442300D01*
X52338383Y46443849D01*
X52353307Y46445589D01*
X52357682Y46446022D01*
X52423139Y46451346D01*
X52423142Y46451347D01*
X52430437Y46451940D01*
X52437401Y46454196D01*
X52443360Y46455387D01*
X52449215Y46456771D01*
X52456481Y46457618D01*
X52525127Y46482535D01*
X52529255Y46483952D01*
X52591736Y46504193D01*
X52591738Y46504194D01*
X52598699Y46506449D01*
X52604954Y46510245D01*
X52610428Y46512751D01*
X52615858Y46515470D01*
X52622737Y46517967D01*
X52683776Y46557986D01*
X52687480Y46560323D01*
X52749907Y46598205D01*
X52758284Y46605603D01*
X52758308Y46605576D01*
X52761300Y46608229D01*
X52764533Y46610932D01*
X52770652Y46614944D01*
X52823928Y46671183D01*
X52826306Y46673625D01*
X55432099Y49279418D01*
X55494411Y49313444D01*
X55558558Y49310655D01*
G37*
%TD.AperFunction*%
%TA.AperFunction,NonConductor*%
G36*
X39675270Y41384731D02*
G01*
X39688080Y41367193D01*
X39764580Y41240876D01*
X39769469Y41235813D01*
X39769470Y41235812D01*
X39846321Y41156232D01*
X39890582Y41110398D01*
X40042359Y41011078D01*
X40048963Y41008622D01*
X40048965Y41008621D01*
X40205758Y40950310D01*
X40205760Y40950310D01*
X40212368Y40947852D01*
X40219353Y40946920D01*
X40219357Y40946919D01*
X40298866Y40936310D01*
X40321264Y40933322D01*
X40386141Y40904486D01*
X40425129Y40845153D01*
X40430600Y40808429D01*
X40430600Y40509270D01*
X40410598Y40441149D01*
X40356942Y40394656D01*
X40286668Y40384552D01*
X40237086Y40402885D01*
X40212890Y40418240D01*
X40103166Y40487873D01*
X40073963Y40498272D01*
X39938925Y40546357D01*
X39938920Y40546358D01*
X39932290Y40548719D01*
X39925302Y40549552D01*
X39925299Y40549553D01*
X39802198Y40564232D01*
X39752180Y40570196D01*
X39745177Y40569460D01*
X39745175Y40569460D01*
X39572156Y40551275D01*
X39502318Y40564047D01*
X39469891Y40587490D01*
X39310581Y40746800D01*
X39276555Y40809112D01*
X39281620Y40879927D01*
X39294728Y40905622D01*
X39313132Y40933322D01*
X39373443Y41024098D01*
X39437855Y41193662D01*
X39443779Y41235812D01*
X39455534Y41319453D01*
X39484822Y41384127D01*
X39544426Y41422700D01*
X39615423Y41422925D01*
X39675270Y41384731D01*
G37*
%TD.AperFunction*%
%TA.AperFunction,NonConductor*%
G36*
X40364262Y39112549D02*
G01*
X40414791Y39062676D01*
X40430600Y39001570D01*
X40430600Y38229603D01*
X40410598Y38161482D01*
X40356942Y38114989D01*
X40286668Y38104885D01*
X40237090Y38123216D01*
X40214466Y38137573D01*
X40207826Y38139938D01*
X40205332Y38141154D01*
X40171475Y38165306D01*
X39605129Y38731652D01*
X39571103Y38793964D01*
X39576168Y38864779D01*
X39618715Y38921615D01*
X39685235Y38946426D01*
X39710888Y38945640D01*
X39722479Y38944093D01*
X39722484Y38944093D01*
X39729461Y38943162D01*
X39736472Y38943800D01*
X39736476Y38943800D01*
X39878959Y38956768D01*
X39910100Y38959602D01*
X39916802Y38961780D01*
X39916804Y38961780D01*
X40075909Y39013476D01*
X40075912Y39013477D01*
X40082608Y39015653D01*
X40238412Y39108531D01*
X40239769Y39106255D01*
X40294791Y39127188D01*
X40364262Y39112549D01*
G37*
%TD.AperFunction*%
%TA.AperFunction,NonConductor*%
G36*
X35383629Y49950437D02*
G01*
X35410867Y49921287D01*
X35502804Y49784728D01*
X35506483Y49780871D01*
X35506485Y49780869D01*
X35591223Y49692041D01*
X35663532Y49616242D01*
X35667817Y49613054D01*
X35667818Y49613053D01*
X35766713Y49539473D01*
X35809426Y49482763D01*
X35817500Y49438384D01*
X35817500Y40755170D01*
X35816067Y40736220D01*
X35812801Y40714751D01*
X35813394Y40707459D01*
X35813394Y40707456D01*
X35817085Y40662082D01*
X35817500Y40651867D01*
X35817500Y40643807D01*
X35817925Y40640163D01*
X35820789Y40615593D01*
X35821222Y40611218D01*
X35826306Y40548719D01*
X35827140Y40538463D01*
X35829396Y40531499D01*
X35830587Y40525540D01*
X35831971Y40519685D01*
X35832818Y40512419D01*
X35857735Y40443773D01*
X35859152Y40439645D01*
X35873727Y40394656D01*
X35881649Y40370201D01*
X35885445Y40363946D01*
X35887951Y40358472D01*
X35890670Y40353042D01*
X35893167Y40346163D01*
X35897180Y40340043D01*
X35897180Y40340042D01*
X35933186Y40285124D01*
X35935523Y40281420D01*
X35973405Y40218993D01*
X35977121Y40214785D01*
X35977122Y40214784D01*
X35980803Y40210616D01*
X35980776Y40210592D01*
X35983429Y40207600D01*
X35986132Y40204367D01*
X35990144Y40198248D01*
X35995456Y40193216D01*
X36046383Y40144972D01*
X36048825Y40142594D01*
X39098792Y37092627D01*
X39118395Y37064529D01*
X39119218Y37065027D01*
X39213180Y36909876D01*
X39339182Y36779398D01*
X39345078Y36775540D01*
X39444349Y36710579D01*
X39490959Y36680078D01*
X39497563Y36677622D01*
X39497565Y36677621D01*
X39654358Y36619310D01*
X39654360Y36619310D01*
X39660968Y36616852D01*
X39744795Y36605667D01*
X39833780Y36593793D01*
X39833784Y36593793D01*
X39840761Y36592862D01*
X39847772Y36593500D01*
X39847776Y36593500D01*
X39990259Y36606468D01*
X40021400Y36609302D01*
X40028102Y36611480D01*
X40028104Y36611480D01*
X40187209Y36663176D01*
X40187212Y36663177D01*
X40193908Y36665353D01*
X40240084Y36692880D01*
X40308837Y36710579D01*
X40376247Y36688297D01*
X40420909Y36633108D01*
X40430600Y36584650D01*
X40430600Y36506771D01*
X40410598Y36438650D01*
X40393695Y36417676D01*
X26358595Y22382576D01*
X26296283Y22348550D01*
X26225468Y22353615D01*
X26168632Y22396162D01*
X26143821Y22462682D01*
X26143500Y22471671D01*
X26143500Y41695500D01*
X26163502Y41763621D01*
X26217158Y41810114D01*
X26269500Y41821500D01*
X26283134Y41821500D01*
X26345316Y41828255D01*
X26481705Y41879385D01*
X26598261Y41966739D01*
X26685615Y42083295D01*
X26736745Y42219684D01*
X26743500Y42281866D01*
X26743500Y44078134D01*
X26736745Y44140316D01*
X26685615Y44276705D01*
X26598261Y44393261D01*
X26481705Y44480615D01*
X26345316Y44531745D01*
X26283134Y44538500D01*
X25580371Y44538500D01*
X25512250Y44558502D01*
X25465757Y44612158D01*
X25455653Y44682432D01*
X25485147Y44747012D01*
X25491276Y44753595D01*
X28051976Y47314295D01*
X28114288Y47348321D01*
X28141071Y47351200D01*
X28738630Y47351200D01*
X28757580Y47349767D01*
X28771815Y47347601D01*
X28771819Y47347601D01*
X28779049Y47346501D01*
X28786341Y47347094D01*
X28786344Y47347094D01*
X28831718Y47350785D01*
X28841933Y47351200D01*
X28849993Y47351200D01*
X28863283Y47352749D01*
X28878207Y47354489D01*
X28882582Y47354922D01*
X28948039Y47360246D01*
X28948042Y47360247D01*
X28955337Y47360840D01*
X28962301Y47363096D01*
X28968260Y47364287D01*
X28974115Y47365671D01*
X28981381Y47366518D01*
X29050027Y47391435D01*
X29054155Y47392852D01*
X29116636Y47413093D01*
X29116638Y47413094D01*
X29123599Y47415349D01*
X29129854Y47419145D01*
X29135328Y47421651D01*
X29140758Y47424370D01*
X29147637Y47426867D01*
X29208676Y47466886D01*
X29212380Y47469223D01*
X29274807Y47507105D01*
X29283184Y47514503D01*
X29283208Y47514476D01*
X29286200Y47517129D01*
X29289433Y47519832D01*
X29295552Y47523844D01*
X29348828Y47580083D01*
X29351206Y47582525D01*
X31048099Y49279418D01*
X31110411Y49313444D01*
X31174558Y49310655D01*
X31200296Y49302663D01*
X31205585Y49301962D01*
X31425848Y49272768D01*
X31425852Y49272768D01*
X31431132Y49272068D01*
X31436462Y49272268D01*
X31436463Y49272268D01*
X31547477Y49276436D01*
X31663822Y49280803D01*
X31768005Y49302663D01*
X31886486Y49327523D01*
X31886489Y49327524D01*
X31891713Y49328620D01*
X32108290Y49414150D01*
X32307359Y49534949D01*
X32311855Y49538850D01*
X32479197Y49684061D01*
X32479199Y49684063D01*
X32483230Y49687561D01*
X32486613Y49691687D01*
X32486617Y49691691D01*
X32585776Y49812626D01*
X32630872Y49867624D01*
X32656845Y49913252D01*
X32707927Y49962558D01*
X32777558Y49976420D01*
X32843629Y49950437D01*
X32870867Y49921287D01*
X32962804Y49784728D01*
X32966483Y49780871D01*
X32966485Y49780869D01*
X33051223Y49692041D01*
X33123532Y49616242D01*
X33310350Y49477246D01*
X33315102Y49474830D01*
X33512244Y49374598D01*
X33517916Y49371714D01*
X33604136Y49344942D01*
X33735193Y49304247D01*
X33735199Y49304246D01*
X33740296Y49302663D01*
X33864660Y49286180D01*
X33965848Y49272768D01*
X33965852Y49272768D01*
X33971132Y49272068D01*
X33976462Y49272268D01*
X33976463Y49272268D01*
X34087477Y49276436D01*
X34203822Y49280803D01*
X34308005Y49302663D01*
X34426486Y49327523D01*
X34426489Y49327524D01*
X34431713Y49328620D01*
X34648290Y49414150D01*
X34847359Y49534949D01*
X34851855Y49538850D01*
X35019197Y49684061D01*
X35019199Y49684063D01*
X35023230Y49687561D01*
X35026613Y49691687D01*
X35026617Y49691691D01*
X35125776Y49812626D01*
X35170872Y49867624D01*
X35196845Y49913252D01*
X35247927Y49962558D01*
X35317558Y49976420D01*
X35383629Y49950437D01*
G37*
%TD.AperFunction*%
%TA.AperFunction,NonConductor*%
G36*
X13926295Y17847798D02*
G01*
X13972788Y17794142D01*
X13982892Y17723868D01*
X13959000Y17666235D01*
X13940118Y17641040D01*
X13914385Y17606705D01*
X13911233Y17598297D01*
X13869919Y17488093D01*
X13827277Y17431329D01*
X13760716Y17406629D01*
X13691367Y17421837D01*
X13658743Y17447524D01*
X13608151Y17503125D01*
X13608142Y17503134D01*
X13604670Y17506949D01*
X13600619Y17510148D01*
X13600615Y17510152D01*
X13432504Y17642918D01*
X13391441Y17700835D01*
X13388209Y17771758D01*
X13423834Y17833170D01*
X13487006Y17865572D01*
X13510596Y17867800D01*
X13858174Y17867800D01*
X13926295Y17847798D01*
G37*
%TD.AperFunction*%
%TA.AperFunction,NonConductor*%
G36*
X11911170Y17847798D02*
G01*
X11957663Y17794142D01*
X11967767Y17723868D01*
X11938273Y17659288D01*
X11918702Y17641040D01*
X11882545Y17613892D01*
X11769965Y17529365D01*
X11744541Y17502760D01*
X11676280Y17431329D01*
X11615629Y17367862D01*
X11508201Y17210379D01*
X11453293Y17165379D01*
X11382768Y17157208D01*
X11319021Y17188462D01*
X11298324Y17212946D01*
X11217822Y17337383D01*
X11217820Y17337386D01*
X11215014Y17341723D01*
X11064670Y17506949D01*
X11060619Y17510148D01*
X11060615Y17510152D01*
X10892504Y17642918D01*
X10851441Y17700835D01*
X10848209Y17771758D01*
X10883834Y17833170D01*
X10947006Y17865572D01*
X10970596Y17867800D01*
X11843049Y17867800D01*
X11911170Y17847798D01*
G37*
%TD.AperFunction*%
%TA.AperFunction,NonConductor*%
G36*
X9371170Y17847798D02*
G01*
X9417663Y17794142D01*
X9427767Y17723868D01*
X9398273Y17659288D01*
X9378702Y17641040D01*
X9342545Y17613892D01*
X9229965Y17529365D01*
X9204541Y17502760D01*
X9136280Y17431329D01*
X9075629Y17367862D01*
X8968201Y17210379D01*
X8913293Y17165379D01*
X8842768Y17157208D01*
X8779021Y17188462D01*
X8758324Y17212946D01*
X8677822Y17337383D01*
X8677820Y17337386D01*
X8675014Y17341723D01*
X8524670Y17506949D01*
X8520619Y17510148D01*
X8520615Y17510152D01*
X8352504Y17642918D01*
X8311441Y17700835D01*
X8308209Y17771758D01*
X8343834Y17833170D01*
X8407006Y17865572D01*
X8430596Y17867800D01*
X9303049Y17867800D01*
X9371170Y17847798D01*
G37*
%TD.AperFunction*%
%TA.AperFunction,NonConductor*%
G36*
X6831170Y17847798D02*
G01*
X6877663Y17794142D01*
X6887767Y17723868D01*
X6858273Y17659288D01*
X6838702Y17641040D01*
X6802545Y17613892D01*
X6689965Y17529365D01*
X6664541Y17502760D01*
X6596280Y17431329D01*
X6535629Y17367862D01*
X6428204Y17210382D01*
X6427898Y17209934D01*
X6372987Y17164931D01*
X6302462Y17156760D01*
X6238715Y17188014D01*
X6218018Y17212498D01*
X6137426Y17337074D01*
X6131136Y17345243D01*
X5987806Y17502760D01*
X5980273Y17509785D01*
X5811696Y17642918D01*
X5770633Y17700835D01*
X5767401Y17771758D01*
X5803026Y17833169D01*
X5866197Y17865572D01*
X5889788Y17867800D01*
X6763049Y17867800D01*
X6831170Y17847798D01*
G37*
%TD.AperFunction*%
%TA.AperFunction,NonConductor*%
G36*
X31996939Y7570380D02*
G01*
X35323407Y4243912D01*
X35357433Y4181600D01*
X35352368Y4110785D01*
X35309821Y4053949D01*
X35260185Y4031502D01*
X35228562Y4024867D01*
X35157786Y4030455D01*
X35113594Y4059087D01*
X31815671Y7357010D01*
X31781645Y7419322D01*
X31779246Y7457087D01*
X31782324Y7492267D01*
X31808187Y7558385D01*
X31865691Y7600025D01*
X31936578Y7603965D01*
X31996939Y7570380D01*
G37*
%TD.AperFunction*%
%TA.AperFunction,NonConductor*%
G36*
X30712518Y6306766D02*
G01*
X30742990Y6284329D01*
X32783407Y4243912D01*
X32817433Y4181600D01*
X32812368Y4110785D01*
X32769821Y4053949D01*
X32720185Y4031502D01*
X32688562Y4024867D01*
X32617786Y4030455D01*
X32573594Y4059087D01*
X30529620Y6103061D01*
X30495594Y6165373D01*
X30500659Y6236188D01*
X30543206Y6293024D01*
X30607733Y6317676D01*
X30642913Y6320754D01*
X30712518Y6306766D01*
G37*
%TD.AperFunction*%
%TA.AperFunction,NonConductor*%
G36*
X54702026Y42504856D02*
G01*
X54729875Y42473006D01*
X54789987Y42374912D01*
X54936250Y42206062D01*
X54943233Y42200265D01*
X54982868Y42141364D01*
X54984368Y42070383D01*
X54951844Y42014225D01*
X52851089Y39913470D01*
X52836677Y39901084D01*
X52825082Y39892551D01*
X52825077Y39892546D01*
X52819182Y39888208D01*
X52814443Y39882630D01*
X52814440Y39882627D01*
X52784965Y39847932D01*
X52778035Y39840416D01*
X52772340Y39834721D01*
X52770060Y39831839D01*
X52754719Y39812449D01*
X52751928Y39809045D01*
X52709409Y39758997D01*
X52704667Y39753415D01*
X52701339Y39746899D01*
X52697972Y39741850D01*
X52694805Y39736721D01*
X52690266Y39730984D01*
X52659345Y39664825D01*
X52657442Y39660931D01*
X52624231Y39595892D01*
X52622492Y39588784D01*
X52620393Y39583141D01*
X52618476Y39577378D01*
X52615378Y39570750D01*
X52613888Y39563588D01*
X52613888Y39563587D01*
X52600514Y39499288D01*
X52599544Y39495004D01*
X52582192Y39424090D01*
X52581500Y39412936D01*
X52581464Y39412938D01*
X52581225Y39408945D01*
X52580851Y39404753D01*
X52579360Y39397585D01*
X52579558Y39390268D01*
X52581454Y39320179D01*
X52581500Y39316772D01*
X52581500Y3907100D01*
X52561498Y3838979D01*
X52530672Y3806283D01*
X52528641Y3805051D01*
X52352770Y3652439D01*
X52349387Y3648313D01*
X52349383Y3648309D01*
X52276262Y3559131D01*
X52205128Y3472376D01*
X52202490Y3467741D01*
X52202487Y3467737D01*
X52179155Y3426748D01*
X52128073Y3377442D01*
X52058442Y3363580D01*
X51992371Y3389563D01*
X51965133Y3418713D01*
X51876388Y3550530D01*
X51873196Y3555272D01*
X51712468Y3723758D01*
X51660089Y3762729D01*
X51609287Y3800527D01*
X51566574Y3857237D01*
X51558500Y3901616D01*
X51558500Y38963329D01*
X51578502Y39031450D01*
X51595405Y39052424D01*
X53838911Y41295930D01*
X53853323Y41308316D01*
X53864918Y41316849D01*
X53864923Y41316854D01*
X53870818Y41321192D01*
X53875557Y41326770D01*
X53875560Y41326773D01*
X53905035Y41361468D01*
X53911965Y41368984D01*
X53917661Y41374680D01*
X53919924Y41377541D01*
X53919929Y41377546D01*
X53935285Y41396956D01*
X53938074Y41400358D01*
X53980596Y41450409D01*
X53980597Y41450410D01*
X53985333Y41455985D01*
X53988661Y41462502D01*
X53992027Y41467550D01*
X53995190Y41472672D01*
X53999735Y41478416D01*
X54030664Y41544595D01*
X54032563Y41548479D01*
X54065769Y41613508D01*
X54067510Y41620623D01*
X54069613Y41626278D01*
X54071523Y41632019D01*
X54074622Y41638650D01*
X54089493Y41710142D01*
X54090464Y41714430D01*
X54106474Y41779856D01*
X54106475Y41779862D01*
X54107808Y41785310D01*
X54108500Y41796464D01*
X54108535Y41796462D01*
X54108775Y41800434D01*
X54109152Y41804655D01*
X54110641Y41811815D01*
X54108546Y41889242D01*
X54108500Y41892650D01*
X54108500Y41987368D01*
X54128502Y42055489D01*
X54161331Y42089946D01*
X54229860Y42138827D01*
X54388096Y42296511D01*
X54518453Y42477923D01*
X54519776Y42476972D01*
X54566645Y42520143D01*
X54636580Y42532375D01*
X54702026Y42504856D01*
G37*
%TD.AperFunction*%
M02*
