%TF.GenerationSoftware,KiCad,Pcbnew,(6.0.5-0)*%
%TF.CreationDate,2022-05-20T22:42:26+09:00*%
%TF.ProjectId,esp32_internet_radio_v4,65737033-325f-4696-9e74-65726e65745f,rev?*%
%TF.SameCoordinates,PX69db1f0PY7882d48*%
%TF.FileFunction,Copper,L1,Top*%
%TF.FilePolarity,Positive*%
%FSLAX46Y46*%
G04 Gerber Fmt 4.6, Leading zero omitted, Abs format (unit mm)*
G04 Created by KiCad (PCBNEW (6.0.5-0)) date 2022-05-20 22:42:26*
%MOMM*%
%LPD*%
G01*
G04 APERTURE LIST*
%TA.AperFunction,Profile*%
%ADD10C,0.150000*%
%TD*%
%TA.AperFunction,ComponentPad*%
%ADD11R,1.700000X1.700000*%
%TD*%
%TA.AperFunction,ComponentPad*%
%ADD12O,1.700000X1.700000*%
%TD*%
%TA.AperFunction,ComponentPad*%
%ADD13O,1.727200X2.032000*%
%TD*%
%TA.AperFunction,ComponentPad*%
%ADD14C,4.064000*%
%TD*%
%TA.AperFunction,ComponentPad*%
%ADD15C,1.600000*%
%TD*%
%TA.AperFunction,ComponentPad*%
%ADD16O,1.600000X1.600000*%
%TD*%
%TA.AperFunction,ViaPad*%
%ADD17C,0.600000*%
%TD*%
%TA.AperFunction,Conductor*%
%ADD18C,0.500000*%
%TD*%
G04 APERTURE END LIST*
D10*
X68580000Y37846000D02*
X66040000Y40386000D01*
X66040000Y0D02*
X66040000Y2540000D01*
X66040000Y51816000D02*
X64516000Y53340000D01*
X66040000Y2540000D02*
X68580000Y5080000D01*
X0Y53340000D02*
X0Y0D01*
X68580000Y5080000D02*
X68580000Y37846000D01*
X0Y0D02*
X66040000Y0D01*
X64516000Y53340000D02*
X0Y53340000D01*
X66040000Y40386000D02*
X66040000Y51816000D01*
D11*
%TO.P,J1,1,Pin_1*%
%TO.N,ENCODER_CLK*%
X20840000Y21595000D03*
D12*
%TO.P,J1,2,Pin_2*%
%TO.N,ENCODER_DT*%
X20840000Y24135000D03*
%TO.P,J1,3,Pin_3*%
%TO.N,ENCODER_SWITCH*%
X20840000Y26675000D03*
%TO.P,J1,4,Pin_4*%
%TO.N,ESPDUINO_3.3V*%
X20840000Y29215000D03*
%TO.P,J1,5,Pin_5*%
%TO.N,ENCODER_GND*%
X20840000Y31755000D03*
%TD*%
D13*
%TO.P,P1,1,Pin_1*%
%TO.N,ESPDUINO_IO0*%
X27940000Y2540000D03*
%TO.P,P1,2,Pin_2*%
%TO.N,/IOREF*%
X30480000Y2540000D03*
%TO.P,P1,3,Pin_3*%
%TO.N,RESET*%
X33020000Y2540000D03*
%TO.P,P1,4,Pin_4*%
%TO.N,ESPDUINO_3.3V*%
X35560000Y2540000D03*
%TO.P,P1,5,Pin_5*%
%TO.N,ESPDUINO_5V*%
X38100000Y2540000D03*
%TO.P,P1,6,Pin_6*%
%TO.N,ENCODER_GND*%
X40640000Y2540000D03*
%TO.P,P1,7,Pin_7*%
X43180000Y2540000D03*
%TO.P,P1,8,Pin_8*%
%TO.N,/Vin*%
X45720000Y2540000D03*
%TD*%
%TO.P,P2,1,Pin_1*%
%TO.N,ESPDUINO_IO2*%
X50800000Y2540000D03*
%TO.P,P2,2,Pin_2*%
%TO.N,ESPDUINO_IO4*%
X53340000Y2540000D03*
%TO.P,P2,3,Pin_3*%
%TO.N,ENCODER_CLK*%
X55880000Y2540000D03*
%TO.P,P2,4,Pin_4*%
%TO.N,ESPDUINO_IO34*%
X58420000Y2540000D03*
%TO.P,P2,5,Pin_5*%
%TO.N,ESPDUINO_IO36*%
X60960000Y2540000D03*
%TO.P,P2,6,Pin_6*%
%TO.N,ENCODER_DT*%
X63500000Y2540000D03*
%TD*%
%TO.P,P3,1,Pin_1*%
%TO.N,unconnected-(P3-Pad1)*%
X18796000Y50800000D03*
%TO.P,P3,2,Pin_2*%
%TO.N,unconnected-(P3-Pad2)*%
X21336000Y50800000D03*
%TO.P,P3,3,Pin_3*%
%TO.N,/AREF*%
X23876000Y50800000D03*
%TO.P,P3,4,Pin_4*%
%TO.N,ENCODER_GND*%
X26416000Y50800000D03*
%TO.P,P3,5,Pin_5*%
%TO.N,ESPDUINO_IO18*%
X28956000Y50800000D03*
%TO.P,P3,6,Pin_6*%
%TO.N,ESPDUINO_IO19*%
X31496000Y50800000D03*
%TO.P,P3,7,Pin_7*%
%TO.N,ESPDUINO_IO23*%
X34036000Y50800000D03*
%TO.P,P3,8,Pin_8*%
%TO.N,ESPDUINO_IO5*%
X36576000Y50800000D03*
%TO.P,P3,9,Pin_9*%
%TO.N,ESPDUINO_IO13*%
X39116000Y50800000D03*
%TO.P,P3,10,Pin_10*%
%TO.N,ESPDUINO_IO12*%
X41656000Y50800000D03*
%TD*%
%TO.P,P4,1,Pin_1*%
%TO.N,ESPDUINO_IO14*%
X45720000Y50800000D03*
%TO.P,P4,2,Pin_2*%
%TO.N,ESPDUINO_IO27*%
X48260000Y50800000D03*
%TO.P,P4,3,Pin_3*%
%TO.N,ESPDUINO_IO16*%
X50800000Y50800000D03*
%TO.P,P4,4,Pin_4*%
%TO.N,ENCODER_SWITCH*%
X53340000Y50800000D03*
%TO.P,P4,5,Pin_5*%
%TO.N,ESPDUINO_IO25*%
X55880000Y50800000D03*
%TO.P,P4,6,Pin_6*%
%TO.N,ESPDUINO_IO26*%
X58420000Y50800000D03*
%TO.P,P4,7,Pin_7*%
%TO.N,ESPDUINO_TX*%
X60960000Y50800000D03*
%TO.P,P4,8,Pin_8*%
%TO.N,ESPDUINO_RX*%
X63500000Y50800000D03*
%TD*%
D14*
%TO.P,P5,1,Pin_1*%
%TO.N,unconnected-(P5-Pad1)*%
X13970000Y2540000D03*
%TD*%
%TO.P,P6,1,Pin_1*%
%TO.N,unconnected-(P6-Pad1)*%
X66040000Y7620000D03*
%TD*%
%TO.P,P7,1,Pin_1*%
%TO.N,unconnected-(P7-Pad1)*%
X15240000Y50800000D03*
%TD*%
%TO.P,P8,1,Pin_1*%
%TO.N,unconnected-(P8-Pad1)*%
X66040000Y35560000D03*
%TD*%
D15*
%TO.P,R1,1*%
%TO.N,ESPDUINO_3.3V*%
X30480000Y7620000D03*
D16*
%TO.P,R1,2*%
%TO.N,ESPDUINO_IO0*%
X20320000Y7620000D03*
%TD*%
D11*
%TO.P,J6,1,Pin_1*%
%TO.N,PCM5102_SCK*%
X15215000Y16510000D03*
D12*
%TO.P,J6,2,Pin_2*%
%TO.N,ESPDUINO_IO27*%
X12675000Y16510000D03*
%TO.P,J6,3,Pin_3*%
%TO.N,ESPDUINO_IO25*%
X10135000Y16510000D03*
%TO.P,J6,4,Pin_4*%
%TO.N,ESPDUINO_IO26*%
X7595000Y16510000D03*
%TO.P,J6,5,Pin_5*%
%TO.N,ENCODER_GND*%
X5055000Y16510000D03*
%TO.P,J6,6,Pin_6*%
%TO.N,ESPDUINO_3.3V*%
X2515000Y16510000D03*
%TD*%
D11*
%TO.P,J3,1,Pin_1*%
%TO.N,ENCODER_GND*%
X59715000Y34270000D03*
D12*
%TO.P,J3,2,Pin_2*%
%TO.N,ESPDUINO_3.3V*%
X59715000Y31730000D03*
%TO.P,J3,3,Pin_3*%
%TO.N,ESPDUINO_IO14*%
X59715000Y29190000D03*
%TO.P,J3,4,Pin_4*%
%TO.N,ESPDUINO_IO13*%
X59715000Y26650000D03*
%TO.P,J3,5,Pin_5*%
%TO.N,ESPDUINO_IO16*%
X59715000Y24110000D03*
%TO.P,J3,6,Pin_6*%
%TO.N,ESPDUINO_IO5*%
X59715000Y21570000D03*
%TO.P,J3,7,Pin_7*%
%TO.N,ST7789_BLK*%
X59715000Y19030000D03*
%TD*%
D15*
%TO.P,R2,1*%
%TO.N,ESPDUINO_3.3V*%
X30480000Y12700000D03*
D16*
%TO.P,R2,2*%
%TO.N,RESET*%
X20320000Y12700000D03*
%TD*%
D11*
%TO.P,J4,1,Pin_1*%
%TO.N,ESPDUINO_IO15*%
X35560000Y7620000D03*
D12*
%TO.P,J4,2,Pin_2*%
%TO.N,ESPDUINO_IO33*%
X38100000Y7620000D03*
%TO.P,J4,3,Pin_3*%
%TO.N,ESPDUINO_IO32*%
X40640000Y7620000D03*
%TD*%
D11*
%TO.P,J7,1,Pin_1*%
%TO.N,TFT_MISO*%
X43190000Y43180000D03*
D12*
%TO.P,J7,2,Pin_2*%
%TO.N,ESPDUINO_3.3V*%
X45730000Y43180000D03*
%TO.P,J7,3,Pin_3*%
%TO.N,ESPDUINO_IO18*%
X48270000Y43180000D03*
%TO.P,J7,4,Pin_4*%
%TO.N,ESPDUINO_IO23*%
X50810000Y43180000D03*
%TO.P,J7,5,Pin_5*%
%TO.N,ESPDUINO_IO2*%
X53350000Y43180000D03*
%TO.P,J7,6,Pin_6*%
%TO.N,ESPDUINO_IO4*%
X55890000Y43180000D03*
%TO.P,J7,7,Pin_7*%
%TO.N,ENCODER_GND*%
X58430000Y43180000D03*
%TO.P,J7,8,Pin_8*%
X60970000Y43180000D03*
%TO.P,J7,9,Pin_9*%
%TO.N,ESPDUINO_3.3V*%
X63510000Y43180000D03*
%TD*%
D11*
%TO.P,J2,1,Pin_1*%
%TO.N,ESPDUINO_5V*%
X25385000Y43180000D03*
D12*
%TO.P,J2,2,Pin_2*%
%TO.N,ESPDUINO_IO19*%
X22845000Y43180000D03*
%TO.P,J2,3,Pin_3*%
%TO.N,ENCODER_GND*%
X20305000Y43180000D03*
%TD*%
D11*
%TO.P,J5,1,Pin_1*%
%TO.N,POWER_IN_5V_VCC*%
X59690000Y13970000D03*
D12*
%TO.P,J5,2,Pin_2*%
%TO.N,ENCODER_GND*%
X59690000Y11430000D03*
%TD*%
D17*
%TO.N,ESPDUINO_IO26*%
X45103000Y44863000D03*
%TO.N,ESPDUINO_IO25*%
X26271800Y19094900D03*
%TO.N,ESPDUINO_IO27*%
X26224800Y21176100D03*
%TO.N,ESPDUINO_IO14*%
X40409200Y41737300D03*
%TO.N,ESPDUINO_IO13*%
X39746500Y39756600D03*
%TO.N,ESPDUINO_IO5*%
X39857800Y37406300D03*
%TO.N,ENCODER_SWITCH*%
X38649800Y41396000D03*
%TD*%
D18*
%TO.N,ESPDUINO_3.3V*%
X30480000Y12700000D02*
X30480000Y7620000D01*
X20840000Y29215000D02*
X22140300Y29215000D01*
X45730000Y43180000D02*
X45730000Y41879700D01*
X61085500Y33100500D02*
X59715000Y31730000D01*
X61085500Y41879700D02*
X61085500Y33100500D01*
X62209700Y41879700D02*
X61085500Y41879700D01*
X63510000Y43180000D02*
X62209700Y41879700D01*
X61085500Y41879700D02*
X45730000Y41879700D01*
X35412900Y42487600D02*
X22140300Y29215000D01*
X40720100Y42487600D02*
X35412900Y42487600D01*
X41328000Y41879700D02*
X40720100Y42487600D01*
X45730000Y41879700D02*
X41328000Y41879700D01*
%TO.N,ESPDUINO_IO26*%
X7595000Y16510000D02*
X7595000Y17810300D01*
X32091000Y44863000D02*
X45103000Y44863000D01*
X7595000Y20367000D02*
X32091000Y44863000D01*
X7595000Y17810300D02*
X7595000Y20367000D01*
%TO.N,ESPDUINO_IO25*%
X22382500Y15205600D02*
X26271800Y19094900D01*
X11439400Y15205600D02*
X22382500Y15205600D01*
X10135000Y16510000D02*
X11439400Y15205600D01*
%TO.N,ESPDUINO_IO16*%
X53467000Y48133000D02*
X50800000Y50800000D01*
X60404900Y48133000D02*
X53467000Y48133000D01*
X64836000Y43701900D02*
X60404900Y48133000D01*
X64836000Y42479700D02*
X64836000Y43701900D01*
X62038800Y39682500D02*
X64836000Y42479700D01*
X62038800Y26433800D02*
X62038800Y39682500D01*
X59715000Y24110000D02*
X62038800Y26433800D01*
%TO.N,ESPDUINO_IO27*%
X24828600Y19779900D02*
X26224800Y21176100D01*
X15944900Y19779900D02*
X24828600Y19779900D01*
X12675000Y16510000D02*
X15944900Y19779900D01*
%TO.N,ESPDUINO_IO14*%
X41082500Y41064000D02*
X40409200Y41737300D01*
X46540700Y41064000D02*
X41082500Y41064000D01*
X58414700Y29190000D02*
X46540700Y41064000D01*
X59715000Y29190000D02*
X58414700Y29190000D01*
%TO.N,ESPDUINO_IO13*%
X45308100Y39756600D02*
X39746500Y39756600D01*
X58414700Y26650000D02*
X45308100Y39756600D01*
X59715000Y26650000D02*
X58414700Y26650000D01*
%TO.N,ESPDUINO_IO5*%
X42578400Y37406300D02*
X39857800Y37406300D01*
X58414700Y21570000D02*
X42578400Y37406300D01*
X59715000Y21570000D02*
X58414700Y21570000D01*
%TO.N,ESPDUINO_IO23*%
X37111800Y47724200D02*
X34036000Y50800000D01*
X46265800Y47724200D02*
X37111800Y47724200D01*
X50810000Y43180000D02*
X46265800Y47724200D01*
%TO.N,ESPDUINO_IO18*%
X33717500Y46038500D02*
X28956000Y50800000D01*
X45411500Y46038500D02*
X33717500Y46038500D01*
X48270000Y43180000D02*
X45411500Y46038500D01*
%TO.N,ENCODER_SWITCH*%
X36861300Y41396000D02*
X22140300Y26675000D01*
X38649800Y41396000D02*
X36861300Y41396000D01*
X20840000Y26675000D02*
X22140300Y26675000D01*
%TO.N,ENCODER_CLK*%
X20840000Y21595000D02*
X22140300Y21595000D01*
X22471700Y21926400D02*
X22140300Y21595000D01*
X36493600Y21926400D02*
X22471700Y21926400D01*
X55880000Y2540000D02*
X36493600Y21926400D01*
%TO.N,ENCODER_DT*%
X41905000Y24135000D02*
X20840000Y24135000D01*
X63500000Y2540000D02*
X41905000Y24135000D01*
%TO.N,ESPDUINO_IO0*%
X21570300Y7595800D02*
X26626100Y2540000D01*
X21570300Y7620000D02*
X21570300Y7595800D01*
X27940000Y2540000D02*
X26626100Y2540000D01*
X20320000Y7620000D02*
X21570300Y7620000D01*
%TD*%
%TA.AperFunction,Conductor*%
%TO.N,ENCODER_GND*%
G36*
X13441997Y52811498D02*
G01*
X13488490Y52757842D01*
X13498594Y52687568D01*
X13469100Y52622988D01*
X13460129Y52613650D01*
X13384394Y52542530D01*
X13180629Y52296221D01*
X13178505Y52292874D01*
X13178502Y52292870D01*
X13111830Y52187812D01*
X13009341Y52026315D01*
X13007657Y52022736D01*
X13007653Y52022729D01*
X12904875Y51804313D01*
X12873233Y51737070D01*
X12872007Y51733298D01*
X12872007Y51733297D01*
X12870107Y51727449D01*
X12774449Y51433046D01*
X12714549Y51119039D01*
X12694477Y50800000D01*
X12714549Y50480961D01*
X12774449Y50166954D01*
X12775676Y50163178D01*
X12870201Y49872263D01*
X12873233Y49862930D01*
X12874920Y49859344D01*
X12874922Y49859340D01*
X13007653Y49577271D01*
X13007657Y49577264D01*
X13009341Y49573685D01*
X13011465Y49570339D01*
X13011465Y49570338D01*
X13173424Y49315133D01*
X13180629Y49303779D01*
X13384394Y49057470D01*
X13617423Y48838641D01*
X13876041Y48650744D01*
X13879510Y48648837D01*
X13879513Y48648835D01*
X14145328Y48502702D01*
X14156169Y48496742D01*
X14318083Y48432636D01*
X14449707Y48380522D01*
X14449710Y48380521D01*
X14453390Y48379064D01*
X14457224Y48378080D01*
X14457232Y48378077D01*
X14649153Y48328800D01*
X14763017Y48299565D01*
X14766945Y48299069D01*
X14766949Y48299068D01*
X14869089Y48286165D01*
X15080165Y48259500D01*
X15399835Y48259500D01*
X15610911Y48286165D01*
X15713051Y48299068D01*
X15713055Y48299069D01*
X15716983Y48299565D01*
X15830847Y48328800D01*
X16022768Y48378077D01*
X16022776Y48378080D01*
X16026610Y48379064D01*
X16030290Y48380521D01*
X16030293Y48380522D01*
X16161917Y48432636D01*
X16323831Y48496742D01*
X16334673Y48502702D01*
X16600487Y48648835D01*
X16600490Y48648837D01*
X16603959Y48650744D01*
X16862577Y48838641D01*
X17095606Y49057470D01*
X17299371Y49303779D01*
X17306577Y49315133D01*
X17468535Y49570338D01*
X17468535Y49570339D01*
X17470659Y49573685D01*
X17472343Y49577264D01*
X17472347Y49577271D01*
X17542177Y49725668D01*
X17589280Y49778789D01*
X17657625Y49798012D01*
X17725512Y49777233D01*
X17747355Y49758992D01*
X17883532Y49616242D01*
X18070350Y49477246D01*
X18075102Y49474830D01*
X18272244Y49374598D01*
X18277916Y49371714D01*
X18389106Y49337189D01*
X18495193Y49304247D01*
X18495199Y49304246D01*
X18500296Y49302663D01*
X18624660Y49286180D01*
X18725848Y49272768D01*
X18725852Y49272768D01*
X18731132Y49272068D01*
X18736462Y49272268D01*
X18736463Y49272268D01*
X18852072Y49276608D01*
X18963822Y49280803D01*
X19068005Y49302663D01*
X19186486Y49327523D01*
X19186489Y49327524D01*
X19191713Y49328620D01*
X19408290Y49414150D01*
X19607359Y49534949D01*
X19611855Y49538850D01*
X19779197Y49684061D01*
X19779199Y49684063D01*
X19783230Y49687561D01*
X19786613Y49691687D01*
X19786617Y49691691D01*
X19885776Y49812626D01*
X19930872Y49867624D01*
X19956845Y49913252D01*
X20007927Y49962558D01*
X20077558Y49976420D01*
X20143629Y49950437D01*
X20170867Y49921287D01*
X20262804Y49784728D01*
X20266483Y49780871D01*
X20266485Y49780869D01*
X20351223Y49692041D01*
X20423532Y49616242D01*
X20610350Y49477246D01*
X20615102Y49474830D01*
X20812244Y49374598D01*
X20817916Y49371714D01*
X20929106Y49337189D01*
X21035193Y49304247D01*
X21035199Y49304246D01*
X21040296Y49302663D01*
X21164660Y49286180D01*
X21265848Y49272768D01*
X21265852Y49272768D01*
X21271132Y49272068D01*
X21276462Y49272268D01*
X21276463Y49272268D01*
X21392072Y49276608D01*
X21503822Y49280803D01*
X21608005Y49302663D01*
X21726486Y49327523D01*
X21726489Y49327524D01*
X21731713Y49328620D01*
X21948290Y49414150D01*
X22147359Y49534949D01*
X22151855Y49538850D01*
X22319197Y49684061D01*
X22319199Y49684063D01*
X22323230Y49687561D01*
X22326613Y49691687D01*
X22326617Y49691691D01*
X22425776Y49812626D01*
X22470872Y49867624D01*
X22496845Y49913252D01*
X22547927Y49962558D01*
X22617558Y49976420D01*
X22683629Y49950437D01*
X22710867Y49921287D01*
X22802804Y49784728D01*
X22806483Y49780871D01*
X22806485Y49780869D01*
X22891223Y49692041D01*
X22963532Y49616242D01*
X23150350Y49477246D01*
X23155102Y49474830D01*
X23352244Y49374598D01*
X23357916Y49371714D01*
X23469106Y49337189D01*
X23575193Y49304247D01*
X23575199Y49304246D01*
X23580296Y49302663D01*
X23704660Y49286180D01*
X23805848Y49272768D01*
X23805852Y49272768D01*
X23811132Y49272068D01*
X23816462Y49272268D01*
X23816463Y49272268D01*
X23932072Y49276608D01*
X24043822Y49280803D01*
X24148005Y49302663D01*
X24266486Y49327523D01*
X24266489Y49327524D01*
X24271713Y49328620D01*
X24488290Y49414150D01*
X24687359Y49534949D01*
X24691855Y49538850D01*
X24859197Y49684061D01*
X24859199Y49684063D01*
X24863230Y49687561D01*
X24866613Y49691687D01*
X24866617Y49691691D01*
X24965776Y49812626D01*
X25010872Y49867624D01*
X25037122Y49913739D01*
X25088202Y49963044D01*
X25157832Y49976906D01*
X25223904Y49950923D01*
X25251143Y49921773D01*
X25340215Y49789470D01*
X25346876Y49781184D01*
X25500180Y49620480D01*
X25508148Y49613431D01*
X25686336Y49480856D01*
X25695366Y49475257D01*
X25893347Y49374598D01*
X25903208Y49370595D01*
X26115301Y49304737D01*
X26125696Y49302452D01*
X26144041Y49300020D01*
X26158208Y49302217D01*
X26162000Y49315401D01*
X26162000Y52282488D01*
X26158027Y52296019D01*
X26147420Y52297544D01*
X26025657Y52271996D01*
X26015461Y52268936D01*
X25808903Y52187363D01*
X25799366Y52182629D01*
X25609497Y52067414D01*
X25600907Y52061150D01*
X25433163Y51915589D01*
X25425743Y51907959D01*
X25284927Y51736220D01*
X25278898Y51727449D01*
X25255467Y51686285D01*
X25204385Y51636978D01*
X25134755Y51623116D01*
X25068684Y51649099D01*
X25041445Y51678249D01*
X25005005Y51732376D01*
X24949196Y51815272D01*
X24924598Y51841058D01*
X24792152Y51979896D01*
X24788468Y51983758D01*
X24601650Y52122754D01*
X24474574Y52187363D01*
X24398842Y52225867D01*
X24398841Y52225867D01*
X24394084Y52228286D01*
X24255299Y52271380D01*
X24176807Y52295753D01*
X24176801Y52295754D01*
X24171704Y52297337D01*
X24047340Y52313820D01*
X23946152Y52327232D01*
X23946148Y52327232D01*
X23940868Y52327932D01*
X23935538Y52327732D01*
X23935537Y52327732D01*
X23824523Y52323564D01*
X23708178Y52319197D01*
X23625474Y52301844D01*
X23485514Y52272477D01*
X23485511Y52272476D01*
X23480287Y52271380D01*
X23263710Y52185850D01*
X23064641Y52065051D01*
X23060611Y52061554D01*
X22966075Y51979520D01*
X22888770Y51912439D01*
X22885387Y51908313D01*
X22885383Y51908309D01*
X22812262Y51819131D01*
X22741128Y51732376D01*
X22738490Y51727741D01*
X22738487Y51727737D01*
X22715155Y51686748D01*
X22664073Y51637442D01*
X22594442Y51623580D01*
X22528371Y51649563D01*
X22501133Y51678713D01*
X22412176Y51810845D01*
X22409196Y51815272D01*
X22384598Y51841058D01*
X22252152Y51979896D01*
X22248468Y51983758D01*
X22061650Y52122754D01*
X21934574Y52187363D01*
X21858842Y52225867D01*
X21858841Y52225867D01*
X21854084Y52228286D01*
X21715299Y52271380D01*
X21636807Y52295753D01*
X21636801Y52295754D01*
X21631704Y52297337D01*
X21507340Y52313820D01*
X21406152Y52327232D01*
X21406148Y52327232D01*
X21400868Y52327932D01*
X21395538Y52327732D01*
X21395537Y52327732D01*
X21284523Y52323564D01*
X21168178Y52319197D01*
X21085474Y52301844D01*
X20945514Y52272477D01*
X20945511Y52272476D01*
X20940287Y52271380D01*
X20723710Y52185850D01*
X20524641Y52065051D01*
X20520611Y52061554D01*
X20426075Y51979520D01*
X20348770Y51912439D01*
X20345387Y51908313D01*
X20345383Y51908309D01*
X20272262Y51819131D01*
X20201128Y51732376D01*
X20198490Y51727741D01*
X20198487Y51727737D01*
X20175155Y51686748D01*
X20124073Y51637442D01*
X20054442Y51623580D01*
X19988371Y51649563D01*
X19961133Y51678713D01*
X19872176Y51810845D01*
X19869196Y51815272D01*
X19844598Y51841058D01*
X19712152Y51979896D01*
X19708468Y51983758D01*
X19521650Y52122754D01*
X19394574Y52187363D01*
X19318842Y52225867D01*
X19318841Y52225867D01*
X19314084Y52228286D01*
X19175299Y52271380D01*
X19096807Y52295753D01*
X19096801Y52295754D01*
X19091704Y52297337D01*
X18967340Y52313820D01*
X18866152Y52327232D01*
X18866148Y52327232D01*
X18860868Y52327932D01*
X18855538Y52327732D01*
X18855537Y52327732D01*
X18744523Y52323564D01*
X18628178Y52319197D01*
X18545474Y52301844D01*
X18405514Y52272477D01*
X18405511Y52272476D01*
X18400287Y52271380D01*
X18183710Y52185850D01*
X17984641Y52065051D01*
X17980611Y52061554D01*
X17886075Y51979520D01*
X17808770Y51912439D01*
X17805384Y51908309D01*
X17805383Y51908308D01*
X17754489Y51846239D01*
X17695829Y51806244D01*
X17624859Y51804313D01*
X17564111Y51841058D01*
X17543047Y51872482D01*
X17472347Y52022729D01*
X17472343Y52022736D01*
X17470659Y52026315D01*
X17368170Y52187812D01*
X17301498Y52292870D01*
X17301495Y52292874D01*
X17299371Y52296221D01*
X17095606Y52542530D01*
X17019871Y52613650D01*
X16983906Y52674863D01*
X16986744Y52745803D01*
X17027484Y52803947D01*
X17093192Y52830835D01*
X17106124Y52831500D01*
X64253183Y52831500D01*
X64321304Y52811498D01*
X64342278Y52794595D01*
X65494595Y51642277D01*
X65528621Y51579965D01*
X65531500Y51553182D01*
X65531500Y44383271D01*
X65511498Y44315150D01*
X65457842Y44268657D01*
X65387568Y44258553D01*
X65322988Y44288047D01*
X65316405Y44294176D01*
X60988670Y48621911D01*
X60976284Y48636323D01*
X60967751Y48647918D01*
X60967746Y48647923D01*
X60963408Y48653818D01*
X60957830Y48658557D01*
X60957827Y48658560D01*
X60923132Y48688035D01*
X60915616Y48694965D01*
X60909921Y48700660D01*
X60903780Y48705518D01*
X60887649Y48718281D01*
X60884245Y48721072D01*
X60834197Y48763591D01*
X60834195Y48763592D01*
X60828615Y48768333D01*
X60822099Y48771661D01*
X60817050Y48775028D01*
X60811921Y48778195D01*
X60806184Y48782734D01*
X60740025Y48813655D01*
X60736125Y48815561D01*
X60671092Y48848769D01*
X60663984Y48850508D01*
X60658341Y48852607D01*
X60652578Y48854524D01*
X60645950Y48857622D01*
X60574483Y48872487D01*
X60570199Y48873457D01*
X60499290Y48890808D01*
X60493688Y48891156D01*
X60493685Y48891156D01*
X60488136Y48891500D01*
X60488138Y48891536D01*
X60484145Y48891775D01*
X60479953Y48892149D01*
X60472785Y48893640D01*
X60406575Y48891849D01*
X60395379Y48891546D01*
X60391972Y48891500D01*
X53833371Y48891500D01*
X53765250Y48911502D01*
X53744276Y48928405D01*
X53576593Y49096088D01*
X53542567Y49158400D01*
X53547632Y49229215D01*
X53590179Y49286051D01*
X53639814Y49308498D01*
X53730486Y49327523D01*
X53730489Y49327524D01*
X53735713Y49328620D01*
X53952290Y49414150D01*
X54151359Y49534949D01*
X54155855Y49538850D01*
X54323197Y49684061D01*
X54323199Y49684063D01*
X54327230Y49687561D01*
X54330613Y49691687D01*
X54330617Y49691691D01*
X54429776Y49812626D01*
X54474872Y49867624D01*
X54500845Y49913252D01*
X54551927Y49962558D01*
X54621558Y49976420D01*
X54687629Y49950437D01*
X54714867Y49921287D01*
X54806804Y49784728D01*
X54810483Y49780871D01*
X54810485Y49780869D01*
X54895223Y49692041D01*
X54967532Y49616242D01*
X55154350Y49477246D01*
X55159102Y49474830D01*
X55356244Y49374598D01*
X55361916Y49371714D01*
X55473106Y49337189D01*
X55579193Y49304247D01*
X55579199Y49304246D01*
X55584296Y49302663D01*
X55708660Y49286180D01*
X55809848Y49272768D01*
X55809852Y49272768D01*
X55815132Y49272068D01*
X55820462Y49272268D01*
X55820463Y49272268D01*
X55936072Y49276608D01*
X56047822Y49280803D01*
X56152005Y49302663D01*
X56270486Y49327523D01*
X56270489Y49327524D01*
X56275713Y49328620D01*
X56492290Y49414150D01*
X56691359Y49534949D01*
X56695855Y49538850D01*
X56863197Y49684061D01*
X56863199Y49684063D01*
X56867230Y49687561D01*
X56870613Y49691687D01*
X56870617Y49691691D01*
X56969776Y49812626D01*
X57014872Y49867624D01*
X57040845Y49913252D01*
X57091927Y49962558D01*
X57161558Y49976420D01*
X57227629Y49950437D01*
X57254867Y49921287D01*
X57346804Y49784728D01*
X57350483Y49780871D01*
X57350485Y49780869D01*
X57435223Y49692041D01*
X57507532Y49616242D01*
X57694350Y49477246D01*
X57699102Y49474830D01*
X57896244Y49374598D01*
X57901916Y49371714D01*
X58013106Y49337189D01*
X58119193Y49304247D01*
X58119199Y49304246D01*
X58124296Y49302663D01*
X58248660Y49286180D01*
X58349848Y49272768D01*
X58349852Y49272768D01*
X58355132Y49272068D01*
X58360462Y49272268D01*
X58360463Y49272268D01*
X58476072Y49276608D01*
X58587822Y49280803D01*
X58692005Y49302663D01*
X58810486Y49327523D01*
X58810489Y49327524D01*
X58815713Y49328620D01*
X59032290Y49414150D01*
X59231359Y49534949D01*
X59235855Y49538850D01*
X59403197Y49684061D01*
X59403199Y49684063D01*
X59407230Y49687561D01*
X59410613Y49691687D01*
X59410617Y49691691D01*
X59509776Y49812626D01*
X59554872Y49867624D01*
X59580845Y49913252D01*
X59631927Y49962558D01*
X59701558Y49976420D01*
X59767629Y49950437D01*
X59794867Y49921287D01*
X59886804Y49784728D01*
X59890483Y49780871D01*
X59890485Y49780869D01*
X59975223Y49692041D01*
X60047532Y49616242D01*
X60234350Y49477246D01*
X60239102Y49474830D01*
X60436244Y49374598D01*
X60441916Y49371714D01*
X60553106Y49337189D01*
X60659193Y49304247D01*
X60659199Y49304246D01*
X60664296Y49302663D01*
X60788660Y49286180D01*
X60889848Y49272768D01*
X60889852Y49272768D01*
X60895132Y49272068D01*
X60900462Y49272268D01*
X60900463Y49272268D01*
X61016072Y49276608D01*
X61127822Y49280803D01*
X61232005Y49302663D01*
X61350486Y49327523D01*
X61350489Y49327524D01*
X61355713Y49328620D01*
X61572290Y49414150D01*
X61771359Y49534949D01*
X61775855Y49538850D01*
X61943197Y49684061D01*
X61943199Y49684063D01*
X61947230Y49687561D01*
X61950613Y49691687D01*
X61950617Y49691691D01*
X62049776Y49812626D01*
X62094872Y49867624D01*
X62120845Y49913252D01*
X62171927Y49962558D01*
X62241558Y49976420D01*
X62307629Y49950437D01*
X62334867Y49921287D01*
X62426804Y49784728D01*
X62430483Y49780871D01*
X62430485Y49780869D01*
X62515223Y49692041D01*
X62587532Y49616242D01*
X62774350Y49477246D01*
X62779102Y49474830D01*
X62976244Y49374598D01*
X62981916Y49371714D01*
X63093106Y49337189D01*
X63199193Y49304247D01*
X63199199Y49304246D01*
X63204296Y49302663D01*
X63328660Y49286180D01*
X63429848Y49272768D01*
X63429852Y49272768D01*
X63435132Y49272068D01*
X63440462Y49272268D01*
X63440463Y49272268D01*
X63556072Y49276608D01*
X63667822Y49280803D01*
X63772005Y49302663D01*
X63890486Y49327523D01*
X63890489Y49327524D01*
X63895713Y49328620D01*
X64112290Y49414150D01*
X64311359Y49534949D01*
X64315855Y49538850D01*
X64483197Y49684061D01*
X64483199Y49684063D01*
X64487230Y49687561D01*
X64490613Y49691687D01*
X64490617Y49691691D01*
X64589776Y49812626D01*
X64634872Y49867624D01*
X64665696Y49921773D01*
X64747422Y50065346D01*
X64750065Y50069989D01*
X64770239Y50125565D01*
X64827695Y50283854D01*
X64827696Y50283858D01*
X64829515Y50288869D01*
X64870950Y50518007D01*
X64872100Y50542394D01*
X64872100Y51010868D01*
X64857374Y51184420D01*
X64856035Y51189580D01*
X64800217Y51404637D01*
X64800216Y51404641D01*
X64798875Y51409806D01*
X64790164Y51429145D01*
X64705433Y51617240D01*
X64703238Y51622113D01*
X64573196Y51815272D01*
X64548598Y51841058D01*
X64416152Y51979896D01*
X64412468Y51983758D01*
X64225650Y52122754D01*
X64098574Y52187363D01*
X64022842Y52225867D01*
X64022841Y52225867D01*
X64018084Y52228286D01*
X63879299Y52271380D01*
X63800807Y52295753D01*
X63800801Y52295754D01*
X63795704Y52297337D01*
X63671340Y52313820D01*
X63570152Y52327232D01*
X63570148Y52327232D01*
X63564868Y52327932D01*
X63559538Y52327732D01*
X63559537Y52327732D01*
X63448523Y52323564D01*
X63332178Y52319197D01*
X63249474Y52301844D01*
X63109514Y52272477D01*
X63109511Y52272476D01*
X63104287Y52271380D01*
X62887710Y52185850D01*
X62688641Y52065051D01*
X62684611Y52061554D01*
X62590075Y51979520D01*
X62512770Y51912439D01*
X62509387Y51908313D01*
X62509383Y51908309D01*
X62436262Y51819131D01*
X62365128Y51732376D01*
X62362490Y51727741D01*
X62362487Y51727737D01*
X62339155Y51686748D01*
X62288073Y51637442D01*
X62218442Y51623580D01*
X62152371Y51649563D01*
X62125133Y51678713D01*
X62036176Y51810845D01*
X62033196Y51815272D01*
X62008598Y51841058D01*
X61876152Y51979896D01*
X61872468Y51983758D01*
X61685650Y52122754D01*
X61558574Y52187363D01*
X61482842Y52225867D01*
X61482841Y52225867D01*
X61478084Y52228286D01*
X61339299Y52271380D01*
X61260807Y52295753D01*
X61260801Y52295754D01*
X61255704Y52297337D01*
X61131340Y52313820D01*
X61030152Y52327232D01*
X61030148Y52327232D01*
X61024868Y52327932D01*
X61019538Y52327732D01*
X61019537Y52327732D01*
X60908523Y52323564D01*
X60792178Y52319197D01*
X60709474Y52301844D01*
X60569514Y52272477D01*
X60569511Y52272476D01*
X60564287Y52271380D01*
X60347710Y52185850D01*
X60148641Y52065051D01*
X60144611Y52061554D01*
X60050075Y51979520D01*
X59972770Y51912439D01*
X59969387Y51908313D01*
X59969383Y51908309D01*
X59896262Y51819131D01*
X59825128Y51732376D01*
X59822490Y51727741D01*
X59822487Y51727737D01*
X59799155Y51686748D01*
X59748073Y51637442D01*
X59678442Y51623580D01*
X59612371Y51649563D01*
X59585133Y51678713D01*
X59496176Y51810845D01*
X59493196Y51815272D01*
X59468598Y51841058D01*
X59336152Y51979896D01*
X59332468Y51983758D01*
X59145650Y52122754D01*
X59018574Y52187363D01*
X58942842Y52225867D01*
X58942841Y52225867D01*
X58938084Y52228286D01*
X58799299Y52271380D01*
X58720807Y52295753D01*
X58720801Y52295754D01*
X58715704Y52297337D01*
X58591340Y52313820D01*
X58490152Y52327232D01*
X58490148Y52327232D01*
X58484868Y52327932D01*
X58479538Y52327732D01*
X58479537Y52327732D01*
X58368523Y52323564D01*
X58252178Y52319197D01*
X58169474Y52301844D01*
X58029514Y52272477D01*
X58029511Y52272476D01*
X58024287Y52271380D01*
X57807710Y52185850D01*
X57608641Y52065051D01*
X57604611Y52061554D01*
X57510075Y51979520D01*
X57432770Y51912439D01*
X57429387Y51908313D01*
X57429383Y51908309D01*
X57356262Y51819131D01*
X57285128Y51732376D01*
X57282490Y51727741D01*
X57282487Y51727737D01*
X57259155Y51686748D01*
X57208073Y51637442D01*
X57138442Y51623580D01*
X57072371Y51649563D01*
X57045133Y51678713D01*
X56956176Y51810845D01*
X56953196Y51815272D01*
X56928598Y51841058D01*
X56796152Y51979896D01*
X56792468Y51983758D01*
X56605650Y52122754D01*
X56478574Y52187363D01*
X56402842Y52225867D01*
X56402841Y52225867D01*
X56398084Y52228286D01*
X56259299Y52271380D01*
X56180807Y52295753D01*
X56180801Y52295754D01*
X56175704Y52297337D01*
X56051340Y52313820D01*
X55950152Y52327232D01*
X55950148Y52327232D01*
X55944868Y52327932D01*
X55939538Y52327732D01*
X55939537Y52327732D01*
X55828523Y52323564D01*
X55712178Y52319197D01*
X55629474Y52301844D01*
X55489514Y52272477D01*
X55489511Y52272476D01*
X55484287Y52271380D01*
X55267710Y52185850D01*
X55068641Y52065051D01*
X55064611Y52061554D01*
X54970075Y51979520D01*
X54892770Y51912439D01*
X54889387Y51908313D01*
X54889383Y51908309D01*
X54816262Y51819131D01*
X54745128Y51732376D01*
X54742490Y51727741D01*
X54742487Y51727737D01*
X54719155Y51686748D01*
X54668073Y51637442D01*
X54598442Y51623580D01*
X54532371Y51649563D01*
X54505133Y51678713D01*
X54416176Y51810845D01*
X54413196Y51815272D01*
X54388598Y51841058D01*
X54256152Y51979896D01*
X54252468Y51983758D01*
X54065650Y52122754D01*
X53938574Y52187363D01*
X53862842Y52225867D01*
X53862841Y52225867D01*
X53858084Y52228286D01*
X53719299Y52271380D01*
X53640807Y52295753D01*
X53640801Y52295754D01*
X53635704Y52297337D01*
X53511340Y52313820D01*
X53410152Y52327232D01*
X53410148Y52327232D01*
X53404868Y52327932D01*
X53399538Y52327732D01*
X53399537Y52327732D01*
X53288523Y52323564D01*
X53172178Y52319197D01*
X53089474Y52301844D01*
X52949514Y52272477D01*
X52949511Y52272476D01*
X52944287Y52271380D01*
X52727710Y52185850D01*
X52528641Y52065051D01*
X52524611Y52061554D01*
X52430075Y51979520D01*
X52352770Y51912439D01*
X52349387Y51908313D01*
X52349383Y51908309D01*
X52276262Y51819131D01*
X52205128Y51732376D01*
X52202490Y51727741D01*
X52202487Y51727737D01*
X52179155Y51686748D01*
X52128073Y51637442D01*
X52058442Y51623580D01*
X51992371Y51649563D01*
X51965133Y51678713D01*
X51876176Y51810845D01*
X51873196Y51815272D01*
X51848598Y51841058D01*
X51716152Y51979896D01*
X51712468Y51983758D01*
X51525650Y52122754D01*
X51398574Y52187363D01*
X51322842Y52225867D01*
X51322841Y52225867D01*
X51318084Y52228286D01*
X51179299Y52271380D01*
X51100807Y52295753D01*
X51100801Y52295754D01*
X51095704Y52297337D01*
X50971340Y52313820D01*
X50870152Y52327232D01*
X50870148Y52327232D01*
X50864868Y52327932D01*
X50859538Y52327732D01*
X50859537Y52327732D01*
X50748523Y52323564D01*
X50632178Y52319197D01*
X50549474Y52301844D01*
X50409514Y52272477D01*
X50409511Y52272476D01*
X50404287Y52271380D01*
X50187710Y52185850D01*
X49988641Y52065051D01*
X49984611Y52061554D01*
X49890075Y51979520D01*
X49812770Y51912439D01*
X49809387Y51908313D01*
X49809383Y51908309D01*
X49736262Y51819131D01*
X49665128Y51732376D01*
X49662490Y51727741D01*
X49662487Y51727737D01*
X49639155Y51686748D01*
X49588073Y51637442D01*
X49518442Y51623580D01*
X49452371Y51649563D01*
X49425133Y51678713D01*
X49336176Y51810845D01*
X49333196Y51815272D01*
X49308598Y51841058D01*
X49176152Y51979896D01*
X49172468Y51983758D01*
X48985650Y52122754D01*
X48858574Y52187363D01*
X48782842Y52225867D01*
X48782841Y52225867D01*
X48778084Y52228286D01*
X48639299Y52271380D01*
X48560807Y52295753D01*
X48560801Y52295754D01*
X48555704Y52297337D01*
X48431340Y52313820D01*
X48330152Y52327232D01*
X48330148Y52327232D01*
X48324868Y52327932D01*
X48319538Y52327732D01*
X48319537Y52327732D01*
X48208523Y52323564D01*
X48092178Y52319197D01*
X48009474Y52301844D01*
X47869514Y52272477D01*
X47869511Y52272476D01*
X47864287Y52271380D01*
X47647710Y52185850D01*
X47448641Y52065051D01*
X47444611Y52061554D01*
X47350075Y51979520D01*
X47272770Y51912439D01*
X47269387Y51908313D01*
X47269383Y51908309D01*
X47196262Y51819131D01*
X47125128Y51732376D01*
X47122490Y51727741D01*
X47122487Y51727737D01*
X47099155Y51686748D01*
X47048073Y51637442D01*
X46978442Y51623580D01*
X46912371Y51649563D01*
X46885133Y51678713D01*
X46796176Y51810845D01*
X46793196Y51815272D01*
X46768598Y51841058D01*
X46636152Y51979896D01*
X46632468Y51983758D01*
X46445650Y52122754D01*
X46318574Y52187363D01*
X46242842Y52225867D01*
X46242841Y52225867D01*
X46238084Y52228286D01*
X46099299Y52271380D01*
X46020807Y52295753D01*
X46020801Y52295754D01*
X46015704Y52297337D01*
X45891340Y52313820D01*
X45790152Y52327232D01*
X45790148Y52327232D01*
X45784868Y52327932D01*
X45779538Y52327732D01*
X45779537Y52327732D01*
X45668523Y52323564D01*
X45552178Y52319197D01*
X45469474Y52301844D01*
X45329514Y52272477D01*
X45329511Y52272476D01*
X45324287Y52271380D01*
X45107710Y52185850D01*
X44908641Y52065051D01*
X44904611Y52061554D01*
X44810075Y51979520D01*
X44732770Y51912439D01*
X44729387Y51908313D01*
X44729383Y51908309D01*
X44656262Y51819131D01*
X44585128Y51732376D01*
X44582490Y51727741D01*
X44582487Y51727737D01*
X44486597Y51559281D01*
X44469935Y51530011D01*
X44468114Y51524995D01*
X44468112Y51524990D01*
X44426302Y51409806D01*
X44390485Y51311131D01*
X44349050Y51081993D01*
X44347900Y51057606D01*
X44347900Y50589132D01*
X44362626Y50415580D01*
X44363964Y50410423D01*
X44363965Y50410420D01*
X44396816Y50283854D01*
X44421125Y50190194D01*
X44423317Y50185328D01*
X44423318Y50185325D01*
X44431594Y50166954D01*
X44516762Y49977887D01*
X44646804Y49784728D01*
X44650483Y49780871D01*
X44650485Y49780869D01*
X44735223Y49692041D01*
X44807532Y49616242D01*
X44994350Y49477246D01*
X44999102Y49474830D01*
X45196244Y49374598D01*
X45201916Y49371714D01*
X45313106Y49337189D01*
X45419193Y49304247D01*
X45419199Y49304246D01*
X45424296Y49302663D01*
X45548660Y49286180D01*
X45649848Y49272768D01*
X45649852Y49272768D01*
X45655132Y49272068D01*
X45660462Y49272268D01*
X45660463Y49272268D01*
X45776072Y49276608D01*
X45887822Y49280803D01*
X45992005Y49302663D01*
X46110486Y49327523D01*
X46110489Y49327524D01*
X46115713Y49328620D01*
X46332290Y49414150D01*
X46531359Y49534949D01*
X46535855Y49538850D01*
X46703197Y49684061D01*
X46703199Y49684063D01*
X46707230Y49687561D01*
X46710613Y49691687D01*
X46710617Y49691691D01*
X46809776Y49812626D01*
X46854872Y49867624D01*
X46880845Y49913252D01*
X46931927Y49962558D01*
X47001558Y49976420D01*
X47067629Y49950437D01*
X47094867Y49921287D01*
X47186804Y49784728D01*
X47190483Y49780871D01*
X47190485Y49780869D01*
X47275223Y49692041D01*
X47347532Y49616242D01*
X47534350Y49477246D01*
X47539102Y49474830D01*
X47736244Y49374598D01*
X47741916Y49371714D01*
X47853106Y49337189D01*
X47959193Y49304247D01*
X47959199Y49304246D01*
X47964296Y49302663D01*
X48088660Y49286180D01*
X48189848Y49272768D01*
X48189852Y49272768D01*
X48195132Y49272068D01*
X48200462Y49272268D01*
X48200463Y49272268D01*
X48316072Y49276608D01*
X48427822Y49280803D01*
X48532005Y49302663D01*
X48650486Y49327523D01*
X48650489Y49327524D01*
X48655713Y49328620D01*
X48872290Y49414150D01*
X49071359Y49534949D01*
X49075855Y49538850D01*
X49243197Y49684061D01*
X49243199Y49684063D01*
X49247230Y49687561D01*
X49250613Y49691687D01*
X49250617Y49691691D01*
X49349776Y49812626D01*
X49394872Y49867624D01*
X49420845Y49913252D01*
X49471927Y49962558D01*
X49541558Y49976420D01*
X49607629Y49950437D01*
X49634867Y49921287D01*
X49726804Y49784728D01*
X49730483Y49780871D01*
X49730485Y49780869D01*
X49815223Y49692041D01*
X49887532Y49616242D01*
X50074350Y49477246D01*
X50079102Y49474830D01*
X50276244Y49374598D01*
X50281916Y49371714D01*
X50393106Y49337189D01*
X50499193Y49304247D01*
X50499199Y49304246D01*
X50504296Y49302663D01*
X50628660Y49286180D01*
X50729848Y49272768D01*
X50729852Y49272768D01*
X50735132Y49272068D01*
X50740462Y49272268D01*
X50740463Y49272268D01*
X50856072Y49276608D01*
X50967822Y49280803D01*
X51017659Y49291260D01*
X51131437Y49315133D01*
X51202213Y49309546D01*
X51246406Y49280913D01*
X52883230Y47644089D01*
X52895616Y47629677D01*
X52904149Y47618082D01*
X52904154Y47618077D01*
X52908492Y47612182D01*
X52914070Y47607443D01*
X52914073Y47607440D01*
X52948768Y47577965D01*
X52956284Y47571035D01*
X52961980Y47565339D01*
X52964841Y47563076D01*
X52964846Y47563071D01*
X52984256Y47547715D01*
X52987658Y47544926D01*
X53043285Y47497667D01*
X53049802Y47494339D01*
X53054850Y47490973D01*
X53059972Y47487810D01*
X53065716Y47483265D01*
X53131895Y47452336D01*
X53135779Y47450437D01*
X53200808Y47417231D01*
X53207923Y47415490D01*
X53213578Y47413387D01*
X53219317Y47411478D01*
X53225950Y47408378D01*
X53297435Y47393509D01*
X53301701Y47392543D01*
X53372610Y47375192D01*
X53378212Y47374844D01*
X53378215Y47374844D01*
X53383764Y47374500D01*
X53383762Y47374465D01*
X53387734Y47374225D01*
X53391955Y47373848D01*
X53399115Y47372359D01*
X53476542Y47374454D01*
X53479950Y47374500D01*
X60038529Y47374500D01*
X60106650Y47354498D01*
X60127624Y47337595D01*
X62891037Y44574182D01*
X62925063Y44511870D01*
X62919998Y44441055D01*
X62877451Y44384219D01*
X62860124Y44373325D01*
X62783607Y44333493D01*
X62779474Y44330390D01*
X62779471Y44330388D01*
X62683796Y44258553D01*
X62604965Y44199365D01*
X62565525Y44158093D01*
X62479043Y44067595D01*
X62450629Y44037862D01*
X62447720Y44033597D01*
X62447714Y44033589D01*
X62446120Y44031252D01*
X62343204Y43880382D01*
X62342898Y43879934D01*
X62287987Y43834931D01*
X62217462Y43826760D01*
X62153715Y43858014D01*
X62133018Y43882498D01*
X62052426Y44007074D01*
X62046136Y44015243D01*
X61902806Y44172760D01*
X61895273Y44179785D01*
X61728139Y44311778D01*
X61719552Y44317483D01*
X61533117Y44420401D01*
X61523705Y44424631D01*
X61322959Y44495720D01*
X61312988Y44498354D01*
X61241837Y44511028D01*
X61228540Y44509568D01*
X61224000Y44495011D01*
X61224000Y43052000D01*
X61203998Y42983879D01*
X61150342Y42937386D01*
X61098000Y42926000D01*
X58302000Y42926000D01*
X58233879Y42946002D01*
X58187386Y42999658D01*
X58176000Y43052000D01*
X58176000Y43452115D01*
X58684000Y43452115D01*
X58688475Y43436876D01*
X58689865Y43435671D01*
X58697548Y43434000D01*
X60697885Y43434000D01*
X60713124Y43438475D01*
X60714329Y43439865D01*
X60716000Y43447548D01*
X60716000Y44496898D01*
X60712082Y44510242D01*
X60697806Y44512229D01*
X60659324Y44506340D01*
X60649288Y44503949D01*
X60446868Y44437788D01*
X60437359Y44433791D01*
X60248463Y44335458D01*
X60239738Y44329964D01*
X60069433Y44202095D01*
X60061726Y44195252D01*
X59914590Y44041283D01*
X59908104Y44033273D01*
X59803193Y43879479D01*
X59748282Y43834476D01*
X59677757Y43826305D01*
X59614010Y43857559D01*
X59593313Y43882043D01*
X59512427Y44007074D01*
X59506136Y44015243D01*
X59362806Y44172760D01*
X59355273Y44179785D01*
X59188139Y44311778D01*
X59179552Y44317483D01*
X58993117Y44420401D01*
X58983705Y44424631D01*
X58782959Y44495720D01*
X58772988Y44498354D01*
X58701837Y44511028D01*
X58688540Y44509568D01*
X58684000Y44495011D01*
X58684000Y43452115D01*
X58176000Y43452115D01*
X58176000Y44496898D01*
X58172082Y44510242D01*
X58157806Y44512229D01*
X58119324Y44506340D01*
X58109288Y44503949D01*
X57906868Y44437788D01*
X57897359Y44433791D01*
X57708463Y44335458D01*
X57699738Y44329964D01*
X57529433Y44202095D01*
X57521726Y44195252D01*
X57374590Y44041283D01*
X57368109Y44033278D01*
X57263498Y43879926D01*
X57208587Y43834924D01*
X57138062Y43826753D01*
X57074315Y43858007D01*
X57053618Y43882491D01*
X56972822Y44007383D01*
X56972820Y44007386D01*
X56970014Y44011723D01*
X56819670Y44176949D01*
X56815619Y44180148D01*
X56815615Y44180152D01*
X56648414Y44312200D01*
X56648410Y44312202D01*
X56644359Y44315402D01*
X56608028Y44335458D01*
X56521414Y44383271D01*
X56448789Y44423362D01*
X56443920Y44425086D01*
X56443916Y44425088D01*
X56243087Y44496205D01*
X56243083Y44496206D01*
X56238212Y44497931D01*
X56233119Y44498838D01*
X56233116Y44498839D01*
X56023373Y44536200D01*
X56023367Y44536201D01*
X56018284Y44537106D01*
X55944452Y44538008D01*
X55800081Y44539772D01*
X55800079Y44539772D01*
X55794911Y44539835D01*
X55574091Y44506045D01*
X55361756Y44436643D01*
X55288757Y44398642D01*
X55240122Y44373324D01*
X55163607Y44333493D01*
X55159474Y44330390D01*
X55159471Y44330388D01*
X55063796Y44258553D01*
X54984965Y44199365D01*
X54945525Y44158093D01*
X54859043Y44067595D01*
X54830629Y44037862D01*
X54723201Y43880379D01*
X54668293Y43835379D01*
X54597768Y43827208D01*
X54534021Y43858462D01*
X54513324Y43882946D01*
X54432822Y44007383D01*
X54432820Y44007386D01*
X54430014Y44011723D01*
X54279670Y44176949D01*
X54275619Y44180148D01*
X54275615Y44180152D01*
X54108414Y44312200D01*
X54108410Y44312202D01*
X54104359Y44315402D01*
X54068028Y44335458D01*
X53981414Y44383271D01*
X53908789Y44423362D01*
X53903920Y44425086D01*
X53903916Y44425088D01*
X53703087Y44496205D01*
X53703083Y44496206D01*
X53698212Y44497931D01*
X53693119Y44498838D01*
X53693116Y44498839D01*
X53483373Y44536200D01*
X53483367Y44536201D01*
X53478284Y44537106D01*
X53404452Y44538008D01*
X53260081Y44539772D01*
X53260079Y44539772D01*
X53254911Y44539835D01*
X53034091Y44506045D01*
X52821756Y44436643D01*
X52748757Y44398642D01*
X52700122Y44373324D01*
X52623607Y44333493D01*
X52619474Y44330390D01*
X52619471Y44330388D01*
X52523796Y44258553D01*
X52444965Y44199365D01*
X52405525Y44158093D01*
X52319043Y44067595D01*
X52290629Y44037862D01*
X52183201Y43880379D01*
X52128293Y43835379D01*
X52057768Y43827208D01*
X51994021Y43858462D01*
X51973324Y43882946D01*
X51892822Y44007383D01*
X51892820Y44007386D01*
X51890014Y44011723D01*
X51739670Y44176949D01*
X51735619Y44180148D01*
X51735615Y44180152D01*
X51568414Y44312200D01*
X51568410Y44312202D01*
X51564359Y44315402D01*
X51528028Y44335458D01*
X51441414Y44383271D01*
X51368789Y44423362D01*
X51363920Y44425086D01*
X51363916Y44425088D01*
X51163087Y44496205D01*
X51163083Y44496206D01*
X51158212Y44497931D01*
X51153119Y44498838D01*
X51153116Y44498839D01*
X50943373Y44536200D01*
X50943367Y44536201D01*
X50938284Y44537106D01*
X50867770Y44537967D01*
X50720082Y44539772D01*
X50720080Y44539772D01*
X50714911Y44539835D01*
X50691156Y44536200D01*
X50611385Y44523994D01*
X50541023Y44533462D01*
X50503232Y44559449D01*
X46849570Y48213111D01*
X46837184Y48227523D01*
X46828651Y48239118D01*
X46828646Y48239123D01*
X46824308Y48245018D01*
X46818730Y48249757D01*
X46818727Y48249760D01*
X46784032Y48279235D01*
X46776516Y48286165D01*
X46770821Y48291860D01*
X46759836Y48300551D01*
X46748549Y48309481D01*
X46745145Y48312272D01*
X46695097Y48354791D01*
X46695095Y48354792D01*
X46689515Y48359533D01*
X46682999Y48362861D01*
X46677950Y48366228D01*
X46672821Y48369395D01*
X46667084Y48373934D01*
X46600925Y48404855D01*
X46597025Y48406761D01*
X46531992Y48439969D01*
X46524884Y48441708D01*
X46519241Y48443807D01*
X46513478Y48445724D01*
X46506850Y48448822D01*
X46435383Y48463687D01*
X46431099Y48464657D01*
X46360190Y48482008D01*
X46354588Y48482356D01*
X46354585Y48482356D01*
X46349036Y48482700D01*
X46349038Y48482736D01*
X46345045Y48482975D01*
X46340853Y48483349D01*
X46333685Y48484840D01*
X46267475Y48483049D01*
X46256279Y48482746D01*
X46252872Y48482700D01*
X37478171Y48482700D01*
X37410050Y48502702D01*
X37389076Y48519605D01*
X36812593Y49096088D01*
X36778567Y49158400D01*
X36783632Y49229215D01*
X36826179Y49286051D01*
X36875814Y49308498D01*
X36966486Y49327523D01*
X36966489Y49327524D01*
X36971713Y49328620D01*
X37188290Y49414150D01*
X37387359Y49534949D01*
X37391855Y49538850D01*
X37559197Y49684061D01*
X37559199Y49684063D01*
X37563230Y49687561D01*
X37566613Y49691687D01*
X37566617Y49691691D01*
X37665776Y49812626D01*
X37710872Y49867624D01*
X37736845Y49913252D01*
X37787927Y49962558D01*
X37857558Y49976420D01*
X37923629Y49950437D01*
X37950867Y49921287D01*
X38042804Y49784728D01*
X38046483Y49780871D01*
X38046485Y49780869D01*
X38131223Y49692041D01*
X38203532Y49616242D01*
X38390350Y49477246D01*
X38395102Y49474830D01*
X38592244Y49374598D01*
X38597916Y49371714D01*
X38709106Y49337189D01*
X38815193Y49304247D01*
X38815199Y49304246D01*
X38820296Y49302663D01*
X38944660Y49286180D01*
X39045848Y49272768D01*
X39045852Y49272768D01*
X39051132Y49272068D01*
X39056462Y49272268D01*
X39056463Y49272268D01*
X39172072Y49276608D01*
X39283822Y49280803D01*
X39388005Y49302663D01*
X39506486Y49327523D01*
X39506489Y49327524D01*
X39511713Y49328620D01*
X39728290Y49414150D01*
X39927359Y49534949D01*
X39931855Y49538850D01*
X40099197Y49684061D01*
X40099199Y49684063D01*
X40103230Y49687561D01*
X40106613Y49691687D01*
X40106617Y49691691D01*
X40205776Y49812626D01*
X40250872Y49867624D01*
X40276845Y49913252D01*
X40327927Y49962558D01*
X40397558Y49976420D01*
X40463629Y49950437D01*
X40490867Y49921287D01*
X40582804Y49784728D01*
X40586483Y49780871D01*
X40586485Y49780869D01*
X40671223Y49692041D01*
X40743532Y49616242D01*
X40930350Y49477246D01*
X40935102Y49474830D01*
X41132244Y49374598D01*
X41137916Y49371714D01*
X41249106Y49337189D01*
X41355193Y49304247D01*
X41355199Y49304246D01*
X41360296Y49302663D01*
X41484660Y49286180D01*
X41585848Y49272768D01*
X41585852Y49272768D01*
X41591132Y49272068D01*
X41596462Y49272268D01*
X41596463Y49272268D01*
X41712072Y49276608D01*
X41823822Y49280803D01*
X41928005Y49302663D01*
X42046486Y49327523D01*
X42046489Y49327524D01*
X42051713Y49328620D01*
X42268290Y49414150D01*
X42467359Y49534949D01*
X42471855Y49538850D01*
X42639197Y49684061D01*
X42639199Y49684063D01*
X42643230Y49687561D01*
X42646613Y49691687D01*
X42646617Y49691691D01*
X42745776Y49812626D01*
X42790872Y49867624D01*
X42821696Y49921773D01*
X42903422Y50065346D01*
X42906065Y50069989D01*
X42926239Y50125565D01*
X42983695Y50283854D01*
X42983696Y50283858D01*
X42985515Y50288869D01*
X43026950Y50518007D01*
X43028100Y50542394D01*
X43028100Y51010868D01*
X43013374Y51184420D01*
X43012035Y51189580D01*
X42956217Y51404637D01*
X42956216Y51404641D01*
X42954875Y51409806D01*
X42946164Y51429145D01*
X42861433Y51617240D01*
X42859238Y51622113D01*
X42729196Y51815272D01*
X42704598Y51841058D01*
X42572152Y51979896D01*
X42568468Y51983758D01*
X42381650Y52122754D01*
X42254574Y52187363D01*
X42178842Y52225867D01*
X42178841Y52225867D01*
X42174084Y52228286D01*
X42035299Y52271380D01*
X41956807Y52295753D01*
X41956801Y52295754D01*
X41951704Y52297337D01*
X41827340Y52313820D01*
X41726152Y52327232D01*
X41726148Y52327232D01*
X41720868Y52327932D01*
X41715538Y52327732D01*
X41715537Y52327732D01*
X41604523Y52323564D01*
X41488178Y52319197D01*
X41405474Y52301844D01*
X41265514Y52272477D01*
X41265511Y52272476D01*
X41260287Y52271380D01*
X41043710Y52185850D01*
X40844641Y52065051D01*
X40840611Y52061554D01*
X40746075Y51979520D01*
X40668770Y51912439D01*
X40665387Y51908313D01*
X40665383Y51908309D01*
X40592262Y51819131D01*
X40521128Y51732376D01*
X40518490Y51727741D01*
X40518487Y51727737D01*
X40495155Y51686748D01*
X40444073Y51637442D01*
X40374442Y51623580D01*
X40308371Y51649563D01*
X40281133Y51678713D01*
X40192176Y51810845D01*
X40189196Y51815272D01*
X40164598Y51841058D01*
X40032152Y51979896D01*
X40028468Y51983758D01*
X39841650Y52122754D01*
X39714574Y52187363D01*
X39638842Y52225867D01*
X39638841Y52225867D01*
X39634084Y52228286D01*
X39495299Y52271380D01*
X39416807Y52295753D01*
X39416801Y52295754D01*
X39411704Y52297337D01*
X39287340Y52313820D01*
X39186152Y52327232D01*
X39186148Y52327232D01*
X39180868Y52327932D01*
X39175538Y52327732D01*
X39175537Y52327732D01*
X39064523Y52323564D01*
X38948178Y52319197D01*
X38865474Y52301844D01*
X38725514Y52272477D01*
X38725511Y52272476D01*
X38720287Y52271380D01*
X38503710Y52185850D01*
X38304641Y52065051D01*
X38300611Y52061554D01*
X38206075Y51979520D01*
X38128770Y51912439D01*
X38125387Y51908313D01*
X38125383Y51908309D01*
X38052262Y51819131D01*
X37981128Y51732376D01*
X37978490Y51727741D01*
X37978487Y51727737D01*
X37955155Y51686748D01*
X37904073Y51637442D01*
X37834442Y51623580D01*
X37768371Y51649563D01*
X37741133Y51678713D01*
X37652176Y51810845D01*
X37649196Y51815272D01*
X37624598Y51841058D01*
X37492152Y51979896D01*
X37488468Y51983758D01*
X37301650Y52122754D01*
X37174574Y52187363D01*
X37098842Y52225867D01*
X37098841Y52225867D01*
X37094084Y52228286D01*
X36955299Y52271380D01*
X36876807Y52295753D01*
X36876801Y52295754D01*
X36871704Y52297337D01*
X36747340Y52313820D01*
X36646152Y52327232D01*
X36646148Y52327232D01*
X36640868Y52327932D01*
X36635538Y52327732D01*
X36635537Y52327732D01*
X36524523Y52323564D01*
X36408178Y52319197D01*
X36325474Y52301844D01*
X36185514Y52272477D01*
X36185511Y52272476D01*
X36180287Y52271380D01*
X35963710Y52185850D01*
X35764641Y52065051D01*
X35760611Y52061554D01*
X35666075Y51979520D01*
X35588770Y51912439D01*
X35585387Y51908313D01*
X35585383Y51908309D01*
X35512262Y51819131D01*
X35441128Y51732376D01*
X35438490Y51727741D01*
X35438487Y51727737D01*
X35415155Y51686748D01*
X35364073Y51637442D01*
X35294442Y51623580D01*
X35228371Y51649563D01*
X35201133Y51678713D01*
X35112176Y51810845D01*
X35109196Y51815272D01*
X35084598Y51841058D01*
X34952152Y51979896D01*
X34948468Y51983758D01*
X34761650Y52122754D01*
X34634574Y52187363D01*
X34558842Y52225867D01*
X34558841Y52225867D01*
X34554084Y52228286D01*
X34415299Y52271380D01*
X34336807Y52295753D01*
X34336801Y52295754D01*
X34331704Y52297337D01*
X34207340Y52313820D01*
X34106152Y52327232D01*
X34106148Y52327232D01*
X34100868Y52327932D01*
X34095538Y52327732D01*
X34095537Y52327732D01*
X33984523Y52323564D01*
X33868178Y52319197D01*
X33785474Y52301844D01*
X33645514Y52272477D01*
X33645511Y52272476D01*
X33640287Y52271380D01*
X33423710Y52185850D01*
X33224641Y52065051D01*
X33220611Y52061554D01*
X33126075Y51979520D01*
X33048770Y51912439D01*
X33045387Y51908313D01*
X33045383Y51908309D01*
X32972262Y51819131D01*
X32901128Y51732376D01*
X32898490Y51727741D01*
X32898487Y51727737D01*
X32875155Y51686748D01*
X32824073Y51637442D01*
X32754442Y51623580D01*
X32688371Y51649563D01*
X32661133Y51678713D01*
X32572176Y51810845D01*
X32569196Y51815272D01*
X32544598Y51841058D01*
X32412152Y51979896D01*
X32408468Y51983758D01*
X32221650Y52122754D01*
X32094574Y52187363D01*
X32018842Y52225867D01*
X32018841Y52225867D01*
X32014084Y52228286D01*
X31875299Y52271380D01*
X31796807Y52295753D01*
X31796801Y52295754D01*
X31791704Y52297337D01*
X31667340Y52313820D01*
X31566152Y52327232D01*
X31566148Y52327232D01*
X31560868Y52327932D01*
X31555538Y52327732D01*
X31555537Y52327732D01*
X31444523Y52323564D01*
X31328178Y52319197D01*
X31245474Y52301844D01*
X31105514Y52272477D01*
X31105511Y52272476D01*
X31100287Y52271380D01*
X30883710Y52185850D01*
X30684641Y52065051D01*
X30680611Y52061554D01*
X30586075Y51979520D01*
X30508770Y51912439D01*
X30505387Y51908313D01*
X30505383Y51908309D01*
X30432262Y51819131D01*
X30361128Y51732376D01*
X30358490Y51727741D01*
X30358487Y51727737D01*
X30335155Y51686748D01*
X30284073Y51637442D01*
X30214442Y51623580D01*
X30148371Y51649563D01*
X30121133Y51678713D01*
X30032176Y51810845D01*
X30029196Y51815272D01*
X30004598Y51841058D01*
X29872152Y51979896D01*
X29868468Y51983758D01*
X29681650Y52122754D01*
X29554574Y52187363D01*
X29478842Y52225867D01*
X29478841Y52225867D01*
X29474084Y52228286D01*
X29335299Y52271380D01*
X29256807Y52295753D01*
X29256801Y52295754D01*
X29251704Y52297337D01*
X29127340Y52313820D01*
X29026152Y52327232D01*
X29026148Y52327232D01*
X29020868Y52327932D01*
X29015538Y52327732D01*
X29015537Y52327732D01*
X28904523Y52323564D01*
X28788178Y52319197D01*
X28705474Y52301844D01*
X28565514Y52272477D01*
X28565511Y52272476D01*
X28560287Y52271380D01*
X28343710Y52185850D01*
X28144641Y52065051D01*
X28140611Y52061554D01*
X28046075Y51979520D01*
X27968770Y51912439D01*
X27965387Y51908313D01*
X27965383Y51908309D01*
X27892262Y51819131D01*
X27821128Y51732376D01*
X27794878Y51686261D01*
X27743798Y51636956D01*
X27674168Y51623094D01*
X27608096Y51649077D01*
X27580857Y51678227D01*
X27491785Y51810530D01*
X27485124Y51818816D01*
X27331820Y51979520D01*
X27323852Y51986569D01*
X27145664Y52119144D01*
X27136634Y52124743D01*
X26938653Y52225402D01*
X26928792Y52229405D01*
X26716699Y52295263D01*
X26706304Y52297548D01*
X26687959Y52299980D01*
X26673792Y52297783D01*
X26670000Y52284599D01*
X26670000Y49317512D01*
X26673973Y49303981D01*
X26684580Y49302456D01*
X26806343Y49328004D01*
X26816539Y49331064D01*
X27023097Y49412637D01*
X27032634Y49417371D01*
X27222503Y49532586D01*
X27231093Y49538850D01*
X27398837Y49684411D01*
X27406257Y49692041D01*
X27547073Y49863780D01*
X27553102Y49872551D01*
X27576533Y49913715D01*
X27627615Y49963022D01*
X27697245Y49976884D01*
X27763316Y49950901D01*
X27790555Y49921751D01*
X27882804Y49784728D01*
X27886483Y49780871D01*
X27886485Y49780869D01*
X27971223Y49692041D01*
X28043532Y49616242D01*
X28230350Y49477246D01*
X28235102Y49474830D01*
X28432244Y49374598D01*
X28437916Y49371714D01*
X28549106Y49337189D01*
X28655193Y49304247D01*
X28655199Y49304246D01*
X28660296Y49302663D01*
X28784660Y49286180D01*
X28885848Y49272768D01*
X28885852Y49272768D01*
X28891132Y49272068D01*
X28896462Y49272268D01*
X28896463Y49272268D01*
X29012072Y49276608D01*
X29123822Y49280803D01*
X29173659Y49291260D01*
X29287437Y49315133D01*
X29358213Y49309546D01*
X29402406Y49280913D01*
X32846724Y45836595D01*
X32880750Y45774283D01*
X32875685Y45703468D01*
X32833138Y45646632D01*
X32766618Y45621821D01*
X32757629Y45621500D01*
X32158063Y45621500D01*
X32139114Y45622933D01*
X32138907Y45622964D01*
X32117651Y45626198D01*
X32110359Y45625605D01*
X32110356Y45625605D01*
X32064991Y45621915D01*
X32054777Y45621500D01*
X32046707Y45621500D01*
X32043087Y45621078D01*
X32043069Y45621077D01*
X32018461Y45618208D01*
X32014100Y45617776D01*
X31988981Y45615733D01*
X31948661Y45612454D01*
X31948658Y45612453D01*
X31941363Y45611860D01*
X31934399Y45609604D01*
X31928440Y45608413D01*
X31922585Y45607029D01*
X31915319Y45606182D01*
X31846673Y45581265D01*
X31842545Y45579848D01*
X31780064Y45559607D01*
X31780062Y45559606D01*
X31773101Y45557351D01*
X31766846Y45553555D01*
X31761372Y45551049D01*
X31755942Y45548330D01*
X31749063Y45545833D01*
X31688016Y45505809D01*
X31684327Y45503482D01*
X31664135Y45491229D01*
X31626693Y45468509D01*
X31626688Y45468505D01*
X31621892Y45465595D01*
X31613516Y45458197D01*
X31613493Y45458223D01*
X31610503Y45455574D01*
X31607264Y45452866D01*
X31601148Y45448856D01*
X31596121Y45443549D01*
X31596117Y45443546D01*
X31547872Y45392617D01*
X31545494Y45390175D01*
X7106089Y20950770D01*
X7091677Y20938384D01*
X7080082Y20929851D01*
X7080077Y20929846D01*
X7074182Y20925508D01*
X7069443Y20919930D01*
X7069440Y20919927D01*
X7039965Y20885232D01*
X7033035Y20877716D01*
X7027340Y20872021D01*
X7025060Y20869139D01*
X7009719Y20849749D01*
X7006928Y20846345D01*
X6966134Y20798327D01*
X6959667Y20790715D01*
X6956339Y20784199D01*
X6952972Y20779150D01*
X6949805Y20774021D01*
X6945266Y20768284D01*
X6914345Y20702125D01*
X6912442Y20698231D01*
X6879231Y20633192D01*
X6877492Y20626084D01*
X6875393Y20620441D01*
X6873476Y20614678D01*
X6870378Y20608050D01*
X6868888Y20600888D01*
X6868888Y20600887D01*
X6855514Y20536588D01*
X6854544Y20532304D01*
X6837192Y20461390D01*
X6836500Y20450236D01*
X6836464Y20450238D01*
X6836225Y20446245D01*
X6835851Y20442053D01*
X6834360Y20434885D01*
X6834558Y20427568D01*
X6836454Y20357479D01*
X6836500Y20354072D01*
X6836500Y17702345D01*
X6816498Y17634224D01*
X6786153Y17601585D01*
X6781774Y17598297D01*
X6689965Y17529365D01*
X6535629Y17367862D01*
X6428204Y17210382D01*
X6427898Y17209934D01*
X6372987Y17164931D01*
X6302462Y17156760D01*
X6238715Y17188014D01*
X6218018Y17212498D01*
X6137426Y17337074D01*
X6131136Y17345243D01*
X5987806Y17502760D01*
X5980273Y17509785D01*
X5813139Y17641778D01*
X5804552Y17647483D01*
X5618117Y17750401D01*
X5608705Y17754631D01*
X5407959Y17825720D01*
X5397988Y17828354D01*
X5326837Y17841028D01*
X5313540Y17839568D01*
X5309000Y17825011D01*
X5309000Y15191483D01*
X5313064Y15177641D01*
X5326478Y15175607D01*
X5333184Y15176466D01*
X5343262Y15178608D01*
X5547255Y15239809D01*
X5556842Y15243567D01*
X5748095Y15337261D01*
X5756945Y15342536D01*
X5930328Y15466208D01*
X5938200Y15472861D01*
X6089052Y15623188D01*
X6095730Y15631035D01*
X6223022Y15808181D01*
X6224279Y15807278D01*
X6271373Y15850638D01*
X6341311Y15862855D01*
X6406751Y15835322D01*
X6434579Y15803489D01*
X6494987Y15704912D01*
X6641250Y15536062D01*
X6813126Y15393368D01*
X7006000Y15280662D01*
X7214692Y15200970D01*
X7219760Y15199939D01*
X7219763Y15199938D01*
X7301734Y15183261D01*
X7433597Y15156433D01*
X7438772Y15156243D01*
X7438774Y15156243D01*
X7651673Y15148436D01*
X7651677Y15148436D01*
X7656837Y15148247D01*
X7661957Y15148903D01*
X7661959Y15148903D01*
X7873288Y15175975D01*
X7873289Y15175975D01*
X7878416Y15176632D01*
X7883366Y15178117D01*
X8087429Y15239339D01*
X8087434Y15239341D01*
X8092384Y15240826D01*
X8292994Y15339104D01*
X8474860Y15468827D01*
X8633096Y15626511D01*
X8692594Y15709311D01*
X8763453Y15807923D01*
X8764776Y15806972D01*
X8811645Y15850143D01*
X8881580Y15862375D01*
X8947026Y15834856D01*
X8974875Y15803006D01*
X9034987Y15704912D01*
X9181250Y15536062D01*
X9353126Y15393368D01*
X9546000Y15280662D01*
X9754692Y15200970D01*
X9759760Y15199939D01*
X9759763Y15199938D01*
X9841734Y15183261D01*
X9973597Y15156433D01*
X9978772Y15156243D01*
X9978774Y15156243D01*
X10191673Y15148436D01*
X10191677Y15148436D01*
X10196837Y15148247D01*
X10336908Y15166191D01*
X10407017Y15155007D01*
X10442012Y15130307D01*
X10855630Y14716689D01*
X10868016Y14702277D01*
X10876549Y14690682D01*
X10876554Y14690677D01*
X10880892Y14684782D01*
X10886470Y14680043D01*
X10886473Y14680040D01*
X10921168Y14650565D01*
X10928684Y14643635D01*
X10934379Y14637940D01*
X10937261Y14635660D01*
X10956651Y14620319D01*
X10960055Y14617528D01*
X11010103Y14575009D01*
X11015685Y14570267D01*
X11022201Y14566939D01*
X11027250Y14563572D01*
X11032379Y14560405D01*
X11038116Y14555866D01*
X11104275Y14524945D01*
X11108169Y14523042D01*
X11173208Y14489831D01*
X11180316Y14488092D01*
X11185959Y14485993D01*
X11191722Y14484076D01*
X11198350Y14480978D01*
X11205512Y14479488D01*
X11205513Y14479488D01*
X11269812Y14466114D01*
X11274096Y14465144D01*
X11345010Y14447792D01*
X11350612Y14447444D01*
X11350615Y14447444D01*
X11356164Y14447100D01*
X11356162Y14447064D01*
X11360155Y14446825D01*
X11364347Y14446451D01*
X11371515Y14444960D01*
X11448920Y14447054D01*
X11452328Y14447100D01*
X22315430Y14447100D01*
X22334380Y14445667D01*
X22348615Y14443501D01*
X22348619Y14443501D01*
X22355849Y14442401D01*
X22363141Y14442994D01*
X22363144Y14442994D01*
X22408518Y14446685D01*
X22418733Y14447100D01*
X22426793Y14447100D01*
X22444180Y14449127D01*
X22455007Y14450389D01*
X22459382Y14450822D01*
X22524839Y14456146D01*
X22524842Y14456147D01*
X22532137Y14456740D01*
X22539101Y14458996D01*
X22545060Y14460187D01*
X22550915Y14461571D01*
X22558181Y14462418D01*
X22626827Y14487335D01*
X22630955Y14488752D01*
X22693436Y14508993D01*
X22693438Y14508994D01*
X22700399Y14511249D01*
X22706654Y14515045D01*
X22712128Y14517551D01*
X22717558Y14520270D01*
X22724437Y14522767D01*
X22730558Y14526780D01*
X22785476Y14562786D01*
X22789180Y14565123D01*
X22851607Y14603005D01*
X22859984Y14610403D01*
X22860008Y14610376D01*
X22863000Y14613029D01*
X22866233Y14615732D01*
X22872352Y14619744D01*
X22925628Y14675983D01*
X22928006Y14678425D01*
X26585979Y18336398D01*
X26610553Y18355530D01*
X26763712Y18446831D01*
X26895066Y18571918D01*
X26995443Y18722998D01*
X27059855Y18892562D01*
X27077456Y19017801D01*
X27084548Y19068261D01*
X27084548Y19068264D01*
X27085099Y19072183D01*
X27085416Y19094900D01*
X27065197Y19275155D01*
X27005545Y19446452D01*
X26909426Y19600276D01*
X26836056Y19674160D01*
X26786578Y19723985D01*
X26786574Y19723988D01*
X26781615Y19728982D01*
X26628466Y19826173D01*
X26575422Y19845061D01*
X26464225Y19884657D01*
X26464220Y19884658D01*
X26457590Y19887019D01*
X26450602Y19887852D01*
X26450599Y19887853D01*
X26346299Y19900290D01*
X26313917Y19904151D01*
X26248644Y19932078D01*
X26208831Y19990862D01*
X26207119Y20061838D01*
X26239741Y20118360D01*
X26538979Y20417598D01*
X26563553Y20436730D01*
X26716712Y20528031D01*
X26848066Y20653118D01*
X26948443Y20804198D01*
X26999416Y20938384D01*
X27010355Y20967180D01*
X27010356Y20967182D01*
X27012855Y20973762D01*
X27015475Y20992405D01*
X27024896Y21059436D01*
X27054184Y21124110D01*
X27113789Y21162683D01*
X27149670Y21167900D01*
X36127229Y21167900D01*
X36195350Y21147898D01*
X36216324Y21130995D01*
X53103407Y4243912D01*
X53137433Y4181600D01*
X53132368Y4110785D01*
X53089821Y4053949D01*
X53040186Y4031502D01*
X52949514Y4012477D01*
X52949511Y4012476D01*
X52944287Y4011380D01*
X52727710Y3925850D01*
X52528641Y3805051D01*
X52524611Y3801554D01*
X52430075Y3719520D01*
X52352770Y3652439D01*
X52349387Y3648313D01*
X52349383Y3648309D01*
X52276262Y3559131D01*
X52205128Y3472376D01*
X52202490Y3467741D01*
X52202487Y3467737D01*
X52179155Y3426748D01*
X52128073Y3377442D01*
X52058442Y3363580D01*
X51992371Y3389563D01*
X51965133Y3418713D01*
X51897849Y3518653D01*
X51873196Y3555272D01*
X51712468Y3723758D01*
X51525650Y3862754D01*
X51398574Y3927363D01*
X51322842Y3965867D01*
X51322841Y3965867D01*
X51318084Y3968286D01*
X51185621Y4009417D01*
X51100807Y4035753D01*
X51100801Y4035754D01*
X51095704Y4037337D01*
X50970368Y4053949D01*
X50870152Y4067232D01*
X50870148Y4067232D01*
X50864868Y4067932D01*
X50859538Y4067732D01*
X50859537Y4067732D01*
X50748523Y4063565D01*
X50632178Y4059197D01*
X50607167Y4053949D01*
X50409514Y4012477D01*
X50409511Y4012476D01*
X50404287Y4011380D01*
X50187710Y3925850D01*
X49988641Y3805051D01*
X49984611Y3801554D01*
X49890075Y3719520D01*
X49812770Y3652439D01*
X49809387Y3648313D01*
X49809383Y3648309D01*
X49736262Y3559131D01*
X49665128Y3472376D01*
X49662490Y3467741D01*
X49662487Y3467737D01*
X49599589Y3357240D01*
X49549935Y3270011D01*
X49548114Y3264995D01*
X49548112Y3264990D01*
X49506302Y3149806D01*
X49470485Y3051131D01*
X49429050Y2821993D01*
X49428855Y2817854D01*
X49428854Y2817847D01*
X49427970Y2799095D01*
X49427900Y2797606D01*
X49427900Y2329132D01*
X49442626Y2155580D01*
X49443964Y2150423D01*
X49443965Y2150420D01*
X49495115Y1953350D01*
X49501125Y1930194D01*
X49503317Y1925328D01*
X49503318Y1925325D01*
X49552846Y1815378D01*
X49596762Y1717887D01*
X49726804Y1524728D01*
X49887532Y1356242D01*
X50074350Y1217246D01*
X50079102Y1214830D01*
X50276244Y1114598D01*
X50281916Y1111714D01*
X50393106Y1077188D01*
X50499193Y1044247D01*
X50499199Y1044246D01*
X50504296Y1042663D01*
X50628660Y1026180D01*
X50729848Y1012768D01*
X50729852Y1012768D01*
X50735132Y1012068D01*
X50740462Y1012268D01*
X50740463Y1012268D01*
X50851477Y1016436D01*
X50967822Y1020803D01*
X51072005Y1042663D01*
X51190486Y1067523D01*
X51190489Y1067524D01*
X51195713Y1068620D01*
X51412290Y1154150D01*
X51611359Y1274949D01*
X51615855Y1278850D01*
X51783197Y1424061D01*
X51783199Y1424063D01*
X51787230Y1427561D01*
X51790613Y1431687D01*
X51790617Y1431691D01*
X51889776Y1552626D01*
X51934872Y1607624D01*
X51937672Y1612542D01*
X51960845Y1653252D01*
X52011927Y1702558D01*
X52081558Y1716420D01*
X52147629Y1690437D01*
X52174867Y1661287D01*
X52266804Y1524728D01*
X52427532Y1356242D01*
X52614350Y1217246D01*
X52619102Y1214830D01*
X52816244Y1114598D01*
X52821916Y1111714D01*
X52933106Y1077188D01*
X53039193Y1044247D01*
X53039199Y1044246D01*
X53044296Y1042663D01*
X53168660Y1026180D01*
X53269848Y1012768D01*
X53269852Y1012768D01*
X53275132Y1012068D01*
X53280462Y1012268D01*
X53280463Y1012268D01*
X53391477Y1016436D01*
X53507822Y1020803D01*
X53612005Y1042663D01*
X53730486Y1067523D01*
X53730489Y1067524D01*
X53735713Y1068620D01*
X53952290Y1154150D01*
X54151359Y1274949D01*
X54155855Y1278850D01*
X54323197Y1424061D01*
X54323199Y1424063D01*
X54327230Y1427561D01*
X54330613Y1431687D01*
X54330617Y1431691D01*
X54429776Y1552626D01*
X54474872Y1607624D01*
X54477672Y1612542D01*
X54500845Y1653252D01*
X54551927Y1702558D01*
X54621558Y1716420D01*
X54687629Y1690437D01*
X54714867Y1661287D01*
X54806804Y1524728D01*
X54967532Y1356242D01*
X55154350Y1217246D01*
X55159102Y1214830D01*
X55356244Y1114598D01*
X55361916Y1111714D01*
X55473106Y1077188D01*
X55579193Y1044247D01*
X55579199Y1044246D01*
X55584296Y1042663D01*
X55708660Y1026180D01*
X55809848Y1012768D01*
X55809852Y1012768D01*
X55815132Y1012068D01*
X55820462Y1012268D01*
X55820463Y1012268D01*
X55931477Y1016436D01*
X56047822Y1020803D01*
X56152005Y1042663D01*
X56270486Y1067523D01*
X56270489Y1067524D01*
X56275713Y1068620D01*
X56492290Y1154150D01*
X56691359Y1274949D01*
X56695855Y1278850D01*
X56863197Y1424061D01*
X56863199Y1424063D01*
X56867230Y1427561D01*
X56870613Y1431687D01*
X56870617Y1431691D01*
X56969776Y1552626D01*
X57014872Y1607624D01*
X57017672Y1612542D01*
X57040845Y1653252D01*
X57091927Y1702558D01*
X57161558Y1716420D01*
X57227629Y1690437D01*
X57254867Y1661287D01*
X57346804Y1524728D01*
X57507532Y1356242D01*
X57694350Y1217246D01*
X57699102Y1214830D01*
X57896244Y1114598D01*
X57901916Y1111714D01*
X58013106Y1077188D01*
X58119193Y1044247D01*
X58119199Y1044246D01*
X58124296Y1042663D01*
X58248660Y1026180D01*
X58349848Y1012768D01*
X58349852Y1012768D01*
X58355132Y1012068D01*
X58360462Y1012268D01*
X58360463Y1012268D01*
X58471477Y1016436D01*
X58587822Y1020803D01*
X58692005Y1042663D01*
X58810486Y1067523D01*
X58810489Y1067524D01*
X58815713Y1068620D01*
X59032290Y1154150D01*
X59231359Y1274949D01*
X59235855Y1278850D01*
X59403197Y1424061D01*
X59403199Y1424063D01*
X59407230Y1427561D01*
X59410613Y1431687D01*
X59410617Y1431691D01*
X59509776Y1552626D01*
X59554872Y1607624D01*
X59557672Y1612542D01*
X59580845Y1653252D01*
X59631927Y1702558D01*
X59701558Y1716420D01*
X59767629Y1690437D01*
X59794867Y1661287D01*
X59886804Y1524728D01*
X60047532Y1356242D01*
X60234350Y1217246D01*
X60239102Y1214830D01*
X60436244Y1114598D01*
X60441916Y1111714D01*
X60553106Y1077188D01*
X60659193Y1044247D01*
X60659199Y1044246D01*
X60664296Y1042663D01*
X60788660Y1026180D01*
X60889848Y1012768D01*
X60889852Y1012768D01*
X60895132Y1012068D01*
X60900462Y1012268D01*
X60900463Y1012268D01*
X61011477Y1016436D01*
X61127822Y1020803D01*
X61232005Y1042663D01*
X61350486Y1067523D01*
X61350489Y1067524D01*
X61355713Y1068620D01*
X61572290Y1154150D01*
X61771359Y1274949D01*
X61775855Y1278850D01*
X61943197Y1424061D01*
X61943199Y1424063D01*
X61947230Y1427561D01*
X61950613Y1431687D01*
X61950617Y1431691D01*
X62049776Y1552626D01*
X62094872Y1607624D01*
X62097672Y1612542D01*
X62120845Y1653252D01*
X62171927Y1702558D01*
X62241558Y1716420D01*
X62307629Y1690437D01*
X62334867Y1661287D01*
X62426804Y1524728D01*
X62587532Y1356242D01*
X62774350Y1217246D01*
X62779102Y1214830D01*
X62976244Y1114598D01*
X62981916Y1111714D01*
X63093106Y1077188D01*
X63199193Y1044247D01*
X63199199Y1044246D01*
X63204296Y1042663D01*
X63328660Y1026180D01*
X63429848Y1012768D01*
X63429852Y1012768D01*
X63435132Y1012068D01*
X63440462Y1012268D01*
X63440463Y1012268D01*
X63551477Y1016436D01*
X63667822Y1020803D01*
X63772005Y1042663D01*
X63890486Y1067523D01*
X63890489Y1067524D01*
X63895713Y1068620D01*
X64112290Y1154150D01*
X64311359Y1274949D01*
X64315855Y1278850D01*
X64483197Y1424061D01*
X64483199Y1424063D01*
X64487230Y1427561D01*
X64490613Y1431687D01*
X64490617Y1431691D01*
X64589776Y1552626D01*
X64634872Y1607624D01*
X64637672Y1612542D01*
X64744418Y1800069D01*
X64750065Y1809989D01*
X64752022Y1815378D01*
X64827695Y2023854D01*
X64827696Y2023858D01*
X64829515Y2028869D01*
X64870950Y2258007D01*
X64871632Y2272452D01*
X64872030Y2280905D01*
X64872030Y2280914D01*
X64872100Y2282394D01*
X64872100Y2750868D01*
X64863258Y2855076D01*
X64857825Y2919109D01*
X64857824Y2919113D01*
X64857374Y2924420D01*
X64850781Y2949823D01*
X64800217Y3144637D01*
X64800216Y3144641D01*
X64798875Y3149806D01*
X64790164Y3169145D01*
X64705433Y3357240D01*
X64703238Y3362113D01*
X64573196Y3555272D01*
X64412468Y3723758D01*
X64225650Y3862754D01*
X64098574Y3927363D01*
X64022842Y3965867D01*
X64022841Y3965867D01*
X64018084Y3968286D01*
X63885621Y4009417D01*
X63800807Y4035753D01*
X63800801Y4035754D01*
X63795704Y4037337D01*
X63670368Y4053949D01*
X63570152Y4067232D01*
X63570148Y4067232D01*
X63564868Y4067932D01*
X63559538Y4067732D01*
X63559537Y4067732D01*
X63448523Y4063565D01*
X63332178Y4059197D01*
X63307167Y4053949D01*
X63168563Y4024867D01*
X63097787Y4030454D01*
X63053594Y4059087D01*
X55950647Y11162034D01*
X58358257Y11162034D01*
X58388565Y11027554D01*
X58391645Y11017725D01*
X58471770Y10820397D01*
X58476413Y10811206D01*
X58587694Y10629612D01*
X58593777Y10621301D01*
X58733213Y10460333D01*
X58740580Y10453117D01*
X58904434Y10317084D01*
X58912881Y10311169D01*
X59096756Y10203721D01*
X59106042Y10199271D01*
X59305001Y10123297D01*
X59314899Y10120421D01*
X59418250Y10099394D01*
X59432299Y10100590D01*
X59436000Y10110935D01*
X59436000Y10111483D01*
X59944000Y10111483D01*
X59948064Y10097641D01*
X59961478Y10095607D01*
X59968184Y10096466D01*
X59978262Y10098608D01*
X60182255Y10159809D01*
X60191842Y10163567D01*
X60383095Y10257261D01*
X60391945Y10262536D01*
X60565328Y10386208D01*
X60573200Y10392861D01*
X60724052Y10543188D01*
X60730730Y10551035D01*
X60855003Y10723980D01*
X60860313Y10732817D01*
X60954670Y10923733D01*
X60958469Y10933328D01*
X61020377Y11137090D01*
X61022555Y11147163D01*
X61023986Y11158038D01*
X61021775Y11172222D01*
X61008617Y11176000D01*
X59962115Y11176000D01*
X59946876Y11171525D01*
X59945671Y11170135D01*
X59944000Y11162452D01*
X59944000Y10111483D01*
X59436000Y10111483D01*
X59436000Y11157885D01*
X59431525Y11173124D01*
X59430135Y11174329D01*
X59422452Y11176000D01*
X58373225Y11176000D01*
X58359694Y11172027D01*
X58358257Y11162034D01*
X55950647Y11162034D01*
X54040815Y13071866D01*
X58331500Y13071866D01*
X58338255Y13009684D01*
X58389385Y12873295D01*
X58476739Y12756739D01*
X58593295Y12669385D01*
X58601704Y12666233D01*
X58601705Y12666232D01*
X58710960Y12625274D01*
X58767725Y12582633D01*
X58792425Y12516071D01*
X58777218Y12446722D01*
X58757825Y12420241D01*
X58634590Y12291283D01*
X58628104Y12283273D01*
X58508098Y12107351D01*
X58503000Y12098377D01*
X58413338Y11905217D01*
X58409775Y11895530D01*
X58354389Y11695817D01*
X58355912Y11687393D01*
X58368292Y11684000D01*
X61008344Y11684000D01*
X61021875Y11687973D01*
X61023180Y11697053D01*
X60981214Y11864125D01*
X60977894Y11873876D01*
X60892972Y12069186D01*
X60888105Y12078261D01*
X60772426Y12257074D01*
X60766136Y12265243D01*
X60622293Y12423323D01*
X60591241Y12487169D01*
X60599635Y12557667D01*
X60644812Y12612436D01*
X60671256Y12626105D01*
X60778297Y12666233D01*
X60786705Y12669385D01*
X60903261Y12756739D01*
X60990615Y12873295D01*
X61041745Y13009684D01*
X61048500Y13071866D01*
X61048500Y14868134D01*
X61041745Y14930316D01*
X60990615Y15066705D01*
X60903261Y15183261D01*
X60786705Y15270615D01*
X60650316Y15321745D01*
X60588134Y15328500D01*
X58791866Y15328500D01*
X58729684Y15321745D01*
X58593295Y15270615D01*
X58476739Y15183261D01*
X58389385Y15066705D01*
X58338255Y14930316D01*
X58331500Y14868134D01*
X58331500Y13071866D01*
X54040815Y13071866D01*
X42488770Y24623911D01*
X42476384Y24638323D01*
X42467851Y24649918D01*
X42467846Y24649923D01*
X42463508Y24655818D01*
X42457930Y24660557D01*
X42457927Y24660560D01*
X42423232Y24690035D01*
X42415716Y24696965D01*
X42410021Y24702660D01*
X42403880Y24707518D01*
X42387749Y24720281D01*
X42384345Y24723072D01*
X42334297Y24765591D01*
X42334295Y24765592D01*
X42328715Y24770333D01*
X42322199Y24773661D01*
X42317150Y24777028D01*
X42312021Y24780195D01*
X42306284Y24784734D01*
X42240125Y24815655D01*
X42236225Y24817561D01*
X42171192Y24850769D01*
X42164084Y24852508D01*
X42158441Y24854607D01*
X42152678Y24856524D01*
X42146050Y24859622D01*
X42074583Y24874487D01*
X42070299Y24875457D01*
X41999390Y24892808D01*
X41993788Y24893156D01*
X41993785Y24893156D01*
X41988236Y24893500D01*
X41988238Y24893536D01*
X41984245Y24893775D01*
X41980053Y24894149D01*
X41972885Y24895640D01*
X41906675Y24893849D01*
X41895479Y24893546D01*
X41892072Y24893500D01*
X22035939Y24893500D01*
X21967818Y24913502D01*
X21930147Y24951059D01*
X21922818Y24962388D01*
X21920014Y24966723D01*
X21769670Y25131949D01*
X21765619Y25135148D01*
X21765615Y25135152D01*
X21598414Y25267200D01*
X21598410Y25267202D01*
X21594359Y25270402D01*
X21553053Y25293204D01*
X21503084Y25343636D01*
X21488312Y25413079D01*
X21513428Y25479484D01*
X21540780Y25506091D01*
X21584603Y25537350D01*
X21719860Y25633827D01*
X21878096Y25791511D01*
X21930203Y25864026D01*
X21986198Y25907674D01*
X22032526Y25916500D01*
X22073230Y25916500D01*
X22092180Y25915067D01*
X22106415Y25912901D01*
X22106419Y25912901D01*
X22113649Y25911801D01*
X22120941Y25912394D01*
X22120944Y25912394D01*
X22166318Y25916085D01*
X22176533Y25916500D01*
X22184593Y25916500D01*
X22197883Y25918049D01*
X22212807Y25919789D01*
X22217182Y25920222D01*
X22282639Y25925546D01*
X22282642Y25925547D01*
X22289937Y25926140D01*
X22296901Y25928396D01*
X22302860Y25929587D01*
X22308715Y25930971D01*
X22315981Y25931818D01*
X22384627Y25956735D01*
X22388755Y25958152D01*
X22451236Y25978393D01*
X22451238Y25978394D01*
X22458199Y25980649D01*
X22464454Y25984445D01*
X22469928Y25986951D01*
X22475358Y25989670D01*
X22482237Y25992167D01*
X22494590Y26000266D01*
X22543276Y26032186D01*
X22546980Y26034523D01*
X22609407Y26072405D01*
X22617784Y26079803D01*
X22617808Y26079776D01*
X22620800Y26082429D01*
X22624033Y26085132D01*
X22630152Y26089144D01*
X22683428Y26145383D01*
X22685806Y26147825D01*
X37138576Y40600595D01*
X37200888Y40634621D01*
X37227671Y40637500D01*
X38347082Y40637500D01*
X38391002Y40629597D01*
X38446358Y40609010D01*
X38446360Y40609009D01*
X38452968Y40606552D01*
X38524046Y40597068D01*
X38625780Y40583493D01*
X38625784Y40583493D01*
X38632761Y40582562D01*
X38639772Y40583200D01*
X38639776Y40583200D01*
X38787304Y40596627D01*
X38813400Y40599002D01*
X38820102Y40601180D01*
X38820104Y40601180D01*
X38979209Y40652876D01*
X38979212Y40652877D01*
X38985908Y40655053D01*
X39141712Y40747931D01*
X39273066Y40873018D01*
X39373443Y41024098D01*
X39437855Y41193662D01*
X39443779Y41235812D01*
X39455534Y41319453D01*
X39484822Y41384127D01*
X39544426Y41422700D01*
X39615423Y41422925D01*
X39675270Y41384731D01*
X39688080Y41367193D01*
X39764580Y41240876D01*
X39769469Y41235813D01*
X39769470Y41235812D01*
X39846232Y41156323D01*
X39890582Y41110398D01*
X40042359Y41011078D01*
X40048963Y41008622D01*
X40049065Y41008584D01*
X40049164Y41008520D01*
X40055252Y41005445D01*
X40054934Y41004816D01*
X40094237Y40979582D01*
X40343624Y40730195D01*
X40377650Y40667883D01*
X40372585Y40597068D01*
X40330038Y40540232D01*
X40263518Y40515421D01*
X40254529Y40515100D01*
X40048466Y40515100D01*
X40006199Y40522401D01*
X39938924Y40546357D01*
X39938922Y40546358D01*
X39932290Y40548719D01*
X39925302Y40549552D01*
X39925299Y40549553D01*
X39802198Y40564232D01*
X39752180Y40570196D01*
X39745177Y40569460D01*
X39745176Y40569460D01*
X39578788Y40551972D01*
X39578786Y40551971D01*
X39571788Y40551236D01*
X39400079Y40492782D01*
X39394075Y40489088D01*
X39251595Y40401434D01*
X39251592Y40401432D01*
X39245588Y40397738D01*
X39240553Y40392807D01*
X39240550Y40392805D01*
X39125734Y40280368D01*
X39115993Y40270829D01*
X39017735Y40118362D01*
X39015326Y40111742D01*
X39015324Y40111739D01*
X38995905Y40058385D01*
X38955697Y39947915D01*
X38932963Y39767960D01*
X38950663Y39587440D01*
X39007918Y39415327D01*
X39011565Y39409305D01*
X39011566Y39409303D01*
X39026739Y39384250D01*
X39101880Y39260176D01*
X39227882Y39129698D01*
X39379659Y39030378D01*
X39386263Y39027922D01*
X39386265Y39027921D01*
X39543058Y38969610D01*
X39543060Y38969610D01*
X39549668Y38967152D01*
X39633495Y38955967D01*
X39722480Y38944093D01*
X39722484Y38944093D01*
X39729461Y38943162D01*
X39736472Y38943800D01*
X39736476Y38943800D01*
X39878959Y38956768D01*
X39910100Y38959602D01*
X39916802Y38961780D01*
X39916804Y38961780D01*
X40009605Y38991933D01*
X40048541Y38998100D01*
X44941729Y38998100D01*
X45009850Y38978098D01*
X45030824Y38961195D01*
X57830930Y26161089D01*
X57843316Y26146677D01*
X57851849Y26135082D01*
X57851854Y26135077D01*
X57856192Y26129182D01*
X57861770Y26124443D01*
X57861773Y26124440D01*
X57896468Y26094965D01*
X57903984Y26088035D01*
X57909679Y26082340D01*
X57912561Y26080060D01*
X57931951Y26064719D01*
X57935355Y26061928D01*
X57985403Y26019409D01*
X57990985Y26014667D01*
X57997501Y26011339D01*
X58002538Y26007980D01*
X58007677Y26004806D01*
X58013416Y26000266D01*
X58020049Y25997166D01*
X58079537Y25969364D01*
X58083491Y25967431D01*
X58148508Y25934231D01*
X58155624Y25932490D01*
X58161254Y25930396D01*
X58167021Y25928477D01*
X58173650Y25925379D01*
X58180810Y25923890D01*
X58180812Y25923889D01*
X58220817Y25915568D01*
X58238928Y25911801D01*
X58245096Y25910518D01*
X58249380Y25909548D01*
X58320310Y25892192D01*
X58325912Y25891844D01*
X58325915Y25891844D01*
X58331464Y25891500D01*
X58331462Y25891464D01*
X58335452Y25891225D01*
X58339650Y25890850D01*
X58346815Y25889360D01*
X58424220Y25891454D01*
X58427628Y25891500D01*
X58517491Y25891500D01*
X58585612Y25871498D01*
X58614402Y25844405D01*
X58614987Y25844912D01*
X58761250Y25676062D01*
X58933126Y25533368D01*
X58979805Y25506091D01*
X59006445Y25490524D01*
X59055169Y25438886D01*
X59068240Y25369103D01*
X59041509Y25303331D01*
X59001055Y25269973D01*
X58988607Y25263493D01*
X58984474Y25260390D01*
X58984471Y25260388D01*
X58814100Y25132470D01*
X58809965Y25129365D01*
X58806393Y25125627D01*
X58679520Y24992862D01*
X58655629Y24967862D01*
X58529743Y24783320D01*
X58493360Y24704940D01*
X58447293Y24605695D01*
X58435688Y24580695D01*
X58375989Y24365430D01*
X58352251Y24143305D01*
X58352548Y24138152D01*
X58352548Y24138149D01*
X58363960Y23940233D01*
X58365110Y23920285D01*
X58366247Y23915239D01*
X58366248Y23915233D01*
X58386119Y23827061D01*
X58414222Y23702361D01*
X58498266Y23495384D01*
X58500965Y23490980D01*
X58576527Y23367674D01*
X58614987Y23304912D01*
X58761250Y23136062D01*
X58933126Y22993368D01*
X58951413Y22982682D01*
X59006445Y22950524D01*
X59055169Y22898886D01*
X59068240Y22829103D01*
X59041509Y22763331D01*
X59001055Y22729973D01*
X58988607Y22723493D01*
X58984474Y22720390D01*
X58984471Y22720388D01*
X58833491Y22607029D01*
X58809965Y22589365D01*
X58806393Y22585627D01*
X58731919Y22507695D01*
X58670394Y22472265D01*
X58599482Y22475722D01*
X58551730Y22505651D01*
X43162170Y37895211D01*
X43149784Y37909623D01*
X43141251Y37921218D01*
X43141246Y37921223D01*
X43136908Y37927118D01*
X43131330Y37931857D01*
X43131327Y37931860D01*
X43096632Y37961335D01*
X43089116Y37968265D01*
X43083421Y37973960D01*
X43076446Y37979478D01*
X43061149Y37991581D01*
X43057745Y37994372D01*
X43007697Y38036891D01*
X43007695Y38036892D01*
X43002115Y38041633D01*
X42995599Y38044961D01*
X42990550Y38048328D01*
X42985421Y38051495D01*
X42979684Y38056034D01*
X42913525Y38086955D01*
X42909625Y38088861D01*
X42887805Y38100003D01*
X42844592Y38122069D01*
X42837484Y38123808D01*
X42831841Y38125907D01*
X42826078Y38127824D01*
X42819450Y38130922D01*
X42747983Y38145787D01*
X42743699Y38146757D01*
X42679451Y38162478D01*
X42672790Y38164108D01*
X42667188Y38164456D01*
X42667185Y38164456D01*
X42661636Y38164800D01*
X42661638Y38164836D01*
X42657645Y38165075D01*
X42653453Y38165449D01*
X42646285Y38166940D01*
X42580075Y38165149D01*
X42568879Y38164846D01*
X42565472Y38164800D01*
X40159766Y38164800D01*
X40117499Y38172101D01*
X40050224Y38196057D01*
X40050222Y38196058D01*
X40043590Y38198419D01*
X40036602Y38199252D01*
X40036599Y38199253D01*
X39913498Y38213932D01*
X39863480Y38219896D01*
X39856477Y38219160D01*
X39856476Y38219160D01*
X39690088Y38201672D01*
X39690086Y38201671D01*
X39683088Y38200936D01*
X39527592Y38148001D01*
X39521085Y38145786D01*
X39511379Y38142482D01*
X39472787Y38118740D01*
X39362895Y38051134D01*
X39362892Y38051132D01*
X39356888Y38047438D01*
X39351853Y38042507D01*
X39351850Y38042505D01*
X39238864Y37931860D01*
X39227293Y37920529D01*
X39129035Y37768062D01*
X39126626Y37761442D01*
X39126624Y37761439D01*
X39071492Y37609965D01*
X39066997Y37597615D01*
X39044263Y37417660D01*
X39061963Y37237140D01*
X39119218Y37065027D01*
X39213180Y36909876D01*
X39339182Y36779398D01*
X39490959Y36680078D01*
X39497563Y36677622D01*
X39497565Y36677621D01*
X39654358Y36619310D01*
X39654360Y36619310D01*
X39660968Y36616852D01*
X39744795Y36605667D01*
X39833780Y36593793D01*
X39833784Y36593793D01*
X39840761Y36592862D01*
X39847772Y36593500D01*
X39847776Y36593500D01*
X39990259Y36606468D01*
X40021400Y36609302D01*
X40028102Y36611480D01*
X40028104Y36611480D01*
X40120905Y36641633D01*
X40159841Y36647800D01*
X42212029Y36647800D01*
X42280150Y36627798D01*
X42301124Y36610895D01*
X57830930Y21081089D01*
X57843316Y21066677D01*
X57851849Y21055082D01*
X57851854Y21055077D01*
X57856192Y21049182D01*
X57861770Y21044443D01*
X57861773Y21044440D01*
X57896468Y21014965D01*
X57903984Y21008035D01*
X57909679Y21002340D01*
X57912561Y21000060D01*
X57931951Y20984719D01*
X57935355Y20981928D01*
X57985403Y20939409D01*
X57990985Y20934667D01*
X57997501Y20931339D01*
X58002550Y20927972D01*
X58007679Y20924805D01*
X58013416Y20920266D01*
X58079575Y20889345D01*
X58083469Y20887442D01*
X58148508Y20854231D01*
X58155616Y20852492D01*
X58161259Y20850393D01*
X58167022Y20848476D01*
X58173650Y20845378D01*
X58180812Y20843888D01*
X58180813Y20843888D01*
X58245112Y20830514D01*
X58249396Y20829544D01*
X58320310Y20812192D01*
X58325912Y20811844D01*
X58325915Y20811844D01*
X58331464Y20811500D01*
X58331462Y20811464D01*
X58335455Y20811225D01*
X58339647Y20810851D01*
X58346815Y20809360D01*
X58424220Y20811454D01*
X58427628Y20811500D01*
X58517491Y20811500D01*
X58585612Y20791498D01*
X58614402Y20764405D01*
X58614987Y20764912D01*
X58761250Y20596062D01*
X58933126Y20453368D01*
X58964756Y20434885D01*
X59006445Y20410524D01*
X59055169Y20358886D01*
X59068240Y20289103D01*
X59041509Y20223331D01*
X59001055Y20189973D01*
X58988607Y20183493D01*
X58984474Y20180390D01*
X58984471Y20180388D01*
X58814565Y20052819D01*
X58809965Y20049365D01*
X58655629Y19887862D01*
X58529743Y19703320D01*
X58435688Y19500695D01*
X58375989Y19285430D01*
X58352251Y19063305D01*
X58352548Y19058152D01*
X58352548Y19058149D01*
X58358011Y18963410D01*
X58365110Y18840285D01*
X58366247Y18835239D01*
X58366248Y18835233D01*
X58370349Y18817036D01*
X58414222Y18622361D01*
X58498266Y18415384D01*
X58614987Y18224912D01*
X58761250Y18056062D01*
X58933126Y17913368D01*
X59126000Y17800662D01*
X59334692Y17720970D01*
X59339760Y17719939D01*
X59339763Y17719938D01*
X59422137Y17703179D01*
X59553597Y17676433D01*
X59558772Y17676243D01*
X59558774Y17676243D01*
X59771673Y17668436D01*
X59771677Y17668436D01*
X59776837Y17668247D01*
X59781957Y17668903D01*
X59781959Y17668903D01*
X59993288Y17695975D01*
X59993289Y17695975D01*
X59998416Y17696632D01*
X60003366Y17698117D01*
X60207429Y17759339D01*
X60207434Y17759341D01*
X60212384Y17760826D01*
X60412994Y17859104D01*
X60594860Y17988827D01*
X60753096Y18146511D01*
X60812594Y18229311D01*
X60880435Y18323723D01*
X60883453Y18327923D01*
X60895278Y18351848D01*
X60980136Y18523547D01*
X60980137Y18523549D01*
X60982430Y18528189D01*
X61047370Y18741931D01*
X61076529Y18963410D01*
X61077831Y19016701D01*
X61078074Y19026635D01*
X61078074Y19026639D01*
X61078156Y19030000D01*
X61059852Y19252639D01*
X61005431Y19469298D01*
X60916354Y19674160D01*
X60820457Y19822394D01*
X60797822Y19857383D01*
X60797820Y19857386D01*
X60795014Y19861723D01*
X60644670Y20026949D01*
X60640619Y20030148D01*
X60640615Y20030152D01*
X60473414Y20162200D01*
X60473410Y20162202D01*
X60469359Y20165402D01*
X60428053Y20188204D01*
X60378084Y20238636D01*
X60363312Y20308079D01*
X60388428Y20374484D01*
X60415780Y20401091D01*
X60477582Y20445174D01*
X60594860Y20528827D01*
X60600732Y20534678D01*
X60699590Y20633192D01*
X60753096Y20686511D01*
X60758100Y20693474D01*
X60880435Y20863723D01*
X60883453Y20867923D01*
X60886762Y20874617D01*
X60980136Y21063547D01*
X60980137Y21063549D01*
X60982430Y21068189D01*
X61047370Y21281931D01*
X61076529Y21503410D01*
X61078156Y21570000D01*
X61059852Y21792639D01*
X61005431Y22009298D01*
X60916354Y22214160D01*
X60795014Y22401723D01*
X60644670Y22566949D01*
X60640619Y22570148D01*
X60640615Y22570152D01*
X60473414Y22702200D01*
X60473410Y22702202D01*
X60469359Y22705402D01*
X60428053Y22728204D01*
X60378084Y22778636D01*
X60363312Y22848079D01*
X60388428Y22914484D01*
X60415780Y22941091D01*
X60474088Y22982682D01*
X60594860Y23068827D01*
X60753096Y23226511D01*
X60812594Y23309311D01*
X60880435Y23403723D01*
X60883453Y23407923D01*
X60939035Y23520384D01*
X60980136Y23603547D01*
X60980137Y23603549D01*
X60982430Y23608189D01*
X61047370Y23821931D01*
X61076529Y24043410D01*
X61078156Y24110000D01*
X61060870Y24320253D01*
X61075223Y24389781D01*
X61097351Y24419670D01*
X62527711Y25850030D01*
X62542123Y25862416D01*
X62553718Y25870949D01*
X62553723Y25870954D01*
X62559618Y25875292D01*
X62564357Y25880870D01*
X62564360Y25880873D01*
X62593835Y25915568D01*
X62600765Y25923084D01*
X62606460Y25928779D01*
X62624081Y25951051D01*
X62626872Y25954455D01*
X62669391Y26004503D01*
X62669392Y26004505D01*
X62674133Y26010085D01*
X62677461Y26016601D01*
X62680820Y26021638D01*
X62683994Y26026777D01*
X62688534Y26032516D01*
X62703584Y26064719D01*
X62719436Y26098637D01*
X62721369Y26102591D01*
X62743220Y26145383D01*
X62754569Y26167608D01*
X62756310Y26174722D01*
X62758404Y26180354D01*
X62760323Y26186121D01*
X62763421Y26192750D01*
X62778283Y26264200D01*
X62779253Y26268485D01*
X62795273Y26333956D01*
X62796608Y26339410D01*
X62797300Y26350564D01*
X62797336Y26350562D01*
X62797575Y26354552D01*
X62797950Y26358750D01*
X62799440Y26365915D01*
X62797346Y26443321D01*
X62797300Y26446728D01*
X62797300Y39316129D01*
X62817302Y39384250D01*
X62834205Y39405224D01*
X65316405Y41887424D01*
X65378717Y41921450D01*
X65449532Y41916385D01*
X65506368Y41873838D01*
X65531179Y41807318D01*
X65531500Y41798329D01*
X65531500Y40457072D01*
X65530145Y40444942D01*
X65530627Y40444903D01*
X65529907Y40435956D01*
X65527926Y40427200D01*
X65529754Y40397738D01*
X65531258Y40373492D01*
X65531500Y40365690D01*
X65531500Y40349487D01*
X65532136Y40345047D01*
X65532984Y40339122D01*
X65534013Y40329072D01*
X65536945Y40281823D01*
X65539994Y40273377D01*
X65540593Y40270486D01*
X65544822Y40253520D01*
X65545648Y40250695D01*
X65546920Y40241813D01*
X65566522Y40198702D01*
X65570327Y40189353D01*
X65586404Y40144819D01*
X65591699Y40137571D01*
X65593080Y40134973D01*
X65601915Y40119855D01*
X65603494Y40117386D01*
X65607208Y40109218D01*
X65613064Y40102422D01*
X65638115Y40073348D01*
X65644401Y40065431D01*
X65649548Y40058385D01*
X65649553Y40058380D01*
X65652425Y40054448D01*
X65663400Y40043473D01*
X65669758Y40036626D01*
X65702287Y39998873D01*
X65709822Y39993989D01*
X65716066Y39988542D01*
X65727931Y39978942D01*
X68034595Y37672277D01*
X68068621Y37609965D01*
X68071500Y37583182D01*
X68071500Y37428523D01*
X68051498Y37360402D01*
X67997842Y37313909D01*
X67927568Y37303805D01*
X67859247Y37336673D01*
X67662577Y37521359D01*
X67403959Y37709256D01*
X67296992Y37768062D01*
X67127293Y37861355D01*
X67127290Y37861357D01*
X67123831Y37863258D01*
X66867759Y37964644D01*
X66830293Y37979478D01*
X66830290Y37979479D01*
X66826610Y37980936D01*
X66822776Y37981920D01*
X66822768Y37981923D01*
X66604758Y38037898D01*
X66516983Y38060435D01*
X66513055Y38060931D01*
X66513051Y38060932D01*
X66387358Y38076810D01*
X66199835Y38100500D01*
X65880165Y38100500D01*
X65692642Y38076810D01*
X65566949Y38060932D01*
X65566945Y38060931D01*
X65563017Y38060435D01*
X65475242Y38037898D01*
X65257232Y37981923D01*
X65257224Y37981920D01*
X65253390Y37980936D01*
X65249710Y37979479D01*
X65249707Y37979478D01*
X65212241Y37964644D01*
X64956169Y37863258D01*
X64952710Y37861357D01*
X64952707Y37861355D01*
X64783008Y37768062D01*
X64676041Y37709256D01*
X64417423Y37521359D01*
X64184394Y37302530D01*
X64181870Y37299479D01*
X64181869Y37299478D01*
X64124769Y37230456D01*
X63980629Y37056221D01*
X63978505Y37052874D01*
X63978502Y37052870D01*
X63811465Y36789662D01*
X63809341Y36786315D01*
X63807657Y36782736D01*
X63807653Y36782729D01*
X63718747Y36593793D01*
X63673233Y36497070D01*
X63574449Y36193046D01*
X63514549Y35879039D01*
X63494477Y35560000D01*
X63514549Y35240961D01*
X63574449Y34926954D01*
X63673233Y34622930D01*
X63674920Y34619344D01*
X63674922Y34619340D01*
X63807653Y34337271D01*
X63807657Y34337264D01*
X63809341Y34333685D01*
X63980629Y34063779D01*
X64184394Y33817470D01*
X64187284Y33814756D01*
X64187285Y33814755D01*
X64220753Y33783327D01*
X64417423Y33598641D01*
X64676041Y33410744D01*
X64679510Y33408837D01*
X64679513Y33408835D01*
X64873125Y33302396D01*
X64956169Y33256742D01*
X65118083Y33192636D01*
X65249707Y33140522D01*
X65249710Y33140521D01*
X65253390Y33139064D01*
X65257224Y33138080D01*
X65257232Y33138077D01*
X65445124Y33089835D01*
X65563017Y33059565D01*
X65566945Y33059069D01*
X65566949Y33059068D01*
X65692642Y33043190D01*
X65880165Y33019500D01*
X66199835Y33019500D01*
X66387358Y33043190D01*
X66513051Y33059068D01*
X66513055Y33059069D01*
X66516983Y33059565D01*
X66634876Y33089835D01*
X66822768Y33138077D01*
X66822776Y33138080D01*
X66826610Y33139064D01*
X66830290Y33140521D01*
X66830293Y33140522D01*
X66961917Y33192636D01*
X67123831Y33256742D01*
X67206876Y33302396D01*
X67400487Y33408835D01*
X67400490Y33408837D01*
X67403959Y33410744D01*
X67662577Y33598641D01*
X67859248Y33783327D01*
X67922597Y33815378D01*
X67993219Y33808091D01*
X68048690Y33763781D01*
X68071500Y33691477D01*
X68071500Y9488523D01*
X68051498Y9420402D01*
X67997842Y9373909D01*
X67927568Y9363805D01*
X67859247Y9396673D01*
X67662577Y9581359D01*
X67403959Y9769256D01*
X67123831Y9923258D01*
X66961917Y9987364D01*
X66830293Y10039478D01*
X66830290Y10039479D01*
X66826610Y10040936D01*
X66822776Y10041920D01*
X66822768Y10041923D01*
X66598932Y10099394D01*
X66516983Y10120435D01*
X66513055Y10120931D01*
X66513051Y10120932D01*
X66387358Y10136810D01*
X66199835Y10160500D01*
X65880165Y10160500D01*
X65692642Y10136810D01*
X65566949Y10120932D01*
X65566945Y10120931D01*
X65563017Y10120435D01*
X65481068Y10099394D01*
X65257232Y10041923D01*
X65257224Y10041920D01*
X65253390Y10040936D01*
X65249710Y10039479D01*
X65249707Y10039478D01*
X65118083Y9987364D01*
X64956169Y9923258D01*
X64676041Y9769256D01*
X64417423Y9581359D01*
X64184394Y9362530D01*
X63980629Y9116221D01*
X63978505Y9112874D01*
X63978502Y9112870D01*
X63829608Y8878250D01*
X63809341Y8846315D01*
X63807657Y8842736D01*
X63807653Y8842729D01*
X63680475Y8572460D01*
X63673233Y8557070D01*
X63574449Y8253046D01*
X63514549Y7939039D01*
X63494477Y7620000D01*
X63514549Y7300961D01*
X63574449Y6986954D01*
X63583615Y6958743D01*
X63664007Y6711326D01*
X63673233Y6682930D01*
X63674920Y6679344D01*
X63674922Y6679340D01*
X63807653Y6397271D01*
X63807657Y6397264D01*
X63809341Y6393685D01*
X63811465Y6390339D01*
X63811465Y6390338D01*
X63888942Y6268255D01*
X63980629Y6123779D01*
X64184394Y5877470D01*
X64187284Y5874756D01*
X64187285Y5874755D01*
X64220753Y5843327D01*
X64417423Y5658641D01*
X64676041Y5470744D01*
X64956169Y5316742D01*
X65022126Y5290628D01*
X65249707Y5200522D01*
X65249710Y5200521D01*
X65253390Y5199064D01*
X65257224Y5198080D01*
X65257232Y5198077D01*
X65449153Y5148800D01*
X65563017Y5119565D01*
X65566945Y5119069D01*
X65566949Y5119068D01*
X65692642Y5103190D01*
X65880165Y5079500D01*
X66199835Y5079500D01*
X66387358Y5103190D01*
X66513051Y5119068D01*
X66513055Y5119069D01*
X66516983Y5119565D01*
X66630847Y5148800D01*
X66822768Y5198077D01*
X66822776Y5198080D01*
X66826610Y5199064D01*
X66830290Y5200521D01*
X66830293Y5200522D01*
X67057874Y5290628D01*
X67123831Y5316742D01*
X67403959Y5470744D01*
X67662577Y5658641D01*
X67859248Y5843327D01*
X67922597Y5875378D01*
X67993219Y5868091D01*
X68048690Y5823781D01*
X68071500Y5751477D01*
X68071500Y5342818D01*
X68051498Y5274697D01*
X68034595Y5253723D01*
X65730696Y2949823D01*
X65721156Y2942200D01*
X65721470Y2941832D01*
X65714634Y2936014D01*
X65707042Y2931224D01*
X65701100Y2924496D01*
X65671407Y2890875D01*
X65666061Y2885188D01*
X65654618Y2873745D01*
X65648978Y2866220D01*
X65648341Y2865370D01*
X65641967Y2857541D01*
X65610622Y2822049D01*
X65606808Y2813926D01*
X65605174Y2811438D01*
X65596186Y2796477D01*
X65594771Y2793892D01*
X65589384Y2786705D01*
X65586233Y2778299D01*
X65572759Y2742358D01*
X65568833Y2733042D01*
X65548719Y2690200D01*
X65547338Y2681331D01*
X65546472Y2678498D01*
X65542042Y2661611D01*
X65541408Y2658726D01*
X65538255Y2650316D01*
X65537590Y2641361D01*
X65534746Y2603094D01*
X65533592Y2593048D01*
X65531500Y2579614D01*
X65531500Y2564094D01*
X65531154Y2554757D01*
X65527461Y2505059D01*
X65529335Y2496280D01*
X65529898Y2488022D01*
X65531500Y2472839D01*
X65531500Y634500D01*
X65511498Y566379D01*
X65457842Y519886D01*
X65405500Y508500D01*
X15836124Y508500D01*
X15768003Y528502D01*
X15721510Y582158D01*
X15711406Y652432D01*
X15740900Y717012D01*
X15749871Y726350D01*
X15822715Y794755D01*
X15822716Y794756D01*
X15825606Y797470D01*
X16029371Y1043779D01*
X16038087Y1057512D01*
X16198535Y1310338D01*
X16198535Y1310339D01*
X16200659Y1313685D01*
X16202343Y1317264D01*
X16202347Y1317271D01*
X16335078Y1599340D01*
X16335080Y1599344D01*
X16336767Y1602930D01*
X16339800Y1612263D01*
X16407638Y1821047D01*
X16435551Y1906954D01*
X16495451Y2220961D01*
X16515523Y2540000D01*
X16495451Y2859039D01*
X16435551Y3173046D01*
X16339890Y3467458D01*
X16337993Y3473297D01*
X16337993Y3473298D01*
X16336767Y3477070D01*
X16335078Y3480660D01*
X16202347Y3762729D01*
X16202343Y3762736D01*
X16200659Y3766315D01*
X16098170Y3927812D01*
X16031498Y4032870D01*
X16031495Y4032874D01*
X16029371Y4036221D01*
X15825606Y4282530D01*
X15592577Y4501359D01*
X15333959Y4689256D01*
X15330487Y4691165D01*
X15057293Y4841355D01*
X15057290Y4841357D01*
X15053831Y4843258D01*
X14783527Y4950279D01*
X14760293Y4959478D01*
X14760290Y4959479D01*
X14756610Y4960936D01*
X14752776Y4961920D01*
X14752768Y4961923D01*
X14560847Y5011200D01*
X14446983Y5040435D01*
X14443055Y5040931D01*
X14443051Y5040932D01*
X14287423Y5060592D01*
X14129835Y5080500D01*
X13810165Y5080500D01*
X13652577Y5060592D01*
X13496949Y5040932D01*
X13496945Y5040931D01*
X13493017Y5040435D01*
X13379153Y5011200D01*
X13187232Y4961923D01*
X13187224Y4961920D01*
X13183390Y4960936D01*
X13179710Y4959479D01*
X13179707Y4959478D01*
X13156473Y4950279D01*
X12886169Y4843258D01*
X12882710Y4841357D01*
X12882707Y4841355D01*
X12609513Y4691165D01*
X12606041Y4689256D01*
X12347423Y4501359D01*
X12114394Y4282530D01*
X11910629Y4036221D01*
X11908505Y4032874D01*
X11908502Y4032870D01*
X11841830Y3927812D01*
X11739341Y3766315D01*
X11737657Y3762736D01*
X11737653Y3762729D01*
X11604922Y3480660D01*
X11603233Y3477070D01*
X11602007Y3473298D01*
X11602007Y3473297D01*
X11600110Y3467458D01*
X11504449Y3173046D01*
X11444549Y2859039D01*
X11424477Y2540000D01*
X11444549Y2220961D01*
X11504449Y1906954D01*
X11532362Y1821047D01*
X11600201Y1612263D01*
X11603233Y1602930D01*
X11604920Y1599344D01*
X11604922Y1599340D01*
X11737653Y1317271D01*
X11737657Y1317264D01*
X11739341Y1313685D01*
X11741465Y1310339D01*
X11741465Y1310338D01*
X11901914Y1057512D01*
X11910629Y1043779D01*
X12114394Y797470D01*
X12117284Y794756D01*
X12117285Y794755D01*
X12190129Y726350D01*
X12226094Y665137D01*
X12223256Y594197D01*
X12182516Y536053D01*
X12116808Y509165D01*
X12103876Y508500D01*
X634500Y508500D01*
X566379Y528502D01*
X519886Y582158D01*
X508500Y634500D01*
X508500Y7620000D01*
X19006502Y7620000D01*
X19026457Y7391913D01*
X19027881Y7386600D01*
X19027881Y7386598D01*
X19041155Y7337061D01*
X19085716Y7170757D01*
X19088039Y7165776D01*
X19088039Y7165775D01*
X19180151Y6968238D01*
X19180154Y6968233D01*
X19182477Y6963251D01*
X19210968Y6922562D01*
X19289078Y6811010D01*
X19313802Y6775700D01*
X19475700Y6613802D01*
X19480207Y6610646D01*
X19480211Y6610643D01*
X19520445Y6582471D01*
X19663251Y6482477D01*
X19668233Y6480154D01*
X19668238Y6480151D01*
X19865775Y6388039D01*
X19870757Y6385716D01*
X19876065Y6384294D01*
X19876067Y6384293D01*
X20086598Y6327881D01*
X20086600Y6327881D01*
X20091913Y6326457D01*
X20320000Y6306502D01*
X20548087Y6326457D01*
X20553400Y6327881D01*
X20553402Y6327881D01*
X20763933Y6384293D01*
X20763935Y6384294D01*
X20769243Y6385716D01*
X20774225Y6388039D01*
X20971762Y6480151D01*
X20971767Y6480154D01*
X20976749Y6482477D01*
X21119555Y6582471D01*
X21159793Y6610646D01*
X21159794Y6610647D01*
X21164300Y6613802D01*
X21168190Y6617692D01*
X21168196Y6617697D01*
X21232864Y6682365D01*
X21295176Y6716391D01*
X21365991Y6711326D01*
X21411054Y6682365D01*
X26042330Y2051089D01*
X26054716Y2036677D01*
X26063249Y2025082D01*
X26063254Y2025077D01*
X26067592Y2019182D01*
X26073170Y2014443D01*
X26073173Y2014440D01*
X26107868Y1984965D01*
X26115384Y1978035D01*
X26121079Y1972340D01*
X26123961Y1970060D01*
X26143351Y1954719D01*
X26146755Y1951928D01*
X26172338Y1930194D01*
X26202385Y1904667D01*
X26208901Y1901339D01*
X26213950Y1897972D01*
X26219079Y1894805D01*
X26224816Y1890266D01*
X26290975Y1859345D01*
X26294869Y1857442D01*
X26359908Y1824231D01*
X26367016Y1822492D01*
X26372659Y1820393D01*
X26378422Y1818476D01*
X26385050Y1815378D01*
X26392212Y1813888D01*
X26392213Y1813888D01*
X26456512Y1800514D01*
X26460796Y1799544D01*
X26531710Y1782192D01*
X26537312Y1781844D01*
X26537315Y1781844D01*
X26542864Y1781500D01*
X26542862Y1781464D01*
X26546855Y1781225D01*
X26551047Y1780851D01*
X26558215Y1779360D01*
X26624560Y1781155D01*
X26693196Y1763003D01*
X26736726Y1717863D01*
X26736762Y1717887D01*
X26866804Y1524728D01*
X27027532Y1356242D01*
X27214350Y1217246D01*
X27219102Y1214830D01*
X27416244Y1114598D01*
X27421916Y1111714D01*
X27533106Y1077188D01*
X27639193Y1044247D01*
X27639199Y1044246D01*
X27644296Y1042663D01*
X27768660Y1026180D01*
X27869848Y1012768D01*
X27869852Y1012768D01*
X27875132Y1012068D01*
X27880462Y1012268D01*
X27880463Y1012268D01*
X27991477Y1016436D01*
X28107822Y1020803D01*
X28212005Y1042663D01*
X28330486Y1067523D01*
X28330489Y1067524D01*
X28335713Y1068620D01*
X28552290Y1154150D01*
X28751359Y1274949D01*
X28755855Y1278850D01*
X28923197Y1424061D01*
X28923199Y1424063D01*
X28927230Y1427561D01*
X28930613Y1431687D01*
X28930617Y1431691D01*
X29029776Y1552626D01*
X29074872Y1607624D01*
X29077672Y1612542D01*
X29100845Y1653252D01*
X29151927Y1702558D01*
X29221558Y1716420D01*
X29287629Y1690437D01*
X29314867Y1661287D01*
X29406804Y1524728D01*
X29567532Y1356242D01*
X29754350Y1217246D01*
X29759102Y1214830D01*
X29956244Y1114598D01*
X29961916Y1111714D01*
X30073106Y1077188D01*
X30179193Y1044247D01*
X30179199Y1044246D01*
X30184296Y1042663D01*
X30308660Y1026180D01*
X30409848Y1012768D01*
X30409852Y1012768D01*
X30415132Y1012068D01*
X30420462Y1012268D01*
X30420463Y1012268D01*
X30531477Y1016436D01*
X30647822Y1020803D01*
X30752005Y1042663D01*
X30870486Y1067523D01*
X30870489Y1067524D01*
X30875713Y1068620D01*
X31092290Y1154150D01*
X31291359Y1274949D01*
X31295855Y1278850D01*
X31463197Y1424061D01*
X31463199Y1424063D01*
X31467230Y1427561D01*
X31470613Y1431687D01*
X31470617Y1431691D01*
X31569776Y1552626D01*
X31614872Y1607624D01*
X31617672Y1612542D01*
X31640845Y1653252D01*
X31691927Y1702558D01*
X31761558Y1716420D01*
X31827629Y1690437D01*
X31854867Y1661287D01*
X31946804Y1524728D01*
X32107532Y1356242D01*
X32294350Y1217246D01*
X32299102Y1214830D01*
X32496244Y1114598D01*
X32501916Y1111714D01*
X32613106Y1077188D01*
X32719193Y1044247D01*
X32719199Y1044246D01*
X32724296Y1042663D01*
X32848660Y1026180D01*
X32949848Y1012768D01*
X32949852Y1012768D01*
X32955132Y1012068D01*
X32960462Y1012268D01*
X32960463Y1012268D01*
X33071477Y1016436D01*
X33187822Y1020803D01*
X33292005Y1042663D01*
X33410486Y1067523D01*
X33410489Y1067524D01*
X33415713Y1068620D01*
X33632290Y1154150D01*
X33831359Y1274949D01*
X33835855Y1278850D01*
X34003197Y1424061D01*
X34003199Y1424063D01*
X34007230Y1427561D01*
X34010613Y1431687D01*
X34010617Y1431691D01*
X34109776Y1552626D01*
X34154872Y1607624D01*
X34157672Y1612542D01*
X34180845Y1653252D01*
X34231927Y1702558D01*
X34301558Y1716420D01*
X34367629Y1690437D01*
X34394867Y1661287D01*
X34486804Y1524728D01*
X34647532Y1356242D01*
X34834350Y1217246D01*
X34839102Y1214830D01*
X35036244Y1114598D01*
X35041916Y1111714D01*
X35153106Y1077188D01*
X35259193Y1044247D01*
X35259199Y1044246D01*
X35264296Y1042663D01*
X35388660Y1026180D01*
X35489848Y1012768D01*
X35489852Y1012768D01*
X35495132Y1012068D01*
X35500462Y1012268D01*
X35500463Y1012268D01*
X35611477Y1016436D01*
X35727822Y1020803D01*
X35832005Y1042663D01*
X35950486Y1067523D01*
X35950489Y1067524D01*
X35955713Y1068620D01*
X36172290Y1154150D01*
X36371359Y1274949D01*
X36375855Y1278850D01*
X36543197Y1424061D01*
X36543199Y1424063D01*
X36547230Y1427561D01*
X36550613Y1431687D01*
X36550617Y1431691D01*
X36649776Y1552626D01*
X36694872Y1607624D01*
X36697672Y1612542D01*
X36720845Y1653252D01*
X36771927Y1702558D01*
X36841558Y1716420D01*
X36907629Y1690437D01*
X36934867Y1661287D01*
X37026804Y1524728D01*
X37187532Y1356242D01*
X37374350Y1217246D01*
X37379102Y1214830D01*
X37576244Y1114598D01*
X37581916Y1111714D01*
X37693106Y1077188D01*
X37799193Y1044247D01*
X37799199Y1044246D01*
X37804296Y1042663D01*
X37928660Y1026180D01*
X38029848Y1012768D01*
X38029852Y1012768D01*
X38035132Y1012068D01*
X38040462Y1012268D01*
X38040463Y1012268D01*
X38151477Y1016436D01*
X38267822Y1020803D01*
X38372005Y1042663D01*
X38490486Y1067523D01*
X38490489Y1067524D01*
X38495713Y1068620D01*
X38712290Y1154150D01*
X38911359Y1274949D01*
X38915855Y1278850D01*
X39083197Y1424061D01*
X39083199Y1424063D01*
X39087230Y1427561D01*
X39090613Y1431687D01*
X39090617Y1431691D01*
X39189776Y1552626D01*
X39234872Y1607624D01*
X39261122Y1653739D01*
X39312202Y1703044D01*
X39381832Y1716906D01*
X39447904Y1690923D01*
X39475143Y1661773D01*
X39564215Y1529470D01*
X39570876Y1521184D01*
X39724180Y1360480D01*
X39732148Y1353431D01*
X39910336Y1220856D01*
X39919366Y1215257D01*
X40117347Y1114598D01*
X40127208Y1110595D01*
X40339301Y1044737D01*
X40349696Y1042452D01*
X40368041Y1040020D01*
X40382208Y1042217D01*
X40386000Y1055401D01*
X40386000Y1057512D01*
X40894000Y1057512D01*
X40897973Y1043981D01*
X40908580Y1042456D01*
X41030343Y1068004D01*
X41040539Y1071064D01*
X41247097Y1152637D01*
X41256634Y1157371D01*
X41446503Y1272586D01*
X41455093Y1278850D01*
X41622837Y1424411D01*
X41630257Y1432041D01*
X41771073Y1603780D01*
X41777095Y1612542D01*
X41800810Y1654202D01*
X41851893Y1703508D01*
X41921524Y1717369D01*
X41987594Y1691385D01*
X42014832Y1662236D01*
X42104215Y1529469D01*
X42110876Y1521184D01*
X42264180Y1360480D01*
X42272148Y1353431D01*
X42450336Y1220856D01*
X42459366Y1215257D01*
X42657347Y1114598D01*
X42667208Y1110595D01*
X42879301Y1044737D01*
X42889696Y1042452D01*
X42908041Y1040020D01*
X42922208Y1042217D01*
X42926000Y1055401D01*
X42926000Y1057512D01*
X43434000Y1057512D01*
X43437973Y1043981D01*
X43448580Y1042456D01*
X43570343Y1068004D01*
X43580539Y1071064D01*
X43787097Y1152637D01*
X43796634Y1157371D01*
X43986503Y1272586D01*
X43995093Y1278850D01*
X44162837Y1424411D01*
X44170257Y1432041D01*
X44311073Y1603780D01*
X44317102Y1612551D01*
X44340533Y1653715D01*
X44391615Y1703022D01*
X44461245Y1716884D01*
X44527316Y1690901D01*
X44554555Y1661751D01*
X44646804Y1524728D01*
X44807532Y1356242D01*
X44994350Y1217246D01*
X44999102Y1214830D01*
X45196244Y1114598D01*
X45201916Y1111714D01*
X45313106Y1077188D01*
X45419193Y1044247D01*
X45419199Y1044246D01*
X45424296Y1042663D01*
X45548660Y1026180D01*
X45649848Y1012768D01*
X45649852Y1012768D01*
X45655132Y1012068D01*
X45660462Y1012268D01*
X45660463Y1012268D01*
X45771477Y1016436D01*
X45887822Y1020803D01*
X45992005Y1042663D01*
X46110486Y1067523D01*
X46110489Y1067524D01*
X46115713Y1068620D01*
X46332290Y1154150D01*
X46531359Y1274949D01*
X46535855Y1278850D01*
X46703197Y1424061D01*
X46703199Y1424063D01*
X46707230Y1427561D01*
X46710613Y1431687D01*
X46710617Y1431691D01*
X46809776Y1552626D01*
X46854872Y1607624D01*
X46857672Y1612542D01*
X46964418Y1800069D01*
X46970065Y1809989D01*
X46972022Y1815378D01*
X47047695Y2023854D01*
X47047696Y2023858D01*
X47049515Y2028869D01*
X47090950Y2258007D01*
X47091632Y2272452D01*
X47092030Y2280905D01*
X47092030Y2280914D01*
X47092100Y2282394D01*
X47092100Y2750868D01*
X47083258Y2855076D01*
X47077825Y2919109D01*
X47077824Y2919113D01*
X47077374Y2924420D01*
X47070781Y2949823D01*
X47020217Y3144637D01*
X47020216Y3144641D01*
X47018875Y3149806D01*
X47010164Y3169145D01*
X46925433Y3357240D01*
X46923238Y3362113D01*
X46793196Y3555272D01*
X46632468Y3723758D01*
X46445650Y3862754D01*
X46318574Y3927363D01*
X46242842Y3965867D01*
X46242841Y3965867D01*
X46238084Y3968286D01*
X46105621Y4009417D01*
X46020807Y4035753D01*
X46020801Y4035754D01*
X46015704Y4037337D01*
X45890368Y4053949D01*
X45790152Y4067232D01*
X45790148Y4067232D01*
X45784868Y4067932D01*
X45779538Y4067732D01*
X45779537Y4067732D01*
X45668523Y4063565D01*
X45552178Y4059197D01*
X45527167Y4053949D01*
X45329514Y4012477D01*
X45329511Y4012476D01*
X45324287Y4011380D01*
X45107710Y3925850D01*
X44908641Y3805051D01*
X44904611Y3801554D01*
X44810075Y3719520D01*
X44732770Y3652439D01*
X44729387Y3648313D01*
X44729383Y3648309D01*
X44656262Y3559131D01*
X44585128Y3472376D01*
X44558878Y3426261D01*
X44507798Y3376956D01*
X44438168Y3363094D01*
X44372096Y3389077D01*
X44344857Y3418227D01*
X44255785Y3550530D01*
X44249124Y3558816D01*
X44095820Y3719520D01*
X44087852Y3726569D01*
X43909664Y3859144D01*
X43900634Y3864743D01*
X43702653Y3965402D01*
X43692792Y3969405D01*
X43480699Y4035263D01*
X43470304Y4037548D01*
X43451959Y4039980D01*
X43437792Y4037783D01*
X43434000Y4024599D01*
X43434000Y1057512D01*
X42926000Y1057512D01*
X42926000Y2267885D01*
X42921525Y2283124D01*
X42920135Y2284329D01*
X42912452Y2286000D01*
X40912115Y2286000D01*
X40896876Y2281525D01*
X40895671Y2280135D01*
X40894000Y2272452D01*
X40894000Y1057512D01*
X40386000Y1057512D01*
X40386000Y2812115D01*
X40894000Y2812115D01*
X40898475Y2796876D01*
X40899865Y2795671D01*
X40907548Y2794000D01*
X42907885Y2794000D01*
X42923124Y2798475D01*
X42924329Y2799865D01*
X42926000Y2807548D01*
X42926000Y4022488D01*
X42922027Y4036019D01*
X42911420Y4037544D01*
X42789657Y4011996D01*
X42779461Y4008936D01*
X42572903Y3927363D01*
X42563366Y3922629D01*
X42373497Y3807414D01*
X42364907Y3801150D01*
X42197163Y3655589D01*
X42189743Y3647959D01*
X42048927Y3476220D01*
X42042905Y3467458D01*
X42019190Y3425798D01*
X41968107Y3376492D01*
X41898476Y3362631D01*
X41832406Y3388615D01*
X41805168Y3417764D01*
X41715785Y3550531D01*
X41709124Y3558816D01*
X41555820Y3719520D01*
X41547852Y3726569D01*
X41369664Y3859144D01*
X41360634Y3864743D01*
X41162653Y3965402D01*
X41152792Y3969405D01*
X40940699Y4035263D01*
X40930304Y4037548D01*
X40911959Y4039980D01*
X40897792Y4037783D01*
X40894000Y4024599D01*
X40894000Y2812115D01*
X40386000Y2812115D01*
X40386000Y4022488D01*
X40382027Y4036019D01*
X40371420Y4037544D01*
X40249657Y4011996D01*
X40239461Y4008936D01*
X40032903Y3927363D01*
X40023366Y3922629D01*
X39833497Y3807414D01*
X39824907Y3801150D01*
X39657163Y3655589D01*
X39649743Y3647959D01*
X39508927Y3476220D01*
X39502898Y3467449D01*
X39479467Y3426285D01*
X39428385Y3376978D01*
X39358755Y3363116D01*
X39292684Y3389099D01*
X39265445Y3418249D01*
X39259723Y3426748D01*
X39173196Y3555272D01*
X39012468Y3723758D01*
X38825650Y3862754D01*
X38698574Y3927363D01*
X38622842Y3965867D01*
X38622841Y3965867D01*
X38618084Y3968286D01*
X38485621Y4009417D01*
X38400807Y4035753D01*
X38400801Y4035754D01*
X38395704Y4037337D01*
X38270368Y4053949D01*
X38170152Y4067232D01*
X38170148Y4067232D01*
X38164868Y4067932D01*
X38159538Y4067732D01*
X38159537Y4067732D01*
X38048523Y4063565D01*
X37932178Y4059197D01*
X37907167Y4053949D01*
X37709514Y4012477D01*
X37709511Y4012476D01*
X37704287Y4011380D01*
X37487710Y3925850D01*
X37288641Y3805051D01*
X37284611Y3801554D01*
X37190075Y3719520D01*
X37112770Y3652439D01*
X37109387Y3648313D01*
X37109383Y3648309D01*
X37036262Y3559131D01*
X36965128Y3472376D01*
X36962490Y3467741D01*
X36962487Y3467737D01*
X36939155Y3426748D01*
X36888073Y3377442D01*
X36818442Y3363580D01*
X36752371Y3389563D01*
X36725133Y3418713D01*
X36657849Y3518653D01*
X36633196Y3555272D01*
X36472468Y3723758D01*
X36285650Y3862754D01*
X36158574Y3927363D01*
X36082842Y3965867D01*
X36082841Y3965867D01*
X36078084Y3968286D01*
X35945621Y4009417D01*
X35860807Y4035753D01*
X35860801Y4035754D01*
X35855704Y4037337D01*
X35730368Y4053949D01*
X35630152Y4067232D01*
X35630148Y4067232D01*
X35624868Y4067932D01*
X35619538Y4067732D01*
X35619537Y4067732D01*
X35508523Y4063565D01*
X35392178Y4059197D01*
X35367167Y4053949D01*
X35169514Y4012477D01*
X35169511Y4012476D01*
X35164287Y4011380D01*
X34947710Y3925850D01*
X34748641Y3805051D01*
X34744611Y3801554D01*
X34650075Y3719520D01*
X34572770Y3652439D01*
X34569387Y3648313D01*
X34569383Y3648309D01*
X34496262Y3559131D01*
X34425128Y3472376D01*
X34422490Y3467741D01*
X34422487Y3467737D01*
X34399155Y3426748D01*
X34348073Y3377442D01*
X34278442Y3363580D01*
X34212371Y3389563D01*
X34185133Y3418713D01*
X34117849Y3518653D01*
X34093196Y3555272D01*
X33932468Y3723758D01*
X33745650Y3862754D01*
X33618574Y3927363D01*
X33542842Y3965867D01*
X33542841Y3965867D01*
X33538084Y3968286D01*
X33405621Y4009417D01*
X33320807Y4035753D01*
X33320801Y4035754D01*
X33315704Y4037337D01*
X33190368Y4053949D01*
X33090152Y4067232D01*
X33090148Y4067232D01*
X33084868Y4067932D01*
X33079538Y4067732D01*
X33079537Y4067732D01*
X32968523Y4063565D01*
X32852178Y4059197D01*
X32827167Y4053949D01*
X32629514Y4012477D01*
X32629511Y4012476D01*
X32624287Y4011380D01*
X32407710Y3925850D01*
X32208641Y3805051D01*
X32204611Y3801554D01*
X32110075Y3719520D01*
X32032770Y3652439D01*
X32029387Y3648313D01*
X32029383Y3648309D01*
X31956262Y3559131D01*
X31885128Y3472376D01*
X31882490Y3467741D01*
X31882487Y3467737D01*
X31859155Y3426748D01*
X31808073Y3377442D01*
X31738442Y3363580D01*
X31672371Y3389563D01*
X31645133Y3418713D01*
X31577849Y3518653D01*
X31553196Y3555272D01*
X31392468Y3723758D01*
X31205650Y3862754D01*
X31078574Y3927363D01*
X31002842Y3965867D01*
X31002841Y3965867D01*
X30998084Y3968286D01*
X30865621Y4009417D01*
X30780807Y4035753D01*
X30780801Y4035754D01*
X30775704Y4037337D01*
X30650368Y4053949D01*
X30550152Y4067232D01*
X30550148Y4067232D01*
X30544868Y4067932D01*
X30539538Y4067732D01*
X30539537Y4067732D01*
X30428523Y4063565D01*
X30312178Y4059197D01*
X30287167Y4053949D01*
X30089514Y4012477D01*
X30089511Y4012476D01*
X30084287Y4011380D01*
X29867710Y3925850D01*
X29668641Y3805051D01*
X29664611Y3801554D01*
X29570075Y3719520D01*
X29492770Y3652439D01*
X29489387Y3648313D01*
X29489383Y3648309D01*
X29416262Y3559131D01*
X29345128Y3472376D01*
X29342490Y3467741D01*
X29342487Y3467737D01*
X29319155Y3426748D01*
X29268073Y3377442D01*
X29198442Y3363580D01*
X29132371Y3389563D01*
X29105133Y3418713D01*
X29037849Y3518653D01*
X29013196Y3555272D01*
X28852468Y3723758D01*
X28665650Y3862754D01*
X28538574Y3927363D01*
X28462842Y3965867D01*
X28462841Y3965867D01*
X28458084Y3968286D01*
X28325621Y4009417D01*
X28240807Y4035753D01*
X28240801Y4035754D01*
X28235704Y4037337D01*
X28110368Y4053949D01*
X28010152Y4067232D01*
X28010148Y4067232D01*
X28004868Y4067932D01*
X27999538Y4067732D01*
X27999537Y4067732D01*
X27888523Y4063565D01*
X27772178Y4059197D01*
X27747167Y4053949D01*
X27549514Y4012477D01*
X27549511Y4012476D01*
X27544287Y4011380D01*
X27327710Y3925850D01*
X27128641Y3805051D01*
X27124611Y3801554D01*
X27030075Y3719520D01*
X26952770Y3652439D01*
X26949384Y3648309D01*
X26949383Y3648308D01*
X26875866Y3558648D01*
X26817206Y3518653D01*
X26746236Y3516722D01*
X26689337Y3549444D01*
X22618781Y7620000D01*
X29166502Y7620000D01*
X29186457Y7391913D01*
X29187881Y7386600D01*
X29187881Y7386598D01*
X29201155Y7337061D01*
X29245716Y7170757D01*
X29248039Y7165776D01*
X29248039Y7165775D01*
X29340151Y6968238D01*
X29340154Y6968233D01*
X29342477Y6963251D01*
X29370968Y6922562D01*
X29449078Y6811010D01*
X29473802Y6775700D01*
X29635700Y6613802D01*
X29640207Y6610646D01*
X29640211Y6610643D01*
X29680445Y6582471D01*
X29823251Y6482477D01*
X29828233Y6480154D01*
X29828238Y6480151D01*
X30025775Y6388039D01*
X30030757Y6385716D01*
X30036065Y6384294D01*
X30036067Y6384293D01*
X30246598Y6327881D01*
X30246600Y6327881D01*
X30251913Y6326457D01*
X30480000Y6306502D01*
X30708087Y6326457D01*
X30713400Y6327881D01*
X30713402Y6327881D01*
X30923933Y6384293D01*
X30923935Y6384294D01*
X30929243Y6385716D01*
X30934225Y6388039D01*
X31131762Y6480151D01*
X31131767Y6480154D01*
X31136749Y6482477D01*
X31279555Y6582471D01*
X31319789Y6610643D01*
X31319793Y6610646D01*
X31324300Y6613802D01*
X31432364Y6721866D01*
X34201500Y6721866D01*
X34208255Y6659684D01*
X34259385Y6523295D01*
X34346739Y6406739D01*
X34463295Y6319385D01*
X34599684Y6268255D01*
X34661866Y6261500D01*
X36458134Y6261500D01*
X36520316Y6268255D01*
X36656705Y6319385D01*
X36773261Y6406739D01*
X36860615Y6523295D01*
X36882799Y6582471D01*
X36904598Y6640618D01*
X36947240Y6697382D01*
X37013802Y6722082D01*
X37083150Y6706874D01*
X37117817Y6678886D01*
X37146250Y6646062D01*
X37318126Y6503368D01*
X37511000Y6390662D01*
X37515825Y6388820D01*
X37515826Y6388819D01*
X37588612Y6361025D01*
X37719692Y6310970D01*
X37724760Y6309939D01*
X37724763Y6309938D01*
X37832017Y6288117D01*
X37938597Y6266433D01*
X37943772Y6266243D01*
X37943774Y6266243D01*
X38156673Y6258436D01*
X38156677Y6258436D01*
X38161837Y6258247D01*
X38166957Y6258903D01*
X38166959Y6258903D01*
X38378288Y6285975D01*
X38378289Y6285975D01*
X38383416Y6286632D01*
X38449646Y6306502D01*
X38592429Y6349339D01*
X38592434Y6349341D01*
X38597384Y6350826D01*
X38797994Y6449104D01*
X38979860Y6578827D01*
X39011788Y6610643D01*
X39112823Y6711326D01*
X39138096Y6736511D01*
X39169498Y6780211D01*
X39268453Y6917923D01*
X39269776Y6916972D01*
X39316645Y6960143D01*
X39386580Y6972375D01*
X39452026Y6944856D01*
X39479875Y6913006D01*
X39539987Y6814912D01*
X39686250Y6646062D01*
X39858126Y6503368D01*
X40051000Y6390662D01*
X40055825Y6388820D01*
X40055826Y6388819D01*
X40128612Y6361025D01*
X40259692Y6310970D01*
X40264760Y6309939D01*
X40264763Y6309938D01*
X40372017Y6288117D01*
X40478597Y6266433D01*
X40483772Y6266243D01*
X40483774Y6266243D01*
X40696673Y6258436D01*
X40696677Y6258436D01*
X40701837Y6258247D01*
X40706957Y6258903D01*
X40706959Y6258903D01*
X40918288Y6285975D01*
X40918289Y6285975D01*
X40923416Y6286632D01*
X40989646Y6306502D01*
X41132429Y6349339D01*
X41132434Y6349341D01*
X41137384Y6350826D01*
X41337994Y6449104D01*
X41519860Y6578827D01*
X41551788Y6610643D01*
X41652823Y6711326D01*
X41678096Y6736511D01*
X41709498Y6780211D01*
X41805435Y6913723D01*
X41808453Y6917923D01*
X41828628Y6958743D01*
X41905136Y7113547D01*
X41905137Y7113549D01*
X41907430Y7118189D01*
X41972370Y7331931D01*
X42001529Y7553410D01*
X42003022Y7614525D01*
X42003074Y7616635D01*
X42003074Y7616639D01*
X42003156Y7620000D01*
X41984852Y7842639D01*
X41930431Y8059298D01*
X41841354Y8264160D01*
X41784586Y8351910D01*
X41722822Y8447383D01*
X41722820Y8447386D01*
X41720014Y8451723D01*
X41569670Y8616949D01*
X41565619Y8620148D01*
X41565615Y8620152D01*
X41398414Y8752200D01*
X41398410Y8752202D01*
X41394359Y8755402D01*
X41386304Y8759849D01*
X41342136Y8784231D01*
X41198789Y8863362D01*
X41193920Y8865086D01*
X41193916Y8865088D01*
X40993087Y8936205D01*
X40993083Y8936206D01*
X40988212Y8937931D01*
X40983119Y8938838D01*
X40983116Y8938839D01*
X40773373Y8976200D01*
X40773367Y8976201D01*
X40768284Y8977106D01*
X40694452Y8978008D01*
X40550081Y8979772D01*
X40550079Y8979772D01*
X40544911Y8979835D01*
X40324091Y8946045D01*
X40111756Y8876643D01*
X39913607Y8773493D01*
X39909474Y8770390D01*
X39909471Y8770388D01*
X39794075Y8683746D01*
X39734965Y8639365D01*
X39731393Y8635627D01*
X39623729Y8522963D01*
X39580629Y8477862D01*
X39473201Y8320379D01*
X39418293Y8275379D01*
X39347768Y8267208D01*
X39284021Y8298462D01*
X39263324Y8322946D01*
X39182822Y8447383D01*
X39182820Y8447386D01*
X39180014Y8451723D01*
X39029670Y8616949D01*
X39025619Y8620148D01*
X39025615Y8620152D01*
X38858414Y8752200D01*
X38858410Y8752202D01*
X38854359Y8755402D01*
X38846304Y8759849D01*
X38802136Y8784231D01*
X38658789Y8863362D01*
X38653920Y8865086D01*
X38653916Y8865088D01*
X38453087Y8936205D01*
X38453083Y8936206D01*
X38448212Y8937931D01*
X38443119Y8938838D01*
X38443116Y8938839D01*
X38233373Y8976200D01*
X38233367Y8976201D01*
X38228284Y8977106D01*
X38154452Y8978008D01*
X38010081Y8979772D01*
X38010079Y8979772D01*
X38004911Y8979835D01*
X37784091Y8946045D01*
X37571756Y8876643D01*
X37373607Y8773493D01*
X37369474Y8770390D01*
X37369471Y8770388D01*
X37254075Y8683746D01*
X37194965Y8639365D01*
X37138537Y8580316D01*
X37114283Y8554936D01*
X37052759Y8519506D01*
X36981846Y8522963D01*
X36924060Y8564209D01*
X36905207Y8597757D01*
X36863767Y8708297D01*
X36860615Y8716705D01*
X36773261Y8833261D01*
X36656705Y8920615D01*
X36520316Y8971745D01*
X36458134Y8978500D01*
X34661866Y8978500D01*
X34599684Y8971745D01*
X34463295Y8920615D01*
X34346739Y8833261D01*
X34259385Y8716705D01*
X34208255Y8580316D01*
X34201500Y8518134D01*
X34201500Y6721866D01*
X31432364Y6721866D01*
X31486198Y6775700D01*
X31510923Y6811010D01*
X31589032Y6922562D01*
X31617523Y6963251D01*
X31619846Y6968233D01*
X31619849Y6968238D01*
X31711961Y7165775D01*
X31711961Y7165776D01*
X31714284Y7170757D01*
X31758846Y7337061D01*
X31772119Y7386598D01*
X31772119Y7386600D01*
X31773543Y7391913D01*
X31793498Y7620000D01*
X31773543Y7848087D01*
X31718618Y8053068D01*
X31715707Y8063933D01*
X31715706Y8063935D01*
X31714284Y8069243D01*
X31698204Y8103727D01*
X31619849Y8271762D01*
X31619846Y8271767D01*
X31617523Y8276749D01*
X31508654Y8432230D01*
X31489357Y8459789D01*
X31489355Y8459792D01*
X31486198Y8464300D01*
X31324300Y8626198D01*
X31292229Y8648655D01*
X31247901Y8704110D01*
X31238500Y8751867D01*
X31238500Y11568133D01*
X31258502Y11636254D01*
X31292228Y11671345D01*
X31324300Y11693802D01*
X31486198Y11855700D01*
X31492098Y11864125D01*
X31614366Y12038743D01*
X31617523Y12043251D01*
X31619846Y12048233D01*
X31619849Y12048238D01*
X31711961Y12245775D01*
X31711961Y12245776D01*
X31714284Y12250757D01*
X31759698Y12420241D01*
X31772119Y12466598D01*
X31772119Y12466600D01*
X31773543Y12471913D01*
X31793498Y12700000D01*
X31773543Y12928087D01*
X31749574Y13017540D01*
X31715707Y13143933D01*
X31715706Y13143935D01*
X31714284Y13149243D01*
X31711961Y13154225D01*
X31619849Y13351762D01*
X31619846Y13351767D01*
X31617523Y13356749D01*
X31486198Y13544300D01*
X31324300Y13706198D01*
X31319792Y13709355D01*
X31319789Y13709357D01*
X31241611Y13764098D01*
X31136749Y13837523D01*
X31131767Y13839846D01*
X31131762Y13839849D01*
X30934225Y13931961D01*
X30934224Y13931961D01*
X30929243Y13934284D01*
X30923935Y13935706D01*
X30923933Y13935707D01*
X30713402Y13992119D01*
X30713400Y13992119D01*
X30708087Y13993543D01*
X30480000Y14013498D01*
X30251913Y13993543D01*
X30246600Y13992119D01*
X30246598Y13992119D01*
X30036067Y13935707D01*
X30036065Y13935706D01*
X30030757Y13934284D01*
X30025776Y13931961D01*
X30025775Y13931961D01*
X29828238Y13839849D01*
X29828233Y13839846D01*
X29823251Y13837523D01*
X29718389Y13764098D01*
X29640211Y13709357D01*
X29640208Y13709355D01*
X29635700Y13706198D01*
X29473802Y13544300D01*
X29342477Y13356749D01*
X29340154Y13351767D01*
X29340151Y13351762D01*
X29248039Y13154225D01*
X29245716Y13149243D01*
X29244294Y13143935D01*
X29244293Y13143933D01*
X29210426Y13017540D01*
X29186457Y12928087D01*
X29166502Y12700000D01*
X29186457Y12471913D01*
X29187881Y12466600D01*
X29187881Y12466598D01*
X29200303Y12420241D01*
X29245716Y12250757D01*
X29248039Y12245776D01*
X29248039Y12245775D01*
X29340151Y12048238D01*
X29340154Y12048233D01*
X29342477Y12043251D01*
X29345634Y12038743D01*
X29467903Y11864125D01*
X29473802Y11855700D01*
X29635700Y11693802D01*
X29667771Y11671345D01*
X29712099Y11615890D01*
X29721500Y11568133D01*
X29721500Y8751867D01*
X29701498Y8683746D01*
X29667772Y8648655D01*
X29635700Y8626198D01*
X29473802Y8464300D01*
X29470645Y8459792D01*
X29470643Y8459789D01*
X29451346Y8432230D01*
X29342477Y8276749D01*
X29340154Y8271767D01*
X29340151Y8271762D01*
X29261796Y8103727D01*
X29245716Y8069243D01*
X29244294Y8063935D01*
X29244293Y8063933D01*
X29241382Y8053068D01*
X29186457Y7848087D01*
X29166502Y7620000D01*
X22618781Y7620000D01*
X22221506Y8017275D01*
X22209126Y8031679D01*
X22195394Y8050338D01*
X22191518Y8055916D01*
X22160172Y8103727D01*
X22160171Y8103729D01*
X22156156Y8109852D01*
X22149261Y8116384D01*
X22134439Y8133166D01*
X22128808Y8140818D01*
X22123235Y8145553D01*
X22123228Y8145560D01*
X22079651Y8182581D01*
X22074577Y8187133D01*
X22033066Y8226457D01*
X22033065Y8226458D01*
X22027753Y8231490D01*
X22021426Y8235165D01*
X22021417Y8235172D01*
X22019532Y8236267D01*
X22001253Y8249185D01*
X21999594Y8250594D01*
X21999591Y8250596D01*
X21994015Y8255333D01*
X21987501Y8258659D01*
X21987497Y8258662D01*
X21936564Y8284670D01*
X21930581Y8287932D01*
X21881141Y8316649D01*
X21881139Y8316650D01*
X21874810Y8320326D01*
X21867806Y8322447D01*
X21867802Y8322449D01*
X21865725Y8323078D01*
X21844949Y8331451D01*
X21836492Y8335769D01*
X21773805Y8351108D01*
X21767288Y8352891D01*
X21705533Y8371595D01*
X21696283Y8372169D01*
X21696054Y8372183D01*
X21673917Y8375551D01*
X21670146Y8376474D01*
X21670134Y8376476D01*
X21664690Y8377808D01*
X21656839Y8378295D01*
X21655475Y8378380D01*
X21655465Y8378380D01*
X21653536Y8378500D01*
X21598135Y8378500D01*
X21590333Y8378742D01*
X21529002Y8382547D01*
X21516040Y8380320D01*
X21494704Y8378500D01*
X21451867Y8378500D01*
X21383746Y8398502D01*
X21348655Y8432228D01*
X21326198Y8464300D01*
X21164300Y8626198D01*
X21159792Y8629355D01*
X21159789Y8629357D01*
X21024780Y8723891D01*
X20976749Y8757523D01*
X20971767Y8759846D01*
X20971762Y8759849D01*
X20774225Y8851961D01*
X20774224Y8851961D01*
X20769243Y8854284D01*
X20763935Y8855706D01*
X20763933Y8855707D01*
X20553402Y8912119D01*
X20553400Y8912119D01*
X20548087Y8913543D01*
X20320000Y8933498D01*
X20091913Y8913543D01*
X20086600Y8912119D01*
X20086598Y8912119D01*
X19876067Y8855707D01*
X19876065Y8855706D01*
X19870757Y8854284D01*
X19865776Y8851961D01*
X19865775Y8851961D01*
X19668238Y8759849D01*
X19668233Y8759846D01*
X19663251Y8757523D01*
X19615220Y8723891D01*
X19480211Y8629357D01*
X19480208Y8629355D01*
X19475700Y8626198D01*
X19313802Y8464300D01*
X19310645Y8459792D01*
X19310643Y8459789D01*
X19291346Y8432230D01*
X19182477Y8276749D01*
X19180154Y8271767D01*
X19180151Y8271762D01*
X19101796Y8103727D01*
X19085716Y8069243D01*
X19084294Y8063935D01*
X19084293Y8063933D01*
X19081382Y8053068D01*
X19026457Y7848087D01*
X19006502Y7620000D01*
X508500Y7620000D01*
X508500Y12700000D01*
X19006502Y12700000D01*
X19026457Y12471913D01*
X19027881Y12466600D01*
X19027881Y12466598D01*
X19040303Y12420241D01*
X19085716Y12250757D01*
X19088039Y12245776D01*
X19088039Y12245775D01*
X19180151Y12048238D01*
X19180154Y12048233D01*
X19182477Y12043251D01*
X19185634Y12038743D01*
X19307903Y11864125D01*
X19313802Y11855700D01*
X19475700Y11693802D01*
X19480208Y11690645D01*
X19480211Y11690643D01*
X19507769Y11671347D01*
X19663251Y11562477D01*
X19668233Y11560154D01*
X19668238Y11560151D01*
X19865775Y11468039D01*
X19870757Y11465716D01*
X19876065Y11464294D01*
X19876067Y11464293D01*
X20086598Y11407881D01*
X20086600Y11407881D01*
X20091913Y11406457D01*
X20320000Y11386502D01*
X20548087Y11406457D01*
X20553400Y11407881D01*
X20553402Y11407881D01*
X20763933Y11464293D01*
X20763935Y11464294D01*
X20769243Y11465716D01*
X20774225Y11468039D01*
X20971762Y11560151D01*
X20971767Y11560154D01*
X20976749Y11562477D01*
X21132231Y11671347D01*
X21159789Y11690643D01*
X21159792Y11690645D01*
X21164300Y11693802D01*
X21326198Y11855700D01*
X21332098Y11864125D01*
X21454366Y12038743D01*
X21457523Y12043251D01*
X21459846Y12048233D01*
X21459849Y12048238D01*
X21551961Y12245775D01*
X21551961Y12245776D01*
X21554284Y12250757D01*
X21599698Y12420241D01*
X21612119Y12466598D01*
X21612119Y12466600D01*
X21613543Y12471913D01*
X21633498Y12700000D01*
X21613543Y12928087D01*
X21589574Y13017540D01*
X21555707Y13143933D01*
X21555706Y13143935D01*
X21554284Y13149243D01*
X21551961Y13154225D01*
X21459849Y13351762D01*
X21459846Y13351767D01*
X21457523Y13356749D01*
X21326198Y13544300D01*
X21164300Y13706198D01*
X21159792Y13709355D01*
X21159789Y13709357D01*
X21081611Y13764098D01*
X20976749Y13837523D01*
X20971767Y13839846D01*
X20971762Y13839849D01*
X20774225Y13931961D01*
X20774224Y13931961D01*
X20769243Y13934284D01*
X20763935Y13935706D01*
X20763933Y13935707D01*
X20553402Y13992119D01*
X20553400Y13992119D01*
X20548087Y13993543D01*
X20320000Y14013498D01*
X20091913Y13993543D01*
X20086600Y13992119D01*
X20086598Y13992119D01*
X19876067Y13935707D01*
X19876065Y13935706D01*
X19870757Y13934284D01*
X19865776Y13931961D01*
X19865775Y13931961D01*
X19668238Y13839849D01*
X19668233Y13839846D01*
X19663251Y13837523D01*
X19558389Y13764098D01*
X19480211Y13709357D01*
X19480208Y13709355D01*
X19475700Y13706198D01*
X19313802Y13544300D01*
X19182477Y13356749D01*
X19180154Y13351767D01*
X19180151Y13351762D01*
X19088039Y13154225D01*
X19085716Y13149243D01*
X19084294Y13143935D01*
X19084293Y13143933D01*
X19050426Y13017540D01*
X19026457Y12928087D01*
X19006502Y12700000D01*
X508500Y12700000D01*
X508500Y16543305D01*
X1152251Y16543305D01*
X1165110Y16320285D01*
X1166247Y16315239D01*
X1166248Y16315233D01*
X1187275Y16221931D01*
X1214222Y16102361D01*
X1298266Y15895384D01*
X1349942Y15811056D01*
X1412291Y15709312D01*
X1414987Y15704912D01*
X1561250Y15536062D01*
X1733126Y15393368D01*
X1926000Y15280662D01*
X2134692Y15200970D01*
X2139760Y15199939D01*
X2139763Y15199938D01*
X2221734Y15183261D01*
X2353597Y15156433D01*
X2358772Y15156243D01*
X2358774Y15156243D01*
X2571673Y15148436D01*
X2571677Y15148436D01*
X2576837Y15148247D01*
X2581957Y15148903D01*
X2581959Y15148903D01*
X2793288Y15175975D01*
X2793289Y15175975D01*
X2798416Y15176632D01*
X2803366Y15178117D01*
X3007429Y15239339D01*
X3007434Y15239341D01*
X3012384Y15240826D01*
X3212994Y15339104D01*
X3394860Y15468827D01*
X3553096Y15626511D01*
X3612594Y15709311D01*
X3683453Y15807923D01*
X3684640Y15807070D01*
X3731960Y15850638D01*
X3801897Y15862855D01*
X3867338Y15835322D01*
X3895166Y15803489D01*
X3952694Y15709612D01*
X3958777Y15701301D01*
X4098213Y15540333D01*
X4105580Y15533117D01*
X4269434Y15397084D01*
X4277881Y15391169D01*
X4461756Y15283721D01*
X4471042Y15279271D01*
X4670001Y15203297D01*
X4679899Y15200421D01*
X4783250Y15179394D01*
X4797299Y15180590D01*
X4801000Y15190935D01*
X4801000Y17826898D01*
X4797082Y17840242D01*
X4782806Y17842229D01*
X4744324Y17836340D01*
X4734288Y17833949D01*
X4531868Y17767788D01*
X4522359Y17763791D01*
X4333463Y17665458D01*
X4324738Y17659964D01*
X4154433Y17532095D01*
X4146726Y17525252D01*
X3999590Y17371283D01*
X3993109Y17363278D01*
X3888498Y17209926D01*
X3833587Y17164924D01*
X3763062Y17156753D01*
X3699315Y17188007D01*
X3678618Y17212491D01*
X3597822Y17337383D01*
X3597820Y17337386D01*
X3595014Y17341723D01*
X3444670Y17506949D01*
X3440619Y17510148D01*
X3440615Y17510152D01*
X3273414Y17642200D01*
X3273410Y17642202D01*
X3269359Y17645402D01*
X3233028Y17665458D01*
X3177746Y17695975D01*
X3073789Y17753362D01*
X3068920Y17755086D01*
X3068916Y17755088D01*
X2868087Y17826205D01*
X2868083Y17826206D01*
X2863212Y17827931D01*
X2858119Y17828838D01*
X2858116Y17828839D01*
X2648373Y17866200D01*
X2648367Y17866201D01*
X2643284Y17867106D01*
X2569452Y17868008D01*
X2425081Y17869772D01*
X2425079Y17869772D01*
X2419911Y17869835D01*
X2199091Y17836045D01*
X1986756Y17766643D01*
X1788607Y17663493D01*
X1784474Y17660390D01*
X1784471Y17660388D01*
X1614100Y17532470D01*
X1609965Y17529365D01*
X1455629Y17367862D01*
X1329743Y17183320D01*
X1235688Y16980695D01*
X1175989Y16765430D01*
X1152251Y16543305D01*
X508500Y16543305D01*
X508500Y42912034D01*
X18973257Y42912034D01*
X19003565Y42777554D01*
X19006645Y42767725D01*
X19086770Y42570397D01*
X19091413Y42561206D01*
X19202694Y42379612D01*
X19208777Y42371301D01*
X19348213Y42210333D01*
X19355580Y42203117D01*
X19519434Y42067084D01*
X19527881Y42061169D01*
X19711756Y41953721D01*
X19721042Y41949271D01*
X19920001Y41873297D01*
X19929899Y41870421D01*
X20033250Y41849394D01*
X20047299Y41850590D01*
X20051000Y41860935D01*
X20051000Y41861483D01*
X20559000Y41861483D01*
X20563064Y41847641D01*
X20576478Y41845607D01*
X20583184Y41846466D01*
X20593262Y41848608D01*
X20797255Y41909809D01*
X20806842Y41913567D01*
X20998095Y42007261D01*
X21006945Y42012536D01*
X21180328Y42136208D01*
X21188200Y42142861D01*
X21339052Y42293188D01*
X21345730Y42301035D01*
X21473022Y42478181D01*
X21474279Y42477278D01*
X21521373Y42520638D01*
X21591311Y42532855D01*
X21656751Y42505322D01*
X21684579Y42473489D01*
X21744987Y42374912D01*
X21891250Y42206062D01*
X22063126Y42063368D01*
X22256000Y41950662D01*
X22464692Y41870970D01*
X22469760Y41869939D01*
X22469763Y41869938D01*
X22564862Y41850590D01*
X22683597Y41826433D01*
X22688772Y41826243D01*
X22688774Y41826243D01*
X22901673Y41818436D01*
X22901677Y41818436D01*
X22906837Y41818247D01*
X22911957Y41818903D01*
X22911959Y41818903D01*
X23123288Y41845975D01*
X23123289Y41845975D01*
X23128416Y41846632D01*
X23133366Y41848117D01*
X23337429Y41909339D01*
X23337434Y41909341D01*
X23342384Y41910826D01*
X23542994Y42009104D01*
X23724860Y42138827D01*
X23833091Y42246681D01*
X23895462Y42280596D01*
X23966268Y42275408D01*
X24023030Y42232762D01*
X24040012Y42201659D01*
X24084385Y42083295D01*
X24171739Y41966739D01*
X24288295Y41879385D01*
X24424684Y41828255D01*
X24486866Y41821500D01*
X26283134Y41821500D01*
X26345316Y41828255D01*
X26481705Y41879385D01*
X26598261Y41966739D01*
X26685615Y42083295D01*
X26736745Y42219684D01*
X26743500Y42281866D01*
X26743500Y44078134D01*
X26736745Y44140316D01*
X26685615Y44276705D01*
X26598261Y44393261D01*
X26481705Y44480615D01*
X26345316Y44531745D01*
X26283134Y44538500D01*
X24486866Y44538500D01*
X24424684Y44531745D01*
X24288295Y44480615D01*
X24171739Y44393261D01*
X24084385Y44276705D01*
X24081233Y44268297D01*
X24039919Y44158093D01*
X23997277Y44101329D01*
X23930716Y44076629D01*
X23861367Y44091837D01*
X23828743Y44117524D01*
X23778151Y44173125D01*
X23778142Y44173134D01*
X23774670Y44176949D01*
X23770619Y44180148D01*
X23770615Y44180152D01*
X23603414Y44312200D01*
X23603410Y44312202D01*
X23599359Y44315402D01*
X23563028Y44335458D01*
X23476414Y44383271D01*
X23403789Y44423362D01*
X23398920Y44425086D01*
X23398916Y44425088D01*
X23198087Y44496205D01*
X23198083Y44496206D01*
X23193212Y44497931D01*
X23188119Y44498838D01*
X23188116Y44498839D01*
X22978373Y44536200D01*
X22978367Y44536201D01*
X22973284Y44537106D01*
X22899452Y44538008D01*
X22755081Y44539772D01*
X22755079Y44539772D01*
X22749911Y44539835D01*
X22529091Y44506045D01*
X22316756Y44436643D01*
X22243757Y44398642D01*
X22195122Y44373324D01*
X22118607Y44333493D01*
X22114474Y44330390D01*
X22114471Y44330388D01*
X22018796Y44258553D01*
X21939965Y44199365D01*
X21900525Y44158093D01*
X21814043Y44067595D01*
X21785629Y44037862D01*
X21782720Y44033597D01*
X21782714Y44033589D01*
X21781120Y44031252D01*
X21678204Y43880382D01*
X21677898Y43879934D01*
X21622987Y43834931D01*
X21552462Y43826760D01*
X21488715Y43858014D01*
X21468018Y43882498D01*
X21387426Y44007074D01*
X21381136Y44015243D01*
X21237806Y44172760D01*
X21230273Y44179785D01*
X21063139Y44311778D01*
X21054552Y44317483D01*
X20868117Y44420401D01*
X20858705Y44424631D01*
X20657959Y44495720D01*
X20647988Y44498354D01*
X20576837Y44511028D01*
X20563540Y44509568D01*
X20559000Y44495011D01*
X20559000Y41861483D01*
X20051000Y41861483D01*
X20051000Y42907885D01*
X20046525Y42923124D01*
X20045135Y42924329D01*
X20037452Y42926000D01*
X18988225Y42926000D01*
X18974694Y42922027D01*
X18973257Y42912034D01*
X508500Y42912034D01*
X508500Y43445817D01*
X18969389Y43445817D01*
X18970912Y43437393D01*
X18983292Y43434000D01*
X20032885Y43434000D01*
X20048124Y43438475D01*
X20049329Y43439865D01*
X20051000Y43447548D01*
X20051000Y44496898D01*
X20047082Y44510242D01*
X20032806Y44512229D01*
X19994324Y44506340D01*
X19984288Y44503949D01*
X19781868Y44437788D01*
X19772359Y44433791D01*
X19583463Y44335458D01*
X19574738Y44329964D01*
X19404433Y44202095D01*
X19396726Y44195252D01*
X19249590Y44041283D01*
X19243104Y44033273D01*
X19123098Y43857351D01*
X19118000Y43848377D01*
X19028338Y43655217D01*
X19024775Y43645530D01*
X18969389Y43445817D01*
X508500Y43445817D01*
X508500Y52705500D01*
X528502Y52773621D01*
X582158Y52820114D01*
X634500Y52831500D01*
X13373876Y52831500D01*
X13441997Y52811498D01*
G37*
%TD.AperFunction*%
%TA.AperFunction,Conductor*%
G36*
X60269121Y41101198D02*
G01*
X60315614Y41047542D01*
X60327000Y40995200D01*
X60327000Y35754000D01*
X60306998Y35685879D01*
X60253342Y35639386D01*
X60201000Y35628000D01*
X59987115Y35628000D01*
X59971876Y35623525D01*
X59970671Y35622135D01*
X59969000Y35614452D01*
X59969000Y34142000D01*
X59948998Y34073879D01*
X59895342Y34027386D01*
X59843000Y34016000D01*
X58375116Y34016000D01*
X58359877Y34011525D01*
X58358672Y34010135D01*
X58357001Y34002452D01*
X58357001Y33375331D01*
X58357371Y33368510D01*
X58362895Y33317648D01*
X58366521Y33302396D01*
X58411676Y33181946D01*
X58420214Y33166351D01*
X58496715Y33064276D01*
X58509276Y33051715D01*
X58611351Y32975214D01*
X58626946Y32966676D01*
X58735827Y32925858D01*
X58792591Y32883216D01*
X58817291Y32816655D01*
X58802083Y32747306D01*
X58782691Y32720825D01*
X58659200Y32591599D01*
X58655629Y32587862D01*
X58529743Y32403320D01*
X58527564Y32398625D01*
X58445865Y32222619D01*
X58435688Y32200695D01*
X58375989Y31985430D01*
X58352251Y31763305D01*
X58365110Y31540285D01*
X58366247Y31535239D01*
X58366248Y31535233D01*
X58387275Y31441931D01*
X58414222Y31322361D01*
X58452461Y31228189D01*
X58487986Y31140702D01*
X58498266Y31115384D01*
X58614987Y30924912D01*
X58761250Y30756062D01*
X58933126Y30613368D01*
X58979347Y30586359D01*
X59006445Y30570524D01*
X59055169Y30518886D01*
X59068240Y30449103D01*
X59041509Y30383331D01*
X59001055Y30349973D01*
X58988607Y30343493D01*
X58984474Y30340390D01*
X58984471Y30340388D01*
X58814100Y30212470D01*
X58809965Y30209365D01*
X58806393Y30205627D01*
X58731919Y30127695D01*
X58670394Y30092265D01*
X58599482Y30095722D01*
X58551730Y30125651D01*
X54135266Y34542115D01*
X58357000Y34542115D01*
X58361475Y34526876D01*
X58362865Y34525671D01*
X58370548Y34524000D01*
X59442885Y34524000D01*
X59458124Y34528475D01*
X59459329Y34529865D01*
X59461000Y34537548D01*
X59461000Y35609884D01*
X59456525Y35625123D01*
X59455135Y35626328D01*
X59447452Y35627999D01*
X58820331Y35627999D01*
X58813510Y35627629D01*
X58762648Y35622105D01*
X58747396Y35618479D01*
X58626946Y35573324D01*
X58611351Y35564786D01*
X58509276Y35488285D01*
X58496715Y35475724D01*
X58420214Y35373649D01*
X58411676Y35358054D01*
X58366522Y35237606D01*
X58362895Y35222351D01*
X58357369Y35171486D01*
X58357000Y35164672D01*
X58357000Y34542115D01*
X54135266Y34542115D01*
X47771276Y40906105D01*
X47737250Y40968417D01*
X47742315Y41039232D01*
X47784862Y41096068D01*
X47851382Y41120879D01*
X47860371Y41121200D01*
X60201000Y41121200D01*
X60269121Y41101198D01*
G37*
%TD.AperFunction*%
%TA.AperFunction,Conductor*%
G36*
X41773621Y44084498D02*
G01*
X41820114Y44030842D01*
X41831500Y43978500D01*
X41831500Y42764200D01*
X41811498Y42696079D01*
X41757842Y42649586D01*
X41705500Y42638200D01*
X41694371Y42638200D01*
X41626250Y42658202D01*
X41605276Y42675105D01*
X41303870Y42976511D01*
X41291484Y42990923D01*
X41282951Y43002518D01*
X41282946Y43002523D01*
X41278608Y43008418D01*
X41273030Y43013157D01*
X41273027Y43013160D01*
X41238332Y43042635D01*
X41230816Y43049565D01*
X41225121Y43055260D01*
X41208836Y43068144D01*
X41202849Y43072881D01*
X41199445Y43075672D01*
X41149397Y43118191D01*
X41149395Y43118192D01*
X41143815Y43122933D01*
X41137299Y43126261D01*
X41132250Y43129628D01*
X41127121Y43132795D01*
X41121384Y43137334D01*
X41055225Y43168255D01*
X41051325Y43170161D01*
X40986292Y43203369D01*
X40979184Y43205108D01*
X40973541Y43207207D01*
X40967778Y43209124D01*
X40961150Y43212222D01*
X40889683Y43227087D01*
X40885399Y43228057D01*
X40814490Y43245408D01*
X40808888Y43245756D01*
X40808885Y43245756D01*
X40803336Y43246100D01*
X40803338Y43246136D01*
X40799345Y43246375D01*
X40795153Y43246749D01*
X40787985Y43248240D01*
X40724220Y43246515D01*
X40710579Y43246146D01*
X40707172Y43246100D01*
X35479970Y43246100D01*
X35461020Y43247533D01*
X35446785Y43249699D01*
X35446781Y43249699D01*
X35439551Y43250799D01*
X35432259Y43250206D01*
X35432256Y43250206D01*
X35386882Y43246515D01*
X35376667Y43246100D01*
X35368607Y43246100D01*
X35364973Y43245676D01*
X35364967Y43245676D01*
X35351942Y43244157D01*
X35340380Y43242809D01*
X35336032Y43242379D01*
X35263264Y43236460D01*
X35256303Y43234205D01*
X35250363Y43233018D01*
X35244488Y43231629D01*
X35237219Y43230782D01*
X35168570Y43205864D01*
X35164442Y43204447D01*
X35101964Y43184207D01*
X35101962Y43184206D01*
X35095001Y43181951D01*
X35088746Y43178155D01*
X35083272Y43175649D01*
X35077842Y43172930D01*
X35070963Y43170433D01*
X35064843Y43166420D01*
X35064842Y43166420D01*
X35009924Y43130414D01*
X35006220Y43128077D01*
X34943793Y43090195D01*
X34935416Y43082797D01*
X34935392Y43082824D01*
X34932400Y43080171D01*
X34929167Y43077468D01*
X34923048Y43073456D01*
X34893851Y43042635D01*
X34869772Y43017217D01*
X34867394Y43014775D01*
X22003561Y30150942D01*
X21941249Y30116916D01*
X21870434Y30121981D01*
X21821274Y30155237D01*
X21769670Y30211949D01*
X21630069Y30322200D01*
X21598414Y30347200D01*
X21598410Y30347202D01*
X21594359Y30350402D01*
X21552569Y30373471D01*
X21502598Y30423903D01*
X21487826Y30493346D01*
X21512942Y30559752D01*
X21540294Y30586359D01*
X21715328Y30711208D01*
X21723200Y30717861D01*
X21874052Y30868188D01*
X21880730Y30876035D01*
X22005003Y31048980D01*
X22010313Y31057817D01*
X22104670Y31248733D01*
X22108469Y31258328D01*
X22170377Y31462090D01*
X22172555Y31472163D01*
X22173986Y31483038D01*
X22171775Y31497222D01*
X22158617Y31501000D01*
X20712000Y31501000D01*
X20643879Y31521002D01*
X20597386Y31574658D01*
X20586000Y31627000D01*
X20586000Y31883000D01*
X20606002Y31951121D01*
X20659658Y31997614D01*
X20712000Y32009000D01*
X22158344Y32009000D01*
X22171875Y32012973D01*
X22173180Y32022053D01*
X22131214Y32189125D01*
X22127894Y32198876D01*
X22042972Y32394186D01*
X22038105Y32403261D01*
X21922426Y32582074D01*
X21916136Y32590243D01*
X21772806Y32747760D01*
X21765273Y32754785D01*
X21598139Y32886778D01*
X21589552Y32892483D01*
X21480802Y32952517D01*
X21430832Y33002950D01*
X21416060Y33072392D01*
X21441177Y33138798D01*
X21452601Y33151920D01*
X32368276Y44067595D01*
X32430588Y44101621D01*
X32457371Y44104500D01*
X41705500Y44104500D01*
X41773621Y44084498D01*
G37*
%TD.AperFunction*%
%TD*%
%TA.AperFunction,NonConductor*%
G36*
X32843629Y49950437D02*
G01*
X32870867Y49921287D01*
X32962804Y49784728D01*
X32966483Y49780871D01*
X32966485Y49780869D01*
X33051223Y49692041D01*
X33123532Y49616242D01*
X33310350Y49477246D01*
X33315102Y49474830D01*
X33512244Y49374598D01*
X33517916Y49371714D01*
X33629106Y49337189D01*
X33735193Y49304247D01*
X33735199Y49304246D01*
X33740296Y49302663D01*
X33864660Y49286180D01*
X33965848Y49272768D01*
X33965852Y49272768D01*
X33971132Y49272068D01*
X33976462Y49272268D01*
X33976463Y49272268D01*
X34092072Y49276608D01*
X34203822Y49280803D01*
X34253659Y49291260D01*
X34367437Y49315133D01*
X34438213Y49309546D01*
X34482406Y49280913D01*
X36528030Y47235289D01*
X36540416Y47220877D01*
X36548949Y47209282D01*
X36548954Y47209277D01*
X36553292Y47203382D01*
X36558870Y47198643D01*
X36558873Y47198640D01*
X36593568Y47169165D01*
X36601084Y47162235D01*
X36606779Y47156540D01*
X36609661Y47154260D01*
X36629051Y47138919D01*
X36632455Y47136128D01*
X36682503Y47093609D01*
X36688085Y47088867D01*
X36694601Y47085539D01*
X36699650Y47082172D01*
X36704779Y47079005D01*
X36710516Y47074466D01*
X36776675Y47043546D01*
X36780577Y47041637D01*
X36793153Y47035215D01*
X36844725Y46986421D01*
X36861730Y46917491D01*
X36838768Y46850310D01*
X36783131Y46806207D01*
X36735850Y46797000D01*
X34083871Y46797000D01*
X34015750Y46817002D01*
X33994776Y46833905D01*
X31732593Y49096088D01*
X31698567Y49158400D01*
X31703632Y49229215D01*
X31746179Y49286051D01*
X31795814Y49308498D01*
X31886486Y49327523D01*
X31886489Y49327524D01*
X31891713Y49328620D01*
X32108290Y49414150D01*
X32307359Y49534949D01*
X32311855Y49538850D01*
X32479197Y49684061D01*
X32479199Y49684063D01*
X32483230Y49687561D01*
X32486613Y49691687D01*
X32486617Y49691691D01*
X32585776Y49812626D01*
X32630872Y49867624D01*
X32656845Y49913252D01*
X32707927Y49962558D01*
X32777558Y49976420D01*
X32843629Y49950437D01*
G37*
%TD.AperFunction*%
%TA.AperFunction,NonConductor*%
G36*
X45967550Y46945698D02*
G01*
X45988524Y46928795D01*
X48174603Y44742716D01*
X48208629Y44680404D01*
X48203564Y44609589D01*
X48161017Y44552753D01*
X48104565Y44529071D01*
X48071384Y44523994D01*
X48001022Y44533462D01*
X47963232Y44559449D01*
X45995270Y46527411D01*
X45982884Y46541823D01*
X45974351Y46553418D01*
X45974346Y46553423D01*
X45970008Y46559318D01*
X45964430Y46564057D01*
X45964427Y46564060D01*
X45929732Y46593535D01*
X45922216Y46600465D01*
X45916521Y46606160D01*
X45910380Y46611018D01*
X45894249Y46623781D01*
X45890845Y46626572D01*
X45840797Y46669091D01*
X45840795Y46669092D01*
X45835215Y46673833D01*
X45828699Y46677161D01*
X45823650Y46680528D01*
X45818521Y46683695D01*
X45812784Y46688234D01*
X45746625Y46719154D01*
X45742723Y46721063D01*
X45730147Y46727485D01*
X45678575Y46776279D01*
X45661570Y46845209D01*
X45684532Y46912390D01*
X45740169Y46956493D01*
X45787450Y46965700D01*
X45899429Y46965700D01*
X45967550Y46945698D01*
G37*
%TD.AperFunction*%
%TA.AperFunction,NonConductor*%
G36*
X61207713Y31474566D02*
G01*
X61260931Y31427572D01*
X61280300Y31360447D01*
X61280300Y29553836D01*
X61260298Y29485715D01*
X61206642Y29439222D01*
X61136368Y29429118D01*
X61071788Y29458612D01*
X61032096Y29523141D01*
X61006692Y29624277D01*
X61005431Y29629298D01*
X60916354Y29834160D01*
X60795014Y30021723D01*
X60644670Y30186949D01*
X60640619Y30190148D01*
X60640615Y30190152D01*
X60473414Y30322200D01*
X60473410Y30322202D01*
X60469359Y30325402D01*
X60428053Y30348204D01*
X60378084Y30398636D01*
X60363312Y30468079D01*
X60388428Y30534484D01*
X60415780Y30561091D01*
X60464436Y30595797D01*
X60594860Y30688827D01*
X60617320Y30711208D01*
X60749435Y30842863D01*
X60753096Y30846511D01*
X60768673Y30868188D01*
X60880435Y31023723D01*
X60883453Y31027923D01*
X60898228Y31057817D01*
X60980136Y31223547D01*
X60980137Y31223549D01*
X60982430Y31228189D01*
X61033742Y31397076D01*
X61072683Y31456440D01*
X61137537Y31485327D01*
X61207713Y31474566D01*
G37*
%TD.AperFunction*%
%TA.AperFunction,NonConductor*%
G36*
X35885650Y41709098D02*
G01*
X35932143Y41655442D01*
X35942247Y41585168D01*
X35912753Y41520588D01*
X35906624Y41514005D01*
X22003561Y27610942D01*
X21941249Y27576916D01*
X21870434Y27581981D01*
X21821274Y27615237D01*
X21769670Y27671949D01*
X21630069Y27782200D01*
X21598414Y27807200D01*
X21598410Y27807202D01*
X21594359Y27810402D01*
X21553053Y27833204D01*
X21503084Y27883636D01*
X21488312Y27953079D01*
X21513428Y28019484D01*
X21540780Y28046091D01*
X21584603Y28077350D01*
X21719860Y28173827D01*
X21878096Y28331511D01*
X21930203Y28404026D01*
X21986198Y28447674D01*
X22032526Y28456500D01*
X22073230Y28456500D01*
X22092180Y28455067D01*
X22106415Y28452901D01*
X22106419Y28452901D01*
X22113649Y28451801D01*
X22120941Y28452394D01*
X22120944Y28452394D01*
X22166318Y28456085D01*
X22176533Y28456500D01*
X22184593Y28456500D01*
X22197883Y28458049D01*
X22212807Y28459789D01*
X22217182Y28460222D01*
X22282639Y28465546D01*
X22282642Y28465547D01*
X22289937Y28466140D01*
X22296901Y28468396D01*
X22302860Y28469587D01*
X22308715Y28470971D01*
X22315981Y28471818D01*
X22384627Y28496735D01*
X22388755Y28498152D01*
X22451236Y28518393D01*
X22451238Y28518394D01*
X22458199Y28520649D01*
X22464454Y28524445D01*
X22469928Y28526951D01*
X22475358Y28529670D01*
X22482237Y28532167D01*
X22488358Y28536180D01*
X22543276Y28572186D01*
X22546980Y28574523D01*
X22609407Y28612405D01*
X22617784Y28619803D01*
X22617808Y28619776D01*
X22620800Y28622429D01*
X22624033Y28625132D01*
X22630152Y28629144D01*
X22683428Y28685383D01*
X22685806Y28687825D01*
X35690176Y41692195D01*
X35752488Y41726221D01*
X35779271Y41729100D01*
X35817529Y41729100D01*
X35885650Y41709098D01*
G37*
%TD.AperFunction*%
%TA.AperFunction,NonConductor*%
G36*
X46242450Y40285498D02*
G01*
X46263424Y40268595D01*
X57830927Y28701093D01*
X57843313Y28686681D01*
X57845620Y28683547D01*
X57856192Y28669182D01*
X57861770Y28664443D01*
X57861773Y28664440D01*
X57896475Y28634959D01*
X57903991Y28628029D01*
X57909680Y28622340D01*
X57912534Y28620082D01*
X57912544Y28620073D01*
X57931942Y28604726D01*
X57935342Y28601938D01*
X57985407Y28559405D01*
X57985411Y28559402D01*
X57990985Y28554667D01*
X57997500Y28551340D01*
X58002537Y28547981D01*
X58007675Y28544808D01*
X58013416Y28540266D01*
X58079575Y28509345D01*
X58083469Y28507442D01*
X58148508Y28474231D01*
X58155617Y28472492D01*
X58161251Y28470396D01*
X58167021Y28468477D01*
X58173650Y28465378D01*
X58180813Y28463888D01*
X58180816Y28463887D01*
X58231530Y28453339D01*
X58245135Y28450509D01*
X58249401Y28449543D01*
X58320310Y28432192D01*
X58325912Y28431844D01*
X58325915Y28431844D01*
X58331464Y28431500D01*
X58331462Y28431465D01*
X58335434Y28431225D01*
X58339655Y28430848D01*
X58346815Y28429359D01*
X58424242Y28431454D01*
X58427650Y28431500D01*
X58517491Y28431500D01*
X58585612Y28411498D01*
X58614402Y28384405D01*
X58614987Y28384912D01*
X58761250Y28216062D01*
X58933126Y28073368D01*
X58979805Y28046091D01*
X59006445Y28030524D01*
X59055169Y27978886D01*
X59068240Y27909103D01*
X59041509Y27843331D01*
X59001055Y27809973D01*
X58988607Y27803493D01*
X58984474Y27800390D01*
X58984471Y27800388D01*
X58814100Y27672470D01*
X58809965Y27669365D01*
X58806393Y27665627D01*
X58731919Y27587695D01*
X58670394Y27552265D01*
X58599482Y27555722D01*
X58551730Y27585651D01*
X46046976Y40090405D01*
X46012950Y40152717D01*
X46018015Y40223532D01*
X46060562Y40280368D01*
X46127082Y40305179D01*
X46136071Y40305500D01*
X46174329Y40305500D01*
X46242450Y40285498D01*
G37*
%TD.AperFunction*%
%TA.AperFunction,NonConductor*%
G36*
X61207713Y28934566D02*
G01*
X61260931Y28887572D01*
X61280300Y28820447D01*
X61280300Y27013836D01*
X61260298Y26945715D01*
X61206642Y26899222D01*
X61136368Y26889118D01*
X61071788Y26918612D01*
X61032096Y26983141D01*
X61006692Y27084277D01*
X61005431Y27089298D01*
X60916354Y27294160D01*
X60795014Y27481723D01*
X60644670Y27646949D01*
X60640619Y27650148D01*
X60640615Y27650152D01*
X60473414Y27782200D01*
X60473410Y27782202D01*
X60469359Y27785402D01*
X60428053Y27808204D01*
X60378084Y27858636D01*
X60363312Y27928079D01*
X60388428Y27994484D01*
X60415780Y28021091D01*
X60464053Y28055524D01*
X60594860Y28148827D01*
X60753096Y28306511D01*
X60883453Y28487923D01*
X60888174Y28497474D01*
X60980136Y28683547D01*
X60980137Y28683549D01*
X60982430Y28688189D01*
X61033742Y28857076D01*
X61072683Y28916440D01*
X61137537Y28945327D01*
X61207713Y28934566D01*
G37*
%TD.AperFunction*%
%TA.AperFunction,NonConductor*%
G36*
X24907850Y21147898D02*
G01*
X24954343Y21094242D01*
X24964447Y21023968D01*
X24934953Y20959388D01*
X24928824Y20952805D01*
X24551324Y20575305D01*
X24489012Y20541279D01*
X24462229Y20538400D01*
X22321714Y20538400D01*
X22253593Y20558402D01*
X22207100Y20612058D01*
X22196451Y20678008D01*
X22198500Y20696866D01*
X22198500Y20725420D01*
X22218502Y20793541D01*
X22272158Y20840034D01*
X22289972Y20845795D01*
X22289868Y20846117D01*
X22290746Y20846402D01*
X22294131Y20847140D01*
X22299817Y20848979D01*
X22302867Y20849588D01*
X22308719Y20850971D01*
X22315981Y20851818D01*
X22384627Y20876735D01*
X22388755Y20878152D01*
X22451236Y20898393D01*
X22451238Y20898394D01*
X22458199Y20900649D01*
X22464454Y20904445D01*
X22469928Y20906951D01*
X22475358Y20909670D01*
X22482237Y20912167D01*
X22488358Y20916180D01*
X22543276Y20952186D01*
X22546980Y20954523D01*
X22609407Y20992405D01*
X22617784Y20999803D01*
X22617808Y20999776D01*
X22620800Y21002429D01*
X22624033Y21005132D01*
X22630152Y21009144D01*
X22683428Y21065383D01*
X22685806Y21067825D01*
X22748976Y21130995D01*
X22811288Y21165021D01*
X22838071Y21167900D01*
X24839729Y21167900D01*
X24907850Y21147898D01*
G37*
%TD.AperFunction*%
%TA.AperFunction,NonConductor*%
G36*
X19574510Y31169663D02*
G01*
X19631346Y31127116D01*
X19637911Y31117442D01*
X19737694Y30954612D01*
X19743777Y30946301D01*
X19883213Y30785333D01*
X19890580Y30778117D01*
X20054434Y30642084D01*
X20062881Y30636169D01*
X20131969Y30595797D01*
X20180693Y30544158D01*
X20193764Y30474375D01*
X20167033Y30408604D01*
X20126584Y30375248D01*
X20113607Y30368493D01*
X20109474Y30365390D01*
X20109471Y30365388D01*
X20056215Y30325402D01*
X19934965Y30234365D01*
X19909891Y30208127D01*
X19802475Y30095722D01*
X19780629Y30072862D01*
X19654743Y29888320D01*
X19560688Y29685695D01*
X19500989Y29470430D01*
X19477251Y29248305D01*
X19490110Y29025285D01*
X19491247Y29020239D01*
X19491248Y29020233D01*
X19510555Y28934566D01*
X19539222Y28807361D01*
X19588752Y28685383D01*
X19616876Y28616122D01*
X19623266Y28600384D01*
X19660106Y28540266D01*
X19727949Y28429557D01*
X19739987Y28409912D01*
X19886250Y28241062D01*
X20058126Y28098368D01*
X20095253Y28076673D01*
X20131445Y28055524D01*
X20180169Y28003886D01*
X20193240Y27934103D01*
X20166509Y27868331D01*
X20126055Y27834973D01*
X20113607Y27828493D01*
X20109474Y27825390D01*
X20109471Y27825388D01*
X20056215Y27785402D01*
X19934965Y27694365D01*
X19909891Y27668127D01*
X19802475Y27555722D01*
X19780629Y27532862D01*
X19654743Y27348320D01*
X19560688Y27145695D01*
X19500989Y26930430D01*
X19477251Y26708305D01*
X19490110Y26485285D01*
X19491247Y26480239D01*
X19491248Y26480233D01*
X19498799Y26446728D01*
X19539222Y26267361D01*
X19588752Y26145383D01*
X19616876Y26076122D01*
X19623266Y26060384D01*
X19651281Y26014667D01*
X19705895Y25925546D01*
X19739987Y25869912D01*
X19886250Y25701062D01*
X20058126Y25558368D01*
X20095253Y25536673D01*
X20131445Y25515524D01*
X20180169Y25463886D01*
X20193240Y25394103D01*
X20166509Y25328331D01*
X20126055Y25294973D01*
X20113607Y25288493D01*
X20109474Y25285390D01*
X20109471Y25285388D01*
X19939100Y25157470D01*
X19934965Y25154365D01*
X19780629Y24992862D01*
X19654743Y24808320D01*
X19640959Y24778625D01*
X19569144Y24623911D01*
X19560688Y24605695D01*
X19500989Y24390430D01*
X19477251Y24168305D01*
X19477548Y24163152D01*
X19477548Y24163149D01*
X19489812Y23950453D01*
X19490110Y23945285D01*
X19491247Y23940239D01*
X19491248Y23940233D01*
X19515304Y23833492D01*
X19539222Y23727361D01*
X19623266Y23520384D01*
X19739987Y23329912D01*
X19886250Y23161062D01*
X19890230Y23157758D01*
X19894981Y23153813D01*
X19934616Y23094910D01*
X19936113Y23023929D01*
X19898997Y22963407D01*
X19858724Y22938888D01*
X19743295Y22895615D01*
X19626739Y22808261D01*
X19539385Y22691705D01*
X19488255Y22555316D01*
X19481500Y22493134D01*
X19481500Y20696866D01*
X19483549Y20678008D01*
X19471022Y20608128D01*
X19422702Y20556111D01*
X19358286Y20538400D01*
X16011970Y20538400D01*
X15993020Y20539833D01*
X15978785Y20541999D01*
X15978781Y20541999D01*
X15971551Y20543099D01*
X15964259Y20542506D01*
X15964256Y20542506D01*
X15918882Y20538815D01*
X15908667Y20538400D01*
X15900607Y20538400D01*
X15896973Y20537976D01*
X15896967Y20537976D01*
X15885064Y20536588D01*
X15872380Y20535109D01*
X15868032Y20534679D01*
X15795264Y20528760D01*
X15788303Y20526505D01*
X15782363Y20525318D01*
X15776488Y20523929D01*
X15769219Y20523082D01*
X15700570Y20498164D01*
X15696442Y20496747D01*
X15633964Y20476507D01*
X15633962Y20476506D01*
X15627001Y20474251D01*
X15620746Y20470455D01*
X15615272Y20467949D01*
X15609842Y20465230D01*
X15602963Y20462733D01*
X15596843Y20458720D01*
X15596842Y20458720D01*
X15541924Y20422714D01*
X15538220Y20420377D01*
X15475793Y20382495D01*
X15467416Y20375097D01*
X15467392Y20375124D01*
X15464400Y20372471D01*
X15461167Y20369768D01*
X15455048Y20365756D01*
X15450016Y20360444D01*
X15401772Y20309517D01*
X15399394Y20307075D01*
X12982296Y17889977D01*
X12919984Y17855951D01*
X12871105Y17855025D01*
X12803284Y17867106D01*
X12729452Y17868008D01*
X12585081Y17869772D01*
X12585079Y17869772D01*
X12579911Y17869835D01*
X12359091Y17836045D01*
X12146756Y17766643D01*
X11948607Y17663493D01*
X11944474Y17660390D01*
X11944471Y17660388D01*
X11774100Y17532470D01*
X11769965Y17529365D01*
X11615629Y17367862D01*
X11508201Y17210379D01*
X11453293Y17165379D01*
X11382768Y17157208D01*
X11319021Y17188462D01*
X11298324Y17212946D01*
X11217822Y17337383D01*
X11217820Y17337386D01*
X11215014Y17341723D01*
X11064670Y17506949D01*
X11060619Y17510148D01*
X11060615Y17510152D01*
X10893414Y17642200D01*
X10893410Y17642202D01*
X10889359Y17645402D01*
X10853028Y17665458D01*
X10797746Y17695975D01*
X10693789Y17753362D01*
X10688920Y17755086D01*
X10688916Y17755088D01*
X10488087Y17826205D01*
X10488083Y17826206D01*
X10483212Y17827931D01*
X10478119Y17828838D01*
X10478116Y17828839D01*
X10268373Y17866200D01*
X10268367Y17866201D01*
X10263284Y17867106D01*
X10189452Y17868008D01*
X10045081Y17869772D01*
X10045079Y17869772D01*
X10039911Y17869835D01*
X9819091Y17836045D01*
X9606756Y17766643D01*
X9408607Y17663493D01*
X9404474Y17660390D01*
X9404471Y17660388D01*
X9234100Y17532470D01*
X9229965Y17529365D01*
X9075629Y17367862D01*
X8968201Y17210379D01*
X8913293Y17165379D01*
X8842768Y17157208D01*
X8779021Y17188462D01*
X8758324Y17212946D01*
X8677822Y17337383D01*
X8677820Y17337386D01*
X8675014Y17341723D01*
X8524670Y17506949D01*
X8520615Y17510152D01*
X8401407Y17604297D01*
X8360345Y17662215D01*
X8353500Y17703179D01*
X8353500Y20000629D01*
X8373502Y20068750D01*
X8390405Y20089724D01*
X19441383Y31140702D01*
X19503695Y31174728D01*
X19574510Y31169663D01*
G37*
%TD.AperFunction*%
%TA.AperFunction,NonConductor*%
G36*
X24780480Y19019967D02*
G01*
X24794715Y19017801D01*
X24794719Y19017801D01*
X24801949Y19016701D01*
X24809242Y19017294D01*
X24816559Y19017039D01*
X24816497Y19015250D01*
X24876890Y19002728D01*
X24927579Y18953018D01*
X24943347Y18883795D01*
X24919186Y18817036D01*
X24906681Y18802462D01*
X22105224Y16001005D01*
X22042912Y15966979D01*
X22016129Y15964100D01*
X16699500Y15964100D01*
X16631379Y15984102D01*
X16584886Y16037758D01*
X16573500Y16090100D01*
X16573500Y17408134D01*
X16566745Y17470316D01*
X16515615Y17606705D01*
X16428261Y17723261D01*
X16311705Y17810615D01*
X16175316Y17861745D01*
X16113134Y17868500D01*
X15410371Y17868500D01*
X15342250Y17888502D01*
X15295757Y17942158D01*
X15285653Y18012432D01*
X15315147Y18077012D01*
X15321276Y18083595D01*
X16222176Y18984495D01*
X16284488Y19018521D01*
X16311271Y19021400D01*
X24761530Y19021400D01*
X24780480Y19019967D01*
G37*
%TD.AperFunction*%
%TA.AperFunction,NonConductor*%
G36*
X41606750Y23356498D02*
G01*
X41627724Y23339595D01*
X60723407Y4243912D01*
X60757433Y4181600D01*
X60752368Y4110785D01*
X60709821Y4053949D01*
X60660186Y4031502D01*
X60569514Y4012477D01*
X60569511Y4012476D01*
X60564287Y4011380D01*
X60347710Y3925850D01*
X60148641Y3805051D01*
X60144611Y3801554D01*
X60050075Y3719520D01*
X59972770Y3652439D01*
X59969387Y3648313D01*
X59969383Y3648309D01*
X59896262Y3559131D01*
X59825128Y3472376D01*
X59822490Y3467741D01*
X59822487Y3467737D01*
X59799155Y3426748D01*
X59748073Y3377442D01*
X59678442Y3363580D01*
X59612371Y3389563D01*
X59585133Y3418713D01*
X59517849Y3518653D01*
X59493196Y3555272D01*
X59332468Y3723758D01*
X59145650Y3862754D01*
X59018574Y3927363D01*
X58942842Y3965867D01*
X58942841Y3965867D01*
X58938084Y3968286D01*
X58805621Y4009417D01*
X58720807Y4035753D01*
X58720801Y4035754D01*
X58715704Y4037337D01*
X58590368Y4053949D01*
X58490152Y4067232D01*
X58490148Y4067232D01*
X58484868Y4067932D01*
X58479538Y4067732D01*
X58479537Y4067732D01*
X58368523Y4063565D01*
X58252178Y4059197D01*
X58227167Y4053949D01*
X58029514Y4012477D01*
X58029511Y4012476D01*
X58024287Y4011380D01*
X57807710Y3925850D01*
X57608641Y3805051D01*
X57604611Y3801554D01*
X57510075Y3719520D01*
X57432770Y3652439D01*
X57429387Y3648313D01*
X57429383Y3648309D01*
X57356262Y3559131D01*
X57285128Y3472376D01*
X57282490Y3467741D01*
X57282487Y3467737D01*
X57259155Y3426748D01*
X57208073Y3377442D01*
X57138442Y3363580D01*
X57072371Y3389563D01*
X57045133Y3418713D01*
X56977849Y3518653D01*
X56953196Y3555272D01*
X56792468Y3723758D01*
X56605650Y3862754D01*
X56478574Y3927363D01*
X56402842Y3965867D01*
X56402841Y3965867D01*
X56398084Y3968286D01*
X56265621Y4009417D01*
X56180807Y4035753D01*
X56180801Y4035754D01*
X56175704Y4037337D01*
X56050368Y4053949D01*
X55950152Y4067232D01*
X55950148Y4067232D01*
X55944868Y4067932D01*
X55939538Y4067732D01*
X55939537Y4067732D01*
X55828523Y4063565D01*
X55712178Y4059197D01*
X55687167Y4053949D01*
X55548563Y4024867D01*
X55477787Y4030454D01*
X55433594Y4059087D01*
X37077370Y22415311D01*
X37064984Y22429723D01*
X37056451Y22441318D01*
X37056446Y22441323D01*
X37052108Y22447218D01*
X37046530Y22451957D01*
X37046527Y22451960D01*
X37011832Y22481435D01*
X37004316Y22488365D01*
X36998621Y22494060D01*
X36992480Y22498918D01*
X36976349Y22511681D01*
X36972945Y22514472D01*
X36922897Y22556991D01*
X36922895Y22556992D01*
X36917315Y22561733D01*
X36910799Y22565061D01*
X36905750Y22568428D01*
X36900621Y22571595D01*
X36894884Y22576134D01*
X36828725Y22607055D01*
X36824825Y22608961D01*
X36759792Y22642169D01*
X36752684Y22643908D01*
X36747041Y22646007D01*
X36741278Y22647924D01*
X36734650Y22651022D01*
X36663183Y22665887D01*
X36658899Y22666857D01*
X36624558Y22675260D01*
X36587990Y22684208D01*
X36582388Y22684556D01*
X36582385Y22684556D01*
X36576836Y22684900D01*
X36576838Y22684936D01*
X36572845Y22685175D01*
X36568653Y22685549D01*
X36561485Y22687040D01*
X36497720Y22685315D01*
X36484079Y22684946D01*
X36480672Y22684900D01*
X22538763Y22684900D01*
X22519814Y22686333D01*
X22519607Y22686364D01*
X22498351Y22689598D01*
X22491059Y22689005D01*
X22491056Y22689005D01*
X22445691Y22685315D01*
X22435477Y22684900D01*
X22427407Y22684900D01*
X22423787Y22684478D01*
X22423769Y22684477D01*
X22399161Y22681608D01*
X22394800Y22681176D01*
X22369681Y22679133D01*
X22329361Y22675854D01*
X22329358Y22675853D01*
X22322063Y22675260D01*
X22315099Y22673004D01*
X22309140Y22671813D01*
X22303284Y22670429D01*
X22296019Y22669582D01*
X22289148Y22667088D01*
X22289140Y22667086D01*
X22274683Y22661838D01*
X22203825Y22657397D01*
X22141816Y22691970D01*
X22130867Y22704712D01*
X22058643Y22801080D01*
X22058642Y22801081D01*
X22053261Y22808261D01*
X21936705Y22895615D01*
X21924132Y22900328D01*
X21818203Y22940040D01*
X21761439Y22982682D01*
X21736739Y23049244D01*
X21751947Y23118592D01*
X21773493Y23147273D01*
X21874435Y23247863D01*
X21878096Y23251511D01*
X21930203Y23324026D01*
X21986198Y23367674D01*
X22032526Y23376500D01*
X41538629Y23376500D01*
X41606750Y23356498D01*
G37*
%TD.AperFunction*%
M02*
