%TF.GenerationSoftware,KiCad,Pcbnew,(6.0.5-0)*%
%TF.CreationDate,2022-05-20T22:36:50+09:00*%
%TF.ProjectId,esp32_internet_radio_v4,65737033-325f-4696-9e74-65726e65745f,rev?*%
%TF.SameCoordinates,PX69db1f0PY7882d48*%
%TF.FileFunction,Legend,Top*%
%TF.FilePolarity,Positive*%
%FSLAX46Y46*%
G04 Gerber Fmt 4.6, Leading zero omitted, Abs format (unit mm)*
G04 Created by KiCad (PCBNEW (6.0.5-0)) date 2022-05-20 22:36:50*
%MOMM*%
%LPD*%
G01*
G04 APERTURE LIST*
%TA.AperFunction,Profile*%
%ADD10C,0.150000*%
%TD*%
%ADD11C,0.150000*%
%ADD12C,0.120000*%
%ADD13O,1.727200X2.032000*%
%ADD14C,4.064000*%
G04 APERTURE END LIST*
D10*
X68580000Y37846000D02*
X66040000Y40386000D01*
X66040000Y0D02*
X66040000Y2540000D01*
X66040000Y51816000D02*
X64516000Y53340000D01*
X66040000Y2540000D02*
X68580000Y5080000D01*
X0Y53340000D02*
X0Y0D01*
X68580000Y5080000D02*
X68580000Y37846000D01*
X0Y0D02*
X66040000Y0D01*
X64516000Y53340000D02*
X0Y53340000D01*
X66040000Y40386000D02*
X66040000Y51816000D01*
D11*
X8072380Y13511786D02*
X8072380Y13035596D01*
X7072380Y13035596D01*
X7977142Y14416548D02*
X8024761Y14368929D01*
X8072380Y14226072D01*
X8072380Y14130834D01*
X8024761Y13987977D01*
X7929523Y13892739D01*
X7834285Y13845120D01*
X7643809Y13797500D01*
X7500952Y13797500D01*
X7310476Y13845120D01*
X7215238Y13892739D01*
X7120000Y13987977D01*
X7072380Y14130834D01*
X7072380Y14226072D01*
X7120000Y14368929D01*
X7167619Y14416548D01*
X8072380Y14845120D02*
X7072380Y14845120D01*
X8072380Y15416548D02*
X7500952Y14987977D01*
X7072380Y15416548D02*
X7643809Y14845120D01*
X49817976Y26265239D02*
X49960833Y26217620D01*
X50198928Y26217620D01*
X50294166Y26265239D01*
X50341785Y26312858D01*
X50389404Y26408096D01*
X50389404Y26503334D01*
X50341785Y26598572D01*
X50294166Y26646191D01*
X50198928Y26693810D01*
X50008452Y26741429D01*
X49913214Y26789048D01*
X49865595Y26836667D01*
X49817976Y26931905D01*
X49817976Y27027143D01*
X49865595Y27122381D01*
X49913214Y27170000D01*
X50008452Y27217620D01*
X50246547Y27217620D01*
X50389404Y27170000D01*
X50817976Y26217620D02*
X50817976Y27217620D01*
X51056071Y27217620D01*
X51198928Y27170000D01*
X51294166Y27074762D01*
X51341785Y26979524D01*
X51389404Y26789048D01*
X51389404Y26646191D01*
X51341785Y26455715D01*
X51294166Y26360477D01*
X51198928Y26265239D01*
X51056071Y26217620D01*
X50817976Y26217620D01*
X51770357Y26503334D02*
X52246547Y26503334D01*
X51675119Y26217620D02*
X52008452Y27217620D01*
X52341785Y26217620D01*
X52960833Y25836667D02*
X52913214Y25884286D01*
X52817976Y26027143D01*
X52770357Y26122381D01*
X52722738Y26265239D01*
X52675119Y26503334D01*
X52675119Y26693810D01*
X52722738Y26931905D01*
X52770357Y27074762D01*
X52817976Y27170000D01*
X52913214Y27312858D01*
X52960833Y27360477D01*
X53341785Y26217620D02*
X53341785Y27217620D01*
X53675119Y26503334D01*
X54008452Y27217620D01*
X54008452Y26217620D01*
X54675119Y27217620D02*
X54865595Y27217620D01*
X54960833Y27170000D01*
X55056071Y27074762D01*
X55103690Y26884286D01*
X55103690Y26550953D01*
X55056071Y26360477D01*
X54960833Y26265239D01*
X54865595Y26217620D01*
X54675119Y26217620D01*
X54579880Y26265239D01*
X54484642Y26360477D01*
X54437023Y26550953D01*
X54437023Y26884286D01*
X54484642Y27074762D01*
X54579880Y27170000D01*
X54675119Y27217620D01*
X55484642Y26265239D02*
X55627500Y26217620D01*
X55865595Y26217620D01*
X55960833Y26265239D01*
X56008452Y26312858D01*
X56056071Y26408096D01*
X56056071Y26503334D01*
X56008452Y26598572D01*
X55960833Y26646191D01*
X55865595Y26693810D01*
X55675119Y26741429D01*
X55579880Y26789048D01*
X55532261Y26836667D01*
X55484642Y26931905D01*
X55484642Y27027143D01*
X55532261Y27122381D01*
X55579880Y27170000D01*
X55675119Y27217620D01*
X55913214Y27217620D01*
X56056071Y27170000D01*
X56484642Y26217620D02*
X56484642Y27217620D01*
X56865595Y25836667D02*
X56913214Y25884286D01*
X57008452Y26027143D01*
X57056071Y26122381D01*
X57103690Y26265239D01*
X57151309Y26503334D01*
X57151309Y26693810D01*
X57103690Y26931905D01*
X57056071Y27074762D01*
X57008452Y27170000D01*
X56913214Y27312858D01*
X56865595Y27360477D01*
X43632380Y33355596D02*
X42632380Y33355596D01*
X43346666Y33688929D01*
X42632380Y34022262D01*
X43632380Y34022262D01*
X43632380Y34498453D02*
X42632380Y34498453D01*
X43584761Y34927024D02*
X43632380Y35069881D01*
X43632380Y35307977D01*
X43584761Y35403215D01*
X43537142Y35450834D01*
X43441904Y35498453D01*
X43346666Y35498453D01*
X43251428Y35450834D01*
X43203809Y35403215D01*
X43156190Y35307977D01*
X43108571Y35117500D01*
X43060952Y35022262D01*
X43013333Y34974643D01*
X42918095Y34927024D01*
X42822857Y34927024D01*
X42727619Y34974643D01*
X42680000Y35022262D01*
X42632380Y35117500D01*
X42632380Y35355596D01*
X42680000Y35498453D01*
X42632380Y36117500D02*
X42632380Y36307977D01*
X42680000Y36403215D01*
X42775238Y36498453D01*
X42965714Y36546072D01*
X43299047Y36546072D01*
X43489523Y36498453D01*
X43584761Y36403215D01*
X43632380Y36307977D01*
X43632380Y36117500D01*
X43584761Y36022262D01*
X43489523Y35927024D01*
X43299047Y35879405D01*
X42965714Y35879405D01*
X42775238Y35927024D01*
X42680000Y36022262D01*
X42632380Y36117500D01*
X44013333Y37260358D02*
X43965714Y37212739D01*
X43822857Y37117500D01*
X43727619Y37069881D01*
X43584761Y37022262D01*
X43346666Y36974643D01*
X43156190Y36974643D01*
X42918095Y37022262D01*
X42775238Y37069881D01*
X42680000Y37117500D01*
X42537142Y37212739D01*
X42489523Y37260358D01*
X43632380Y37641310D02*
X42632380Y37641310D01*
X43632380Y38212739D01*
X42632380Y38212739D01*
X43537142Y39260358D02*
X43584761Y39212739D01*
X43632380Y39069881D01*
X43632380Y38974643D01*
X43584761Y38831786D01*
X43489523Y38736548D01*
X43394285Y38688929D01*
X43203809Y38641310D01*
X43060952Y38641310D01*
X42870476Y38688929D01*
X42775238Y38736548D01*
X42680000Y38831786D01*
X42632380Y38974643D01*
X42632380Y39069881D01*
X42680000Y39212739D01*
X42727619Y39260358D01*
X44013333Y39593691D02*
X43965714Y39641310D01*
X43822857Y39736548D01*
X43727619Y39784167D01*
X43584761Y39831786D01*
X43346666Y39879405D01*
X43156190Y39879405D01*
X42918095Y39831786D01*
X42775238Y39784167D01*
X42680000Y39736548D01*
X42537142Y39641310D01*
X42489523Y39593691D01*
X56691785Y14517620D02*
X56215595Y14517620D01*
X56167976Y14041429D01*
X56215595Y14089048D01*
X56310833Y14136667D01*
X56548928Y14136667D01*
X56644166Y14089048D01*
X56691785Y14041429D01*
X56739404Y13946191D01*
X56739404Y13708096D01*
X56691785Y13612858D01*
X56644166Y13565239D01*
X56548928Y13517620D01*
X56310833Y13517620D01*
X56215595Y13565239D01*
X56167976Y13612858D01*
X57025119Y14517620D02*
X57358452Y13517620D01*
X57691785Y14517620D01*
X16000357Y29757620D02*
X16619404Y29757620D01*
X16286071Y29376667D01*
X16428928Y29376667D01*
X16524166Y29329048D01*
X16571785Y29281429D01*
X16619404Y29186191D01*
X16619404Y28948096D01*
X16571785Y28852858D01*
X16524166Y28805239D01*
X16428928Y28757620D01*
X16143214Y28757620D01*
X16047976Y28805239D01*
X16000357Y28852858D01*
X16905119Y29757620D02*
X17238452Y28757620D01*
X17571785Y29757620D01*
X17809880Y29757620D02*
X18428928Y29757620D01*
X18095595Y29376667D01*
X18238452Y29376667D01*
X18333690Y29329048D01*
X18381309Y29281429D01*
X18428928Y29186191D01*
X18428928Y28948096D01*
X18381309Y28852858D01*
X18333690Y28805239D01*
X18238452Y28757620D01*
X17952738Y28757620D01*
X17857500Y28805239D01*
X17809880Y28852858D01*
X31202380Y8921905D02*
X31202380Y9540953D01*
X31583333Y9207620D01*
X31583333Y9350477D01*
X31630952Y9445715D01*
X31678571Y9493334D01*
X31773809Y9540953D01*
X32011904Y9540953D01*
X32107142Y9493334D01*
X32154761Y9445715D01*
X32202380Y9350477D01*
X32202380Y9064762D01*
X32154761Y8969524D01*
X32107142Y8921905D01*
X31202380Y9826667D02*
X32202380Y10160000D01*
X31202380Y10493334D01*
X31202380Y10731429D02*
X31202380Y11350477D01*
X31583333Y11017143D01*
X31583333Y11160000D01*
X31630952Y11255239D01*
X31678571Y11302858D01*
X31773809Y11350477D01*
X32011904Y11350477D01*
X32107142Y11302858D01*
X32154761Y11255239D01*
X32202380Y11160000D01*
X32202380Y10874286D01*
X32154761Y10779048D01*
X32107142Y10731429D01*
X55469404Y11900000D02*
X55374166Y11947620D01*
X55231309Y11947620D01*
X55088452Y11900000D01*
X54993214Y11804762D01*
X54945595Y11709524D01*
X54897976Y11519048D01*
X54897976Y11376191D01*
X54945595Y11185715D01*
X54993214Y11090477D01*
X55088452Y10995239D01*
X55231309Y10947620D01*
X55326547Y10947620D01*
X55469404Y10995239D01*
X55517023Y11042858D01*
X55517023Y11376191D01*
X55326547Y11376191D01*
X55945595Y10947620D02*
X55945595Y11947620D01*
X56517023Y10947620D01*
X56517023Y11947620D01*
X56993214Y10947620D02*
X56993214Y11947620D01*
X57231309Y11947620D01*
X57374166Y11900000D01*
X57469404Y11804762D01*
X57517023Y11709524D01*
X57564642Y11519048D01*
X57564642Y11376191D01*
X57517023Y11185715D01*
X57469404Y11090477D01*
X57374166Y10995239D01*
X57231309Y10947620D01*
X56993214Y10947620D01*
X55517023Y23677620D02*
X55183690Y24153810D01*
X54945595Y23677620D02*
X54945595Y24677620D01*
X55326547Y24677620D01*
X55421785Y24630000D01*
X55469404Y24582381D01*
X55517023Y24487143D01*
X55517023Y24344286D01*
X55469404Y24249048D01*
X55421785Y24201429D01*
X55326547Y24153810D01*
X54945595Y24153810D01*
X55945595Y24201429D02*
X56278928Y24201429D01*
X56421785Y23677620D02*
X55945595Y23677620D01*
X55945595Y24677620D01*
X56421785Y24677620D01*
X56802738Y23725239D02*
X56945595Y23677620D01*
X57183690Y23677620D01*
X57278928Y23725239D01*
X57326547Y23772858D01*
X57374166Y23868096D01*
X57374166Y23963334D01*
X57326547Y24058572D01*
X57278928Y24106191D01*
X57183690Y24153810D01*
X56993214Y24201429D01*
X56897976Y24249048D01*
X56850357Y24296667D01*
X56802738Y24391905D01*
X56802738Y24487143D01*
X56850357Y24582381D01*
X56897976Y24630000D01*
X56993214Y24677620D01*
X57231309Y24677620D01*
X57374166Y24630000D01*
X38552380Y9572858D02*
X37552380Y9572858D01*
X37552380Y10239524D02*
X37552380Y10430000D01*
X37600000Y10525239D01*
X37695238Y10620477D01*
X37885714Y10668096D01*
X38219047Y10668096D01*
X38409523Y10620477D01*
X38504761Y10525239D01*
X38552380Y10430000D01*
X38552380Y10239524D01*
X38504761Y10144286D01*
X38409523Y10049048D01*
X38219047Y10001429D01*
X37885714Y10001429D01*
X37695238Y10049048D01*
X37600000Y10144286D01*
X37552380Y10239524D01*
X38647619Y10858572D02*
X38647619Y11620477D01*
X37552380Y11763334D02*
X37552380Y12382381D01*
X37933333Y12049048D01*
X37933333Y12191905D01*
X37980952Y12287143D01*
X38028571Y12334762D01*
X38123809Y12382381D01*
X38361904Y12382381D01*
X38457142Y12334762D01*
X38504761Y12287143D01*
X38552380Y12191905D01*
X38552380Y11906191D01*
X38504761Y11810953D01*
X38457142Y11763334D01*
X37552380Y12715715D02*
X37552380Y13334762D01*
X37933333Y13001429D01*
X37933333Y13144286D01*
X37980952Y13239524D01*
X38028571Y13287143D01*
X38123809Y13334762D01*
X38361904Y13334762D01*
X38457142Y13287143D01*
X38504761Y13239524D01*
X38552380Y13144286D01*
X38552380Y12858572D01*
X38504761Y12763334D01*
X38457142Y12715715D01*
X51252380Y37165596D02*
X50252380Y37165596D01*
X50966666Y37498929D01*
X50252380Y37832262D01*
X51252380Y37832262D01*
X50252380Y38498929D02*
X50252380Y38689405D01*
X50300000Y38784643D01*
X50395238Y38879881D01*
X50585714Y38927500D01*
X50919047Y38927500D01*
X51109523Y38879881D01*
X51204761Y38784643D01*
X51252380Y38689405D01*
X51252380Y38498929D01*
X51204761Y38403691D01*
X51109523Y38308453D01*
X50919047Y38260834D01*
X50585714Y38260834D01*
X50395238Y38308453D01*
X50300000Y38403691D01*
X50252380Y38498929D01*
X51204761Y39308453D02*
X51252380Y39451310D01*
X51252380Y39689405D01*
X51204761Y39784643D01*
X51157142Y39832262D01*
X51061904Y39879881D01*
X50966666Y39879881D01*
X50871428Y39832262D01*
X50823809Y39784643D01*
X50776190Y39689405D01*
X50728571Y39498929D01*
X50680952Y39403691D01*
X50633333Y39356072D01*
X50538095Y39308453D01*
X50442857Y39308453D01*
X50347619Y39356072D01*
X50300000Y39403691D01*
X50252380Y39498929D01*
X50252380Y39737024D01*
X50300000Y39879881D01*
X51252380Y40308453D02*
X50252380Y40308453D01*
X56332380Y37737024D02*
X55856190Y37403691D01*
X56332380Y37165596D02*
X55332380Y37165596D01*
X55332380Y37546548D01*
X55380000Y37641786D01*
X55427619Y37689405D01*
X55522857Y37737024D01*
X55665714Y37737024D01*
X55760952Y37689405D01*
X55808571Y37641786D01*
X55856190Y37546548D01*
X55856190Y37165596D01*
X55808571Y38165596D02*
X55808571Y38498929D01*
X56332380Y38641786D02*
X56332380Y38165596D01*
X55332380Y38165596D01*
X55332380Y38641786D01*
X56284761Y39022739D02*
X56332380Y39165596D01*
X56332380Y39403691D01*
X56284761Y39498929D01*
X56237142Y39546548D01*
X56141904Y39594167D01*
X56046666Y39594167D01*
X55951428Y39546548D01*
X55903809Y39498929D01*
X55856190Y39403691D01*
X55808571Y39213215D01*
X55760952Y39117977D01*
X55713333Y39070358D01*
X55618095Y39022739D01*
X55522857Y39022739D01*
X55427619Y39070358D01*
X55380000Y39117977D01*
X55332380Y39213215D01*
X55332380Y39451310D01*
X55380000Y39594167D01*
X55808571Y40022739D02*
X55808571Y40356072D01*
X56332380Y40498929D02*
X56332380Y40022739D01*
X55332380Y40022739D01*
X55332380Y40498929D01*
X55332380Y40784643D02*
X55332380Y41356072D01*
X56332380Y41070358D02*
X55332380Y41070358D01*
X16619404Y32250000D02*
X16524166Y32297620D01*
X16381309Y32297620D01*
X16238452Y32250000D01*
X16143214Y32154762D01*
X16095595Y32059524D01*
X16047976Y31869048D01*
X16047976Y31726191D01*
X16095595Y31535715D01*
X16143214Y31440477D01*
X16238452Y31345239D01*
X16381309Y31297620D01*
X16476547Y31297620D01*
X16619404Y31345239D01*
X16667023Y31392858D01*
X16667023Y31726191D01*
X16476547Y31726191D01*
X17095595Y31297620D02*
X17095595Y32297620D01*
X17667023Y31297620D01*
X17667023Y32297620D01*
X18143214Y31297620D02*
X18143214Y32297620D01*
X18381309Y32297620D01*
X18524166Y32250000D01*
X18619404Y32154762D01*
X18667023Y32059524D01*
X18714642Y31869048D01*
X18714642Y31726191D01*
X18667023Y31535715D01*
X18619404Y31440477D01*
X18524166Y31345239D01*
X18381309Y31297620D01*
X18143214Y31297620D01*
X54897976Y28805239D02*
X55040833Y28757620D01*
X55278928Y28757620D01*
X55374166Y28805239D01*
X55421785Y28852858D01*
X55469404Y28948096D01*
X55469404Y29043334D01*
X55421785Y29138572D01*
X55374166Y29186191D01*
X55278928Y29233810D01*
X55088452Y29281429D01*
X54993214Y29329048D01*
X54945595Y29376667D01*
X54897976Y29471905D01*
X54897976Y29567143D01*
X54945595Y29662381D01*
X54993214Y29710000D01*
X55088452Y29757620D01*
X55326547Y29757620D01*
X55469404Y29710000D01*
X56469404Y28852858D02*
X56421785Y28805239D01*
X56278928Y28757620D01*
X56183690Y28757620D01*
X56040833Y28805239D01*
X55945595Y28900477D01*
X55897976Y28995715D01*
X55850357Y29186191D01*
X55850357Y29329048D01*
X55897976Y29519524D01*
X55945595Y29614762D01*
X56040833Y29710000D01*
X56183690Y29757620D01*
X56278928Y29757620D01*
X56421785Y29710000D01*
X56469404Y29662381D01*
X56897976Y28757620D02*
X56897976Y29757620D01*
X57469404Y28757620D02*
X57040833Y29329048D01*
X57469404Y29757620D02*
X56897976Y29186191D01*
X24852380Y38911786D02*
X24852380Y38435596D01*
X25328571Y38387977D01*
X25280952Y38435596D01*
X25233333Y38530834D01*
X25233333Y38768929D01*
X25280952Y38864167D01*
X25328571Y38911786D01*
X25423809Y38959405D01*
X25661904Y38959405D01*
X25757142Y38911786D01*
X25804761Y38864167D01*
X25852380Y38768929D01*
X25852380Y38530834D01*
X25804761Y38435596D01*
X25757142Y38387977D01*
X24852380Y39245120D02*
X25852380Y39578453D01*
X24852380Y39911786D01*
X1992380Y12940358D02*
X1992380Y13559405D01*
X2373333Y13226072D01*
X2373333Y13368929D01*
X2420952Y13464167D01*
X2468571Y13511786D01*
X2563809Y13559405D01*
X2801904Y13559405D01*
X2897142Y13511786D01*
X2944761Y13464167D01*
X2992380Y13368929D01*
X2992380Y13083215D01*
X2944761Y12987977D01*
X2897142Y12940358D01*
X1992380Y13845120D02*
X2992380Y14178453D01*
X1992380Y14511786D01*
X1992380Y14749881D02*
X1992380Y15368929D01*
X2373333Y15035596D01*
X2373333Y15178453D01*
X2420952Y15273691D01*
X2468571Y15321310D01*
X2563809Y15368929D01*
X2801904Y15368929D01*
X2897142Y15321310D01*
X2944761Y15273691D01*
X2992380Y15178453D01*
X2992380Y14892739D01*
X2944761Y14797500D01*
X2897142Y14749881D01*
X12628571Y13368929D02*
X12676190Y13511786D01*
X12723809Y13559405D01*
X12819047Y13607024D01*
X12961904Y13607024D01*
X13057142Y13559405D01*
X13104761Y13511786D01*
X13152380Y13416548D01*
X13152380Y13035596D01*
X12152380Y13035596D01*
X12152380Y13368929D01*
X12200000Y13464167D01*
X12247619Y13511786D01*
X12342857Y13559405D01*
X12438095Y13559405D01*
X12533333Y13511786D01*
X12580952Y13464167D01*
X12628571Y13368929D01*
X12628571Y13035596D01*
X13057142Y14607024D02*
X13104761Y14559405D01*
X13152380Y14416548D01*
X13152380Y14321310D01*
X13104761Y14178453D01*
X13009523Y14083215D01*
X12914285Y14035596D01*
X12723809Y13987977D01*
X12580952Y13987977D01*
X12390476Y14035596D01*
X12295238Y14083215D01*
X12200000Y14178453D01*
X12152380Y14321310D01*
X12152380Y14416548D01*
X12200000Y14559405D01*
X12247619Y14607024D01*
X13152380Y15035596D02*
X12152380Y15035596D01*
X13152380Y15607024D02*
X12580952Y15178453D01*
X12152380Y15607024D02*
X12723809Y15035596D01*
X48664761Y37117977D02*
X48712380Y37260834D01*
X48712380Y37498929D01*
X48664761Y37594167D01*
X48617142Y37641786D01*
X48521904Y37689405D01*
X48426666Y37689405D01*
X48331428Y37641786D01*
X48283809Y37594167D01*
X48236190Y37498929D01*
X48188571Y37308453D01*
X48140952Y37213215D01*
X48093333Y37165596D01*
X47998095Y37117977D01*
X47902857Y37117977D01*
X47807619Y37165596D01*
X47760000Y37213215D01*
X47712380Y37308453D01*
X47712380Y37546548D01*
X47760000Y37689405D01*
X48617142Y38689405D02*
X48664761Y38641786D01*
X48712380Y38498929D01*
X48712380Y38403691D01*
X48664761Y38260834D01*
X48569523Y38165596D01*
X48474285Y38117977D01*
X48283809Y38070358D01*
X48140952Y38070358D01*
X47950476Y38117977D01*
X47855238Y38165596D01*
X47760000Y38260834D01*
X47712380Y38403691D01*
X47712380Y38498929D01*
X47760000Y38641786D01*
X47807619Y38689405D01*
X48712380Y39117977D02*
X47712380Y39117977D01*
X48712380Y39689405D02*
X48140952Y39260834D01*
X47712380Y39689405D02*
X48283809Y39117977D01*
X41092380Y9572858D02*
X40092380Y9572858D01*
X40092380Y10239524D02*
X40092380Y10430000D01*
X40140000Y10525239D01*
X40235238Y10620477D01*
X40425714Y10668096D01*
X40759047Y10668096D01*
X40949523Y10620477D01*
X41044761Y10525239D01*
X41092380Y10430000D01*
X41092380Y10239524D01*
X41044761Y10144286D01*
X40949523Y10049048D01*
X40759047Y10001429D01*
X40425714Y10001429D01*
X40235238Y10049048D01*
X40140000Y10144286D01*
X40092380Y10239524D01*
X41187619Y10858572D02*
X41187619Y11620477D01*
X40092380Y11763334D02*
X40092380Y12382381D01*
X40473333Y12049048D01*
X40473333Y12191905D01*
X40520952Y12287143D01*
X40568571Y12334762D01*
X40663809Y12382381D01*
X40901904Y12382381D01*
X40997142Y12334762D01*
X41044761Y12287143D01*
X41092380Y12191905D01*
X41092380Y11906191D01*
X41044761Y11810953D01*
X40997142Y11763334D01*
X40187619Y12763334D02*
X40140000Y12810953D01*
X40092380Y12906191D01*
X40092380Y13144286D01*
X40140000Y13239524D01*
X40187619Y13287143D01*
X40282857Y13334762D01*
X40378095Y13334762D01*
X40520952Y13287143D01*
X41092380Y12715715D01*
X41092380Y13334762D01*
X16667023Y21232858D02*
X16619404Y21185239D01*
X16476547Y21137620D01*
X16381309Y21137620D01*
X16238452Y21185239D01*
X16143214Y21280477D01*
X16095595Y21375715D01*
X16047976Y21566191D01*
X16047976Y21709048D01*
X16095595Y21899524D01*
X16143214Y21994762D01*
X16238452Y22090000D01*
X16381309Y22137620D01*
X16476547Y22137620D01*
X16619404Y22090000D01*
X16667023Y22042381D01*
X17571785Y21137620D02*
X17095595Y21137620D01*
X17095595Y22137620D01*
X17905119Y21137620D02*
X17905119Y22137620D01*
X18476547Y21137620D02*
X18047976Y21709048D01*
X18476547Y22137620D02*
X17905119Y21566191D01*
X15644761Y12987977D02*
X15692380Y13130834D01*
X15692380Y13368929D01*
X15644761Y13464167D01*
X15597142Y13511786D01*
X15501904Y13559405D01*
X15406666Y13559405D01*
X15311428Y13511786D01*
X15263809Y13464167D01*
X15216190Y13368929D01*
X15168571Y13178453D01*
X15120952Y13083215D01*
X15073333Y13035596D01*
X14978095Y12987977D01*
X14882857Y12987977D01*
X14787619Y13035596D01*
X14740000Y13083215D01*
X14692380Y13178453D01*
X14692380Y13416548D01*
X14740000Y13559405D01*
X15597142Y14559405D02*
X15644761Y14511786D01*
X15692380Y14368929D01*
X15692380Y14273691D01*
X15644761Y14130834D01*
X15549523Y14035596D01*
X15454285Y13987977D01*
X15263809Y13940358D01*
X15120952Y13940358D01*
X14930476Y13987977D01*
X14835238Y14035596D01*
X14740000Y14130834D01*
X14692380Y14273691D01*
X14692380Y14368929D01*
X14740000Y14511786D01*
X14787619Y14559405D01*
X15692380Y14987977D02*
X14692380Y14987977D01*
X15692380Y15559405D02*
X15120952Y15130834D01*
X14692380Y15559405D02*
X15263809Y14987977D01*
X55469404Y34790000D02*
X55374166Y34837620D01*
X55231309Y34837620D01*
X55088452Y34790000D01*
X54993214Y34694762D01*
X54945595Y34599524D01*
X54897976Y34409048D01*
X54897976Y34266191D01*
X54945595Y34075715D01*
X54993214Y33980477D01*
X55088452Y33885239D01*
X55231309Y33837620D01*
X55326547Y33837620D01*
X55469404Y33885239D01*
X55517023Y33932858D01*
X55517023Y34266191D01*
X55326547Y34266191D01*
X55945595Y33837620D02*
X55945595Y34837620D01*
X56517023Y33837620D01*
X56517023Y34837620D01*
X56993214Y33837620D02*
X56993214Y34837620D01*
X57231309Y34837620D01*
X57374166Y34790000D01*
X57469404Y34694762D01*
X57517023Y34599524D01*
X57564642Y34409048D01*
X57564642Y34266191D01*
X57517023Y34075715D01*
X57469404Y33980477D01*
X57374166Y33885239D01*
X57231309Y33837620D01*
X56993214Y33837620D01*
X54850357Y32297620D02*
X55469404Y32297620D01*
X55136071Y31916667D01*
X55278928Y31916667D01*
X55374166Y31869048D01*
X55421785Y31821429D01*
X55469404Y31726191D01*
X55469404Y31488096D01*
X55421785Y31392858D01*
X55374166Y31345239D01*
X55278928Y31297620D01*
X54993214Y31297620D01*
X54897976Y31345239D01*
X54850357Y31392858D01*
X55755119Y32297620D02*
X56088452Y31297620D01*
X56421785Y32297620D01*
X56659880Y32297620D02*
X57278928Y32297620D01*
X56945595Y31916667D01*
X57088452Y31916667D01*
X57183690Y31869048D01*
X57231309Y31821429D01*
X57278928Y31726191D01*
X57278928Y31488096D01*
X57231309Y31392858D01*
X57183690Y31345239D01*
X57088452Y31297620D01*
X56802738Y31297620D01*
X56707500Y31345239D01*
X56659880Y31392858D01*
X45172380Y37070358D02*
X45172380Y37689405D01*
X45553333Y37356072D01*
X45553333Y37498929D01*
X45600952Y37594167D01*
X45648571Y37641786D01*
X45743809Y37689405D01*
X45981904Y37689405D01*
X46077142Y37641786D01*
X46124761Y37594167D01*
X46172380Y37498929D01*
X46172380Y37213215D01*
X46124761Y37117977D01*
X46077142Y37070358D01*
X45172380Y37975120D02*
X46172380Y38308453D01*
X45172380Y38641786D01*
X45172380Y38879881D02*
X45172380Y39498929D01*
X45553333Y39165596D01*
X45553333Y39308453D01*
X45600952Y39403691D01*
X45648571Y39451310D01*
X45743809Y39498929D01*
X45981904Y39498929D01*
X46077142Y39451310D01*
X46124761Y39403691D01*
X46172380Y39308453D01*
X46172380Y39022739D01*
X46124761Y38927500D01*
X46077142Y38879881D01*
X58777142Y37737024D02*
X58824761Y37689405D01*
X58872380Y37546548D01*
X58872380Y37451310D01*
X58824761Y37308453D01*
X58729523Y37213215D01*
X58634285Y37165596D01*
X58443809Y37117977D01*
X58300952Y37117977D01*
X58110476Y37165596D01*
X58015238Y37213215D01*
X57920000Y37308453D01*
X57872380Y37451310D01*
X57872380Y37546548D01*
X57920000Y37689405D01*
X57967619Y37737024D01*
X58824761Y38117977D02*
X58872380Y38260834D01*
X58872380Y38498929D01*
X58824761Y38594167D01*
X58777142Y38641786D01*
X58681904Y38689405D01*
X58586666Y38689405D01*
X58491428Y38641786D01*
X58443809Y38594167D01*
X58396190Y38498929D01*
X58348571Y38308453D01*
X58300952Y38213215D01*
X58253333Y38165596D01*
X58158095Y38117977D01*
X58062857Y38117977D01*
X57967619Y38165596D01*
X57920000Y38213215D01*
X57872380Y38308453D01*
X57872380Y38546548D01*
X57920000Y38689405D01*
X62952380Y37070358D02*
X62952380Y37689405D01*
X63333333Y37356072D01*
X63333333Y37498929D01*
X63380952Y37594167D01*
X63428571Y37641786D01*
X63523809Y37689405D01*
X63761904Y37689405D01*
X63857142Y37641786D01*
X63904761Y37594167D01*
X63952380Y37498929D01*
X63952380Y37213215D01*
X63904761Y37117977D01*
X63857142Y37070358D01*
X62952380Y37975120D02*
X63952380Y38308453D01*
X62952380Y38641786D01*
X62952380Y38879881D02*
X62952380Y39498929D01*
X63333333Y39165596D01*
X63333333Y39308453D01*
X63380952Y39403691D01*
X63428571Y39451310D01*
X63523809Y39498929D01*
X63761904Y39498929D01*
X63857142Y39451310D01*
X63904761Y39403691D01*
X63952380Y39308453D01*
X63952380Y39022739D01*
X63904761Y38927500D01*
X63857142Y38879881D01*
X4580000Y13559405D02*
X4532380Y13464167D01*
X4532380Y13321310D01*
X4580000Y13178453D01*
X4675238Y13083215D01*
X4770476Y13035596D01*
X4960952Y12987977D01*
X5103809Y12987977D01*
X5294285Y13035596D01*
X5389523Y13083215D01*
X5484761Y13178453D01*
X5532380Y13321310D01*
X5532380Y13416548D01*
X5484761Y13559405D01*
X5437142Y13607024D01*
X5103809Y13607024D01*
X5103809Y13416548D01*
X5532380Y14035596D02*
X4532380Y14035596D01*
X5532380Y14607024D01*
X4532380Y14607024D01*
X5532380Y15083215D02*
X4532380Y15083215D01*
X4532380Y15321310D01*
X4580000Y15464167D01*
X4675238Y15559405D01*
X4770476Y15607024D01*
X4960952Y15654643D01*
X5103809Y15654643D01*
X5294285Y15607024D01*
X5389523Y15559405D01*
X5484761Y15464167D01*
X5532380Y15321310D01*
X5532380Y15083215D01*
X15952738Y24677620D02*
X16524166Y24677620D01*
X16238452Y23677620D02*
X16238452Y24677620D01*
X16857500Y23677620D02*
X16857500Y24677620D01*
X17095595Y24677620D01*
X17238452Y24630000D01*
X17333690Y24534762D01*
X17381309Y24439524D01*
X17428928Y24249048D01*
X17428928Y24106191D01*
X17381309Y23915715D01*
X17333690Y23820477D01*
X17238452Y23725239D01*
X17095595Y23677620D01*
X16857500Y23677620D01*
X36012380Y9572858D02*
X35012380Y9572858D01*
X35012380Y10239524D02*
X35012380Y10430000D01*
X35060000Y10525239D01*
X35155238Y10620477D01*
X35345714Y10668096D01*
X35679047Y10668096D01*
X35869523Y10620477D01*
X35964761Y10525239D01*
X36012380Y10430000D01*
X36012380Y10239524D01*
X35964761Y10144286D01*
X35869523Y10049048D01*
X35679047Y10001429D01*
X35345714Y10001429D01*
X35155238Y10049048D01*
X35060000Y10144286D01*
X35012380Y10239524D01*
X36107619Y10858572D02*
X36107619Y11620477D01*
X36012380Y12382381D02*
X36012380Y11810953D01*
X36012380Y12096667D02*
X35012380Y12096667D01*
X35155238Y12001429D01*
X35250476Y11906191D01*
X35298095Y11810953D01*
X35012380Y13287143D02*
X35012380Y12810953D01*
X35488571Y12763334D01*
X35440952Y12810953D01*
X35393333Y12906191D01*
X35393333Y13144286D01*
X35440952Y13239524D01*
X35488571Y13287143D01*
X35583809Y13334762D01*
X35821904Y13334762D01*
X35917142Y13287143D01*
X35964761Y13239524D01*
X36012380Y13144286D01*
X36012380Y12906191D01*
X35964761Y12810953D01*
X35917142Y12763334D01*
X54945595Y21137620D02*
X54945595Y22137620D01*
X55183690Y22137620D01*
X55326547Y22090000D01*
X55421785Y21994762D01*
X55469404Y21899524D01*
X55517023Y21709048D01*
X55517023Y21566191D01*
X55469404Y21375715D01*
X55421785Y21280477D01*
X55326547Y21185239D01*
X55183690Y21137620D01*
X54945595Y21137620D01*
X56517023Y21232858D02*
X56469404Y21185239D01*
X56326547Y21137620D01*
X56231309Y21137620D01*
X56088452Y21185239D01*
X55993214Y21280477D01*
X55945595Y21375715D01*
X55897976Y21566191D01*
X55897976Y21709048D01*
X55945595Y21899524D01*
X55993214Y21994762D01*
X56088452Y22090000D01*
X56231309Y22137620D01*
X56326547Y22137620D01*
X56469404Y22090000D01*
X56517023Y22042381D01*
X10612380Y13035596D02*
X9612380Y13035596D01*
X9612380Y13273691D01*
X9660000Y13416548D01*
X9755238Y13511786D01*
X9850476Y13559405D01*
X10040952Y13607024D01*
X10183809Y13607024D01*
X10374285Y13559405D01*
X10469523Y13511786D01*
X10564761Y13416548D01*
X10612380Y13273691D01*
X10612380Y13035596D01*
X10612380Y14035596D02*
X9612380Y14035596D01*
X10612380Y14511786D02*
X9612380Y14511786D01*
X10612380Y15083215D01*
X9612380Y15083215D01*
X28392380Y5365715D02*
X28392380Y4794286D01*
X28392380Y5080000D02*
X27392380Y5080000D01*
X27535238Y4984762D01*
X27630476Y4889524D01*
X27678095Y4794286D01*
X60460000Y37689405D02*
X60412380Y37594167D01*
X60412380Y37451310D01*
X60460000Y37308453D01*
X60555238Y37213215D01*
X60650476Y37165596D01*
X60840952Y37117977D01*
X60983809Y37117977D01*
X61174285Y37165596D01*
X61269523Y37213215D01*
X61364761Y37308453D01*
X61412380Y37451310D01*
X61412380Y37546548D01*
X61364761Y37689405D01*
X61317142Y37737024D01*
X60983809Y37737024D01*
X60983809Y37546548D01*
X61412380Y38165596D02*
X60412380Y38165596D01*
X61412380Y38737024D01*
X60412380Y38737024D01*
X61412380Y39213215D02*
X60412380Y39213215D01*
X60412380Y39451310D01*
X60460000Y39594167D01*
X60555238Y39689405D01*
X60650476Y39737024D01*
X60840952Y39784643D01*
X60983809Y39784643D01*
X61174285Y39737024D01*
X61269523Y39689405D01*
X61364761Y39594167D01*
X61412380Y39451310D01*
X61412380Y39213215D01*
X23312380Y38435596D02*
X22312380Y38435596D01*
X22312380Y38673691D01*
X22360000Y38816548D01*
X22455238Y38911786D01*
X22550476Y38959405D01*
X22740952Y39007024D01*
X22883809Y39007024D01*
X23074285Y38959405D01*
X23169523Y38911786D01*
X23264761Y38816548D01*
X23312380Y38673691D01*
X23312380Y38435596D01*
X23312380Y39435596D02*
X22312380Y39435596D01*
X23312380Y39911786D02*
X22312380Y39911786D01*
X23312380Y40483215D01*
X22312380Y40483215D01*
X19820000Y38959405D02*
X19772380Y38864167D01*
X19772380Y38721310D01*
X19820000Y38578453D01*
X19915238Y38483215D01*
X20010476Y38435596D01*
X20200952Y38387977D01*
X20343809Y38387977D01*
X20534285Y38435596D01*
X20629523Y38483215D01*
X20724761Y38578453D01*
X20772380Y38721310D01*
X20772380Y38816548D01*
X20724761Y38959405D01*
X20677142Y39007024D01*
X20343809Y39007024D01*
X20343809Y38816548D01*
X20772380Y39435596D02*
X19772380Y39435596D01*
X20772380Y40007024D01*
X19772380Y40007024D01*
X20772380Y40483215D02*
X19772380Y40483215D01*
X19772380Y40721310D01*
X19820000Y40864167D01*
X19915238Y40959405D01*
X20010476Y41007024D01*
X20200952Y41054643D01*
X20343809Y41054643D01*
X20534285Y41007024D01*
X20629523Y40959405D01*
X20724761Y40864167D01*
X20772380Y40721310D01*
X20772380Y40483215D01*
X16047976Y26265239D02*
X16190833Y26217620D01*
X16428928Y26217620D01*
X16524166Y26265239D01*
X16571785Y26312858D01*
X16619404Y26408096D01*
X16619404Y26503334D01*
X16571785Y26598572D01*
X16524166Y26646191D01*
X16428928Y26693810D01*
X16238452Y26741429D01*
X16143214Y26789048D01*
X16095595Y26836667D01*
X16047976Y26931905D01*
X16047976Y27027143D01*
X16095595Y27122381D01*
X16143214Y27170000D01*
X16238452Y27217620D01*
X16476547Y27217620D01*
X16619404Y27170000D01*
X16952738Y27217620D02*
X17190833Y26217620D01*
X17381309Y26931905D01*
X17571785Y26217620D01*
X17809880Y27217620D01*
X51468928Y19121429D02*
X51611785Y19073810D01*
X51659404Y19026191D01*
X51707023Y18930953D01*
X51707023Y18788096D01*
X51659404Y18692858D01*
X51611785Y18645239D01*
X51516547Y18597620D01*
X51135595Y18597620D01*
X51135595Y19597620D01*
X51468928Y19597620D01*
X51564166Y19550000D01*
X51611785Y19502381D01*
X51659404Y19407143D01*
X51659404Y19311905D01*
X51611785Y19216667D01*
X51564166Y19169048D01*
X51468928Y19121429D01*
X51135595Y19121429D01*
X52611785Y18597620D02*
X52135595Y18597620D01*
X52135595Y19597620D01*
X52945119Y18597620D02*
X52945119Y19597620D01*
X53516547Y18597620D02*
X53087976Y19169048D01*
X53516547Y19597620D02*
X52945119Y19026191D01*
X54230833Y18216667D02*
X54183214Y18264286D01*
X54087976Y18407143D01*
X54040357Y18502381D01*
X53992738Y18645239D01*
X53945119Y18883334D01*
X53945119Y19073810D01*
X53992738Y19311905D01*
X54040357Y19454762D01*
X54087976Y19550000D01*
X54183214Y19692858D01*
X54230833Y19740477D01*
X54611785Y18597620D02*
X54611785Y19597620D01*
X55183214Y18597620D01*
X55183214Y19597620D01*
X56230833Y18692858D02*
X56183214Y18645239D01*
X56040357Y18597620D01*
X55945119Y18597620D01*
X55802261Y18645239D01*
X55707023Y18740477D01*
X55659404Y18835715D01*
X55611785Y19026191D01*
X55611785Y19169048D01*
X55659404Y19359524D01*
X55707023Y19454762D01*
X55802261Y19550000D01*
X55945119Y19597620D01*
X56040357Y19597620D01*
X56183214Y19550000D01*
X56230833Y19502381D01*
X56564166Y18216667D02*
X56611785Y18264286D01*
X56707023Y18407143D01*
X56754642Y18502381D01*
X56802261Y18645239D01*
X56849880Y18883334D01*
X56849880Y19073810D01*
X56802261Y19311905D01*
X56754642Y19454762D01*
X56707023Y19550000D01*
X56611785Y19692858D01*
X56564166Y19740477D01*
X53792380Y37165596D02*
X52792380Y37165596D01*
X52792380Y37403691D01*
X52840000Y37546548D01*
X52935238Y37641786D01*
X53030476Y37689405D01*
X53220952Y37737024D01*
X53363809Y37737024D01*
X53554285Y37689405D01*
X53649523Y37641786D01*
X53744761Y37546548D01*
X53792380Y37403691D01*
X53792380Y37165596D01*
X53697142Y38737024D02*
X53744761Y38689405D01*
X53792380Y38546548D01*
X53792380Y38451310D01*
X53744761Y38308453D01*
X53649523Y38213215D01*
X53554285Y38165596D01*
X53363809Y38117977D01*
X53220952Y38117977D01*
X53030476Y38165596D01*
X52935238Y38213215D01*
X52840000Y38308453D01*
X52792380Y38451310D01*
X52792380Y38546548D01*
X52840000Y38689405D01*
X52887619Y38737024D01*
%TO.C,J1*%
X20506666Y19812620D02*
X20506666Y19098334D01*
X20459047Y18955477D01*
X20363809Y18860239D01*
X20220952Y18812620D01*
X20125714Y18812620D01*
X21506666Y18812620D02*
X20935238Y18812620D01*
X21220952Y18812620D02*
X21220952Y19812620D01*
X21125714Y19669762D01*
X21030476Y19574524D01*
X20935238Y19526905D01*
%TO.C,P3*%
X29487904Y47553620D02*
X29487904Y48553620D01*
X29868857Y48553620D01*
X29964095Y48506000D01*
X30011714Y48458381D01*
X30059333Y48363143D01*
X30059333Y48220286D01*
X30011714Y48125048D01*
X29964095Y48077429D01*
X29868857Y48029810D01*
X29487904Y48029810D01*
X30392666Y48553620D02*
X31011714Y48553620D01*
X30678380Y48172667D01*
X30821238Y48172667D01*
X30916476Y48125048D01*
X30964095Y48077429D01*
X31011714Y47982191D01*
X31011714Y47744096D01*
X30964095Y47648858D01*
X30916476Y47601239D01*
X30821238Y47553620D01*
X30535523Y47553620D01*
X30440285Y47601239D01*
X30392666Y47648858D01*
%TO.C,R1*%
X25233333Y4797620D02*
X24900000Y5273810D01*
X24661904Y4797620D02*
X24661904Y5797620D01*
X25042857Y5797620D01*
X25138095Y5750000D01*
X25185714Y5702381D01*
X25233333Y5607143D01*
X25233333Y5464286D01*
X25185714Y5369048D01*
X25138095Y5321429D01*
X25042857Y5273810D01*
X24661904Y5273810D01*
X26185714Y4797620D02*
X25614285Y4797620D01*
X25900000Y4797620D02*
X25900000Y5797620D01*
X25804761Y5654762D01*
X25709523Y5559524D01*
X25614285Y5511905D01*
%TO.C,J6*%
X17437380Y16176667D02*
X18151666Y16176667D01*
X18294523Y16129048D01*
X18389761Y16033810D01*
X18437380Y15890953D01*
X18437380Y15795715D01*
X17437380Y17081429D02*
X17437380Y16890953D01*
X17485000Y16795715D01*
X17532619Y16748096D01*
X17675476Y16652858D01*
X17865952Y16605239D01*
X18246904Y16605239D01*
X18342142Y16652858D01*
X18389761Y16700477D01*
X18437380Y16795715D01*
X18437380Y16986191D01*
X18389761Y17081429D01*
X18342142Y17129048D01*
X18246904Y17176667D01*
X18008809Y17176667D01*
X17913571Y17129048D01*
X17865952Y17081429D01*
X17818333Y16986191D01*
X17818333Y16795715D01*
X17865952Y16700477D01*
X17913571Y16652858D01*
X18008809Y16605239D01*
%TO.C,J3*%
X63166666Y22137620D02*
X63166666Y21423334D01*
X63119047Y21280477D01*
X63023809Y21185239D01*
X62880952Y21137620D01*
X62785714Y21137620D01*
X63547619Y22137620D02*
X64166666Y22137620D01*
X63833333Y21756667D01*
X63976190Y21756667D01*
X64071428Y21709048D01*
X64119047Y21661429D01*
X64166666Y21566191D01*
X64166666Y21328096D01*
X64119047Y21232858D01*
X64071428Y21185239D01*
X63976190Y21137620D01*
X63690476Y21137620D01*
X63595238Y21185239D01*
X63547619Y21232858D01*
%TO.C,R2*%
X25233333Y9877620D02*
X24900000Y10353810D01*
X24661904Y9877620D02*
X24661904Y10877620D01*
X25042857Y10877620D01*
X25138095Y10830000D01*
X25185714Y10782381D01*
X25233333Y10687143D01*
X25233333Y10544286D01*
X25185714Y10449048D01*
X25138095Y10401429D01*
X25042857Y10353810D01*
X24661904Y10353810D01*
X25614285Y10782381D02*
X25661904Y10830000D01*
X25757142Y10877620D01*
X25995238Y10877620D01*
X26090476Y10830000D01*
X26138095Y10782381D01*
X26185714Y10687143D01*
X26185714Y10591905D01*
X26138095Y10449048D01*
X25566666Y9877620D01*
X26185714Y9877620D01*
%TO.C,J4*%
X42632380Y7286667D02*
X43346666Y7286667D01*
X43489523Y7239048D01*
X43584761Y7143810D01*
X43632380Y7000953D01*
X43632380Y6905715D01*
X42965714Y8191429D02*
X43632380Y8191429D01*
X42584761Y7953334D02*
X43299047Y7715239D01*
X43299047Y8334286D01*
%TO.C,J7*%
X40312380Y42846667D02*
X41026666Y42846667D01*
X41169523Y42799048D01*
X41264761Y42703810D01*
X41312380Y42560953D01*
X41312380Y42465715D01*
X40312380Y43227620D02*
X40312380Y43894286D01*
X41312380Y43465715D01*
%TO.C,J2*%
X27167380Y42846667D02*
X27881666Y42846667D01*
X28024523Y42799048D01*
X28119761Y42703810D01*
X28167380Y42560953D01*
X28167380Y42465715D01*
X27262619Y43275239D02*
X27215000Y43322858D01*
X27167380Y43418096D01*
X27167380Y43656191D01*
X27215000Y43751429D01*
X27262619Y43799048D01*
X27357857Y43846667D01*
X27453095Y43846667D01*
X27595952Y43799048D01*
X28167380Y43227620D01*
X28167380Y43846667D01*
%TO.C,J5*%
X59356666Y9437620D02*
X59356666Y8723334D01*
X59309047Y8580477D01*
X59213809Y8485239D01*
X59070952Y8437620D01*
X58975714Y8437620D01*
X60309047Y9437620D02*
X59832857Y9437620D01*
X59785238Y8961429D01*
X59832857Y9009048D01*
X59928095Y9056667D01*
X60166190Y9056667D01*
X60261428Y9009048D01*
X60309047Y8961429D01*
X60356666Y8866191D01*
X60356666Y8628096D01*
X60309047Y8532858D01*
X60261428Y8485239D01*
X60166190Y8437620D01*
X59928095Y8437620D01*
X59832857Y8485239D01*
X59785238Y8532858D01*
D12*
%TO.C,J1*%
X19510000Y22865000D02*
X19510000Y33085000D01*
X22170000Y20265000D02*
X20840000Y20265000D01*
X22170000Y22865000D02*
X22170000Y33085000D01*
X22170000Y33085000D02*
X19510000Y33085000D01*
X22170000Y22865000D02*
X19510000Y22865000D01*
X22170000Y21595000D02*
X22170000Y20265000D01*
D11*
%TO.C,P1*%
X46990000Y1270000D02*
X46990000Y3810000D01*
X29210000Y1270000D02*
X46990000Y1270000D01*
X46990000Y3810000D02*
X29210000Y3810000D01*
X27940000Y4090000D02*
X26390000Y4090000D01*
X26390000Y4090000D02*
X26390000Y990000D01*
X26390000Y990000D02*
X27940000Y990000D01*
X29210000Y1270000D02*
X29210000Y3810000D01*
%TO.C,P2*%
X52070000Y1270000D02*
X52070000Y3810000D01*
X50800000Y4090000D02*
X49250000Y4090000D01*
X64770000Y3810000D02*
X52070000Y3810000D01*
X52070000Y1270000D02*
X64770000Y1270000D01*
X64770000Y1270000D02*
X64770000Y3810000D01*
X49250000Y4090000D02*
X49250000Y990000D01*
X49250000Y990000D02*
X50800000Y990000D01*
%TO.C,P3*%
X17246000Y52350000D02*
X17246000Y49250000D01*
X20066000Y49530000D02*
X42926000Y49530000D01*
X42926000Y49530000D02*
X42926000Y52070000D01*
X42926000Y52070000D02*
X20066000Y52070000D01*
X18796000Y52350000D02*
X17246000Y52350000D01*
X17246000Y49250000D02*
X18796000Y49250000D01*
X20066000Y49530000D02*
X20066000Y52070000D01*
%TO.C,P4*%
X64770000Y52070000D02*
X46990000Y52070000D01*
X44170000Y49250000D02*
X45720000Y49250000D01*
X46990000Y49530000D02*
X64770000Y49530000D01*
X46990000Y49530000D02*
X46990000Y52070000D01*
X45720000Y52350000D02*
X44170000Y52350000D01*
X64770000Y49530000D02*
X64770000Y52070000D01*
X44170000Y52350000D02*
X44170000Y49250000D01*
%TO.C,P5*%
X16256000Y2540000D02*
G75*
G03*
X16256000Y2540000I-2286000J0D01*
G01*
%TO.C,P6*%
X68326000Y7620000D02*
G75*
G03*
X68326000Y7620000I-2286000J0D01*
G01*
%TO.C,P7*%
X17526000Y50800000D02*
G75*
G03*
X17526000Y50800000I-2286000J0D01*
G01*
%TO.C,P8*%
X68326000Y35560000D02*
G75*
G03*
X68326000Y35560000I-2286000J0D01*
G01*
D12*
%TO.C,R1*%
X28670000Y6250000D02*
X28670000Y8990000D01*
X29440000Y7620000D02*
X28670000Y7620000D01*
X21360000Y7620000D02*
X22130000Y7620000D01*
X22130000Y6250000D02*
X28670000Y6250000D01*
X22130000Y8990000D02*
X22130000Y6250000D01*
X28670000Y8990000D02*
X22130000Y8990000D01*
%TO.C,J6*%
X13945000Y17840000D02*
X13945000Y15180000D01*
X13945000Y15180000D02*
X1185000Y15180000D01*
X1185000Y17840000D02*
X1185000Y15180000D01*
X13945000Y17840000D02*
X1185000Y17840000D01*
X16545000Y16510000D02*
X16545000Y15180000D01*
X16545000Y15180000D02*
X15215000Y15180000D01*
%TO.C,kibuzzard-6280E76A*%
G36*
X62215845Y22684317D02*
G01*
X62215845Y23723203D01*
X62733237Y23723203D01*
X62746202Y23577285D01*
X62785096Y23453857D01*
X62849919Y23352919D01*
X62989222Y23252013D01*
X63173769Y23218378D01*
X63348791Y23256478D01*
X63466662Y23352919D01*
X63545244Y23482697D01*
X63600013Y23620809D01*
X63641684Y23720822D01*
X63691691Y23811309D01*
X63754794Y23877984D01*
X63835756Y23904178D01*
X63906003Y23893462D01*
X63967916Y23854172D01*
X64010778Y23776781D01*
X64026256Y23654147D01*
X64017922Y23535382D01*
X63992919Y23436262D01*
X63921481Y23282672D01*
X64159606Y23196947D01*
X64232234Y23361253D01*
X64261702Y23489245D01*
X64271525Y23654147D01*
X64258957Y23821231D01*
X64221254Y23957359D01*
X64158416Y24062531D01*
X64021791Y24163437D01*
X63838138Y24197072D01*
X63727112Y24186952D01*
X63636922Y24156591D01*
X63503572Y24053006D01*
X63417847Y23914894D01*
X63359506Y23770828D01*
X63323787Y23679150D01*
X63279734Y23595806D01*
X63222584Y23535084D01*
X63147575Y23511272D01*
X63053648Y23537201D01*
X62997292Y23614989D01*
X62978506Y23744634D01*
X63002319Y23912512D01*
X63059469Y24044672D01*
X62833250Y24130397D01*
X62764194Y23960137D01*
X62740977Y23850302D01*
X62733237Y23723203D01*
X62215845Y23723203D01*
X62215845Y24351853D01*
X62766575Y24351853D01*
X63009462Y24351853D01*
X63009462Y24739997D01*
X64240569Y24739997D01*
X64240569Y25035272D01*
X63009462Y25035272D01*
X63009462Y25423416D01*
X62766575Y25423416D01*
X62766575Y24351853D01*
X62215845Y24351853D01*
X62215845Y25599628D01*
X62766575Y25599628D01*
X63009462Y25599628D01*
X63009462Y26218753D01*
X63127037Y26152673D01*
X63265447Y26083022D01*
X63418740Y26014263D01*
X63580963Y25950862D01*
X63748543Y25894605D01*
X63917909Y25847278D01*
X64083704Y25813345D01*
X64240569Y25797272D01*
X64240569Y26094928D01*
X64049771Y26116657D01*
X63858378Y26158031D01*
X63672343Y26213395D01*
X63497619Y26277094D01*
X63337480Y26347043D01*
X63195200Y26421159D01*
X63076733Y26494383D01*
X62988031Y26561653D01*
X62766575Y26561653D01*
X62766575Y25599628D01*
X62215845Y25599628D01*
X62215845Y26790253D01*
X62766575Y26790253D01*
X63009462Y26790253D01*
X63009462Y27409378D01*
X63127037Y27343298D01*
X63265447Y27273647D01*
X63418740Y27204888D01*
X63580963Y27141488D01*
X63748543Y27085230D01*
X63917909Y27037903D01*
X64083704Y27003970D01*
X64240569Y26987897D01*
X64240569Y27285553D01*
X64049771Y27307282D01*
X63858378Y27348656D01*
X63672343Y27404020D01*
X63497619Y27467719D01*
X63337480Y27537668D01*
X63195200Y27611784D01*
X63076733Y27685008D01*
X62988031Y27752278D01*
X62766575Y27752278D01*
X62766575Y26790253D01*
X62215845Y26790253D01*
X62215845Y28464272D01*
X62730856Y28464272D01*
X62740977Y28341638D01*
X62771337Y28240434D01*
X62873731Y28095178D01*
X63013034Y28015406D01*
X63161862Y27990403D01*
X63333312Y28028503D01*
X63411894Y28083272D01*
X63485712Y28171378D01*
X63567568Y28074342D01*
X63660734Y28007072D01*
X63762830Y27967781D01*
X63871475Y27954684D01*
X64039353Y27990403D01*
X64165559Y28091606D01*
X64244141Y28248769D01*
X64264679Y28345507D01*
X64271525Y28452366D01*
X64262000Y28583930D01*
X64233425Y28692872D01*
X64136984Y28851225D01*
X64004825Y28939331D01*
X63859569Y28966716D01*
X63752412Y28952726D01*
X63654781Y28910756D01*
X63565484Y28834854D01*
X63483331Y28719066D01*
X63408620Y28811934D01*
X63317834Y28876228D01*
X63218120Y28913733D01*
X63116619Y28926234D01*
X62958266Y28894980D01*
X62835631Y28801219D01*
X62757050Y28654474D01*
X62730856Y28464272D01*
X62215845Y28464272D01*
X62215845Y29633466D01*
X62728475Y29633466D01*
X62740084Y29522142D01*
X62774909Y29426297D01*
X62893972Y29279850D01*
X63055897Y29191744D01*
X63230919Y29161978D01*
X63413084Y29188172D01*
X63561913Y29271516D01*
X63663116Y29419153D01*
X63690798Y29519166D01*
X63700025Y29638228D01*
X63659544Y29804916D01*
X63808074Y29720977D01*
X63910766Y29592984D01*
X63971190Y29432845D01*
X63992919Y29252466D01*
X64245331Y29261991D01*
X64230746Y29452788D01*
X64186991Y29625131D01*
X64115255Y29776341D01*
X64016731Y29903738D01*
X63891418Y30005834D01*
X63739316Y30081141D01*
X63561615Y30127575D01*
X63359506Y30143053D01*
X63175621Y30128501D01*
X63020840Y30084845D01*
X62895162Y30012084D01*
X62802558Y29911807D01*
X62746996Y29785601D01*
X62728475Y29633466D01*
X62215845Y29633466D01*
X62215845Y30655683D01*
X64784155Y30655683D01*
X64784155Y22684317D01*
X62215845Y22684317D01*
G37*
G36*
X63374984Y29856113D02*
G01*
X63421419Y29852541D01*
X63447612Y29771578D01*
X63457137Y29676328D01*
X63442255Y29570363D01*
X63397606Y29500116D01*
X63226156Y29447728D01*
X63130906Y29458444D01*
X63052325Y29491781D01*
X62998747Y29551313D01*
X62978506Y29640609D01*
X63009462Y29744194D01*
X63090425Y29810869D01*
X63201153Y29846588D01*
X63321406Y29857303D01*
X63374984Y29856113D01*
G37*
G36*
X63267828Y28619053D02*
G01*
X63388081Y28514278D01*
X63332122Y28397002D01*
X63278544Y28321397D01*
X63142812Y28266628D01*
X63016606Y28324969D01*
X62973744Y28459509D01*
X63015416Y28594050D01*
X63140431Y28650009D01*
X63267828Y28619053D01*
G37*
G36*
X63977441Y28627388D02*
G01*
X64028638Y28457128D01*
X63979822Y28296394D01*
X63835756Y28228528D01*
X63705978Y28264247D01*
X63583344Y28366641D01*
X63646447Y28514278D01*
X63705978Y28615481D01*
X63771463Y28672631D01*
X63854806Y28690491D01*
X63977441Y28627388D01*
G37*
%TO.C,kibuzzard-6281B70A*%
G36*
X53413819Y47480538D02*
G01*
X53480494Y47399575D01*
X53516213Y47288847D01*
X53526928Y47168594D01*
X53525738Y47115016D01*
X53522166Y47068581D01*
X53441203Y47042388D01*
X53345953Y47032863D01*
X53239987Y47047745D01*
X53169741Y47092394D01*
X53117353Y47263844D01*
X53128069Y47359094D01*
X53161406Y47437675D01*
X53220937Y47491253D01*
X53310234Y47511494D01*
X53413819Y47480538D01*
G37*
G36*
X54593728Y46837600D02*
G01*
X54260353Y46837600D01*
X54331791Y46973331D01*
X54416325Y47110253D01*
X54505622Y47240031D01*
X54593728Y47356713D01*
X54593728Y46837600D01*
G37*
G36*
X55835550Y47474584D02*
G01*
X55891509Y47349569D01*
X55860553Y47222172D01*
X55755778Y47101919D01*
X55638502Y47157878D01*
X55562897Y47211456D01*
X55508128Y47347188D01*
X55566469Y47473394D01*
X55701009Y47516256D01*
X55835550Y47474584D01*
G37*
G36*
X56946403Y46843553D02*
G01*
X57047606Y46784022D01*
X57104756Y46718537D01*
X57122616Y46635194D01*
X57059513Y46512559D01*
X56889253Y46461362D01*
X56728519Y46510178D01*
X56660653Y46654244D01*
X56696372Y46784022D01*
X56798766Y46906656D01*
X56946403Y46843553D01*
G37*
G36*
X57026175Y47474584D02*
G01*
X57082134Y47349569D01*
X57051178Y47222172D01*
X56946403Y47101919D01*
X56829127Y47157878D01*
X56753522Y47211456D01*
X56698753Y47347188D01*
X56757094Y47473394D01*
X56891634Y47516256D01*
X57026175Y47474584D01*
G37*
G36*
X48768529Y48274155D02*
G01*
X57911471Y48274155D01*
X57911471Y45705845D01*
X48768529Y45705845D01*
X48768529Y47480538D01*
X49281159Y47480538D01*
X49602628Y47480538D01*
X49602628Y46492319D01*
X49281159Y46492319D01*
X49281159Y46249431D01*
X50216991Y46249431D01*
X50512266Y46249431D01*
X51438572Y46249431D01*
X51662409Y46249431D01*
X52598241Y46249431D01*
X52598241Y46492319D01*
X52279153Y46492319D01*
X52279153Y47259081D01*
X52831603Y47259081D01*
X52857797Y47076916D01*
X52941141Y46928087D01*
X53088778Y46826884D01*
X53188791Y46799202D01*
X53307853Y46789975D01*
X53474541Y46830456D01*
X53390602Y46681926D01*
X53262609Y46579234D01*
X53102470Y46518810D01*
X52922091Y46497081D01*
X52931616Y46244669D01*
X53122413Y46259254D01*
X53294756Y46303009D01*
X53445966Y46374745D01*
X53573363Y46473269D01*
X53674247Y46597094D01*
X53979366Y46597094D01*
X54593728Y46597094D01*
X54593728Y46249431D01*
X54886622Y46249431D01*
X54886622Y46597094D01*
X55046166Y46597094D01*
X55046166Y46618525D01*
X55196184Y46618525D01*
X55231903Y46450647D01*
X55333106Y46324441D01*
X55490269Y46245859D01*
X55587007Y46225321D01*
X55693866Y46218475D01*
X55825430Y46228000D01*
X55934372Y46256575D01*
X56092725Y46353016D01*
X56180831Y46485175D01*
X56205971Y46618525D01*
X56386809Y46618525D01*
X56422528Y46450647D01*
X56523731Y46324441D01*
X56680894Y46245859D01*
X56777632Y46225321D01*
X56884491Y46218475D01*
X57016055Y46228000D01*
X57124997Y46256575D01*
X57283350Y46353016D01*
X57371456Y46485175D01*
X57398841Y46630431D01*
X57384851Y46737588D01*
X57342881Y46835219D01*
X57266979Y46924516D01*
X57151191Y47006669D01*
X57244059Y47081380D01*
X57308353Y47172166D01*
X57345858Y47271880D01*
X57358359Y47373381D01*
X57327105Y47531734D01*
X57233344Y47654369D01*
X57086599Y47732950D01*
X56896397Y47759144D01*
X56773763Y47749023D01*
X56672559Y47718663D01*
X56527303Y47616269D01*
X56447531Y47476966D01*
X56422528Y47328138D01*
X56460628Y47156688D01*
X56515397Y47078106D01*
X56603503Y47004288D01*
X56506467Y46922432D01*
X56439197Y46829266D01*
X56399906Y46727170D01*
X56386809Y46618525D01*
X56205971Y46618525D01*
X56208216Y46630431D01*
X56194226Y46737588D01*
X56152256Y46835219D01*
X56076354Y46924516D01*
X55960566Y47006669D01*
X56053434Y47081380D01*
X56117728Y47172166D01*
X56155233Y47271880D01*
X56167734Y47373381D01*
X56136480Y47531734D01*
X56042719Y47654369D01*
X55895974Y47732950D01*
X55705772Y47759144D01*
X55583138Y47749023D01*
X55481934Y47718663D01*
X55336678Y47616269D01*
X55256906Y47476966D01*
X55231903Y47328138D01*
X55270003Y47156688D01*
X55324772Y47078106D01*
X55412878Y47004288D01*
X55315842Y46922432D01*
X55248572Y46829266D01*
X55209281Y46727170D01*
X55196184Y46618525D01*
X55046166Y46618525D01*
X55046166Y46837600D01*
X54886622Y46837600D01*
X54886622Y47723425D01*
X54624684Y47723425D01*
X54529434Y47621924D01*
X54434184Y47507922D01*
X54341316Y47386776D01*
X54253209Y47263844D01*
X54171056Y47141507D01*
X54096047Y47022147D01*
X54031158Y46910526D01*
X53979366Y46811406D01*
X53979366Y46597094D01*
X53674247Y46597094D01*
X53675459Y46598582D01*
X53750766Y46750684D01*
X53797200Y46928385D01*
X53812678Y47130494D01*
X53798126Y47314379D01*
X53754470Y47469160D01*
X53681709Y47594838D01*
X53581432Y47687442D01*
X53455226Y47743004D01*
X53303091Y47761525D01*
X53191767Y47749916D01*
X53095922Y47715091D01*
X52949475Y47596028D01*
X52861369Y47434103D01*
X52831603Y47259081D01*
X52279153Y47259081D01*
X52279153Y47480538D01*
X52598241Y47480538D01*
X52598241Y47723425D01*
X51662409Y47723425D01*
X51662409Y47480538D01*
X51983878Y47480538D01*
X51983878Y46492319D01*
X51662409Y46492319D01*
X51662409Y46249431D01*
X51438572Y46249431D01*
X51438572Y46492319D01*
X50807541Y46492319D01*
X50807541Y47723425D01*
X50512266Y47723425D01*
X50512266Y46249431D01*
X50216991Y46249431D01*
X50216991Y46492319D01*
X49897903Y46492319D01*
X49897903Y47480538D01*
X50216991Y47480538D01*
X50216991Y47723425D01*
X49281159Y47723425D01*
X49281159Y47480538D01*
X48768529Y47480538D01*
X48768529Y48274155D01*
G37*
G36*
X55755778Y46843553D02*
G01*
X55856981Y46784022D01*
X55914131Y46718537D01*
X55931991Y46635194D01*
X55868888Y46512559D01*
X55698628Y46461362D01*
X55537894Y46510178D01*
X55470028Y46654244D01*
X55505747Y46784022D01*
X55608141Y46906656D01*
X55755778Y46843553D01*
G37*
%TO.C,J3*%
X59715000Y35600000D02*
X61045000Y35600000D01*
X61045000Y35600000D02*
X61045000Y34270000D01*
X61045000Y33000000D02*
X61045000Y17700000D01*
X58385000Y33000000D02*
X58385000Y17700000D01*
X58385000Y17700000D02*
X61045000Y17700000D01*
X58385000Y33000000D02*
X61045000Y33000000D01*
%TO.C,R2*%
X22130000Y11330000D02*
X28670000Y11330000D01*
X28670000Y11330000D02*
X28670000Y14070000D01*
X29440000Y12700000D02*
X28670000Y12700000D01*
X28670000Y14070000D02*
X22130000Y14070000D01*
X21360000Y12700000D02*
X22130000Y12700000D01*
X22130000Y14070000D02*
X22130000Y11330000D01*
%TO.C,kibuzzard-6280EDB6*%
G36*
X62250373Y14928321D02*
G01*
X64749627Y14928321D01*
X64749627Y10471679D01*
X62250373Y10471679D01*
X62250373Y10984309D01*
X62763003Y10984309D01*
X62896353Y11011694D01*
X63063041Y11050984D01*
X63187792Y11082470D01*
X63317570Y11116601D01*
X63452375Y11153378D01*
X63589826Y11192272D01*
X63727542Y11232753D01*
X63865522Y11274822D01*
X64061975Y11337330D01*
X64236997Y11396266D01*
X64236997Y11698684D01*
X64110129Y11744193D01*
X63980351Y11788643D01*
X63847663Y11832034D01*
X63714313Y11873706D01*
X63582550Y11912997D01*
X63452375Y11949906D01*
X63262768Y12000508D01*
X63082091Y12045156D01*
X62914212Y12083554D01*
X62763003Y12115403D01*
X62763003Y11808222D01*
X62886828Y11786791D01*
X63029703Y11760597D01*
X63184187Y11730831D01*
X63342837Y11698684D01*
X63502381Y11664156D01*
X63659544Y11627247D01*
X63806884Y11589147D01*
X63936959Y11551047D01*
X63805098Y11512649D01*
X63657163Y11473656D01*
X63500000Y11435556D01*
X63340456Y11399837D01*
X63182103Y11366798D01*
X63028512Y11336734D01*
X62886530Y11311731D01*
X62763003Y11293872D01*
X62763003Y10984309D01*
X62250373Y10984309D01*
X62250373Y12272566D01*
X62763003Y12272566D01*
X63005891Y12272566D01*
X63005891Y12594034D01*
X63994109Y12594034D01*
X63994109Y12272566D01*
X64236997Y12272566D01*
X64236997Y13208397D01*
X63994109Y13208397D01*
X63994109Y12889309D01*
X63005891Y12889309D01*
X63005891Y13208397D01*
X62763003Y13208397D01*
X62763003Y12272566D01*
X62250373Y12272566D01*
X62250373Y13444141D01*
X62763003Y13444141D01*
X64236997Y13444141D01*
X64236997Y13708459D01*
X63258303Y13708459D01*
X63421683Y13796963D01*
X63584799Y13881497D01*
X63747650Y13962063D01*
X63910501Y14038659D01*
X64073617Y14111288D01*
X64236997Y14179947D01*
X64236997Y14415691D01*
X62763003Y14415691D01*
X62763003Y14151372D01*
X63670259Y14151372D01*
X63577391Y14109402D01*
X63470234Y14059694D01*
X63354148Y14003734D01*
X63234491Y13943013D01*
X63112749Y13879016D01*
X62990412Y13813234D01*
X62872243Y13746559D01*
X62763003Y13679884D01*
X62763003Y13444141D01*
X62250373Y13444141D01*
X62250373Y14928321D01*
G37*
%TO.C,J4*%
X36830000Y6290000D02*
X36830000Y8950000D01*
X41970000Y6290000D02*
X41970000Y8950000D01*
X36830000Y8950000D02*
X41970000Y8950000D01*
X34230000Y6290000D02*
X34230000Y7620000D01*
X36830000Y6290000D02*
X41970000Y6290000D01*
X35560000Y6290000D02*
X34230000Y6290000D01*
%TO.C,J7*%
X44460000Y41850000D02*
X64840000Y41850000D01*
X44460000Y44510000D02*
X64840000Y44510000D01*
X43190000Y41850000D02*
X41860000Y41850000D01*
X64840000Y41850000D02*
X64840000Y44510000D01*
X41860000Y41850000D02*
X41860000Y43180000D01*
X44460000Y41850000D02*
X44460000Y44510000D01*
%TO.C,kibuzzard-6279C31F*%
G36*
X32922501Y16521774D02*
G01*
X43277499Y16521774D01*
X43277499Y13958226D01*
X32922501Y13958226D01*
X32922501Y14525625D01*
X33435131Y14525625D01*
X33538120Y14506873D01*
X33642300Y14493478D01*
X33745289Y14485441D01*
X33844706Y14482762D01*
X33962280Y14488418D01*
X34048991Y14501812D01*
X34625756Y14501812D01*
X34918650Y14501812D01*
X34918650Y15044737D01*
X35071050Y15044737D01*
X35151715Y14909899D01*
X35227022Y14776847D01*
X35295185Y14642009D01*
X35354419Y14501812D01*
X35661600Y14501812D01*
X35816381Y14501812D01*
X36752212Y14501812D01*
X36987956Y14501812D01*
X37252275Y14501812D01*
X37252275Y15480506D01*
X37340778Y15317126D01*
X37425312Y15154010D01*
X37505878Y14991159D01*
X37582475Y14828308D01*
X37655103Y14665193D01*
X37723762Y14501812D01*
X37959506Y14501812D01*
X37959506Y15240000D01*
X38133338Y15240000D01*
X38144053Y15061109D01*
X38176200Y14905434D01*
X38227992Y14773275D01*
X38297644Y14664928D01*
X38384262Y14580394D01*
X38486953Y14519672D01*
X38604527Y14483060D01*
X38735794Y14470856D01*
X38881348Y14476809D01*
X39003684Y14494669D01*
X39166800Y14537531D01*
X39166800Y14968537D01*
X39528750Y14968537D01*
X40181213Y14968537D01*
X40181213Y15035212D01*
X40543163Y15035212D01*
X40549116Y14912578D01*
X40566975Y14801850D01*
X40599122Y14704814D01*
X40647938Y14623256D01*
X40801528Y14510147D01*
X40909577Y14480679D01*
X41040844Y14470856D01*
X41174194Y14480679D01*
X41252749Y14501812D01*
X41769506Y14501812D01*
X42062400Y14501812D01*
X42062400Y14999494D01*
X42167175Y14999494D01*
X42343255Y15012591D01*
X42490496Y15051881D01*
X42608897Y15117366D01*
X42695548Y15212219D01*
X42747539Y15339616D01*
X42764869Y15499556D01*
X42747671Y15657909D01*
X42696077Y15783719D01*
X42610088Y15876984D01*
X42492877Y15941146D01*
X42347621Y15979643D01*
X42174319Y15992475D01*
X42081450Y15990094D01*
X41974294Y15984141D01*
X41865947Y15973425D01*
X41769506Y15956756D01*
X41769506Y14501812D01*
X41252749Y14501812D01*
X41283731Y14510147D01*
X41371838Y14558070D01*
X41440894Y14623256D01*
X41491495Y14704814D01*
X41524238Y14801850D01*
X41542097Y14912578D01*
X41548050Y15035212D01*
X41548050Y15975806D01*
X41255156Y15975806D01*
X41255156Y15056644D01*
X41245631Y14900672D01*
X41212294Y14798278D01*
X41148000Y14742319D01*
X41045606Y14725650D01*
X40943213Y14742319D01*
X40880109Y14797087D01*
X40847963Y14898291D01*
X40838438Y15054262D01*
X40838438Y15975806D01*
X40543163Y15975806D01*
X40543163Y15035212D01*
X40181213Y15035212D01*
X40181213Y15256669D01*
X39528750Y15256669D01*
X39528750Y14968537D01*
X39166800Y14968537D01*
X39166800Y15273338D01*
X38873906Y15273338D01*
X38873906Y14735175D01*
X38816756Y14728031D01*
X38759606Y14725650D01*
X38617327Y14756904D01*
X38514338Y14850666D01*
X38468035Y14949487D01*
X38440254Y15079266D01*
X38430994Y15240000D01*
X38436054Y15349240D01*
X38451234Y15448359D01*
X38517909Y15610284D01*
X38635781Y15716250D01*
X38811994Y15754350D01*
X38969156Y15728156D01*
X39097744Y15668625D01*
X39173944Y15901988D01*
X39125128Y15930563D01*
X39042975Y15966281D01*
X38925103Y15996047D01*
X38771513Y16009144D01*
X38642330Y15996940D01*
X38521481Y15960328D01*
X38412539Y15899309D01*
X38319075Y15813881D01*
X38242280Y15704641D01*
X38183344Y15572184D01*
X38145839Y15417105D01*
X38133338Y15240000D01*
X37959506Y15240000D01*
X37959506Y15975806D01*
X37695187Y15975806D01*
X37695187Y15068550D01*
X37653218Y15161419D01*
X37603509Y15268575D01*
X37547550Y15384661D01*
X37486828Y15504319D01*
X37422832Y15626060D01*
X37357050Y15748397D01*
X37290375Y15866566D01*
X37223700Y15975806D01*
X36987956Y15975806D01*
X36987956Y14501812D01*
X36752212Y14501812D01*
X36752212Y14744700D01*
X36433125Y14744700D01*
X36433125Y15732919D01*
X36752212Y15732919D01*
X36752212Y15975806D01*
X35816381Y15975806D01*
X35816381Y15732919D01*
X36137850Y15732919D01*
X36137850Y14744700D01*
X35816381Y14744700D01*
X35816381Y14501812D01*
X35661600Y14501812D01*
X35593734Y14657784D01*
X35511581Y14822091D01*
X35423475Y14979253D01*
X35337750Y15116175D01*
X35441930Y15183445D01*
X35511581Y15275719D01*
X35550872Y15386447D01*
X35563969Y15509081D01*
X35554146Y15624870D01*
X35524678Y15724584D01*
X35411569Y15875794D01*
X35330606Y15927586D01*
X35235356Y15963900D01*
X35127009Y15985331D01*
X35006756Y15992475D01*
X34923412Y15990094D01*
X34823400Y15984141D01*
X34719816Y15972234D01*
X34625756Y15954375D01*
X34625756Y14501812D01*
X34048991Y14501812D01*
X34072116Y14505384D01*
X34170937Y14535745D01*
X34255472Y14581584D01*
X34378106Y14724459D01*
X34412039Y14824770D01*
X34423350Y14947106D01*
X34409955Y15047119D01*
X34369772Y15142369D01*
X34292084Y15225712D01*
X34166175Y15290006D01*
X34303097Y15418594D01*
X34341495Y15505509D01*
X34354294Y15604331D01*
X34332862Y15742444D01*
X34251900Y15867459D01*
X34087594Y15957947D01*
X33967341Y15983843D01*
X33816131Y15992475D01*
X33618487Y15981759D01*
X33435131Y15956756D01*
X33435131Y14525625D01*
X32922501Y14525625D01*
X32922501Y16521774D01*
G37*
G36*
X42312729Y15724287D02*
G01*
X42394584Y15684103D01*
X42447270Y15611773D01*
X42464831Y15501938D01*
X42446972Y15386149D01*
X42393394Y15310247D01*
X42304692Y15268277D01*
X42181463Y15254288D01*
X42062400Y15254288D01*
X42062400Y15730538D01*
X42135028Y15736491D01*
X42207656Y15737681D01*
X42312729Y15724287D01*
G37*
G36*
X34067353Y15100697D02*
G01*
X34135219Y14947106D01*
X34111406Y14841141D01*
X34050684Y14776847D01*
X33966150Y14745891D01*
X33868519Y14737556D01*
X33795891Y14739938D01*
X33728025Y14747081D01*
X33728025Y15147131D01*
X33885187Y15147131D01*
X34067353Y15100697D01*
G37*
G36*
X33939956Y15731728D02*
G01*
X34006631Y15707916D01*
X34051875Y15657909D01*
X34068544Y15573375D01*
X34011394Y15438834D01*
X33842325Y15390019D01*
X33728025Y15390019D01*
X33728025Y15728156D01*
X33792319Y15735300D01*
X33861375Y15737681D01*
X33939956Y15731728D01*
G37*
G36*
X35112127Y15723989D02*
G01*
X35194875Y15682913D01*
X35248453Y15612666D01*
X35266312Y15511463D01*
X35199637Y15345966D01*
X35112127Y15302210D01*
X34982944Y15287625D01*
X34918650Y15287625D01*
X34918650Y15730538D01*
X34966275Y15736491D01*
X35006756Y15737681D01*
X35112127Y15723989D01*
G37*
%TO.C,J2*%
X24115000Y44510000D02*
X18975000Y44510000D01*
X26715000Y44510000D02*
X26715000Y43180000D01*
X24115000Y41850000D02*
X18975000Y41850000D01*
X18975000Y44510000D02*
X18975000Y41850000D01*
X25385000Y44510000D02*
X26715000Y44510000D01*
X24115000Y44510000D02*
X24115000Y41850000D01*
%TO.C,kibuzzard-6279C2C8*%
G36*
X10302214Y10006145D02*
G01*
X10281179Y9877160D01*
X10246122Y9775428D01*
X10168434Y9676309D01*
X10061575Y9643269D01*
X9956205Y9676309D01*
X9878219Y9775428D01*
X9842500Y9877160D01*
X9821069Y10006145D01*
X9813925Y10162381D01*
X9815023Y10186194D01*
X9930606Y10186194D01*
X9966325Y10075466D01*
X10063956Y10029031D01*
X10158016Y10075466D01*
X10194925Y10186194D01*
X10158016Y10298113D01*
X10063956Y10345738D01*
X9966325Y10298113D01*
X9930606Y10186194D01*
X9815023Y10186194D01*
X9821069Y10317295D01*
X9842500Y10445485D01*
X9878219Y10546953D01*
X9956205Y10646073D01*
X10061575Y10679113D01*
X10168434Y10646073D01*
X10246122Y10546953D01*
X10281179Y10445485D01*
X10302214Y10317295D01*
X10309225Y10162381D01*
X10302214Y10006145D01*
G37*
G36*
X4319720Y11441774D02*
G01*
X13460280Y11441774D01*
X13460280Y8878226D01*
X4319720Y8878226D01*
X4319720Y9421812D01*
X4832350Y9421812D01*
X5125244Y9421812D01*
X5125244Y9919494D01*
X5230019Y9919494D01*
X5406099Y9932591D01*
X5553340Y9971881D01*
X5671741Y10037366D01*
X5758392Y10132219D01*
X5769729Y10160000D01*
X5958681Y10160000D01*
X5968950Y9986020D01*
X5999758Y9833173D01*
X6051104Y9701461D01*
X6122987Y9590881D01*
X6248929Y9479756D01*
X6407679Y9413081D01*
X6599237Y9390856D01*
X6729313Y9398893D01*
X6837684Y9421812D01*
X7139781Y9421812D01*
X7408862Y9421812D01*
X7396956Y10567194D01*
X7570787Y9943306D01*
X7785100Y9943306D01*
X7966075Y10567194D01*
X7951787Y9421812D01*
X8220869Y9421812D01*
X8219582Y9467056D01*
X8358981Y9467056D01*
X8426847Y9440862D01*
X8525669Y9415859D01*
X8639969Y9398000D01*
X8756650Y9390856D01*
X8892977Y9399786D01*
X9011444Y9426575D01*
X9112052Y9469437D01*
X9194800Y9526587D01*
X9304338Y9677797D01*
X9340056Y9867106D01*
X9323917Y10005219D01*
X9275498Y10121106D01*
X9239936Y10162381D01*
X9549606Y10162381D01*
X9557792Y9979620D01*
X9582348Y9821862D01*
X9623276Y9689108D01*
X9680575Y9581356D01*
X9781117Y9475523D01*
X9908117Y9412023D01*
X10061575Y9390856D01*
X10215033Y9412023D01*
X10342033Y9475523D01*
X10442575Y9581356D01*
X10499874Y9689108D01*
X10540802Y9821862D01*
X10565358Y9979620D01*
X10573544Y10162381D01*
X10565358Y10344026D01*
X10540802Y10500816D01*
X10513563Y10588625D01*
X10771188Y10588625D01*
X10866438Y10345738D01*
X11011694Y10404078D01*
X11164094Y10488613D01*
X11164094Y9664700D01*
X10854531Y9664700D01*
X10854531Y9421812D01*
X11749881Y9421812D01*
X11749881Y9664700D01*
X11456988Y9664700D01*
X11456988Y10733881D01*
X11949906Y10733881D01*
X12095163Y10529094D01*
X12245181Y10641013D01*
X12390438Y10674350D01*
X12528550Y10625534D01*
X12583319Y10486231D01*
X12539266Y10360025D01*
X12427347Y10231438D01*
X12357100Y10163274D01*
X12282091Y10092134D01*
X12207081Y10016530D01*
X12136834Y9934972D01*
X12074922Y9846568D01*
X12024916Y9750425D01*
X11991876Y9645650D01*
X11980863Y9531350D01*
X11979672Y9481344D01*
X11985625Y9421812D01*
X12947650Y9421812D01*
X12947650Y9664700D01*
X12314238Y9664700D01*
X12339241Y9743281D01*
X12399963Y9827816D01*
X12476163Y9908778D01*
X12547600Y9976644D01*
X12669044Y10095706D01*
X12776200Y10224294D01*
X12852400Y10361216D01*
X12880975Y10507663D01*
X12842875Y10692209D01*
X12740481Y10824369D01*
X12592844Y10902950D01*
X12419013Y10929144D01*
X12294890Y10917238D01*
X12170172Y10881519D01*
X12052598Y10820797D01*
X11949906Y10733881D01*
X11456988Y10733881D01*
X11456988Y10895806D01*
X11256963Y10895806D01*
X11154569Y10802938D01*
X11028363Y10717213D01*
X10895012Y10643394D01*
X10771188Y10588625D01*
X10513563Y10588625D01*
X10499874Y10632753D01*
X10442575Y10739834D01*
X10342033Y10845006D01*
X10215033Y10908109D01*
X10061575Y10929144D01*
X9910498Y10907977D01*
X9784292Y10844477D01*
X9682956Y10738644D01*
X9624616Y10631190D01*
X9582944Y10499328D01*
X9557941Y10343059D01*
X9549606Y10162381D01*
X9239936Y10162381D01*
X9194800Y10214769D01*
X9081294Y10285677D01*
X8934450Y10333302D01*
X8754269Y10357644D01*
X8766175Y10493375D01*
X8778081Y10652919D01*
X9285288Y10652919D01*
X9285288Y10895806D01*
X8532812Y10895806D01*
X8523883Y10713938D01*
X8511381Y10525522D01*
X8494712Y10331748D01*
X8473281Y10133806D01*
X8636992Y10128746D01*
X8766175Y10113566D01*
X8938816Y10056416D01*
X9019778Y9968309D01*
X9040019Y9855200D01*
X9028113Y9776619D01*
X8984059Y9708753D01*
X8895953Y9659938D01*
X8754269Y9640887D01*
X8642945Y9646245D01*
X8551862Y9662319D01*
X8418512Y9709944D01*
X8358981Y9467056D01*
X8219582Y9467056D01*
X8215511Y9610229D01*
X8208962Y9794478D01*
X8200926Y9976048D01*
X8191103Y10156428D01*
X8179197Y10337105D01*
X8164909Y10519569D01*
X8149134Y10705306D01*
X8132762Y10895806D01*
X7889875Y10895806D01*
X7847012Y10769600D01*
X7794625Y10606484D01*
X7735094Y10425509D01*
X7675562Y10243344D01*
X7620794Y10414794D01*
X7563644Y10598150D01*
X7510066Y10767219D01*
X7468394Y10895806D01*
X7225506Y10895806D01*
X7209730Y10734477D01*
X7195741Y10560050D01*
X7183537Y10376098D01*
X7173119Y10186194D01*
X7163891Y9992717D01*
X7155259Y9798050D01*
X7147223Y9606359D01*
X7139781Y9421812D01*
X6837684Y9421812D01*
X6843316Y9423003D01*
X7011194Y9493250D01*
X6937375Y9724231D01*
X6817122Y9671844D01*
X6627812Y9645650D01*
X6457851Y9679285D01*
X6343253Y9780191D01*
X6294967Y9882981D01*
X6265995Y10011966D01*
X6256337Y10167144D01*
X6264374Y10300494D01*
X6288484Y10410031D01*
X6371828Y10566003D01*
X6488509Y10649347D01*
X6623050Y10674350D01*
X6800453Y10649347D01*
X6932612Y10588625D01*
X7008812Y10821988D01*
X6959997Y10850563D01*
X6880225Y10886281D01*
X6769497Y10916047D01*
X6627812Y10929144D01*
X6488212Y10916345D01*
X6359922Y10877947D01*
X6245622Y10814844D01*
X6147991Y10727928D01*
X6068516Y10618093D01*
X6008687Y10486231D01*
X5971183Y10333236D01*
X5958681Y10160000D01*
X5769729Y10160000D01*
X5810382Y10259616D01*
X5827712Y10419556D01*
X5810515Y10577909D01*
X5758921Y10703719D01*
X5672931Y10796984D01*
X5555721Y10861146D01*
X5410465Y10899643D01*
X5237162Y10912475D01*
X5144294Y10910094D01*
X5037137Y10904141D01*
X4928791Y10893425D01*
X4832350Y10876756D01*
X4832350Y9421812D01*
X4319720Y9421812D01*
X4319720Y11441774D01*
G37*
G36*
X5375573Y10644287D02*
G01*
X5457428Y10604103D01*
X5510113Y10531773D01*
X5527675Y10421938D01*
X5509816Y10306149D01*
X5456237Y10230247D01*
X5367536Y10188277D01*
X5244306Y10174288D01*
X5125244Y10174288D01*
X5125244Y10650538D01*
X5197872Y10656491D01*
X5270500Y10657681D01*
X5375573Y10644287D01*
G37*
%TO.C,J5*%
X58360000Y15300000D02*
X59690000Y15300000D01*
X58360000Y10100000D02*
X61020000Y10100000D01*
X58360000Y12700000D02*
X61020000Y12700000D01*
X61020000Y12700000D02*
X61020000Y10100000D01*
X58360000Y12700000D02*
X58360000Y10100000D01*
X58360000Y13970000D02*
X58360000Y15300000D01*
%TO.C,kibuzzard-6279C29F*%
G36*
X24069675Y47448391D02*
G01*
X24167306Y47337663D01*
X24217313Y47178119D01*
X24231600Y46992381D01*
X24227135Y46887309D01*
X24213741Y46791166D01*
X24154209Y46632812D01*
X24044672Y46528037D01*
X23876794Y46489938D01*
X23850600Y46489938D01*
X23824406Y46492319D01*
X23824406Y47482919D01*
X23867269Y47488872D01*
X23910131Y47490062D01*
X24069675Y47448391D01*
G37*
G36*
X25041886Y45722514D02*
G01*
X20678114Y45722514D01*
X20678114Y46254194D01*
X21190744Y46254194D01*
X22117050Y46254194D01*
X22362319Y46254194D01*
X23307675Y46254194D01*
X23307675Y46270862D01*
X23531513Y46270862D01*
X23692247Y46243478D01*
X23845838Y46235144D01*
X23989605Y46245562D01*
X24120872Y46276816D01*
X24237255Y46330691D01*
X24336375Y46408975D01*
X24417040Y46512857D01*
X24478059Y46643528D01*
X24516457Y46802774D01*
X24529256Y46992381D01*
X24517648Y47177821D01*
X24482822Y47334091D01*
X24427160Y47463273D01*
X24353044Y47567453D01*
X24260473Y47646927D01*
X24149447Y47701994D01*
X24022943Y47734141D01*
X23883938Y47744856D01*
X23719631Y47737713D01*
X23531513Y47709138D01*
X23531513Y46270862D01*
X23307675Y46270862D01*
X23307675Y46497081D01*
X22655212Y46497081D01*
X22655212Y46911419D01*
X23176706Y46911419D01*
X23176706Y47154306D01*
X22655212Y47154306D01*
X22655212Y47485300D01*
X23255288Y47485300D01*
X23255288Y47728188D01*
X22362319Y47728188D01*
X22362319Y46254194D01*
X22117050Y46254194D01*
X22117050Y46497081D01*
X21486019Y46497081D01*
X21486019Y47728188D01*
X21190744Y47728188D01*
X21190744Y46254194D01*
X20678114Y46254194D01*
X20678114Y48257486D01*
X25041886Y48257486D01*
X25041886Y45722514D01*
G37*
%TO.C,kibuzzard-6279C2B7*%
G36*
X34821774Y31261711D02*
G01*
X34821774Y22078289D01*
X32258226Y22078289D01*
X32258226Y22590919D01*
X32801812Y22590919D01*
X32957784Y22658784D01*
X33122091Y22740937D01*
X33279253Y22829044D01*
X33416175Y22914769D01*
X33483445Y22810589D01*
X33575719Y22740937D01*
X33686447Y22701647D01*
X33809081Y22688550D01*
X33924870Y22698373D01*
X34024584Y22727841D01*
X34175794Y22840950D01*
X34227586Y22921912D01*
X34263900Y23017162D01*
X34285331Y23125509D01*
X34292475Y23245762D01*
X34290094Y23329106D01*
X34284141Y23429119D01*
X34272234Y23532703D01*
X34254375Y23626762D01*
X32801812Y23626762D01*
X32801812Y23333869D01*
X33344737Y23333869D01*
X33344737Y23181469D01*
X33209899Y23100804D01*
X33076847Y23025497D01*
X32942009Y22957334D01*
X32801812Y22898100D01*
X32801812Y22590919D01*
X32258226Y22590919D01*
X32258226Y23850600D01*
X32801812Y23850600D01*
X33044700Y23850600D01*
X33044700Y24503062D01*
X33459037Y24503062D01*
X33459037Y23981569D01*
X33701925Y23981569D01*
X33701925Y24503062D01*
X34032919Y24503062D01*
X34032919Y23902987D01*
X34275806Y23902987D01*
X34275806Y24795956D01*
X32801812Y24795956D01*
X32801812Y23850600D01*
X32258226Y23850600D01*
X32258226Y25693687D01*
X32782762Y25693687D01*
X32793180Y25549920D01*
X32824434Y25418653D01*
X32878310Y25302270D01*
X32956594Y25203150D01*
X33060476Y25122485D01*
X33191147Y25061466D01*
X33350393Y25023068D01*
X33540000Y25010269D01*
X33725440Y25021877D01*
X33881709Y25056703D01*
X34010892Y25112365D01*
X34115072Y25186481D01*
X34194546Y25279052D01*
X34249613Y25390078D01*
X34281759Y25516582D01*
X34292475Y25655588D01*
X34285331Y25819894D01*
X34256756Y26008012D01*
X32818481Y26008012D01*
X32791097Y25847278D01*
X32782762Y25693687D01*
X32258226Y25693687D01*
X32258226Y26729531D01*
X32770856Y26729531D01*
X32792420Y26573956D01*
X32857110Y26443781D01*
X32964928Y26339006D01*
X33073647Y26278582D01*
X33205732Y26235422D01*
X33361183Y26209526D01*
X33540000Y26200894D01*
X33718817Y26209377D01*
X33874268Y26234827D01*
X34006353Y26277243D01*
X34115072Y26336625D01*
X34222890Y26440871D01*
X34287580Y26572633D01*
X34309144Y26731913D01*
X34287580Y26886429D01*
X34222890Y27016604D01*
X34115072Y27122438D01*
X34006353Y27183904D01*
X33874268Y27227808D01*
X33718817Y27254150D01*
X33540000Y27262931D01*
X33361183Y27254374D01*
X33205732Y27228701D01*
X33073647Y27185913D01*
X32964928Y27126009D01*
X32857110Y27021102D01*
X32792420Y26888943D01*
X32770856Y26729531D01*
X32258226Y26729531D01*
X32258226Y27813000D01*
X32770856Y27813000D01*
X32778893Y27682924D01*
X32803003Y27568922D01*
X32873250Y27401044D01*
X33104231Y27474863D01*
X33051844Y27595116D01*
X33025650Y27784425D01*
X33059285Y27954387D01*
X33160191Y28068984D01*
X33262981Y28117271D01*
X33391966Y28146243D01*
X33547144Y28155900D01*
X33680494Y28147863D01*
X33790031Y28123753D01*
X33946003Y28040409D01*
X34029347Y27923728D01*
X34054350Y27789188D01*
X34029347Y27611784D01*
X33968625Y27479625D01*
X34201988Y27403425D01*
X34230563Y27452241D01*
X34266281Y27532013D01*
X34296047Y27642741D01*
X34309144Y27784425D01*
X34296345Y27924026D01*
X34257947Y28052316D01*
X34194844Y28166616D01*
X34107928Y28264247D01*
X33998093Y28343721D01*
X33866231Y28403550D01*
X33713236Y28441055D01*
X33540000Y28453556D01*
X33366020Y28443287D01*
X33213173Y28412480D01*
X33081461Y28361134D01*
X32970881Y28289250D01*
X32859756Y28163308D01*
X32793081Y28004558D01*
X32770856Y27813000D01*
X32258226Y27813000D01*
X32258226Y28863131D01*
X32801812Y28863131D01*
X32801812Y28627388D01*
X34275806Y28627388D01*
X34275806Y28891706D01*
X33368550Y28891706D01*
X33461419Y28933676D01*
X33568575Y28983384D01*
X33684661Y29039344D01*
X33804319Y29100066D01*
X33926060Y29164062D01*
X34048397Y29229844D01*
X34166566Y29296519D01*
X34275806Y29363194D01*
X34275806Y29598938D01*
X32801812Y29598938D01*
X32801812Y29334619D01*
X33780506Y29334619D01*
X33617126Y29246116D01*
X33454010Y29161581D01*
X33291159Y29081016D01*
X33128308Y29004419D01*
X32965193Y28931791D01*
X32801812Y28863131D01*
X32258226Y28863131D01*
X32258226Y30749081D01*
X32801812Y30749081D01*
X32801812Y29803725D01*
X33044700Y29803725D01*
X33044700Y30456188D01*
X33459037Y30456188D01*
X33459037Y29934694D01*
X33701925Y29934694D01*
X33701925Y30456188D01*
X34032919Y30456188D01*
X34032919Y29856113D01*
X34275806Y29856113D01*
X34275806Y30749081D01*
X32801812Y30749081D01*
X32258226Y30749081D01*
X32258226Y31261711D01*
X34821774Y31261711D01*
G37*
G36*
X34036491Y25672256D02*
G01*
X34037681Y25629394D01*
X33996009Y25469850D01*
X33885281Y25372219D01*
X33725738Y25322212D01*
X33540000Y25307925D01*
X33434927Y25312390D01*
X33338784Y25325784D01*
X33180431Y25385316D01*
X33075656Y25494853D01*
X33037556Y25662731D01*
X33037556Y25688925D01*
X33039938Y25715119D01*
X34030538Y25715119D01*
X34036491Y25672256D01*
G37*
G36*
X34036491Y23286244D02*
G01*
X34037681Y23245762D01*
X34023989Y23140392D01*
X33982913Y23057644D01*
X33912666Y23004066D01*
X33811463Y22986206D01*
X33645966Y23052881D01*
X33602210Y23140392D01*
X33587625Y23269575D01*
X33587625Y23333869D01*
X34030538Y23333869D01*
X34036491Y23286244D01*
G37*
G36*
X33643584Y26963191D02*
G01*
X33740025Y26956941D01*
X33903141Y26923603D01*
X34013869Y26853356D01*
X34054350Y26731913D01*
X34013869Y26610469D01*
X33904331Y26540222D01*
X33741216Y26506884D01*
X33643882Y26500634D01*
X33540000Y26498550D01*
X33436416Y26500634D01*
X33339975Y26506884D01*
X33176859Y26540222D01*
X33066131Y26611659D01*
X33025650Y26731913D01*
X33066131Y26853356D01*
X33175669Y26923603D01*
X33338784Y26956941D01*
X33436118Y26963191D01*
X33540000Y26965275D01*
X33643584Y26963191D01*
G37*
%TD*%
D13*
%TO.C,P1*%
X27940000Y2540000D03*
X30480000Y2540000D03*
X33020000Y2540000D03*
X35560000Y2540000D03*
X38100000Y2540000D03*
X40640000Y2540000D03*
X43180000Y2540000D03*
X45720000Y2540000D03*
%TD*%
%TO.C,P2*%
X50800000Y2540000D03*
X53340000Y2540000D03*
X55880000Y2540000D03*
X58420000Y2540000D03*
X60960000Y2540000D03*
X63500000Y2540000D03*
%TD*%
%TO.C,P3*%
X18796000Y50800000D03*
X21336000Y50800000D03*
X23876000Y50800000D03*
X26416000Y50800000D03*
X28956000Y50800000D03*
X31496000Y50800000D03*
X34036000Y50800000D03*
X36576000Y50800000D03*
X39116000Y50800000D03*
X41656000Y50800000D03*
%TD*%
%TO.C,P4*%
X45720000Y50800000D03*
X48260000Y50800000D03*
X50800000Y50800000D03*
X53340000Y50800000D03*
X55880000Y50800000D03*
X58420000Y50800000D03*
X60960000Y50800000D03*
X63500000Y50800000D03*
%TD*%
D14*
%TO.C,P5*%
X13970000Y2540000D03*
%TD*%
%TO.C,P6*%
X66040000Y7620000D03*
%TD*%
%TO.C,P8*%
X66040000Y35560000D03*
%TD*%
M02*
