%TF.GenerationSoftware,KiCad,Pcbnew,(6.0.5-0)*%
%TF.CreationDate,2022-05-16T16:36:17+09:00*%
%TF.ProjectId,esp32_internet_radio_v4,65737033-325f-4696-9e74-65726e65745f,rev?*%
%TF.SameCoordinates,PX69db1f0PY7882d48*%
%TF.FileFunction,Copper,L2,Bot*%
%TF.FilePolarity,Positive*%
%FSLAX46Y46*%
G04 Gerber Fmt 4.6, Leading zero omitted, Abs format (unit mm)*
G04 Created by KiCad (PCBNEW (6.0.5-0)) date 2022-05-16 16:36:17*
%MOMM*%
%LPD*%
G01*
G04 APERTURE LIST*
%TA.AperFunction,Profile*%
%ADD10C,0.150000*%
%TD*%
%TA.AperFunction,ComponentPad*%
%ADD11O,1.727200X2.032000*%
%TD*%
%TA.AperFunction,ComponentPad*%
%ADD12C,4.064000*%
%TD*%
%TA.AperFunction,ComponentPad*%
%ADD13C,1.600000*%
%TD*%
%TA.AperFunction,ComponentPad*%
%ADD14O,1.600000X1.600000*%
%TD*%
%TA.AperFunction,ComponentPad*%
%ADD15R,1.700000X1.700000*%
%TD*%
%TA.AperFunction,ComponentPad*%
%ADD16O,1.700000X1.700000*%
%TD*%
%TA.AperFunction,ViaPad*%
%ADD17C,0.600000*%
%TD*%
%TA.AperFunction,Conductor*%
%ADD18C,0.500000*%
%TD*%
G04 APERTURE END LIST*
D10*
X68580000Y37846000D02*
X66040000Y40386000D01*
X66040000Y0D02*
X66040000Y2540000D01*
X66040000Y51816000D02*
X64516000Y53340000D01*
X66040000Y2540000D02*
X68580000Y5080000D01*
X0Y53340000D02*
X0Y0D01*
X68580000Y5080000D02*
X68580000Y37846000D01*
X0Y0D02*
X66040000Y0D01*
X64516000Y53340000D02*
X0Y53340000D01*
X66040000Y40386000D02*
X66040000Y51816000D01*
D11*
%TO.P,P1,1,Pin_1*%
%TO.N,ESPDUINO_IO0*%
X27940000Y2540000D03*
%TO.P,P1,2,Pin_2*%
%TO.N,/IOREF*%
X30480000Y2540000D03*
%TO.P,P1,3,Pin_3*%
%TO.N,RESET*%
X33020000Y2540000D03*
%TO.P,P1,4,Pin_4*%
%TO.N,ESPDUINO_3.3V*%
X35560000Y2540000D03*
%TO.P,P1,5,Pin_5*%
%TO.N,ESPDUINO_5V*%
X38100000Y2540000D03*
%TO.P,P1,6,Pin_6*%
%TO.N,ENCODER_GND*%
X40640000Y2540000D03*
%TO.P,P1,7,Pin_7*%
X43180000Y2540000D03*
%TO.P,P1,8,Pin_8*%
%TO.N,/Vin*%
X45720000Y2540000D03*
%TD*%
%TO.P,P2,1,Pin_1*%
%TO.N,ESPDUINO_IO2*%
X50800000Y2540000D03*
%TO.P,P2,2,Pin_2*%
%TO.N,ESPDUINO_IO4*%
X53340000Y2540000D03*
%TO.P,P2,3,Pin_3*%
%TO.N,ESPDUINO_IO36*%
X55880000Y2540000D03*
%TO.P,P2,4,Pin_4*%
%TO.N,ESPDUINO_IO34*%
X58420000Y2540000D03*
%TO.P,P2,5,Pin_5*%
%TO.N,ESPDUINO_IO38*%
X60960000Y2540000D03*
%TO.P,P2,6,Pin_6*%
%TO.N,ENCODER_DT*%
X63500000Y2540000D03*
%TD*%
%TO.P,P3,1,Pin_1*%
%TO.N,ENCODER_DT*%
X18796000Y50800000D03*
%TO.P,P3,2,Pin_2*%
%TO.N,ESPDUINO_IO38*%
X21336000Y50800000D03*
%TO.P,P3,3,Pin_3*%
%TO.N,/AREF*%
X23876000Y50800000D03*
%TO.P,P3,4,Pin_4*%
%TO.N,ENCODER_GND*%
X26416000Y50800000D03*
%TO.P,P3,5,Pin_5*%
%TO.N,ESPDUINO_IO18*%
X28956000Y50800000D03*
%TO.P,P3,6,Pin_6*%
%TO.N,ESPDUINO_IO19*%
X31496000Y50800000D03*
%TO.P,P3,7,Pin_7*%
%TO.N,ESPDUINO_IO23*%
X34036000Y50800000D03*
%TO.P,P3,8,Pin_8*%
%TO.N,ESPDUINO_IO5*%
X36576000Y50800000D03*
%TO.P,P3,9,Pin_9*%
%TO.N,ESPDUINO_IO13*%
X39116000Y50800000D03*
%TO.P,P3,10,Pin_10*%
%TO.N,ESPDUINO_IO12*%
X41656000Y50800000D03*
%TD*%
%TO.P,P4,1,Pin_1*%
%TO.N,ESPDUINO_IO14*%
X45720000Y50800000D03*
%TO.P,P4,2,Pin_2*%
%TO.N,ESPDUINO_IO27*%
X48260000Y50800000D03*
%TO.P,P4,3,Pin_3*%
%TO.N,ESPDUINO_IO16*%
X50800000Y50800000D03*
%TO.P,P4,4,Pin_4*%
%TO.N,ENCODER_SWITCH*%
X53340000Y50800000D03*
%TO.P,P4,5,Pin_5*%
%TO.N,ESPDUINO_IO25*%
X55880000Y50800000D03*
%TO.P,P4,6,Pin_6*%
%TO.N,ESPDUINO_IO26*%
X58420000Y50800000D03*
%TO.P,P4,7,Pin_7*%
%TO.N,ESPDUINO_TX*%
X60960000Y50800000D03*
%TO.P,P4,8,Pin_8*%
%TO.N,ESPDUINO_RX*%
X63500000Y50800000D03*
%TD*%
D12*
%TO.P,P5,1,Pin_1*%
%TO.N,unconnected-(P5-Pad1)*%
X13970000Y2540000D03*
%TD*%
%TO.P,P6,1,Pin_1*%
%TO.N,unconnected-(P6-Pad1)*%
X66040000Y7620000D03*
%TD*%
%TO.P,P7,1,Pin_1*%
%TO.N,unconnected-(P7-Pad1)*%
X15240000Y50800000D03*
%TD*%
%TO.P,P8,1,Pin_1*%
%TO.N,unconnected-(P8-Pad1)*%
X66040000Y35560000D03*
%TD*%
D13*
%TO.P,R1,1*%
%TO.N,ESPDUINO_3.3V*%
X30480000Y7620000D03*
D14*
%TO.P,R1,2*%
%TO.N,ESPDUINO_IO0*%
X20320000Y7620000D03*
%TD*%
D15*
%TO.P,J6,1,Pin_1*%
%TO.N,PCM5102_SCK*%
X15215000Y10135000D03*
D16*
%TO.P,J6,2,Pin_2*%
%TO.N,ESPDUINO_IO27*%
X12675000Y10135000D03*
%TO.P,J6,3,Pin_3*%
%TO.N,ESPDUINO_IO25*%
X10135000Y10135000D03*
%TO.P,J6,4,Pin_4*%
%TO.N,ESPDUINO_IO26*%
X7595000Y10135000D03*
%TO.P,J6,5,Pin_5*%
%TO.N,ENCODER_GND*%
X5055000Y10135000D03*
%TO.P,J6,6,Pin_6*%
%TO.N,ESPDUINO_3.3V*%
X2515000Y10135000D03*
%TD*%
D15*
%TO.P,J3,1,Pin_1*%
%TO.N,ENCODER_GND*%
X59715000Y34270000D03*
D16*
%TO.P,J3,2,Pin_2*%
%TO.N,ESPDUINO_3.3V*%
X59715000Y31730000D03*
%TO.P,J3,3,Pin_3*%
%TO.N,ESPDUINO_IO14*%
X59715000Y29190000D03*
%TO.P,J3,4,Pin_4*%
%TO.N,ESPDUINO_IO13*%
X59715000Y26650000D03*
%TO.P,J3,5,Pin_5*%
%TO.N,ESPDUINO_IO16*%
X59715000Y24110000D03*
%TO.P,J3,6,Pin_6*%
%TO.N,ESPDUINO_IO5*%
X59715000Y21570000D03*
%TO.P,J3,7,Pin_7*%
%TO.N,ST7789_BLK*%
X59715000Y19030000D03*
%TD*%
D13*
%TO.P,R2,1*%
%TO.N,ESPDUINO_3.3V*%
X30480000Y12700000D03*
D14*
%TO.P,R2,2*%
%TO.N,RESET*%
X20320000Y12700000D03*
%TD*%
D15*
%TO.P,J4,1,Pin_1*%
%TO.N,ESPDUINO_IO15*%
X35560000Y7620000D03*
D16*
%TO.P,J4,2,Pin_2*%
%TO.N,ESPDUINO_IO33*%
X38100000Y7620000D03*
%TO.P,J4,3,Pin_3*%
%TO.N,ESPDUINO_IO32*%
X40640000Y7620000D03*
%TD*%
D15*
%TO.P,J7,1,Pin_1*%
%TO.N,TFT_MISO*%
X43190000Y43180000D03*
D16*
%TO.P,J7,2,Pin_2*%
%TO.N,ESPDUINO_3.3V*%
X45730000Y43180000D03*
%TO.P,J7,3,Pin_3*%
%TO.N,ESPDUINO_IO18*%
X48270000Y43180000D03*
%TO.P,J7,4,Pin_4*%
%TO.N,ESPDUINO_IO23*%
X50810000Y43180000D03*
%TO.P,J7,5,Pin_5*%
%TO.N,ESPDUINO_IO2*%
X53350000Y43180000D03*
%TO.P,J7,6,Pin_6*%
%TO.N,ESPDUINO_IO4*%
X55890000Y43180000D03*
%TO.P,J7,7,Pin_7*%
%TO.N,ENCODER_GND*%
X58430000Y43180000D03*
%TO.P,J7,8,Pin_8*%
X60970000Y43180000D03*
%TO.P,J7,9,Pin_9*%
%TO.N,ESPDUINO_3.3V*%
X63510000Y43180000D03*
%TD*%
D15*
%TO.P,J1,1,Pin_1*%
%TO.N,ESPDUINO_IO36*%
X20840000Y21595000D03*
D16*
%TO.P,J1,2,Pin_2*%
%TO.N,ENCODER_DT*%
X20840000Y24135000D03*
%TO.P,J1,3,Pin_3*%
%TO.N,ENCODER_SWITCH*%
X20840000Y26675000D03*
%TO.P,J1,4,Pin_4*%
%TO.N,ESPDUINO_3.3V*%
X20840000Y29215000D03*
%TO.P,J1,5,Pin_5*%
%TO.N,ENCODER_GND*%
X20840000Y31755000D03*
%TD*%
D15*
%TO.P,J2,1,Pin_1*%
%TO.N,ESPDUINO_5V*%
X25385000Y43180000D03*
D16*
%TO.P,J2,2,Pin_2*%
%TO.N,ESPDUINO_IO19*%
X22845000Y43180000D03*
%TO.P,J2,3,Pin_3*%
%TO.N,ENCODER_GND*%
X20305000Y43180000D03*
%TD*%
D15*
%TO.P,J5,1,Pin_1*%
%TO.N,POWER_IN_5V_VCC*%
X59690000Y13970000D03*
D16*
%TO.P,J5,2,Pin_2*%
%TO.N,ENCODER_GND*%
X59690000Y11430000D03*
%TD*%
D17*
%TO.N,ENCODER_DT*%
X23288000Y21873700D03*
%TO.N,ESPDUINO_IO38*%
X24799500Y16112100D03*
%TO.N,ENCODER_GND*%
X5080000Y29210000D03*
X60960000Y48260000D03*
X41910000Y31750000D03*
X20320000Y2540000D03*
X24130000Y40640000D03*
X5080000Y45720000D03*
X17780000Y12700000D03*
X52070000Y35560000D03*
X5080000Y21590000D03*
X12700000Y41910000D03*
X43180000Y6350000D03*
X66040000Y16510000D03*
X3810000Y2540000D03*
X48260000Y21590000D03*
X50800000Y7620000D03*
X20320000Y35560000D03*
X12700000Y30480000D03*
X66040000Y21590000D03*
%TO.N,ESPDUINO_IO18*%
X45552800Y47706600D03*
%TO.N,ESPDUINO_IO23*%
X36313800Y35854600D03*
%TO.N,ESPDUINO_IO5*%
X35603600Y29542700D03*
%TO.N,ESPDUINO_IO13*%
X40017000Y46842400D03*
X40615700Y42347200D03*
%TO.N,ESPDUINO_IO27*%
X26592700Y15329500D03*
%TO.N,ESPDUINO_IO25*%
X27479500Y19192300D03*
%TO.N,ESPDUINO_3.3V*%
X38190700Y28157900D03*
%TO.N,ESPDUINO_IO36*%
X31821700Y4300400D03*
%TD*%
D18*
%TO.N,ESPDUINO_5V*%
X25385000Y43180000D02*
X25385000Y41879700D01*
X25842400Y41422300D02*
X25842400Y14797600D01*
X25385000Y41879700D02*
X25842400Y41422300D01*
X25842400Y14797600D02*
X38100000Y2540000D01*
%TO.N,ENCODER_DT*%
X18796000Y50800000D02*
X18796000Y49333700D01*
X20840000Y24135000D02*
X22140300Y24135000D01*
X22140300Y23021400D02*
X22140300Y24135000D01*
X18300400Y26674600D02*
X20840000Y24135000D01*
X18300400Y48838100D02*
X18300400Y26674600D01*
X23288000Y21873700D02*
X22140300Y23021400D01*
X18796000Y49333700D02*
X18300400Y48838100D01*
%TO.N,RESET*%
X20320000Y12700000D02*
X22361000Y12700000D01*
X32521000Y2540000D02*
X33020000Y2540000D01*
X22361000Y12700000D02*
X32521000Y2540000D01*
%TO.N,ESPDUINO_IO2*%
X50800000Y2540000D02*
X39865400Y13474600D01*
X41712600Y44505200D02*
X52024800Y44505200D01*
X52024800Y44505200D02*
X53350000Y43180000D01*
X39865400Y42658000D02*
X41712600Y44505200D01*
X39865400Y13474600D02*
X39865400Y42658000D01*
%TO.N,ESPDUINO_IO4*%
X53864500Y45205500D02*
X55890000Y43180000D01*
X51854900Y1054900D02*
X50264700Y1054900D01*
X39165100Y12154500D02*
X39165100Y42948200D01*
X41422400Y45205500D02*
X53864500Y45205500D01*
X50264700Y1054900D02*
X39165100Y12154500D01*
X39165100Y42948200D02*
X41422400Y45205500D01*
X53340000Y2540000D02*
X51854900Y1054900D01*
%TO.N,ESPDUINO_IO38*%
X24799400Y16112100D02*
X24799500Y16112100D01*
X19000700Y41232200D02*
X24799400Y35433500D01*
X19000700Y48464700D02*
X19000700Y41232200D01*
X24799400Y35433500D02*
X24799400Y16112100D01*
X21336000Y50800000D02*
X19000700Y48464700D01*
%TO.N,ESPDUINO_IO18*%
X42224400Y52287700D02*
X30443700Y52287700D01*
X45552800Y47706600D02*
X44135000Y49124400D01*
X44135000Y50377100D02*
X42224400Y52287700D01*
X30443700Y52287700D02*
X28956000Y50800000D01*
X44135000Y49124400D02*
X44135000Y50377100D01*
%TO.N,ESPDUINO_IO19*%
X27616100Y47951100D02*
X28647100Y47951100D01*
X28647100Y47951100D02*
X31496000Y50800000D01*
X22845000Y43180000D02*
X27616100Y47951100D01*
%TO.N,ESPDUINO_IO23*%
X34036000Y38132400D02*
X36313800Y35854600D01*
X34036000Y50800000D02*
X34036000Y38132400D01*
%TO.N,ESPDUINO_IO5*%
X37064200Y31003300D02*
X35603600Y29542700D01*
X37064200Y48845500D02*
X37064200Y31003300D01*
X36576000Y50800000D02*
X36576000Y49333700D01*
X36576000Y49333700D02*
X37064200Y48845500D01*
%TO.N,ESPDUINO_IO13*%
X39116000Y50800000D02*
X39116000Y49333700D01*
X39116000Y49333700D02*
X40017000Y48432700D01*
X56312900Y26650000D02*
X58414700Y26650000D01*
X59715000Y26650000D02*
X58414700Y26650000D01*
X40017000Y48432700D02*
X40017000Y46842400D01*
X40615700Y42347200D02*
X56312900Y26650000D01*
%TO.N,ESPDUINO_IO27*%
X45882500Y46956200D02*
X41192100Y46956200D01*
X48260000Y50800000D02*
X48260000Y49333700D01*
X41192100Y46956200D02*
X37764500Y43528600D01*
X48260000Y49333700D02*
X45882500Y46956200D01*
X26592700Y19366600D02*
X26592700Y15329500D01*
X37764400Y30538300D02*
X26592700Y19366600D01*
X37764500Y30538300D02*
X37764400Y30538300D01*
X37764500Y43528600D02*
X37764500Y30538300D01*
%TO.N,ESPDUINO_IO16*%
X59715000Y24110000D02*
X63555000Y27950000D01*
X64823700Y51495000D02*
X64027900Y52290800D01*
X63555000Y39334500D02*
X64823700Y40603200D01*
X52290800Y52290800D02*
X50800000Y50800000D01*
X64823700Y40603200D02*
X64823700Y51495000D01*
X64027900Y52290800D02*
X52290800Y52290800D01*
X63555000Y27950000D02*
X63555000Y39334500D01*
%TO.N,ESPDUINO_IO25*%
X50985900Y45905900D02*
X41132300Y45905900D01*
X38464800Y30177600D02*
X27479500Y19192300D01*
X38464800Y43238400D02*
X38464800Y30177600D01*
X55880000Y50800000D02*
X50985900Y45905900D01*
X41132300Y45905900D02*
X38464800Y43238400D01*
%TO.N,ESPDUINO_3.3V*%
X24061300Y20782000D02*
X24061300Y25993700D01*
X61017800Y41049300D02*
X61017800Y33032800D01*
X30480000Y7620000D02*
X23983300Y14116700D01*
X63510000Y41879700D02*
X62679600Y41049300D01*
X30480000Y20447200D02*
X38190700Y28157900D01*
X23983300Y20704000D02*
X24061300Y20782000D01*
X30480000Y7620000D02*
X35560000Y2540000D01*
X47860700Y41049300D02*
X45730000Y43180000D01*
X30480000Y12700000D02*
X30480000Y20447200D01*
X61017800Y41049300D02*
X47860700Y41049300D01*
X23983300Y14116700D02*
X23983300Y20704000D01*
X61017800Y33032800D02*
X59715000Y31730000D01*
X63510000Y43180000D02*
X63510000Y41879700D01*
X24061300Y25993700D02*
X20840000Y29215000D01*
X62679600Y41049300D02*
X61017800Y41049300D01*
%TO.N,ESPDUINO_IO36*%
X20840000Y21595000D02*
X20840000Y15282100D01*
X20840000Y15282100D02*
X31821700Y4300400D01*
%TD*%
%TA.AperFunction,Conductor*%
%TO.N,ENCODER_GND*%
G36*
X13441997Y52811498D02*
G01*
X13488490Y52757842D01*
X13498594Y52687568D01*
X13469100Y52622988D01*
X13460129Y52613650D01*
X13384394Y52542530D01*
X13180629Y52296221D01*
X13178505Y52292874D01*
X13178502Y52292870D01*
X13111830Y52187812D01*
X13009341Y52026315D01*
X13007657Y52022736D01*
X13007653Y52022729D01*
X12904875Y51804313D01*
X12873233Y51737070D01*
X12872007Y51733298D01*
X12872007Y51733297D01*
X12870107Y51727449D01*
X12774449Y51433046D01*
X12714549Y51119039D01*
X12694477Y50800000D01*
X12714549Y50480961D01*
X12774449Y50166954D01*
X12775676Y50163178D01*
X12870201Y49872263D01*
X12873233Y49862930D01*
X12874920Y49859344D01*
X12874922Y49859340D01*
X13007653Y49577271D01*
X13007657Y49577264D01*
X13009341Y49573685D01*
X13011465Y49570339D01*
X13011465Y49570338D01*
X13176830Y49309766D01*
X13180629Y49303779D01*
X13271812Y49193558D01*
X13368682Y49076463D01*
X13384394Y49057470D01*
X13617423Y48838641D01*
X13620625Y48836314D01*
X13620627Y48836313D01*
X13686857Y48788194D01*
X13876041Y48650744D01*
X13879510Y48648837D01*
X13879513Y48648835D01*
X14139489Y48505912D01*
X14156169Y48496742D01*
X14283543Y48446311D01*
X14449707Y48380522D01*
X14449710Y48380521D01*
X14453390Y48379064D01*
X14457224Y48378080D01*
X14457232Y48378077D01*
X14591337Y48343645D01*
X14763017Y48299565D01*
X14766945Y48299069D01*
X14766949Y48299068D01*
X14892642Y48283190D01*
X15080165Y48259500D01*
X15399835Y48259500D01*
X15587358Y48283190D01*
X15713051Y48299068D01*
X15713055Y48299069D01*
X15716983Y48299565D01*
X15888663Y48343645D01*
X16022768Y48378077D01*
X16022776Y48378080D01*
X16026610Y48379064D01*
X16030290Y48380521D01*
X16030293Y48380522D01*
X16196457Y48446311D01*
X16323831Y48496742D01*
X16340512Y48505912D01*
X16600487Y48648835D01*
X16600490Y48648837D01*
X16603959Y48650744D01*
X16793143Y48788194D01*
X16859373Y48836313D01*
X16859375Y48836314D01*
X16862577Y48838641D01*
X17095606Y49057470D01*
X17111319Y49076463D01*
X17208188Y49193558D01*
X17299371Y49303779D01*
X17303171Y49309766D01*
X17468535Y49570338D01*
X17468535Y49570339D01*
X17470659Y49573685D01*
X17472343Y49577264D01*
X17472347Y49577271D01*
X17542177Y49725668D01*
X17589280Y49778789D01*
X17657625Y49798012D01*
X17725512Y49777233D01*
X17747355Y49758992D01*
X17858309Y49642682D01*
X17890856Y49579585D01*
X17884124Y49508908D01*
X17856234Y49466615D01*
X17811489Y49421870D01*
X17797077Y49409484D01*
X17785482Y49400951D01*
X17785477Y49400946D01*
X17779582Y49396608D01*
X17774843Y49391030D01*
X17774840Y49391027D01*
X17745365Y49356332D01*
X17738435Y49348816D01*
X17732740Y49343121D01*
X17730460Y49340239D01*
X17715119Y49320849D01*
X17712328Y49317445D01*
X17672373Y49270415D01*
X17665067Y49261815D01*
X17661739Y49255299D01*
X17658372Y49250250D01*
X17655205Y49245121D01*
X17650666Y49239384D01*
X17619745Y49173225D01*
X17617842Y49169331D01*
X17584631Y49104292D01*
X17582892Y49097184D01*
X17580793Y49091541D01*
X17578876Y49085778D01*
X17575778Y49079150D01*
X17563721Y49021181D01*
X17560914Y49007688D01*
X17559944Y49003404D01*
X17542592Y48932490D01*
X17541900Y48921336D01*
X17541864Y48921338D01*
X17541625Y48917345D01*
X17541251Y48913153D01*
X17539760Y48905985D01*
X17540198Y48889793D01*
X17541854Y48828579D01*
X17541900Y48825172D01*
X17541900Y26741670D01*
X17540467Y26722720D01*
X17537201Y26701251D01*
X17537794Y26693959D01*
X17537794Y26693956D01*
X17541485Y26648582D01*
X17541900Y26638367D01*
X17541900Y26630307D01*
X17542325Y26626663D01*
X17545189Y26602093D01*
X17545622Y26597718D01*
X17550458Y26538267D01*
X17551540Y26524963D01*
X17553796Y26517999D01*
X17554987Y26512040D01*
X17556371Y26506185D01*
X17557218Y26498919D01*
X17582135Y26430273D01*
X17583552Y26426145D01*
X17597861Y26381977D01*
X17606049Y26356701D01*
X17609845Y26350446D01*
X17612351Y26344972D01*
X17615070Y26339542D01*
X17617567Y26332663D01*
X17621580Y26326543D01*
X17621580Y26326542D01*
X17657586Y26271624D01*
X17659923Y26267920D01*
X17697805Y26205493D01*
X17701521Y26201285D01*
X17701522Y26201284D01*
X17705203Y26197116D01*
X17705176Y26197092D01*
X17707829Y26194100D01*
X17710532Y26190867D01*
X17714544Y26184748D01*
X17719856Y26179716D01*
X17770783Y26131472D01*
X17773225Y26129094D01*
X19459449Y24442870D01*
X19493475Y24380558D01*
X19495641Y24340387D01*
X19477251Y24168305D01*
X19477548Y24163152D01*
X19477548Y24163149D01*
X19489812Y23950453D01*
X19490110Y23945285D01*
X19491247Y23940239D01*
X19491248Y23940233D01*
X19515304Y23833492D01*
X19539222Y23727361D01*
X19623266Y23520384D01*
X19625965Y23515980D01*
X19720944Y23360988D01*
X19739987Y23329912D01*
X19886250Y23161062D01*
X19890230Y23157758D01*
X19894981Y23153813D01*
X19934616Y23094910D01*
X19936113Y23023929D01*
X19898997Y22963407D01*
X19858724Y22938888D01*
X19743295Y22895615D01*
X19626739Y22808261D01*
X19539385Y22691705D01*
X19488255Y22555316D01*
X19481500Y22493134D01*
X19481500Y20696866D01*
X19488255Y20634684D01*
X19539385Y20498295D01*
X19626739Y20381739D01*
X19743295Y20294385D01*
X19879684Y20243255D01*
X19941866Y20236500D01*
X19955500Y20236500D01*
X20023621Y20216498D01*
X20070114Y20162842D01*
X20081500Y20110500D01*
X20081500Y15349170D01*
X20080067Y15330220D01*
X20078356Y15318971D01*
X20076801Y15308751D01*
X20077394Y15301459D01*
X20077394Y15301456D01*
X20081085Y15256082D01*
X20081500Y15245867D01*
X20081500Y15237807D01*
X20081925Y15234163D01*
X20084789Y15209593D01*
X20085222Y15205218D01*
X20091140Y15132463D01*
X20093396Y15125499D01*
X20094587Y15119540D01*
X20095971Y15113685D01*
X20096818Y15106419D01*
X20121735Y15037773D01*
X20123152Y15033645D01*
X20145649Y14964201D01*
X20149445Y14957946D01*
X20151951Y14952472D01*
X20154670Y14947042D01*
X20157167Y14940163D01*
X20161180Y14934043D01*
X20161180Y14934042D01*
X20197186Y14879124D01*
X20199523Y14875420D01*
X20237405Y14812993D01*
X20241121Y14808785D01*
X20241122Y14808784D01*
X20244803Y14804616D01*
X20244776Y14804592D01*
X20247429Y14801600D01*
X20250132Y14798367D01*
X20254144Y14792248D01*
X20291384Y14756970D01*
X20310383Y14738972D01*
X20312825Y14736594D01*
X20912070Y14137349D01*
X20946096Y14075037D01*
X20941031Y14004222D01*
X20898484Y13947386D01*
X20831964Y13922575D01*
X20780151Y13932146D01*
X20779398Y13930078D01*
X20774225Y13931961D01*
X20769243Y13934284D01*
X20763935Y13935706D01*
X20763933Y13935707D01*
X20553402Y13992119D01*
X20553400Y13992119D01*
X20548087Y13993543D01*
X20320000Y14013498D01*
X20091913Y13993543D01*
X20086600Y13992119D01*
X20086598Y13992119D01*
X19876067Y13935707D01*
X19876065Y13935706D01*
X19870757Y13934284D01*
X19865776Y13931961D01*
X19865775Y13931961D01*
X19668238Y13839849D01*
X19668233Y13839846D01*
X19663251Y13837523D01*
X19586970Y13784110D01*
X19480211Y13709357D01*
X19480208Y13709355D01*
X19475700Y13706198D01*
X19313802Y13544300D01*
X19182477Y13356749D01*
X19180154Y13351767D01*
X19180151Y13351762D01*
X19088039Y13154225D01*
X19085716Y13149243D01*
X19084294Y13143935D01*
X19084293Y13143933D01*
X19050426Y13017540D01*
X19026457Y12928087D01*
X19006502Y12700000D01*
X19026457Y12471913D01*
X19027881Y12466600D01*
X19027881Y12466598D01*
X19040303Y12420241D01*
X19085716Y12250757D01*
X19088039Y12245776D01*
X19088039Y12245775D01*
X19180151Y12048238D01*
X19180154Y12048233D01*
X19182477Y12043251D01*
X19227593Y11978819D01*
X19307903Y11864125D01*
X19313802Y11855700D01*
X19475700Y11693802D01*
X19480208Y11690645D01*
X19480211Y11690643D01*
X19558389Y11635902D01*
X19663251Y11562477D01*
X19668233Y11560154D01*
X19668238Y11560151D01*
X19865775Y11468039D01*
X19870757Y11465716D01*
X19876065Y11464294D01*
X19876067Y11464293D01*
X20086598Y11407881D01*
X20086600Y11407881D01*
X20091913Y11406457D01*
X20320000Y11386502D01*
X20548087Y11406457D01*
X20553400Y11407881D01*
X20553402Y11407881D01*
X20763933Y11464293D01*
X20763935Y11464294D01*
X20769243Y11465716D01*
X20774225Y11468039D01*
X20971762Y11560151D01*
X20971767Y11560154D01*
X20976749Y11562477D01*
X21081611Y11635902D01*
X21159789Y11690643D01*
X21159792Y11690645D01*
X21164300Y11693802D01*
X21326198Y11855700D01*
X21348655Y11887771D01*
X21404110Y11932099D01*
X21451867Y11941500D01*
X21994629Y11941500D01*
X22062750Y11921498D01*
X22083724Y11904595D01*
X29875392Y4112927D01*
X29909418Y4050615D01*
X29904353Y3979800D01*
X29861806Y3922964D01*
X29851663Y3916114D01*
X29673209Y3807824D01*
X29673200Y3807818D01*
X29668641Y3805051D01*
X29664611Y3801554D01*
X29570075Y3719520D01*
X29492770Y3652439D01*
X29489387Y3648313D01*
X29489383Y3648309D01*
X29416262Y3559131D01*
X29345128Y3472376D01*
X29342490Y3467741D01*
X29342487Y3467737D01*
X29319155Y3426748D01*
X29268073Y3377442D01*
X29198442Y3363580D01*
X29132371Y3389563D01*
X29105133Y3418713D01*
X29016388Y3550530D01*
X29013196Y3555272D01*
X28852468Y3723758D01*
X28665650Y3862754D01*
X28538574Y3927363D01*
X28462842Y3965867D01*
X28462841Y3965867D01*
X28458084Y3968286D01*
X28325621Y4009417D01*
X28240807Y4035753D01*
X28240801Y4035754D01*
X28235704Y4037337D01*
X28090714Y4056554D01*
X28010152Y4067232D01*
X28010148Y4067232D01*
X28004868Y4067932D01*
X27999538Y4067732D01*
X27999537Y4067732D01*
X27888523Y4063565D01*
X27772178Y4059197D01*
X27747167Y4053949D01*
X27549514Y4012477D01*
X27549511Y4012476D01*
X27544287Y4011380D01*
X27327710Y3925850D01*
X27128641Y3805051D01*
X27124611Y3801554D01*
X27030075Y3719520D01*
X26952770Y3652439D01*
X26949387Y3648313D01*
X26949383Y3648309D01*
X26876262Y3559131D01*
X26805128Y3472376D01*
X26802490Y3467741D01*
X26802487Y3467737D01*
X26739589Y3357240D01*
X26689935Y3270011D01*
X26688114Y3264995D01*
X26688112Y3264990D01*
X26646302Y3149806D01*
X26610485Y3051131D01*
X26569050Y2821993D01*
X26568855Y2817854D01*
X26568854Y2817847D01*
X26567970Y2799095D01*
X26567900Y2797606D01*
X26567900Y2329132D01*
X26582626Y2155580D01*
X26583964Y2150423D01*
X26583965Y2150420D01*
X26616816Y2023854D01*
X26641125Y1930194D01*
X26643317Y1925328D01*
X26643318Y1925325D01*
X26651594Y1906954D01*
X26736762Y1717887D01*
X26866804Y1524728D01*
X27027532Y1356242D01*
X27214350Y1217246D01*
X27219102Y1214830D01*
X27416244Y1114598D01*
X27421916Y1111714D01*
X27533106Y1077188D01*
X27639193Y1044247D01*
X27639199Y1044246D01*
X27644296Y1042663D01*
X27768660Y1026180D01*
X27869848Y1012768D01*
X27869852Y1012768D01*
X27875132Y1012068D01*
X27880462Y1012268D01*
X27880463Y1012268D01*
X27991477Y1016436D01*
X28107822Y1020803D01*
X28212005Y1042663D01*
X28330486Y1067523D01*
X28330489Y1067524D01*
X28335713Y1068620D01*
X28552290Y1154150D01*
X28751359Y1274949D01*
X28755855Y1278850D01*
X28923197Y1424061D01*
X28923199Y1424063D01*
X28927230Y1427561D01*
X28930613Y1431687D01*
X28930617Y1431691D01*
X29029776Y1552626D01*
X29074872Y1607624D01*
X29077672Y1612542D01*
X29100845Y1653252D01*
X29151927Y1702558D01*
X29221558Y1716420D01*
X29287629Y1690437D01*
X29314867Y1661287D01*
X29406804Y1524728D01*
X29567532Y1356242D01*
X29754350Y1217246D01*
X29759102Y1214830D01*
X29956244Y1114598D01*
X29961916Y1111714D01*
X30073106Y1077188D01*
X30179193Y1044247D01*
X30179199Y1044246D01*
X30184296Y1042663D01*
X30308660Y1026180D01*
X30409848Y1012768D01*
X30409852Y1012768D01*
X30415132Y1012068D01*
X30420462Y1012268D01*
X30420463Y1012268D01*
X30531477Y1016436D01*
X30647822Y1020803D01*
X30752005Y1042663D01*
X30870486Y1067523D01*
X30870489Y1067524D01*
X30875713Y1068620D01*
X31092290Y1154150D01*
X31291359Y1274949D01*
X31295855Y1278850D01*
X31463197Y1424061D01*
X31463199Y1424063D01*
X31467230Y1427561D01*
X31470613Y1431687D01*
X31470617Y1431691D01*
X31569776Y1552626D01*
X31614872Y1607624D01*
X31617672Y1612542D01*
X31640845Y1653252D01*
X31691927Y1702558D01*
X31761558Y1716420D01*
X31827629Y1690437D01*
X31854867Y1661287D01*
X31946804Y1524728D01*
X32107532Y1356242D01*
X32294350Y1217246D01*
X32299102Y1214830D01*
X32496244Y1114598D01*
X32501916Y1111714D01*
X32613106Y1077188D01*
X32719193Y1044247D01*
X32719199Y1044246D01*
X32724296Y1042663D01*
X32848660Y1026180D01*
X32949848Y1012768D01*
X32949852Y1012768D01*
X32955132Y1012068D01*
X32960462Y1012268D01*
X32960463Y1012268D01*
X33071477Y1016436D01*
X33187822Y1020803D01*
X33292005Y1042663D01*
X33410486Y1067523D01*
X33410489Y1067524D01*
X33415713Y1068620D01*
X33632290Y1154150D01*
X33831359Y1274949D01*
X33835855Y1278850D01*
X34003197Y1424061D01*
X34003199Y1424063D01*
X34007230Y1427561D01*
X34010613Y1431687D01*
X34010617Y1431691D01*
X34109776Y1552626D01*
X34154872Y1607624D01*
X34157672Y1612542D01*
X34180845Y1653252D01*
X34231927Y1702558D01*
X34301558Y1716420D01*
X34367629Y1690437D01*
X34394867Y1661287D01*
X34486804Y1524728D01*
X34647532Y1356242D01*
X34834350Y1217246D01*
X34839102Y1214830D01*
X35036244Y1114598D01*
X35041916Y1111714D01*
X35153106Y1077188D01*
X35259193Y1044247D01*
X35259199Y1044246D01*
X35264296Y1042663D01*
X35388660Y1026180D01*
X35489848Y1012768D01*
X35489852Y1012768D01*
X35495132Y1012068D01*
X35500462Y1012268D01*
X35500463Y1012268D01*
X35611477Y1016436D01*
X35727822Y1020803D01*
X35832005Y1042663D01*
X35950486Y1067523D01*
X35950489Y1067524D01*
X35955713Y1068620D01*
X36172290Y1154150D01*
X36371359Y1274949D01*
X36375855Y1278850D01*
X36543197Y1424061D01*
X36543199Y1424063D01*
X36547230Y1427561D01*
X36550613Y1431687D01*
X36550617Y1431691D01*
X36649776Y1552626D01*
X36694872Y1607624D01*
X36697672Y1612542D01*
X36720845Y1653252D01*
X36771927Y1702558D01*
X36841558Y1716420D01*
X36907629Y1690437D01*
X36934867Y1661287D01*
X37026804Y1524728D01*
X37187532Y1356242D01*
X37374350Y1217246D01*
X37379102Y1214830D01*
X37576244Y1114598D01*
X37581916Y1111714D01*
X37693106Y1077188D01*
X37799193Y1044247D01*
X37799199Y1044246D01*
X37804296Y1042663D01*
X37928660Y1026180D01*
X38029848Y1012768D01*
X38029852Y1012768D01*
X38035132Y1012068D01*
X38040462Y1012268D01*
X38040463Y1012268D01*
X38151477Y1016436D01*
X38267822Y1020803D01*
X38372005Y1042663D01*
X38490486Y1067523D01*
X38490489Y1067524D01*
X38495713Y1068620D01*
X38712290Y1154150D01*
X38911359Y1274949D01*
X38915855Y1278850D01*
X39083197Y1424061D01*
X39083199Y1424063D01*
X39087230Y1427561D01*
X39090613Y1431687D01*
X39090617Y1431691D01*
X39189776Y1552626D01*
X39234872Y1607624D01*
X39261122Y1653739D01*
X39312202Y1703044D01*
X39381832Y1716906D01*
X39447904Y1690923D01*
X39475143Y1661773D01*
X39564215Y1529470D01*
X39570876Y1521184D01*
X39724180Y1360480D01*
X39732148Y1353431D01*
X39910336Y1220856D01*
X39919366Y1215257D01*
X40117347Y1114598D01*
X40127208Y1110595D01*
X40339301Y1044737D01*
X40349696Y1042452D01*
X40368041Y1040020D01*
X40382208Y1042217D01*
X40386000Y1055401D01*
X40386000Y1057512D01*
X40894000Y1057512D01*
X40897973Y1043981D01*
X40908580Y1042456D01*
X41030343Y1068004D01*
X41040539Y1071064D01*
X41247097Y1152637D01*
X41256634Y1157371D01*
X41446503Y1272586D01*
X41455093Y1278850D01*
X41622837Y1424411D01*
X41630257Y1432041D01*
X41771073Y1603780D01*
X41777095Y1612542D01*
X41800810Y1654202D01*
X41851893Y1703508D01*
X41921524Y1717369D01*
X41987594Y1691385D01*
X42014832Y1662236D01*
X42104215Y1529469D01*
X42110876Y1521184D01*
X42264180Y1360480D01*
X42272148Y1353431D01*
X42450336Y1220856D01*
X42459366Y1215257D01*
X42657347Y1114598D01*
X42667208Y1110595D01*
X42879301Y1044737D01*
X42889696Y1042452D01*
X42908041Y1040020D01*
X42922208Y1042217D01*
X42926000Y1055401D01*
X42926000Y2267885D01*
X42921525Y2283124D01*
X42920135Y2284329D01*
X42912452Y2286000D01*
X40912115Y2286000D01*
X40896876Y2281525D01*
X40895671Y2280135D01*
X40894000Y2272452D01*
X40894000Y1057512D01*
X40386000Y1057512D01*
X40386000Y2812115D01*
X40894000Y2812115D01*
X40898475Y2796876D01*
X40899865Y2795671D01*
X40907548Y2794000D01*
X42907885Y2794000D01*
X42923124Y2798475D01*
X42924329Y2799865D01*
X42926000Y2807548D01*
X42926000Y4022488D01*
X42922027Y4036019D01*
X42911420Y4037544D01*
X42789657Y4011996D01*
X42779461Y4008936D01*
X42572903Y3927363D01*
X42563366Y3922629D01*
X42373497Y3807414D01*
X42364907Y3801150D01*
X42197163Y3655589D01*
X42189743Y3647959D01*
X42048927Y3476220D01*
X42042905Y3467458D01*
X42019190Y3425798D01*
X41968107Y3376492D01*
X41898476Y3362631D01*
X41832406Y3388615D01*
X41805168Y3417764D01*
X41715785Y3550531D01*
X41709124Y3558816D01*
X41555820Y3719520D01*
X41547852Y3726569D01*
X41369664Y3859144D01*
X41360634Y3864743D01*
X41162653Y3965402D01*
X41152792Y3969405D01*
X40940699Y4035263D01*
X40930304Y4037548D01*
X40911959Y4039980D01*
X40897792Y4037783D01*
X40894000Y4024599D01*
X40894000Y2812115D01*
X40386000Y2812115D01*
X40386000Y4022488D01*
X40382027Y4036019D01*
X40371420Y4037544D01*
X40249657Y4011996D01*
X40239461Y4008936D01*
X40032903Y3927363D01*
X40023366Y3922629D01*
X39833497Y3807414D01*
X39824907Y3801150D01*
X39657163Y3655589D01*
X39649743Y3647959D01*
X39508927Y3476220D01*
X39502898Y3467449D01*
X39479467Y3426285D01*
X39428385Y3376978D01*
X39358755Y3363116D01*
X39292684Y3389099D01*
X39265445Y3418249D01*
X39229005Y3472376D01*
X39173196Y3555272D01*
X39012468Y3723758D01*
X38825650Y3862754D01*
X38698574Y3927363D01*
X38622842Y3965867D01*
X38622841Y3965867D01*
X38618084Y3968286D01*
X38485621Y4009417D01*
X38400807Y4035753D01*
X38400801Y4035754D01*
X38395704Y4037337D01*
X38250714Y4056554D01*
X38170152Y4067232D01*
X38170148Y4067232D01*
X38164868Y4067932D01*
X38159538Y4067732D01*
X38159537Y4067732D01*
X38048523Y4063565D01*
X37932178Y4059197D01*
X37907167Y4053949D01*
X37768563Y4024867D01*
X37697787Y4030454D01*
X37653594Y4059087D01*
X35666276Y6046405D01*
X35632250Y6108717D01*
X35637315Y6179532D01*
X35679862Y6236368D01*
X35746382Y6261179D01*
X35755371Y6261500D01*
X36458134Y6261500D01*
X36520316Y6268255D01*
X36656705Y6319385D01*
X36773261Y6406739D01*
X36860615Y6523295D01*
X36882799Y6582471D01*
X36904598Y6640618D01*
X36947240Y6697382D01*
X37013802Y6722082D01*
X37083150Y6706874D01*
X37117817Y6678886D01*
X37146250Y6646062D01*
X37318126Y6503368D01*
X37511000Y6390662D01*
X37515825Y6388820D01*
X37515826Y6388819D01*
X37588612Y6361025D01*
X37719692Y6310970D01*
X37724760Y6309939D01*
X37724763Y6309938D01*
X37832017Y6288117D01*
X37938597Y6266433D01*
X37943772Y6266243D01*
X37943774Y6266243D01*
X38156673Y6258436D01*
X38156677Y6258436D01*
X38161837Y6258247D01*
X38166957Y6258903D01*
X38166959Y6258903D01*
X38378288Y6285975D01*
X38378289Y6285975D01*
X38383416Y6286632D01*
X38449646Y6306502D01*
X38592429Y6349339D01*
X38592434Y6349341D01*
X38597384Y6350826D01*
X38797994Y6449104D01*
X38979860Y6578827D01*
X39011788Y6610643D01*
X39134435Y6732863D01*
X39138096Y6736511D01*
X39169498Y6780211D01*
X39268453Y6917923D01*
X39269776Y6916972D01*
X39316645Y6960143D01*
X39386580Y6972375D01*
X39452026Y6944856D01*
X39479875Y6913006D01*
X39539987Y6814912D01*
X39686250Y6646062D01*
X39858126Y6503368D01*
X40051000Y6390662D01*
X40055825Y6388820D01*
X40055826Y6388819D01*
X40128612Y6361025D01*
X40259692Y6310970D01*
X40264760Y6309939D01*
X40264763Y6309938D01*
X40372017Y6288117D01*
X40478597Y6266433D01*
X40483772Y6266243D01*
X40483774Y6266243D01*
X40696673Y6258436D01*
X40696677Y6258436D01*
X40701837Y6258247D01*
X40706957Y6258903D01*
X40706959Y6258903D01*
X40918288Y6285975D01*
X40918289Y6285975D01*
X40923416Y6286632D01*
X40989646Y6306502D01*
X41132429Y6349339D01*
X41132434Y6349341D01*
X41137384Y6350826D01*
X41337994Y6449104D01*
X41519860Y6578827D01*
X41551788Y6610643D01*
X41674435Y6732863D01*
X41678096Y6736511D01*
X41709498Y6780211D01*
X41805435Y6913723D01*
X41808453Y6917923D01*
X41828628Y6958743D01*
X41905136Y7113547D01*
X41905137Y7113549D01*
X41907430Y7118189D01*
X41972370Y7331931D01*
X42001529Y7553410D01*
X42003022Y7614525D01*
X42003074Y7616635D01*
X42003074Y7616639D01*
X42003156Y7620000D01*
X41984852Y7842639D01*
X41961634Y7935076D01*
X41955220Y7960610D01*
X41958024Y8031551D01*
X41998737Y8089714D01*
X42064432Y8116633D01*
X42134252Y8103762D01*
X42166519Y8080400D01*
X45976362Y4270557D01*
X46010388Y4208245D01*
X46005323Y4137430D01*
X45962776Y4080594D01*
X45896256Y4055783D01*
X45870715Y4056554D01*
X45819122Y4063392D01*
X45790151Y4067232D01*
X45790149Y4067232D01*
X45784868Y4067932D01*
X45779538Y4067732D01*
X45779537Y4067732D01*
X45668523Y4063565D01*
X45552178Y4059197D01*
X45527167Y4053949D01*
X45329514Y4012477D01*
X45329511Y4012476D01*
X45324287Y4011380D01*
X45107710Y3925850D01*
X44908641Y3805051D01*
X44904611Y3801554D01*
X44810075Y3719520D01*
X44732770Y3652439D01*
X44729387Y3648313D01*
X44729383Y3648309D01*
X44656262Y3559131D01*
X44585128Y3472376D01*
X44558878Y3426261D01*
X44507798Y3376956D01*
X44438168Y3363094D01*
X44372096Y3389077D01*
X44344857Y3418227D01*
X44255785Y3550530D01*
X44249124Y3558816D01*
X44095820Y3719520D01*
X44087852Y3726569D01*
X43909664Y3859144D01*
X43900634Y3864743D01*
X43702653Y3965402D01*
X43692792Y3969405D01*
X43480699Y4035263D01*
X43470304Y4037548D01*
X43451959Y4039980D01*
X43437792Y4037783D01*
X43434000Y4024599D01*
X43434000Y1057512D01*
X43437973Y1043981D01*
X43448580Y1042456D01*
X43570343Y1068004D01*
X43580539Y1071064D01*
X43787097Y1152637D01*
X43796634Y1157371D01*
X43986503Y1272586D01*
X43995093Y1278850D01*
X44162837Y1424411D01*
X44170257Y1432041D01*
X44311073Y1603780D01*
X44317102Y1612551D01*
X44340533Y1653715D01*
X44391615Y1703022D01*
X44461245Y1716884D01*
X44527316Y1690901D01*
X44554555Y1661751D01*
X44646804Y1524728D01*
X44807532Y1356242D01*
X44994350Y1217246D01*
X44999102Y1214830D01*
X45196244Y1114598D01*
X45201916Y1111714D01*
X45313106Y1077188D01*
X45419193Y1044247D01*
X45419199Y1044246D01*
X45424296Y1042663D01*
X45548660Y1026180D01*
X45649848Y1012768D01*
X45649852Y1012768D01*
X45655132Y1012068D01*
X45660462Y1012268D01*
X45660463Y1012268D01*
X45771477Y1016436D01*
X45887822Y1020803D01*
X45992005Y1042663D01*
X46110486Y1067523D01*
X46110489Y1067524D01*
X46115713Y1068620D01*
X46332290Y1154150D01*
X46531359Y1274949D01*
X46535855Y1278850D01*
X46703197Y1424061D01*
X46703199Y1424063D01*
X46707230Y1427561D01*
X46710613Y1431687D01*
X46710617Y1431691D01*
X46809776Y1552626D01*
X46854872Y1607624D01*
X46857672Y1612542D01*
X46967422Y1805346D01*
X46970065Y1809989D01*
X46990239Y1865565D01*
X47047695Y2023854D01*
X47047696Y2023858D01*
X47049515Y2028869D01*
X47090950Y2258007D01*
X47091632Y2272452D01*
X47092030Y2280905D01*
X47092030Y2280914D01*
X47092100Y2282394D01*
X47092100Y2750868D01*
X47083796Y2848732D01*
X47097967Y2918299D01*
X47147500Y2969162D01*
X47216668Y2985171D01*
X47283511Y2961244D01*
X47298440Y2948479D01*
X49523324Y723595D01*
X49557350Y661283D01*
X49552285Y590468D01*
X49509738Y533632D01*
X49443218Y508821D01*
X49434229Y508500D01*
X15836124Y508500D01*
X15768003Y528502D01*
X15721510Y582158D01*
X15711406Y652432D01*
X15740900Y717012D01*
X15749871Y726350D01*
X15822715Y794755D01*
X15822716Y794756D01*
X15825606Y797470D01*
X16029371Y1043779D01*
X16038087Y1057512D01*
X16198535Y1310338D01*
X16198535Y1310339D01*
X16200659Y1313685D01*
X16202343Y1317264D01*
X16202347Y1317271D01*
X16335078Y1599340D01*
X16335080Y1599344D01*
X16336767Y1602930D01*
X16339800Y1612263D01*
X16434324Y1903178D01*
X16435551Y1906954D01*
X16495451Y2220961D01*
X16515523Y2540000D01*
X16495451Y2859039D01*
X16435551Y3173046D01*
X16339890Y3467458D01*
X16337993Y3473297D01*
X16337993Y3473298D01*
X16336767Y3477070D01*
X16335078Y3480660D01*
X16202347Y3762729D01*
X16202343Y3762736D01*
X16200659Y3766315D01*
X16137924Y3865170D01*
X16031498Y4032870D01*
X16031495Y4032874D01*
X16029371Y4036221D01*
X15825606Y4282530D01*
X15806577Y4300400D01*
X15696705Y4403576D01*
X15592577Y4501359D01*
X15333959Y4689256D01*
X15330487Y4691165D01*
X15057293Y4841355D01*
X15057290Y4841357D01*
X15053831Y4843258D01*
X14783527Y4950279D01*
X14760293Y4959478D01*
X14760290Y4959479D01*
X14756610Y4960936D01*
X14752776Y4961920D01*
X14752768Y4961923D01*
X14560847Y5011200D01*
X14446983Y5040435D01*
X14443055Y5040931D01*
X14443051Y5040932D01*
X14287423Y5060592D01*
X14129835Y5080500D01*
X13810165Y5080500D01*
X13652577Y5060592D01*
X13496949Y5040932D01*
X13496945Y5040931D01*
X13493017Y5040435D01*
X13379153Y5011200D01*
X13187232Y4961923D01*
X13187224Y4961920D01*
X13183390Y4960936D01*
X13179710Y4959479D01*
X13179707Y4959478D01*
X13156473Y4950279D01*
X12886169Y4843258D01*
X12882710Y4841357D01*
X12882707Y4841355D01*
X12609513Y4691165D01*
X12606041Y4689256D01*
X12347423Y4501359D01*
X12243295Y4403576D01*
X12133424Y4300400D01*
X12114394Y4282530D01*
X11910629Y4036221D01*
X11908505Y4032874D01*
X11908502Y4032870D01*
X11802076Y3865170D01*
X11739341Y3766315D01*
X11737657Y3762736D01*
X11737653Y3762729D01*
X11604922Y3480660D01*
X11603233Y3477070D01*
X11602007Y3473298D01*
X11602007Y3473297D01*
X11600110Y3467458D01*
X11504449Y3173046D01*
X11444549Y2859039D01*
X11424477Y2540000D01*
X11444549Y2220961D01*
X11504449Y1906954D01*
X11505676Y1903178D01*
X11600201Y1612263D01*
X11603233Y1602930D01*
X11604920Y1599344D01*
X11604922Y1599340D01*
X11737653Y1317271D01*
X11737657Y1317264D01*
X11739341Y1313685D01*
X11741465Y1310339D01*
X11741465Y1310338D01*
X11901914Y1057512D01*
X11910629Y1043779D01*
X12114394Y797470D01*
X12117284Y794756D01*
X12117285Y794755D01*
X12190129Y726350D01*
X12226094Y665137D01*
X12223256Y594197D01*
X12182516Y536053D01*
X12116808Y509165D01*
X12103876Y508500D01*
X634500Y508500D01*
X566379Y528502D01*
X519886Y582158D01*
X508500Y634500D01*
X508500Y7620000D01*
X19006502Y7620000D01*
X19026457Y7391913D01*
X19027881Y7386600D01*
X19027881Y7386598D01*
X19041155Y7337061D01*
X19085716Y7170757D01*
X19088039Y7165776D01*
X19088039Y7165775D01*
X19180151Y6968238D01*
X19180154Y6968233D01*
X19182477Y6963251D01*
X19210968Y6922562D01*
X19289078Y6811010D01*
X19313802Y6775700D01*
X19475700Y6613802D01*
X19480208Y6610645D01*
X19480211Y6610643D01*
X19520445Y6582471D01*
X19663251Y6482477D01*
X19668233Y6480154D01*
X19668238Y6480151D01*
X19865775Y6388039D01*
X19870757Y6385716D01*
X19876065Y6384294D01*
X19876067Y6384293D01*
X20086598Y6327881D01*
X20086600Y6327881D01*
X20091913Y6326457D01*
X20320000Y6306502D01*
X20548087Y6326457D01*
X20553400Y6327881D01*
X20553402Y6327881D01*
X20763933Y6384293D01*
X20763935Y6384294D01*
X20769243Y6385716D01*
X20774225Y6388039D01*
X20971762Y6480151D01*
X20971767Y6480154D01*
X20976749Y6482477D01*
X21119555Y6582471D01*
X21159789Y6610643D01*
X21159792Y6610645D01*
X21164300Y6613802D01*
X21326198Y6775700D01*
X21350923Y6811010D01*
X21429032Y6922562D01*
X21457523Y6963251D01*
X21459846Y6968233D01*
X21459849Y6968238D01*
X21551961Y7165775D01*
X21551961Y7165776D01*
X21554284Y7170757D01*
X21598846Y7337061D01*
X21612119Y7386598D01*
X21612119Y7386600D01*
X21613543Y7391913D01*
X21633498Y7620000D01*
X21613543Y7848087D01*
X21588127Y7942939D01*
X21555707Y8063933D01*
X21555706Y8063935D01*
X21554284Y8069243D01*
X21551961Y8074225D01*
X21459849Y8271762D01*
X21459846Y8271767D01*
X21457523Y8276749D01*
X21384098Y8381611D01*
X21329357Y8459789D01*
X21329355Y8459792D01*
X21326198Y8464300D01*
X21164300Y8626198D01*
X21159792Y8629355D01*
X21159789Y8629357D01*
X21024780Y8723891D01*
X20976749Y8757523D01*
X20971767Y8759846D01*
X20971762Y8759849D01*
X20774225Y8851961D01*
X20774224Y8851961D01*
X20769243Y8854284D01*
X20763935Y8855706D01*
X20763933Y8855707D01*
X20553402Y8912119D01*
X20553400Y8912119D01*
X20548087Y8913543D01*
X20320000Y8933498D01*
X20091913Y8913543D01*
X20086600Y8912119D01*
X20086598Y8912119D01*
X19876067Y8855707D01*
X19876065Y8855706D01*
X19870757Y8854284D01*
X19865776Y8851961D01*
X19865775Y8851961D01*
X19668238Y8759849D01*
X19668233Y8759846D01*
X19663251Y8757523D01*
X19615220Y8723891D01*
X19480211Y8629357D01*
X19480208Y8629355D01*
X19475700Y8626198D01*
X19313802Y8464300D01*
X19310645Y8459792D01*
X19310643Y8459789D01*
X19255902Y8381611D01*
X19182477Y8276749D01*
X19180154Y8271767D01*
X19180151Y8271762D01*
X19088039Y8074225D01*
X19085716Y8069243D01*
X19084294Y8063935D01*
X19084293Y8063933D01*
X19051873Y7942939D01*
X19026457Y7848087D01*
X19006502Y7620000D01*
X508500Y7620000D01*
X508500Y10168305D01*
X1152251Y10168305D01*
X1152548Y10163152D01*
X1152548Y10163149D01*
X1158011Y10068410D01*
X1165110Y9945285D01*
X1166247Y9940239D01*
X1166248Y9940233D01*
X1187275Y9846931D01*
X1214222Y9727361D01*
X1298266Y9520384D01*
X1335685Y9459322D01*
X1412291Y9334312D01*
X1414987Y9329912D01*
X1561250Y9161062D01*
X1733126Y9018368D01*
X1926000Y8905662D01*
X2134692Y8825970D01*
X2139760Y8824939D01*
X2139763Y8824938D01*
X2234862Y8805590D01*
X2353597Y8781433D01*
X2358772Y8781243D01*
X2358774Y8781243D01*
X2571673Y8773436D01*
X2571677Y8773436D01*
X2576837Y8773247D01*
X2581957Y8773903D01*
X2581959Y8773903D01*
X2793288Y8800975D01*
X2793289Y8800975D01*
X2798416Y8801632D01*
X2803366Y8803117D01*
X3007429Y8864339D01*
X3007434Y8864341D01*
X3012384Y8865826D01*
X3212994Y8964104D01*
X3394860Y9093827D01*
X3417333Y9116221D01*
X3489124Y9187762D01*
X3553096Y9251511D01*
X3612594Y9334311D01*
X3683453Y9432923D01*
X3684640Y9432070D01*
X3731960Y9475638D01*
X3801897Y9487855D01*
X3867338Y9460322D01*
X3895166Y9428489D01*
X3952694Y9334612D01*
X3958777Y9326301D01*
X4098213Y9165333D01*
X4105580Y9158117D01*
X4269434Y9022084D01*
X4277881Y9016169D01*
X4461756Y8908721D01*
X4471042Y8904271D01*
X4670001Y8828297D01*
X4679899Y8825421D01*
X4783250Y8804394D01*
X4797299Y8805590D01*
X4801000Y8815935D01*
X4801000Y8816483D01*
X5309000Y8816483D01*
X5313064Y8802641D01*
X5326478Y8800607D01*
X5333184Y8801466D01*
X5343262Y8803608D01*
X5547255Y8864809D01*
X5556842Y8868567D01*
X5748095Y8962261D01*
X5756945Y8967536D01*
X5930328Y9091208D01*
X5938200Y9097861D01*
X6089052Y9248188D01*
X6095730Y9256035D01*
X6223022Y9433181D01*
X6224279Y9432278D01*
X6271373Y9475638D01*
X6341311Y9487855D01*
X6406751Y9460322D01*
X6434579Y9428489D01*
X6494987Y9329912D01*
X6641250Y9161062D01*
X6813126Y9018368D01*
X7006000Y8905662D01*
X7214692Y8825970D01*
X7219760Y8824939D01*
X7219763Y8824938D01*
X7314862Y8805590D01*
X7433597Y8781433D01*
X7438772Y8781243D01*
X7438774Y8781243D01*
X7651673Y8773436D01*
X7651677Y8773436D01*
X7656837Y8773247D01*
X7661957Y8773903D01*
X7661959Y8773903D01*
X7873288Y8800975D01*
X7873289Y8800975D01*
X7878416Y8801632D01*
X7883366Y8803117D01*
X8087429Y8864339D01*
X8087434Y8864341D01*
X8092384Y8865826D01*
X8292994Y8964104D01*
X8474860Y9093827D01*
X8497333Y9116221D01*
X8569124Y9187762D01*
X8633096Y9251511D01*
X8692594Y9334311D01*
X8763453Y9432923D01*
X8764776Y9431972D01*
X8811645Y9475143D01*
X8881580Y9487375D01*
X8947026Y9459856D01*
X8974875Y9428006D01*
X9034987Y9329912D01*
X9181250Y9161062D01*
X9353126Y9018368D01*
X9546000Y8905662D01*
X9754692Y8825970D01*
X9759760Y8824939D01*
X9759763Y8824938D01*
X9854862Y8805590D01*
X9973597Y8781433D01*
X9978772Y8781243D01*
X9978774Y8781243D01*
X10191673Y8773436D01*
X10191677Y8773436D01*
X10196837Y8773247D01*
X10201957Y8773903D01*
X10201959Y8773903D01*
X10413288Y8800975D01*
X10413289Y8800975D01*
X10418416Y8801632D01*
X10423366Y8803117D01*
X10627429Y8864339D01*
X10627434Y8864341D01*
X10632384Y8865826D01*
X10832994Y8964104D01*
X11014860Y9093827D01*
X11037333Y9116221D01*
X11109124Y9187762D01*
X11173096Y9251511D01*
X11232594Y9334311D01*
X11303453Y9432923D01*
X11304776Y9431972D01*
X11351645Y9475143D01*
X11421580Y9487375D01*
X11487026Y9459856D01*
X11514875Y9428006D01*
X11574987Y9329912D01*
X11721250Y9161062D01*
X11893126Y9018368D01*
X12086000Y8905662D01*
X12294692Y8825970D01*
X12299760Y8824939D01*
X12299763Y8824938D01*
X12394862Y8805590D01*
X12513597Y8781433D01*
X12518772Y8781243D01*
X12518774Y8781243D01*
X12731673Y8773436D01*
X12731677Y8773436D01*
X12736837Y8773247D01*
X12741957Y8773903D01*
X12741959Y8773903D01*
X12953288Y8800975D01*
X12953289Y8800975D01*
X12958416Y8801632D01*
X12963366Y8803117D01*
X13167429Y8864339D01*
X13167434Y8864341D01*
X13172384Y8865826D01*
X13372994Y8964104D01*
X13554860Y9093827D01*
X13663091Y9201681D01*
X13725462Y9235596D01*
X13796268Y9230408D01*
X13853030Y9187762D01*
X13870012Y9156659D01*
X13885172Y9116221D01*
X13914385Y9038295D01*
X14001739Y8921739D01*
X14118295Y8834385D01*
X14254684Y8783255D01*
X14316866Y8776500D01*
X16113134Y8776500D01*
X16175316Y8783255D01*
X16311705Y8834385D01*
X16428261Y8921739D01*
X16515615Y9038295D01*
X16566745Y9174684D01*
X16573500Y9236866D01*
X16573500Y11033134D01*
X16566745Y11095316D01*
X16515615Y11231705D01*
X16428261Y11348261D01*
X16311705Y11435615D01*
X16175316Y11486745D01*
X16113134Y11493500D01*
X14316866Y11493500D01*
X14254684Y11486745D01*
X14118295Y11435615D01*
X14001739Y11348261D01*
X13914385Y11231705D01*
X13911233Y11223297D01*
X13869919Y11113093D01*
X13827277Y11056329D01*
X13760716Y11031629D01*
X13691367Y11046837D01*
X13658743Y11072524D01*
X13608151Y11128125D01*
X13608142Y11128134D01*
X13604670Y11131949D01*
X13600619Y11135148D01*
X13600615Y11135152D01*
X13433414Y11267200D01*
X13433410Y11267202D01*
X13429359Y11270402D01*
X13393028Y11290458D01*
X13346417Y11316188D01*
X13233789Y11378362D01*
X13228920Y11380086D01*
X13228916Y11380088D01*
X13028087Y11451205D01*
X13028083Y11451206D01*
X13023212Y11452931D01*
X13018119Y11453838D01*
X13018116Y11453839D01*
X12808373Y11491200D01*
X12808367Y11491201D01*
X12803284Y11492106D01*
X12729452Y11493008D01*
X12585081Y11494772D01*
X12585079Y11494772D01*
X12579911Y11494835D01*
X12359091Y11461045D01*
X12146756Y11391643D01*
X12110989Y11373024D01*
X12001809Y11316188D01*
X11948607Y11288493D01*
X11944474Y11285390D01*
X11944471Y11285388D01*
X11780179Y11162034D01*
X11769965Y11154365D01*
X11744541Y11127760D01*
X11676280Y11056329D01*
X11615629Y10992862D01*
X11508201Y10835379D01*
X11453293Y10790379D01*
X11382768Y10782208D01*
X11319021Y10813462D01*
X11298324Y10837946D01*
X11217822Y10962383D01*
X11217820Y10962386D01*
X11215014Y10966723D01*
X11064670Y11131949D01*
X11060619Y11135148D01*
X11060615Y11135152D01*
X10893414Y11267200D01*
X10893410Y11267202D01*
X10889359Y11270402D01*
X10853028Y11290458D01*
X10806417Y11316188D01*
X10693789Y11378362D01*
X10688920Y11380086D01*
X10688916Y11380088D01*
X10488087Y11451205D01*
X10488083Y11451206D01*
X10483212Y11452931D01*
X10478119Y11453838D01*
X10478116Y11453839D01*
X10268373Y11491200D01*
X10268367Y11491201D01*
X10263284Y11492106D01*
X10189452Y11493008D01*
X10045081Y11494772D01*
X10045079Y11494772D01*
X10039911Y11494835D01*
X9819091Y11461045D01*
X9606756Y11391643D01*
X9570989Y11373024D01*
X9461809Y11316188D01*
X9408607Y11288493D01*
X9404474Y11285390D01*
X9404471Y11285388D01*
X9240179Y11162034D01*
X9229965Y11154365D01*
X9204541Y11127760D01*
X9136280Y11056329D01*
X9075629Y10992862D01*
X8968201Y10835379D01*
X8913293Y10790379D01*
X8842768Y10782208D01*
X8779021Y10813462D01*
X8758324Y10837946D01*
X8677822Y10962383D01*
X8677820Y10962386D01*
X8675014Y10966723D01*
X8524670Y11131949D01*
X8520619Y11135148D01*
X8520615Y11135152D01*
X8353414Y11267200D01*
X8353410Y11267202D01*
X8349359Y11270402D01*
X8313028Y11290458D01*
X8266417Y11316188D01*
X8153789Y11378362D01*
X8148920Y11380086D01*
X8148916Y11380088D01*
X7948087Y11451205D01*
X7948083Y11451206D01*
X7943212Y11452931D01*
X7938119Y11453838D01*
X7938116Y11453839D01*
X7728373Y11491200D01*
X7728367Y11491201D01*
X7723284Y11492106D01*
X7649452Y11493008D01*
X7505081Y11494772D01*
X7505079Y11494772D01*
X7499911Y11494835D01*
X7279091Y11461045D01*
X7066756Y11391643D01*
X7030989Y11373024D01*
X6921809Y11316188D01*
X6868607Y11288493D01*
X6864474Y11285390D01*
X6864471Y11285388D01*
X6700179Y11162034D01*
X6689965Y11154365D01*
X6664541Y11127760D01*
X6596280Y11056329D01*
X6535629Y10992862D01*
X6428204Y10835382D01*
X6427898Y10834934D01*
X6372987Y10789931D01*
X6302462Y10781760D01*
X6238715Y10813014D01*
X6218018Y10837498D01*
X6137426Y10962074D01*
X6131136Y10970243D01*
X5987806Y11127760D01*
X5980273Y11134785D01*
X5813139Y11266778D01*
X5804552Y11272483D01*
X5618117Y11375401D01*
X5608705Y11379631D01*
X5407959Y11450720D01*
X5397988Y11453354D01*
X5326837Y11466028D01*
X5313540Y11464568D01*
X5309000Y11450011D01*
X5309000Y8816483D01*
X4801000Y8816483D01*
X4801000Y11451898D01*
X4797082Y11465242D01*
X4782806Y11467229D01*
X4744324Y11461340D01*
X4734288Y11458949D01*
X4531868Y11392788D01*
X4522359Y11388791D01*
X4333463Y11290458D01*
X4324738Y11284964D01*
X4154433Y11157095D01*
X4146726Y11150252D01*
X3999590Y10996283D01*
X3993109Y10988278D01*
X3888498Y10834926D01*
X3833587Y10789924D01*
X3763062Y10781753D01*
X3699315Y10813007D01*
X3678618Y10837491D01*
X3597822Y10962383D01*
X3597820Y10962386D01*
X3595014Y10966723D01*
X3444670Y11131949D01*
X3440619Y11135148D01*
X3440615Y11135152D01*
X3273414Y11267200D01*
X3273410Y11267202D01*
X3269359Y11270402D01*
X3233028Y11290458D01*
X3186417Y11316188D01*
X3073789Y11378362D01*
X3068920Y11380086D01*
X3068916Y11380088D01*
X2868087Y11451205D01*
X2868083Y11451206D01*
X2863212Y11452931D01*
X2858119Y11453838D01*
X2858116Y11453839D01*
X2648373Y11491200D01*
X2648367Y11491201D01*
X2643284Y11492106D01*
X2569452Y11493008D01*
X2425081Y11494772D01*
X2425079Y11494772D01*
X2419911Y11494835D01*
X2199091Y11461045D01*
X1986756Y11391643D01*
X1950989Y11373024D01*
X1841809Y11316188D01*
X1788607Y11288493D01*
X1784474Y11285390D01*
X1784471Y11285388D01*
X1620179Y11162034D01*
X1609965Y11154365D01*
X1584541Y11127760D01*
X1516280Y11056329D01*
X1455629Y10992862D01*
X1329743Y10808320D01*
X1235688Y10605695D01*
X1175989Y10390430D01*
X1152251Y10168305D01*
X508500Y10168305D01*
X508500Y52705500D01*
X528502Y52773621D01*
X582158Y52820114D01*
X634500Y52831500D01*
X13373876Y52831500D01*
X13441997Y52811498D01*
G37*
%TD.AperFunction*%
%TA.AperFunction,Conductor*%
G36*
X40832412Y41057353D02*
G01*
X40838995Y41051224D01*
X55729130Y26161089D01*
X55741516Y26146677D01*
X55750049Y26135082D01*
X55750054Y26135077D01*
X55754392Y26129182D01*
X55759970Y26124443D01*
X55759973Y26124440D01*
X55794668Y26094965D01*
X55802184Y26088035D01*
X55807879Y26082340D01*
X55810761Y26080060D01*
X55830151Y26064719D01*
X55833555Y26061928D01*
X55883603Y26019409D01*
X55889185Y26014667D01*
X55895701Y26011339D01*
X55900750Y26007972D01*
X55905879Y26004805D01*
X55911616Y26000266D01*
X55977775Y25969345D01*
X55981669Y25967442D01*
X56046708Y25934231D01*
X56053816Y25932492D01*
X56059459Y25930393D01*
X56065222Y25928476D01*
X56071850Y25925378D01*
X56079012Y25923888D01*
X56079013Y25923888D01*
X56143312Y25910514D01*
X56147596Y25909544D01*
X56218510Y25892192D01*
X56224112Y25891844D01*
X56224115Y25891844D01*
X56229664Y25891500D01*
X56229662Y25891464D01*
X56233655Y25891225D01*
X56237847Y25890851D01*
X56245015Y25889360D01*
X56322420Y25891454D01*
X56325828Y25891500D01*
X58517491Y25891500D01*
X58585612Y25871498D01*
X58614402Y25844405D01*
X58614987Y25844912D01*
X58761250Y25676062D01*
X58933126Y25533368D01*
X58979805Y25506091D01*
X59006445Y25490524D01*
X59055169Y25438886D01*
X59068240Y25369103D01*
X59041509Y25303331D01*
X59001055Y25269973D01*
X58988607Y25263493D01*
X58984474Y25260390D01*
X58984471Y25260388D01*
X58814100Y25132470D01*
X58809965Y25129365D01*
X58655629Y24967862D01*
X58652715Y24963590D01*
X58652714Y24963589D01*
X58586764Y24866910D01*
X58529743Y24783320D01*
X58435688Y24580695D01*
X58375989Y24365430D01*
X58352251Y24143305D01*
X58352548Y24138152D01*
X58352548Y24138149D01*
X58363960Y23940233D01*
X58365110Y23920285D01*
X58366247Y23915239D01*
X58366248Y23915233D01*
X58386119Y23827061D01*
X58414222Y23702361D01*
X58498266Y23495384D01*
X58614987Y23304912D01*
X58761250Y23136062D01*
X58933126Y22993368D01*
X58984398Y22963407D01*
X59006445Y22950524D01*
X59055169Y22898886D01*
X59068240Y22829103D01*
X59041509Y22763331D01*
X59001055Y22729973D01*
X58988607Y22723493D01*
X58984474Y22720390D01*
X58984471Y22720388D01*
X58814100Y22592470D01*
X58809965Y22589365D01*
X58655629Y22427862D01*
X58529743Y22243320D01*
X58435688Y22040695D01*
X58375989Y21825430D01*
X58352251Y21603305D01*
X58352548Y21598152D01*
X58352548Y21598149D01*
X58358011Y21503410D01*
X58365110Y21380285D01*
X58366247Y21375239D01*
X58366248Y21375233D01*
X58366929Y21372212D01*
X58414222Y21162361D01*
X58452461Y21068189D01*
X58484822Y20988494D01*
X58498266Y20955384D01*
X58548390Y20873588D01*
X58603753Y20783245D01*
X58614987Y20764912D01*
X58761250Y20596062D01*
X58933126Y20453368D01*
X59003595Y20412189D01*
X59006445Y20410524D01*
X59055169Y20358886D01*
X59068240Y20289103D01*
X59041509Y20223331D01*
X59001055Y20189973D01*
X58988607Y20183493D01*
X58984474Y20180390D01*
X58984471Y20180388D01*
X58891389Y20110500D01*
X58809965Y20049365D01*
X58655629Y19887862D01*
X58529743Y19703320D01*
X58435688Y19500695D01*
X58375989Y19285430D01*
X58352251Y19063305D01*
X58352548Y19058152D01*
X58352548Y19058149D01*
X58358011Y18963410D01*
X58365110Y18840285D01*
X58366247Y18835239D01*
X58366248Y18835233D01*
X58386119Y18747061D01*
X58414222Y18622361D01*
X58498266Y18415384D01*
X58614987Y18224912D01*
X58761250Y18056062D01*
X58933126Y17913368D01*
X59126000Y17800662D01*
X59334692Y17720970D01*
X59339760Y17719939D01*
X59339763Y17719938D01*
X59447017Y17698117D01*
X59553597Y17676433D01*
X59558772Y17676243D01*
X59558774Y17676243D01*
X59771673Y17668436D01*
X59771677Y17668436D01*
X59776837Y17668247D01*
X59781957Y17668903D01*
X59781959Y17668903D01*
X59993288Y17695975D01*
X59993289Y17695975D01*
X59998416Y17696632D01*
X60003366Y17698117D01*
X60207429Y17759339D01*
X60207434Y17759341D01*
X60212384Y17760826D01*
X60412994Y17859104D01*
X60594860Y17988827D01*
X60753096Y18146511D01*
X60812594Y18229311D01*
X60880435Y18323723D01*
X60883453Y18327923D01*
X60908629Y18378862D01*
X60980136Y18523547D01*
X60980137Y18523549D01*
X60982430Y18528189D01*
X61047370Y18741931D01*
X61076529Y18963410D01*
X61078156Y19030000D01*
X61059852Y19252639D01*
X61005431Y19469298D01*
X60916354Y19674160D01*
X60795014Y19861723D01*
X60644670Y20026949D01*
X60640619Y20030148D01*
X60640615Y20030152D01*
X60473414Y20162200D01*
X60473410Y20162202D01*
X60469359Y20165402D01*
X60428053Y20188204D01*
X60378084Y20238636D01*
X60363312Y20308079D01*
X60388428Y20374484D01*
X60415780Y20401091D01*
X60480816Y20447481D01*
X60594860Y20528827D01*
X60753096Y20686511D01*
X60756374Y20691072D01*
X60880435Y20863723D01*
X60883453Y20867923D01*
X60921572Y20945050D01*
X60980136Y21063547D01*
X60980137Y21063549D01*
X60982430Y21068189D01*
X61047370Y21281931D01*
X61076529Y21503410D01*
X61077501Y21543177D01*
X61078074Y21566635D01*
X61078074Y21566639D01*
X61078156Y21570000D01*
X61059852Y21792639D01*
X61005431Y22009298D01*
X60916354Y22214160D01*
X60795014Y22401723D01*
X60644670Y22566949D01*
X60640619Y22570148D01*
X60640615Y22570152D01*
X60473414Y22702200D01*
X60473410Y22702202D01*
X60469359Y22705402D01*
X60428053Y22728204D01*
X60378084Y22778636D01*
X60363312Y22848079D01*
X60388428Y22914484D01*
X60415780Y22941091D01*
X60459603Y22972350D01*
X60594860Y23068827D01*
X60753096Y23226511D01*
X60812594Y23309311D01*
X60880435Y23403723D01*
X60883453Y23407923D01*
X60939035Y23520384D01*
X60980136Y23603547D01*
X60980137Y23603549D01*
X60982430Y23608189D01*
X61047370Y23821931D01*
X61076529Y24043410D01*
X61078156Y24110000D01*
X61060870Y24320253D01*
X61075223Y24389781D01*
X61097351Y24419670D01*
X64043911Y27366230D01*
X64058323Y27378616D01*
X64069918Y27387149D01*
X64069923Y27387154D01*
X64075818Y27391492D01*
X64080557Y27397070D01*
X64080560Y27397073D01*
X64110035Y27431768D01*
X64116965Y27439284D01*
X64122660Y27444979D01*
X64140281Y27467251D01*
X64143072Y27470655D01*
X64185591Y27520703D01*
X64185592Y27520705D01*
X64190333Y27526285D01*
X64193661Y27532801D01*
X64197028Y27537850D01*
X64200195Y27542979D01*
X64204734Y27548716D01*
X64235655Y27614875D01*
X64237561Y27618775D01*
X64270769Y27683808D01*
X64272508Y27690916D01*
X64274607Y27696559D01*
X64276524Y27702322D01*
X64279622Y27708950D01*
X64294487Y27780417D01*
X64295457Y27784701D01*
X64296239Y27787896D01*
X64312808Y27855610D01*
X64313500Y27866764D01*
X64313536Y27866762D01*
X64313775Y27870755D01*
X64314149Y27874947D01*
X64315640Y27882115D01*
X64313546Y27959521D01*
X64313500Y27962928D01*
X64313500Y33426857D01*
X64333502Y33494978D01*
X64387158Y33541471D01*
X64457432Y33551575D01*
X64513560Y33528793D01*
X64676041Y33410744D01*
X64679510Y33408837D01*
X64679513Y33408835D01*
X64873125Y33302396D01*
X64956169Y33256742D01*
X65118083Y33192636D01*
X65249707Y33140522D01*
X65249710Y33140521D01*
X65253390Y33139064D01*
X65257224Y33138080D01*
X65257232Y33138077D01*
X65445124Y33089835D01*
X65563017Y33059565D01*
X65566945Y33059069D01*
X65566949Y33059068D01*
X65672548Y33045728D01*
X65880165Y33019500D01*
X66199835Y33019500D01*
X66407452Y33045728D01*
X66513051Y33059068D01*
X66513055Y33059069D01*
X66516983Y33059565D01*
X66634876Y33089835D01*
X66822768Y33138077D01*
X66822776Y33138080D01*
X66826610Y33139064D01*
X66830290Y33140521D01*
X66830293Y33140522D01*
X66961917Y33192636D01*
X67123831Y33256742D01*
X67206876Y33302396D01*
X67400487Y33408835D01*
X67400490Y33408837D01*
X67403959Y33410744D01*
X67662577Y33598641D01*
X67859248Y33783327D01*
X67922597Y33815378D01*
X67993219Y33808091D01*
X68048690Y33763781D01*
X68071500Y33691477D01*
X68071500Y9488523D01*
X68051498Y9420402D01*
X67997842Y9373909D01*
X67927568Y9363805D01*
X67859247Y9396673D01*
X67662577Y9581359D01*
X67571790Y9647320D01*
X67468210Y9722575D01*
X67403959Y9769256D01*
X67123831Y9923258D01*
X66961917Y9987364D01*
X66830293Y10039478D01*
X66830290Y10039479D01*
X66826610Y10040936D01*
X66822776Y10041920D01*
X66822768Y10041923D01*
X66598932Y10099394D01*
X66516983Y10120435D01*
X66513055Y10120931D01*
X66513051Y10120932D01*
X66387358Y10136810D01*
X66199835Y10160500D01*
X65880165Y10160500D01*
X65692642Y10136810D01*
X65566949Y10120932D01*
X65566945Y10120931D01*
X65563017Y10120435D01*
X65481068Y10099394D01*
X65257232Y10041923D01*
X65257224Y10041920D01*
X65253390Y10040936D01*
X65249710Y10039479D01*
X65249707Y10039478D01*
X65118083Y9987364D01*
X64956169Y9923258D01*
X64676041Y9769256D01*
X64611790Y9722575D01*
X64508211Y9647320D01*
X64417423Y9581359D01*
X64184394Y9362530D01*
X63980629Y9116221D01*
X63978505Y9112874D01*
X63978502Y9112870D01*
X63823169Y8868105D01*
X63809341Y8846315D01*
X63807657Y8842736D01*
X63807653Y8842729D01*
X63680475Y8572460D01*
X63673233Y8557070D01*
X63574449Y8253046D01*
X63514549Y7939039D01*
X63494477Y7620000D01*
X63514549Y7300961D01*
X63574449Y6986954D01*
X63673233Y6682930D01*
X63674920Y6679344D01*
X63674922Y6679340D01*
X63807653Y6397271D01*
X63807657Y6397264D01*
X63809341Y6393685D01*
X63811465Y6390339D01*
X63811465Y6390338D01*
X63909178Y6236368D01*
X63980629Y6123779D01*
X64184394Y5877470D01*
X64187284Y5874756D01*
X64187285Y5874755D01*
X64220753Y5843327D01*
X64417423Y5658641D01*
X64676041Y5470744D01*
X64956169Y5316742D01*
X65022126Y5290628D01*
X65249707Y5200522D01*
X65249710Y5200521D01*
X65253390Y5199064D01*
X65257224Y5198080D01*
X65257232Y5198077D01*
X65449153Y5148800D01*
X65563017Y5119565D01*
X65566945Y5119069D01*
X65566949Y5119068D01*
X65692642Y5103190D01*
X65880165Y5079500D01*
X66199835Y5079500D01*
X66387358Y5103190D01*
X66513051Y5119068D01*
X66513055Y5119069D01*
X66516983Y5119565D01*
X66630847Y5148800D01*
X66822768Y5198077D01*
X66822776Y5198080D01*
X66826610Y5199064D01*
X66830290Y5200521D01*
X66830293Y5200522D01*
X67057874Y5290628D01*
X67123831Y5316742D01*
X67403959Y5470744D01*
X67662577Y5658641D01*
X67859248Y5843327D01*
X67922597Y5875378D01*
X67993219Y5868091D01*
X68048690Y5823781D01*
X68071500Y5751477D01*
X68071500Y5342818D01*
X68051498Y5274697D01*
X68034595Y5253723D01*
X65730696Y2949823D01*
X65721156Y2942200D01*
X65721470Y2941832D01*
X65714634Y2936014D01*
X65707042Y2931224D01*
X65701100Y2924496D01*
X65671407Y2890875D01*
X65666061Y2885188D01*
X65654618Y2873745D01*
X65648978Y2866220D01*
X65648341Y2865370D01*
X65641967Y2857541D01*
X65610622Y2822049D01*
X65606808Y2813926D01*
X65605174Y2811438D01*
X65596186Y2796477D01*
X65594771Y2793892D01*
X65589384Y2786705D01*
X65586233Y2778299D01*
X65572759Y2742358D01*
X65568833Y2733042D01*
X65548719Y2690200D01*
X65547338Y2681331D01*
X65546472Y2678498D01*
X65542042Y2661611D01*
X65541408Y2658726D01*
X65538255Y2650316D01*
X65537590Y2641361D01*
X65534746Y2603094D01*
X65533592Y2593048D01*
X65531500Y2579614D01*
X65531500Y2564094D01*
X65531154Y2554757D01*
X65527461Y2505059D01*
X65529335Y2496280D01*
X65529898Y2488022D01*
X65531500Y2472839D01*
X65531500Y634500D01*
X65511498Y566379D01*
X65457842Y519886D01*
X65405500Y508500D01*
X52685371Y508500D01*
X52617250Y528502D01*
X52570757Y582158D01*
X52560653Y652432D01*
X52590147Y717012D01*
X52596276Y723595D01*
X52892099Y1019418D01*
X52954411Y1053444D01*
X53018558Y1050655D01*
X53044296Y1042663D01*
X53049585Y1041962D01*
X53269848Y1012768D01*
X53269852Y1012768D01*
X53275132Y1012068D01*
X53280462Y1012268D01*
X53280463Y1012268D01*
X53391477Y1016436D01*
X53507822Y1020803D01*
X53612005Y1042663D01*
X53730486Y1067523D01*
X53730489Y1067524D01*
X53735713Y1068620D01*
X53952290Y1154150D01*
X54151359Y1274949D01*
X54155855Y1278850D01*
X54323197Y1424061D01*
X54323199Y1424063D01*
X54327230Y1427561D01*
X54330613Y1431687D01*
X54330617Y1431691D01*
X54429776Y1552626D01*
X54474872Y1607624D01*
X54477672Y1612542D01*
X54500845Y1653252D01*
X54551927Y1702558D01*
X54621558Y1716420D01*
X54687629Y1690437D01*
X54714867Y1661287D01*
X54806804Y1524728D01*
X54967532Y1356242D01*
X55154350Y1217246D01*
X55159102Y1214830D01*
X55356244Y1114598D01*
X55361916Y1111714D01*
X55473106Y1077188D01*
X55579193Y1044247D01*
X55579199Y1044246D01*
X55584296Y1042663D01*
X55708660Y1026180D01*
X55809848Y1012768D01*
X55809852Y1012768D01*
X55815132Y1012068D01*
X55820462Y1012268D01*
X55820463Y1012268D01*
X55931477Y1016436D01*
X56047822Y1020803D01*
X56152005Y1042663D01*
X56270486Y1067523D01*
X56270489Y1067524D01*
X56275713Y1068620D01*
X56492290Y1154150D01*
X56691359Y1274949D01*
X56695855Y1278850D01*
X56863197Y1424061D01*
X56863199Y1424063D01*
X56867230Y1427561D01*
X56870613Y1431687D01*
X56870617Y1431691D01*
X56969776Y1552626D01*
X57014872Y1607624D01*
X57017672Y1612542D01*
X57040845Y1653252D01*
X57091927Y1702558D01*
X57161558Y1716420D01*
X57227629Y1690437D01*
X57254867Y1661287D01*
X57346804Y1524728D01*
X57507532Y1356242D01*
X57694350Y1217246D01*
X57699102Y1214830D01*
X57896244Y1114598D01*
X57901916Y1111714D01*
X58013106Y1077188D01*
X58119193Y1044247D01*
X58119199Y1044246D01*
X58124296Y1042663D01*
X58248660Y1026180D01*
X58349848Y1012768D01*
X58349852Y1012768D01*
X58355132Y1012068D01*
X58360462Y1012268D01*
X58360463Y1012268D01*
X58471477Y1016436D01*
X58587822Y1020803D01*
X58692005Y1042663D01*
X58810486Y1067523D01*
X58810489Y1067524D01*
X58815713Y1068620D01*
X59032290Y1154150D01*
X59231359Y1274949D01*
X59235855Y1278850D01*
X59403197Y1424061D01*
X59403199Y1424063D01*
X59407230Y1427561D01*
X59410613Y1431687D01*
X59410617Y1431691D01*
X59509776Y1552626D01*
X59554872Y1607624D01*
X59557672Y1612542D01*
X59580845Y1653252D01*
X59631927Y1702558D01*
X59701558Y1716420D01*
X59767629Y1690437D01*
X59794867Y1661287D01*
X59886804Y1524728D01*
X60047532Y1356242D01*
X60234350Y1217246D01*
X60239102Y1214830D01*
X60436244Y1114598D01*
X60441916Y1111714D01*
X60553106Y1077188D01*
X60659193Y1044247D01*
X60659199Y1044246D01*
X60664296Y1042663D01*
X60788660Y1026180D01*
X60889848Y1012768D01*
X60889852Y1012768D01*
X60895132Y1012068D01*
X60900462Y1012268D01*
X60900463Y1012268D01*
X61011477Y1016436D01*
X61127822Y1020803D01*
X61232005Y1042663D01*
X61350486Y1067523D01*
X61350489Y1067524D01*
X61355713Y1068620D01*
X61572290Y1154150D01*
X61771359Y1274949D01*
X61775855Y1278850D01*
X61943197Y1424061D01*
X61943199Y1424063D01*
X61947230Y1427561D01*
X61950613Y1431687D01*
X61950617Y1431691D01*
X62049776Y1552626D01*
X62094872Y1607624D01*
X62097672Y1612542D01*
X62120845Y1653252D01*
X62171927Y1702558D01*
X62241558Y1716420D01*
X62307629Y1690437D01*
X62334867Y1661287D01*
X62426804Y1524728D01*
X62587532Y1356242D01*
X62774350Y1217246D01*
X62779102Y1214830D01*
X62976244Y1114598D01*
X62981916Y1111714D01*
X63093106Y1077188D01*
X63199193Y1044247D01*
X63199199Y1044246D01*
X63204296Y1042663D01*
X63328660Y1026180D01*
X63429848Y1012768D01*
X63429852Y1012768D01*
X63435132Y1012068D01*
X63440462Y1012268D01*
X63440463Y1012268D01*
X63551477Y1016436D01*
X63667822Y1020803D01*
X63772005Y1042663D01*
X63890486Y1067523D01*
X63890489Y1067524D01*
X63895713Y1068620D01*
X64112290Y1154150D01*
X64311359Y1274949D01*
X64315855Y1278850D01*
X64483197Y1424061D01*
X64483199Y1424063D01*
X64487230Y1427561D01*
X64490613Y1431687D01*
X64490617Y1431691D01*
X64589776Y1552626D01*
X64634872Y1607624D01*
X64637672Y1612542D01*
X64747422Y1805346D01*
X64750065Y1809989D01*
X64770239Y1865565D01*
X64827695Y2023854D01*
X64827696Y2023858D01*
X64829515Y2028869D01*
X64870950Y2258007D01*
X64871632Y2272452D01*
X64872030Y2280905D01*
X64872030Y2280914D01*
X64872100Y2282394D01*
X64872100Y2750868D01*
X64863258Y2855076D01*
X64857825Y2919109D01*
X64857824Y2919113D01*
X64857374Y2924420D01*
X64852759Y2942200D01*
X64800217Y3144637D01*
X64800216Y3144641D01*
X64798875Y3149806D01*
X64790164Y3169145D01*
X64705433Y3357240D01*
X64703238Y3362113D01*
X64573196Y3555272D01*
X64412468Y3723758D01*
X64225650Y3862754D01*
X64098574Y3927363D01*
X64022842Y3965867D01*
X64022841Y3965867D01*
X64018084Y3968286D01*
X63885621Y4009417D01*
X63800807Y4035753D01*
X63800801Y4035754D01*
X63795704Y4037337D01*
X63650714Y4056554D01*
X63570152Y4067232D01*
X63570148Y4067232D01*
X63564868Y4067932D01*
X63559538Y4067732D01*
X63559537Y4067732D01*
X63448523Y4063565D01*
X63332178Y4059197D01*
X63307167Y4053949D01*
X63109514Y4012477D01*
X63109511Y4012476D01*
X63104287Y4011380D01*
X62887710Y3925850D01*
X62688641Y3805051D01*
X62684611Y3801554D01*
X62590075Y3719520D01*
X62512770Y3652439D01*
X62509387Y3648313D01*
X62509383Y3648309D01*
X62436262Y3559131D01*
X62365128Y3472376D01*
X62362490Y3467741D01*
X62362487Y3467737D01*
X62339155Y3426748D01*
X62288073Y3377442D01*
X62218442Y3363580D01*
X62152371Y3389563D01*
X62125133Y3418713D01*
X62036388Y3550530D01*
X62033196Y3555272D01*
X61872468Y3723758D01*
X61685650Y3862754D01*
X61558574Y3927363D01*
X61482842Y3965867D01*
X61482841Y3965867D01*
X61478084Y3968286D01*
X61345621Y4009417D01*
X61260807Y4035753D01*
X61260801Y4035754D01*
X61255704Y4037337D01*
X61110714Y4056554D01*
X61030152Y4067232D01*
X61030148Y4067232D01*
X61024868Y4067932D01*
X61019538Y4067732D01*
X61019537Y4067732D01*
X60908523Y4063565D01*
X60792178Y4059197D01*
X60767167Y4053949D01*
X60569514Y4012477D01*
X60569511Y4012476D01*
X60564287Y4011380D01*
X60347710Y3925850D01*
X60148641Y3805051D01*
X60144611Y3801554D01*
X60050075Y3719520D01*
X59972770Y3652439D01*
X59969387Y3648313D01*
X59969383Y3648309D01*
X59896262Y3559131D01*
X59825128Y3472376D01*
X59822490Y3467741D01*
X59822487Y3467737D01*
X59799155Y3426748D01*
X59748073Y3377442D01*
X59678442Y3363580D01*
X59612371Y3389563D01*
X59585133Y3418713D01*
X59496388Y3550530D01*
X59493196Y3555272D01*
X59332468Y3723758D01*
X59145650Y3862754D01*
X59018574Y3927363D01*
X58942842Y3965867D01*
X58942841Y3965867D01*
X58938084Y3968286D01*
X58805621Y4009417D01*
X58720807Y4035753D01*
X58720801Y4035754D01*
X58715704Y4037337D01*
X58570714Y4056554D01*
X58490152Y4067232D01*
X58490148Y4067232D01*
X58484868Y4067932D01*
X58479538Y4067732D01*
X58479537Y4067732D01*
X58368523Y4063565D01*
X58252178Y4059197D01*
X58227167Y4053949D01*
X58029514Y4012477D01*
X58029511Y4012476D01*
X58024287Y4011380D01*
X57807710Y3925850D01*
X57608641Y3805051D01*
X57604611Y3801554D01*
X57510075Y3719520D01*
X57432770Y3652439D01*
X57429387Y3648313D01*
X57429383Y3648309D01*
X57356262Y3559131D01*
X57285128Y3472376D01*
X57282490Y3467741D01*
X57282487Y3467737D01*
X57259155Y3426748D01*
X57208073Y3377442D01*
X57138442Y3363580D01*
X57072371Y3389563D01*
X57045133Y3418713D01*
X56956388Y3550530D01*
X56953196Y3555272D01*
X56792468Y3723758D01*
X56605650Y3862754D01*
X56478574Y3927363D01*
X56402842Y3965867D01*
X56402841Y3965867D01*
X56398084Y3968286D01*
X56265621Y4009417D01*
X56180807Y4035753D01*
X56180801Y4035754D01*
X56175704Y4037337D01*
X56030714Y4056554D01*
X55950152Y4067232D01*
X55950148Y4067232D01*
X55944868Y4067932D01*
X55939538Y4067732D01*
X55939537Y4067732D01*
X55828523Y4063565D01*
X55712178Y4059197D01*
X55687167Y4053949D01*
X55489514Y4012477D01*
X55489511Y4012476D01*
X55484287Y4011380D01*
X55267710Y3925850D01*
X55068641Y3805051D01*
X55064611Y3801554D01*
X54970075Y3719520D01*
X54892770Y3652439D01*
X54889387Y3648313D01*
X54889383Y3648309D01*
X54816262Y3559131D01*
X54745128Y3472376D01*
X54742490Y3467741D01*
X54742487Y3467737D01*
X54719155Y3426748D01*
X54668073Y3377442D01*
X54598442Y3363580D01*
X54532371Y3389563D01*
X54505133Y3418713D01*
X54416388Y3550530D01*
X54413196Y3555272D01*
X54252468Y3723758D01*
X54065650Y3862754D01*
X53938574Y3927363D01*
X53862842Y3965867D01*
X53862841Y3965867D01*
X53858084Y3968286D01*
X53725621Y4009417D01*
X53640807Y4035753D01*
X53640801Y4035754D01*
X53635704Y4037337D01*
X53490714Y4056554D01*
X53410152Y4067232D01*
X53410148Y4067232D01*
X53404868Y4067932D01*
X53399538Y4067732D01*
X53399537Y4067732D01*
X53288523Y4063565D01*
X53172178Y4059197D01*
X53147167Y4053949D01*
X52949514Y4012477D01*
X52949511Y4012476D01*
X52944287Y4011380D01*
X52727710Y3925850D01*
X52528641Y3805051D01*
X52524611Y3801554D01*
X52430075Y3719520D01*
X52352770Y3652439D01*
X52349387Y3648313D01*
X52349383Y3648309D01*
X52276262Y3559131D01*
X52205128Y3472376D01*
X52202490Y3467741D01*
X52202487Y3467737D01*
X52179155Y3426748D01*
X52128073Y3377442D01*
X52058442Y3363580D01*
X51992371Y3389563D01*
X51965133Y3418713D01*
X51876388Y3550530D01*
X51873196Y3555272D01*
X51712468Y3723758D01*
X51525650Y3862754D01*
X51398574Y3927363D01*
X51322842Y3965867D01*
X51322841Y3965867D01*
X51318084Y3968286D01*
X51185621Y4009417D01*
X51100807Y4035753D01*
X51100801Y4035754D01*
X51095704Y4037337D01*
X50950714Y4056554D01*
X50870152Y4067232D01*
X50870148Y4067232D01*
X50864868Y4067932D01*
X50859538Y4067732D01*
X50859537Y4067732D01*
X50748523Y4063565D01*
X50632178Y4059197D01*
X50607167Y4053949D01*
X50468563Y4024867D01*
X50397787Y4030454D01*
X50353594Y4059087D01*
X43250647Y11162034D01*
X58358257Y11162034D01*
X58388565Y11027554D01*
X58391645Y11017725D01*
X58471770Y10820397D01*
X58476413Y10811206D01*
X58587694Y10629612D01*
X58593777Y10621301D01*
X58733213Y10460333D01*
X58740580Y10453117D01*
X58904434Y10317084D01*
X58912881Y10311169D01*
X59096756Y10203721D01*
X59106042Y10199271D01*
X59305001Y10123297D01*
X59314899Y10120421D01*
X59418250Y10099394D01*
X59432299Y10100590D01*
X59436000Y10110935D01*
X59436000Y10111483D01*
X59944000Y10111483D01*
X59948064Y10097641D01*
X59961478Y10095607D01*
X59968184Y10096466D01*
X59978262Y10098608D01*
X60182255Y10159809D01*
X60191842Y10163567D01*
X60383095Y10257261D01*
X60391945Y10262536D01*
X60565328Y10386208D01*
X60573200Y10392861D01*
X60724052Y10543188D01*
X60730730Y10551035D01*
X60855003Y10723980D01*
X60860313Y10732817D01*
X60954670Y10923733D01*
X60958469Y10933328D01*
X61020377Y11137090D01*
X61022555Y11147163D01*
X61023986Y11158038D01*
X61021775Y11172222D01*
X61008617Y11176000D01*
X59962115Y11176000D01*
X59946876Y11171525D01*
X59945671Y11170135D01*
X59944000Y11162452D01*
X59944000Y10111483D01*
X59436000Y10111483D01*
X59436000Y11157885D01*
X59431525Y11173124D01*
X59430135Y11174329D01*
X59422452Y11176000D01*
X58373225Y11176000D01*
X58359694Y11172027D01*
X58358257Y11162034D01*
X43250647Y11162034D01*
X41340815Y13071866D01*
X58331500Y13071866D01*
X58338255Y13009684D01*
X58389385Y12873295D01*
X58476739Y12756739D01*
X58593295Y12669385D01*
X58601704Y12666233D01*
X58601705Y12666232D01*
X58710960Y12625274D01*
X58767725Y12582633D01*
X58792425Y12516071D01*
X58777218Y12446722D01*
X58757825Y12420241D01*
X58634590Y12291283D01*
X58628104Y12283273D01*
X58508098Y12107351D01*
X58503000Y12098377D01*
X58413338Y11905217D01*
X58409775Y11895530D01*
X58354389Y11695817D01*
X58355912Y11687393D01*
X58368292Y11684000D01*
X61008344Y11684000D01*
X61021875Y11687973D01*
X61023180Y11697053D01*
X60981214Y11864125D01*
X60977894Y11873876D01*
X60892972Y12069186D01*
X60888105Y12078261D01*
X60772426Y12257074D01*
X60766136Y12265243D01*
X60622293Y12423323D01*
X60591241Y12487169D01*
X60599635Y12557667D01*
X60644812Y12612436D01*
X60671256Y12626105D01*
X60778297Y12666233D01*
X60786705Y12669385D01*
X60903261Y12756739D01*
X60990615Y12873295D01*
X61041745Y13009684D01*
X61048500Y13071866D01*
X61048500Y14868134D01*
X61041745Y14930316D01*
X60990615Y15066705D01*
X60903261Y15183261D01*
X60786705Y15270615D01*
X60650316Y15321745D01*
X60588134Y15328500D01*
X58791866Y15328500D01*
X58729684Y15321745D01*
X58593295Y15270615D01*
X58476739Y15183261D01*
X58389385Y15066705D01*
X58338255Y14930316D01*
X58331500Y14868134D01*
X58331500Y13071866D01*
X41340815Y13071866D01*
X40660805Y13751876D01*
X40626779Y13814188D01*
X40623900Y13840971D01*
X40623900Y40962129D01*
X40643902Y41030250D01*
X40697558Y41076743D01*
X40767832Y41086847D01*
X40832412Y41057353D01*
G37*
%TD.AperFunction*%
%TA.AperFunction,Conductor*%
G36*
X19267412Y39892353D02*
G01*
X19273995Y39886224D01*
X24003995Y35156224D01*
X24038021Y35093912D01*
X24040900Y35067129D01*
X24040900Y27390971D01*
X24020898Y27322850D01*
X23967242Y27276357D01*
X23896968Y27266253D01*
X23832388Y27295747D01*
X23825805Y27301876D01*
X22219609Y28908072D01*
X22185583Y28970384D01*
X22183782Y29013611D01*
X22201529Y29148410D01*
X22202677Y29195403D01*
X22203074Y29211635D01*
X22203074Y29211639D01*
X22203156Y29215000D01*
X22184852Y29437639D01*
X22130431Y29654298D01*
X22041354Y29859160D01*
X21938995Y30017383D01*
X21922822Y30042383D01*
X21922820Y30042386D01*
X21920014Y30046723D01*
X21769670Y30211949D01*
X21765619Y30215148D01*
X21765615Y30215152D01*
X21598414Y30347200D01*
X21598410Y30347202D01*
X21594359Y30350402D01*
X21552569Y30373471D01*
X21502598Y30423903D01*
X21487826Y30493346D01*
X21512942Y30559752D01*
X21540294Y30586359D01*
X21715328Y30711208D01*
X21723200Y30717861D01*
X21874052Y30868188D01*
X21880730Y30876035D01*
X22005003Y31048980D01*
X22010313Y31057817D01*
X22104670Y31248733D01*
X22108469Y31258328D01*
X22170377Y31462090D01*
X22172555Y31472163D01*
X22173986Y31483038D01*
X22171775Y31497222D01*
X22158617Y31501000D01*
X19523225Y31501000D01*
X19509694Y31497027D01*
X19508257Y31487034D01*
X19538565Y31352554D01*
X19541645Y31342725D01*
X19621770Y31145397D01*
X19626413Y31136206D01*
X19737694Y30954612D01*
X19743777Y30946301D01*
X19883213Y30785333D01*
X19890580Y30778117D01*
X20054434Y30642084D01*
X20062881Y30636169D01*
X20131969Y30595797D01*
X20180693Y30544158D01*
X20193764Y30474375D01*
X20167033Y30408604D01*
X20126584Y30375248D01*
X20113607Y30368493D01*
X20109474Y30365390D01*
X20109471Y30365388D01*
X19939100Y30237470D01*
X19934965Y30234365D01*
X19780629Y30072862D01*
X19777715Y30068590D01*
X19777714Y30068589D01*
X19765404Y30050543D01*
X19654743Y29888320D01*
X19640959Y29858625D01*
X19579873Y29727025D01*
X19560688Y29685695D01*
X19500989Y29470430D01*
X19477251Y29248305D01*
X19477548Y29243152D01*
X19477548Y29243149D01*
X19488552Y29052299D01*
X19490110Y29025285D01*
X19491247Y29020239D01*
X19491248Y29020233D01*
X19512977Y28923818D01*
X19539222Y28807361D01*
X19623266Y28600384D01*
X19739987Y28409912D01*
X19886250Y28241062D01*
X20058126Y28098368D01*
X20095253Y28076673D01*
X20131445Y28055524D01*
X20180169Y28003886D01*
X20193240Y27934103D01*
X20166509Y27868331D01*
X20126055Y27834973D01*
X20113607Y27828493D01*
X20109474Y27825390D01*
X20109471Y27825388D01*
X19954390Y27708950D01*
X19934965Y27694365D01*
X19907502Y27665627D01*
X19785396Y27537850D01*
X19780629Y27532862D01*
X19654743Y27348320D01*
X19560688Y27145695D01*
X19500989Y26930430D01*
X19500440Y26925293D01*
X19491947Y26845822D01*
X19464819Y26780212D01*
X19406527Y26739684D01*
X19335577Y26737105D01*
X19277565Y26770116D01*
X19095805Y26951876D01*
X19061779Y27014188D01*
X19058900Y27040971D01*
X19058900Y32020817D01*
X19504389Y32020817D01*
X19505912Y32012393D01*
X19518292Y32009000D01*
X20567885Y32009000D01*
X20583124Y32013475D01*
X20584329Y32014865D01*
X20586000Y32022548D01*
X20586000Y32027115D01*
X21094000Y32027115D01*
X21098475Y32011876D01*
X21099865Y32010671D01*
X21107548Y32009000D01*
X22158344Y32009000D01*
X22171875Y32012973D01*
X22173180Y32022053D01*
X22131214Y32189125D01*
X22127894Y32198876D01*
X22042972Y32394186D01*
X22038105Y32403261D01*
X21922426Y32582074D01*
X21916136Y32590243D01*
X21772806Y32747760D01*
X21765273Y32754785D01*
X21598139Y32886778D01*
X21589552Y32892483D01*
X21403117Y32995401D01*
X21393705Y32999631D01*
X21192959Y33070720D01*
X21182988Y33073354D01*
X21111837Y33086028D01*
X21098540Y33084568D01*
X21094000Y33070011D01*
X21094000Y32027115D01*
X20586000Y32027115D01*
X20586000Y33071898D01*
X20582082Y33085242D01*
X20567806Y33087229D01*
X20529324Y33081340D01*
X20519288Y33078949D01*
X20316868Y33012788D01*
X20307359Y33008791D01*
X20118463Y32910458D01*
X20109738Y32904964D01*
X19939433Y32777095D01*
X19931726Y32770252D01*
X19784590Y32616283D01*
X19778104Y32608273D01*
X19658098Y32432351D01*
X19653000Y32423377D01*
X19563338Y32230217D01*
X19559775Y32220530D01*
X19504389Y32020817D01*
X19058900Y32020817D01*
X19058900Y39797129D01*
X19078902Y39865250D01*
X19132558Y39911743D01*
X19202832Y39921847D01*
X19267412Y39892353D01*
G37*
%TD.AperFunction*%
%TA.AperFunction,Conductor*%
G36*
X44713150Y42266874D02*
G01*
X44747817Y42238886D01*
X44776250Y42206062D01*
X44948126Y42063368D01*
X45141000Y41950662D01*
X45349692Y41870970D01*
X45354760Y41869939D01*
X45354763Y41869938D01*
X45426245Y41855395D01*
X45568597Y41826433D01*
X45573772Y41826243D01*
X45573774Y41826243D01*
X45786673Y41818436D01*
X45786677Y41818436D01*
X45791837Y41818247D01*
X45931909Y41836191D01*
X46002018Y41825007D01*
X46037010Y41800309D01*
X46656170Y41181150D01*
X47276927Y40560393D01*
X47289313Y40545981D01*
X47297849Y40534383D01*
X47302192Y40528482D01*
X47307770Y40523743D01*
X47307773Y40523740D01*
X47342475Y40494259D01*
X47349991Y40487329D01*
X47355680Y40481640D01*
X47358534Y40479382D01*
X47358544Y40479373D01*
X47377942Y40464026D01*
X47381342Y40461238D01*
X47431407Y40418705D01*
X47431411Y40418702D01*
X47436985Y40413967D01*
X47443500Y40410640D01*
X47448537Y40407281D01*
X47453675Y40404108D01*
X47459416Y40399566D01*
X47525575Y40368645D01*
X47529469Y40366742D01*
X47594508Y40333531D01*
X47601617Y40331792D01*
X47607251Y40329696D01*
X47613021Y40327777D01*
X47619650Y40324678D01*
X47626813Y40323188D01*
X47626816Y40323187D01*
X47677530Y40312639D01*
X47691135Y40309809D01*
X47695401Y40308843D01*
X47766310Y40291492D01*
X47771912Y40291144D01*
X47771915Y40291144D01*
X47777464Y40290800D01*
X47777462Y40290765D01*
X47781434Y40290525D01*
X47785655Y40290148D01*
X47792815Y40288659D01*
X47870242Y40290754D01*
X47873650Y40290800D01*
X60133300Y40290800D01*
X60201421Y40270798D01*
X60247914Y40217142D01*
X60259300Y40164800D01*
X60259300Y35754000D01*
X60239298Y35685879D01*
X60185642Y35639386D01*
X60133300Y35628000D01*
X59987115Y35628000D01*
X59971876Y35623525D01*
X59970671Y35622135D01*
X59969000Y35614452D01*
X59969000Y34142000D01*
X59948998Y34073879D01*
X59895342Y34027386D01*
X59843000Y34016000D01*
X58375116Y34016000D01*
X58359877Y34011525D01*
X58358672Y34010135D01*
X58357001Y34002452D01*
X58357001Y33375331D01*
X58357371Y33368510D01*
X58362895Y33317648D01*
X58366521Y33302396D01*
X58411676Y33181946D01*
X58420214Y33166351D01*
X58496715Y33064276D01*
X58509276Y33051715D01*
X58611351Y32975214D01*
X58626946Y32966676D01*
X58735827Y32925858D01*
X58792591Y32883216D01*
X58817291Y32816655D01*
X58802083Y32747306D01*
X58782691Y32720825D01*
X58687307Y32621011D01*
X58655629Y32587862D01*
X58529743Y32403320D01*
X58527564Y32398625D01*
X58449392Y32230217D01*
X58435688Y32200695D01*
X58375989Y31985430D01*
X58352251Y31763305D01*
X58352548Y31758152D01*
X58352548Y31758149D01*
X58358011Y31663410D01*
X58365110Y31540285D01*
X58366247Y31535239D01*
X58366248Y31535233D01*
X58377111Y31487034D01*
X58414222Y31322361D01*
X58498266Y31115384D01*
X58614987Y30924912D01*
X58761250Y30756062D01*
X58933126Y30613368D01*
X58979347Y30586359D01*
X59006445Y30570524D01*
X59055169Y30518886D01*
X59068240Y30449103D01*
X59041509Y30383331D01*
X59001055Y30349973D01*
X58988607Y30343493D01*
X58984474Y30340390D01*
X58984471Y30340388D01*
X58814100Y30212470D01*
X58809965Y30209365D01*
X58806393Y30205627D01*
X58664294Y30056929D01*
X58655629Y30047862D01*
X58529743Y29863320D01*
X58514003Y29829410D01*
X58447293Y29685695D01*
X58435688Y29660695D01*
X58375989Y29445430D01*
X58352251Y29223305D01*
X58352548Y29218152D01*
X58352548Y29218149D01*
X58363960Y29020233D01*
X58365110Y29000285D01*
X58366247Y28995239D01*
X58366248Y28995233D01*
X58376438Y28950019D01*
X58414222Y28782361D01*
X58498266Y28575384D01*
X58614987Y28384912D01*
X58761250Y28216062D01*
X58933126Y28073368D01*
X59003595Y28032189D01*
X59006445Y28030524D01*
X59055169Y27978886D01*
X59068240Y27909103D01*
X59041509Y27843331D01*
X59001055Y27809973D01*
X58988607Y27803493D01*
X58984474Y27800390D01*
X58984471Y27800388D01*
X58838283Y27690627D01*
X58809965Y27669365D01*
X58806393Y27665627D01*
X58679520Y27532862D01*
X58655629Y27507862D01*
X58625363Y27463493D01*
X58570455Y27418493D01*
X58521277Y27408500D01*
X56679271Y27408500D01*
X56611150Y27428502D01*
X56590176Y27445405D01*
X49493466Y34542115D01*
X58357000Y34542115D01*
X58361475Y34526876D01*
X58362865Y34525671D01*
X58370548Y34524000D01*
X59442885Y34524000D01*
X59458124Y34528475D01*
X59459329Y34529865D01*
X59461000Y34537548D01*
X59461000Y35609884D01*
X59456525Y35625123D01*
X59455135Y35626328D01*
X59447452Y35627999D01*
X58820331Y35627999D01*
X58813510Y35627629D01*
X58762648Y35622105D01*
X58747396Y35618479D01*
X58626946Y35573324D01*
X58611351Y35564786D01*
X58509276Y35488285D01*
X58496715Y35475724D01*
X58420214Y35373649D01*
X58411676Y35358054D01*
X58366522Y35237606D01*
X58362895Y35222351D01*
X58357369Y35171486D01*
X58357000Y35164672D01*
X58357000Y34542115D01*
X49493466Y34542115D01*
X42429176Y41606405D01*
X42395150Y41668717D01*
X42400215Y41739532D01*
X42442762Y41796368D01*
X42509282Y41821179D01*
X42518271Y41821500D01*
X44088134Y41821500D01*
X44150316Y41828255D01*
X44286705Y41879385D01*
X44403261Y41966739D01*
X44490615Y42083295D01*
X44512799Y42142471D01*
X44534598Y42200618D01*
X44577240Y42257382D01*
X44643802Y42282082D01*
X44713150Y42266874D01*
G37*
%TD.AperFunction*%
%TA.AperFunction,Conductor*%
G36*
X29678750Y52811498D02*
G01*
X29725243Y52757842D01*
X29735347Y52687568D01*
X29705853Y52622988D01*
X29699724Y52616405D01*
X29403901Y52320582D01*
X29341589Y52286556D01*
X29277442Y52289345D01*
X29251704Y52297337D01*
X29231763Y52299980D01*
X29026152Y52327232D01*
X29026148Y52327232D01*
X29020868Y52327932D01*
X29015538Y52327732D01*
X29015537Y52327732D01*
X28904523Y52323564D01*
X28788178Y52319197D01*
X28705474Y52301844D01*
X28565514Y52272477D01*
X28565511Y52272476D01*
X28560287Y52271380D01*
X28343710Y52185850D01*
X28144641Y52065051D01*
X28140611Y52061554D01*
X28046075Y51979520D01*
X27968770Y51912439D01*
X27965387Y51908313D01*
X27965383Y51908309D01*
X27892262Y51819131D01*
X27821128Y51732376D01*
X27794878Y51686261D01*
X27743798Y51636956D01*
X27674168Y51623094D01*
X27608096Y51649077D01*
X27580857Y51678227D01*
X27491785Y51810530D01*
X27485124Y51818816D01*
X27331820Y51979520D01*
X27323852Y51986569D01*
X27145664Y52119144D01*
X27136634Y52124743D01*
X26938653Y52225402D01*
X26928792Y52229405D01*
X26716699Y52295263D01*
X26706304Y52297548D01*
X26687959Y52299980D01*
X26673792Y52297783D01*
X26670000Y52284599D01*
X26670000Y49317512D01*
X26673973Y49303981D01*
X26684580Y49302456D01*
X26806343Y49328004D01*
X26816539Y49331064D01*
X27023097Y49412637D01*
X27032634Y49417371D01*
X27222503Y49532586D01*
X27231093Y49538850D01*
X27398837Y49684411D01*
X27406257Y49692041D01*
X27547073Y49863780D01*
X27553102Y49872551D01*
X27576533Y49913715D01*
X27627615Y49963022D01*
X27697245Y49976884D01*
X27763316Y49950901D01*
X27790555Y49921751D01*
X27882804Y49784728D01*
X27886483Y49780871D01*
X27886485Y49780869D01*
X27971223Y49692041D01*
X28043532Y49616242D01*
X28230350Y49477246D01*
X28235102Y49474830D01*
X28432244Y49374598D01*
X28437916Y49371714D01*
X28619273Y49315401D01*
X28660296Y49302663D01*
X28659843Y49301203D01*
X28715934Y49270415D01*
X28749823Y49208029D01*
X28744603Y49137225D01*
X28715739Y49092420D01*
X28369824Y48746505D01*
X28307512Y48712479D01*
X28280729Y48709600D01*
X27683169Y48709600D01*
X27664221Y48711033D01*
X27656880Y48712150D01*
X27649983Y48713199D01*
X27649981Y48713199D01*
X27642751Y48714299D01*
X27635459Y48713706D01*
X27635456Y48713706D01*
X27590082Y48710015D01*
X27579867Y48709600D01*
X27571807Y48709600D01*
X27558517Y48708051D01*
X27543593Y48706311D01*
X27539218Y48705878D01*
X27473761Y48700554D01*
X27473758Y48700553D01*
X27466463Y48699960D01*
X27459499Y48697704D01*
X27453540Y48696513D01*
X27447685Y48695129D01*
X27440419Y48694282D01*
X27371773Y48669365D01*
X27367645Y48667948D01*
X27305164Y48647707D01*
X27305162Y48647706D01*
X27298201Y48645451D01*
X27291946Y48641655D01*
X27286472Y48639149D01*
X27281042Y48636430D01*
X27274163Y48633933D01*
X27213116Y48593909D01*
X27209427Y48591582D01*
X27194193Y48582337D01*
X27151793Y48556609D01*
X27151788Y48556605D01*
X27146992Y48553695D01*
X27138616Y48546297D01*
X27138593Y48546323D01*
X27135603Y48543674D01*
X27132364Y48540966D01*
X27126248Y48536956D01*
X27121221Y48531649D01*
X27121217Y48531646D01*
X27072972Y48480717D01*
X27070594Y48478275D01*
X23152296Y44559977D01*
X23089984Y44525951D01*
X23041105Y44525025D01*
X22973284Y44537106D01*
X22899452Y44538008D01*
X22755081Y44539772D01*
X22755079Y44539772D01*
X22749911Y44539835D01*
X22529091Y44506045D01*
X22316756Y44436643D01*
X22118607Y44333493D01*
X22114474Y44330390D01*
X22114471Y44330388D01*
X21944100Y44202470D01*
X21939965Y44199365D01*
X21785629Y44037862D01*
X21782715Y44033590D01*
X21782714Y44033589D01*
X21770404Y44015543D01*
X21679337Y43882043D01*
X21677898Y43879934D01*
X21622987Y43834931D01*
X21552462Y43826760D01*
X21488715Y43858014D01*
X21468018Y43882498D01*
X21387426Y44007074D01*
X21381136Y44015243D01*
X21237806Y44172760D01*
X21230273Y44179785D01*
X21063139Y44311778D01*
X21054552Y44317483D01*
X20868117Y44420401D01*
X20858705Y44424631D01*
X20657959Y44495720D01*
X20647988Y44498354D01*
X20576837Y44511028D01*
X20563540Y44509568D01*
X20559000Y44495011D01*
X20559000Y41861483D01*
X20563064Y41847641D01*
X20576478Y41845607D01*
X20583184Y41846466D01*
X20593262Y41848608D01*
X20797255Y41909809D01*
X20806842Y41913567D01*
X20998095Y42007261D01*
X21006945Y42012536D01*
X21180328Y42136208D01*
X21188200Y42142861D01*
X21339052Y42293188D01*
X21345730Y42301035D01*
X21473022Y42478181D01*
X21474279Y42477278D01*
X21521373Y42520638D01*
X21591311Y42532855D01*
X21656751Y42505322D01*
X21684579Y42473489D01*
X21744987Y42374912D01*
X21891250Y42206062D01*
X22063126Y42063368D01*
X22256000Y41950662D01*
X22464692Y41870970D01*
X22469760Y41869939D01*
X22469763Y41869938D01*
X22541245Y41855395D01*
X22683597Y41826433D01*
X22688772Y41826243D01*
X22688774Y41826243D01*
X22901673Y41818436D01*
X22901677Y41818436D01*
X22906837Y41818247D01*
X22911957Y41818903D01*
X22911959Y41818903D01*
X23123288Y41845975D01*
X23123289Y41845975D01*
X23128416Y41846632D01*
X23133366Y41848117D01*
X23337429Y41909339D01*
X23337434Y41909341D01*
X23342384Y41910826D01*
X23542994Y42009104D01*
X23724860Y42138827D01*
X23833091Y42246681D01*
X23895462Y42280596D01*
X23966268Y42275408D01*
X24023030Y42232762D01*
X24040012Y42201659D01*
X24040534Y42200266D01*
X24084385Y42083295D01*
X24171739Y41966739D01*
X24288295Y41879385D01*
X24424684Y41828255D01*
X24486866Y41821500D01*
X24515420Y41821500D01*
X24583541Y41801498D01*
X24630034Y41747842D01*
X24635795Y41730028D01*
X24636117Y41730132D01*
X24636402Y41729254D01*
X24637140Y41725869D01*
X24638979Y41720183D01*
X24639588Y41717133D01*
X24640971Y41711281D01*
X24641818Y41704019D01*
X24666735Y41635373D01*
X24668152Y41631245D01*
X24687414Y41571788D01*
X24690649Y41561801D01*
X24694445Y41555546D01*
X24696951Y41550072D01*
X24699670Y41544642D01*
X24702167Y41537763D01*
X24706180Y41531643D01*
X24706180Y41531642D01*
X24742186Y41476724D01*
X24744523Y41473020D01*
X24782405Y41410593D01*
X24786121Y41406385D01*
X24786122Y41406384D01*
X24789803Y41402216D01*
X24789776Y41402192D01*
X24792429Y41399200D01*
X24795132Y41395967D01*
X24799144Y41389848D01*
X24804456Y41384816D01*
X24855383Y41336572D01*
X24857825Y41334194D01*
X25046995Y41145024D01*
X25081021Y41082712D01*
X25083900Y41055929D01*
X25083900Y36525871D01*
X25063898Y36457750D01*
X25010242Y36411257D01*
X24939968Y36401153D01*
X24875388Y36430647D01*
X24868805Y36436776D01*
X19796105Y41509476D01*
X19762079Y41571788D01*
X19759200Y41598571D01*
X19759200Y41752197D01*
X19779202Y41820318D01*
X19832858Y41866811D01*
X19903132Y41876915D01*
X19920352Y41873194D01*
X19929891Y41870423D01*
X20033250Y41849394D01*
X20047299Y41850590D01*
X20051000Y41860935D01*
X20051000Y44496898D01*
X20047082Y44510242D01*
X20032806Y44512229D01*
X19994324Y44506340D01*
X19984284Y44503948D01*
X19924344Y44484357D01*
X19853380Y44482206D01*
X19792519Y44518763D01*
X19761083Y44582420D01*
X19759200Y44604122D01*
X19759200Y48098329D01*
X19779202Y48166450D01*
X19796105Y48187424D01*
X20888099Y49279418D01*
X20950411Y49313444D01*
X21014558Y49310655D01*
X21040296Y49302663D01*
X21045585Y49301962D01*
X21265848Y49272768D01*
X21265852Y49272768D01*
X21271132Y49272068D01*
X21276462Y49272268D01*
X21276463Y49272268D01*
X21387477Y49276436D01*
X21503822Y49280803D01*
X21608005Y49302663D01*
X21726486Y49327523D01*
X21726489Y49327524D01*
X21731713Y49328620D01*
X21948290Y49414150D01*
X22147359Y49534949D01*
X22151855Y49538850D01*
X22319197Y49684061D01*
X22319199Y49684063D01*
X22323230Y49687561D01*
X22326613Y49691687D01*
X22326617Y49691691D01*
X22425776Y49812626D01*
X22470872Y49867624D01*
X22496845Y49913252D01*
X22547927Y49962558D01*
X22617558Y49976420D01*
X22683629Y49950437D01*
X22710867Y49921287D01*
X22802804Y49784728D01*
X22806483Y49780871D01*
X22806485Y49780869D01*
X22891223Y49692041D01*
X22963532Y49616242D01*
X23150350Y49477246D01*
X23155102Y49474830D01*
X23352244Y49374598D01*
X23357916Y49371714D01*
X23458815Y49340384D01*
X23575193Y49304247D01*
X23575199Y49304246D01*
X23580296Y49302663D01*
X23704660Y49286180D01*
X23805848Y49272768D01*
X23805852Y49272768D01*
X23811132Y49272068D01*
X23816462Y49272268D01*
X23816463Y49272268D01*
X23927477Y49276436D01*
X24043822Y49280803D01*
X24148005Y49302663D01*
X24266486Y49327523D01*
X24266489Y49327524D01*
X24271713Y49328620D01*
X24488290Y49414150D01*
X24687359Y49534949D01*
X24691855Y49538850D01*
X24859197Y49684061D01*
X24859199Y49684063D01*
X24863230Y49687561D01*
X24866613Y49691687D01*
X24866617Y49691691D01*
X24965776Y49812626D01*
X25010872Y49867624D01*
X25037122Y49913739D01*
X25088202Y49963044D01*
X25157832Y49976906D01*
X25223904Y49950923D01*
X25251143Y49921773D01*
X25340215Y49789470D01*
X25346876Y49781184D01*
X25500180Y49620480D01*
X25508148Y49613431D01*
X25686336Y49480856D01*
X25695366Y49475257D01*
X25893347Y49374598D01*
X25903208Y49370595D01*
X26115301Y49304737D01*
X26125696Y49302452D01*
X26144041Y49300020D01*
X26158208Y49302217D01*
X26162000Y49315401D01*
X26162000Y52282488D01*
X26158027Y52296019D01*
X26147420Y52297544D01*
X26025657Y52271996D01*
X26015461Y52268936D01*
X25808903Y52187363D01*
X25799366Y52182629D01*
X25609497Y52067414D01*
X25600907Y52061150D01*
X25433163Y51915589D01*
X25425743Y51907959D01*
X25284927Y51736220D01*
X25278898Y51727449D01*
X25255467Y51686285D01*
X25204385Y51636978D01*
X25134755Y51623116D01*
X25068684Y51649099D01*
X25041445Y51678249D01*
X25005005Y51732376D01*
X24949196Y51815272D01*
X24924598Y51841058D01*
X24792152Y51979896D01*
X24788468Y51983758D01*
X24601650Y52122754D01*
X24474574Y52187363D01*
X24398842Y52225867D01*
X24398841Y52225867D01*
X24394084Y52228286D01*
X24255299Y52271380D01*
X24176807Y52295753D01*
X24176801Y52295754D01*
X24171704Y52297337D01*
X24047340Y52313820D01*
X23946152Y52327232D01*
X23946148Y52327232D01*
X23940868Y52327932D01*
X23935538Y52327732D01*
X23935537Y52327732D01*
X23824523Y52323564D01*
X23708178Y52319197D01*
X23625474Y52301844D01*
X23485514Y52272477D01*
X23485511Y52272476D01*
X23480287Y52271380D01*
X23263710Y52185850D01*
X23064641Y52065051D01*
X23060611Y52061554D01*
X22966075Y51979520D01*
X22888770Y51912439D01*
X22885387Y51908313D01*
X22885383Y51908309D01*
X22812262Y51819131D01*
X22741128Y51732376D01*
X22738490Y51727741D01*
X22738487Y51727737D01*
X22715155Y51686748D01*
X22664073Y51637442D01*
X22594442Y51623580D01*
X22528371Y51649563D01*
X22501133Y51678713D01*
X22412176Y51810845D01*
X22409196Y51815272D01*
X22384598Y51841058D01*
X22252152Y51979896D01*
X22248468Y51983758D01*
X22061650Y52122754D01*
X21934574Y52187363D01*
X21858842Y52225867D01*
X21858841Y52225867D01*
X21854084Y52228286D01*
X21715299Y52271380D01*
X21636807Y52295753D01*
X21636801Y52295754D01*
X21631704Y52297337D01*
X21507340Y52313820D01*
X21406152Y52327232D01*
X21406148Y52327232D01*
X21400868Y52327932D01*
X21395538Y52327732D01*
X21395537Y52327732D01*
X21284523Y52323564D01*
X21168178Y52319197D01*
X21085474Y52301844D01*
X20945514Y52272477D01*
X20945511Y52272476D01*
X20940287Y52271380D01*
X20723710Y52185850D01*
X20524641Y52065051D01*
X20520611Y52061554D01*
X20426075Y51979520D01*
X20348770Y51912439D01*
X20345387Y51908313D01*
X20345383Y51908309D01*
X20272262Y51819131D01*
X20201128Y51732376D01*
X20198490Y51727741D01*
X20198487Y51727737D01*
X20175155Y51686748D01*
X20124073Y51637442D01*
X20054442Y51623580D01*
X19988371Y51649563D01*
X19961133Y51678713D01*
X19872176Y51810845D01*
X19869196Y51815272D01*
X19844598Y51841058D01*
X19712152Y51979896D01*
X19708468Y51983758D01*
X19521650Y52122754D01*
X19394574Y52187363D01*
X19318842Y52225867D01*
X19318841Y52225867D01*
X19314084Y52228286D01*
X19175299Y52271380D01*
X19096807Y52295753D01*
X19096801Y52295754D01*
X19091704Y52297337D01*
X18967340Y52313820D01*
X18866152Y52327232D01*
X18866148Y52327232D01*
X18860868Y52327932D01*
X18855538Y52327732D01*
X18855537Y52327732D01*
X18744523Y52323564D01*
X18628178Y52319197D01*
X18545474Y52301844D01*
X18405514Y52272477D01*
X18405511Y52272476D01*
X18400287Y52271380D01*
X18183710Y52185850D01*
X17984641Y52065051D01*
X17980611Y52061554D01*
X17886075Y51979520D01*
X17808770Y51912439D01*
X17805384Y51908309D01*
X17805383Y51908308D01*
X17754489Y51846239D01*
X17695829Y51806244D01*
X17624859Y51804313D01*
X17564111Y51841058D01*
X17543047Y51872482D01*
X17472347Y52022729D01*
X17472343Y52022736D01*
X17470659Y52026315D01*
X17368170Y52187812D01*
X17301498Y52292870D01*
X17301495Y52292874D01*
X17299371Y52296221D01*
X17095606Y52542530D01*
X17019871Y52613650D01*
X16983906Y52674863D01*
X16986744Y52745803D01*
X17027484Y52803947D01*
X17093192Y52830835D01*
X17106124Y52831500D01*
X29610629Y52831500D01*
X29678750Y52811498D01*
G37*
%TD.AperFunction*%
%TA.AperFunction,Conductor*%
G36*
X62307629Y49950437D02*
G01*
X62334867Y49921287D01*
X62426804Y49784728D01*
X62430483Y49780871D01*
X62430485Y49780869D01*
X62515223Y49692041D01*
X62587532Y49616242D01*
X62774350Y49477246D01*
X62779102Y49474830D01*
X62976244Y49374598D01*
X62981916Y49371714D01*
X63082815Y49340384D01*
X63199193Y49304247D01*
X63199199Y49304246D01*
X63204296Y49302663D01*
X63328660Y49286180D01*
X63429848Y49272768D01*
X63429852Y49272768D01*
X63435132Y49272068D01*
X63440462Y49272268D01*
X63440463Y49272268D01*
X63551477Y49276436D01*
X63667822Y49280803D01*
X63823386Y49313444D01*
X63890490Y49327524D01*
X63890491Y49327524D01*
X63895713Y49328620D01*
X63900684Y49330583D01*
X63902987Y49331274D01*
X63973983Y49331694D01*
X64033935Y49293664D01*
X64063809Y49229259D01*
X64065200Y49210590D01*
X64065200Y44602919D01*
X64045198Y44534798D01*
X63991542Y44488305D01*
X63921268Y44478201D01*
X63897141Y44484146D01*
X63863091Y44496204D01*
X63863083Y44496206D01*
X63858212Y44497931D01*
X63853119Y44498838D01*
X63853116Y44498839D01*
X63643373Y44536200D01*
X63643367Y44536201D01*
X63638284Y44537106D01*
X63564452Y44538008D01*
X63420081Y44539772D01*
X63420079Y44539772D01*
X63414911Y44539835D01*
X63194091Y44506045D01*
X62981756Y44436643D01*
X62783607Y44333493D01*
X62779474Y44330390D01*
X62779471Y44330388D01*
X62609100Y44202470D01*
X62604965Y44199365D01*
X62450629Y44037862D01*
X62447715Y44033590D01*
X62447714Y44033589D01*
X62435404Y44015543D01*
X62344337Y43882043D01*
X62342898Y43879934D01*
X62287987Y43834931D01*
X62217462Y43826760D01*
X62153715Y43858014D01*
X62133018Y43882498D01*
X62052426Y44007074D01*
X62046136Y44015243D01*
X61902806Y44172760D01*
X61895273Y44179785D01*
X61728139Y44311778D01*
X61719552Y44317483D01*
X61533117Y44420401D01*
X61523705Y44424631D01*
X61322959Y44495720D01*
X61312988Y44498354D01*
X61241837Y44511028D01*
X61228540Y44509568D01*
X61224000Y44495011D01*
X61224000Y43052000D01*
X61203998Y42983879D01*
X61150342Y42937386D01*
X61098000Y42926000D01*
X58302000Y42926000D01*
X58233879Y42946002D01*
X58187386Y42999658D01*
X58176000Y43052000D01*
X58176000Y43452115D01*
X58684000Y43452115D01*
X58688475Y43436876D01*
X58689865Y43435671D01*
X58697548Y43434000D01*
X60697885Y43434000D01*
X60713124Y43438475D01*
X60714329Y43439865D01*
X60716000Y43447548D01*
X60716000Y44496898D01*
X60712082Y44510242D01*
X60697806Y44512229D01*
X60659324Y44506340D01*
X60649288Y44503949D01*
X60446868Y44437788D01*
X60437359Y44433791D01*
X60248463Y44335458D01*
X60239738Y44329964D01*
X60069433Y44202095D01*
X60061726Y44195252D01*
X59914590Y44041283D01*
X59908104Y44033273D01*
X59803193Y43879479D01*
X59748282Y43834476D01*
X59677757Y43826305D01*
X59614010Y43857559D01*
X59593313Y43882043D01*
X59512427Y44007074D01*
X59506136Y44015243D01*
X59362806Y44172760D01*
X59355273Y44179785D01*
X59188139Y44311778D01*
X59179552Y44317483D01*
X58993117Y44420401D01*
X58983705Y44424631D01*
X58782959Y44495720D01*
X58772988Y44498354D01*
X58701837Y44511028D01*
X58688540Y44509568D01*
X58684000Y44495011D01*
X58684000Y43452115D01*
X58176000Y43452115D01*
X58176000Y44496898D01*
X58172082Y44510242D01*
X58157806Y44512229D01*
X58119324Y44506340D01*
X58109288Y44503949D01*
X57906868Y44437788D01*
X57897359Y44433791D01*
X57708463Y44335458D01*
X57699738Y44329964D01*
X57529433Y44202095D01*
X57521726Y44195252D01*
X57374590Y44041283D01*
X57368109Y44033278D01*
X57263498Y43879926D01*
X57208587Y43834924D01*
X57138062Y43826753D01*
X57074315Y43858007D01*
X57053618Y43882491D01*
X56972822Y44007383D01*
X56972820Y44007386D01*
X56970014Y44011723D01*
X56819670Y44176949D01*
X56815619Y44180148D01*
X56815615Y44180152D01*
X56648414Y44312200D01*
X56648410Y44312202D01*
X56644359Y44315402D01*
X56608028Y44335458D01*
X56592136Y44344231D01*
X56448789Y44423362D01*
X56443920Y44425086D01*
X56443916Y44425088D01*
X56243087Y44496205D01*
X56243083Y44496206D01*
X56238212Y44497931D01*
X56233119Y44498838D01*
X56233116Y44498839D01*
X56023373Y44536200D01*
X56023367Y44536201D01*
X56018284Y44537106D01*
X55947770Y44537967D01*
X55800082Y44539772D01*
X55800080Y44539772D01*
X55794911Y44539835D01*
X55771156Y44536200D01*
X55691385Y44523994D01*
X55621023Y44533462D01*
X55583232Y44559449D01*
X54448270Y45694411D01*
X54435884Y45708823D01*
X54427351Y45720418D01*
X54427346Y45720423D01*
X54423008Y45726318D01*
X54417430Y45731057D01*
X54417427Y45731060D01*
X54382732Y45760535D01*
X54375216Y45767465D01*
X54369521Y45773160D01*
X54363380Y45778018D01*
X54347249Y45790781D01*
X54343845Y45793572D01*
X54293797Y45836091D01*
X54293795Y45836092D01*
X54288215Y45840833D01*
X54281699Y45844161D01*
X54276650Y45847528D01*
X54271521Y45850695D01*
X54265784Y45855234D01*
X54199625Y45886155D01*
X54195725Y45888061D01*
X54130692Y45921269D01*
X54123584Y45923008D01*
X54117941Y45925107D01*
X54112178Y45927024D01*
X54105550Y45930122D01*
X54034083Y45944987D01*
X54029799Y45945957D01*
X53958890Y45963308D01*
X53953288Y45963656D01*
X53953285Y45963656D01*
X53947736Y45964000D01*
X53947738Y45964036D01*
X53943745Y45964275D01*
X53939553Y45964649D01*
X53932385Y45966140D01*
X53866175Y45964349D01*
X53854979Y45964046D01*
X53851572Y45964000D01*
X52420871Y45964000D01*
X52352750Y45984002D01*
X52306257Y46037658D01*
X52296153Y46107932D01*
X52325647Y46172512D01*
X52331776Y46179095D01*
X55432099Y49279418D01*
X55494411Y49313444D01*
X55558558Y49310655D01*
X55584296Y49302663D01*
X55589585Y49301962D01*
X55809848Y49272768D01*
X55809852Y49272768D01*
X55815132Y49272068D01*
X55820462Y49272268D01*
X55820463Y49272268D01*
X55931477Y49276436D01*
X56047822Y49280803D01*
X56152005Y49302663D01*
X56270486Y49327523D01*
X56270489Y49327524D01*
X56275713Y49328620D01*
X56492290Y49414150D01*
X56691359Y49534949D01*
X56695855Y49538850D01*
X56863197Y49684061D01*
X56863199Y49684063D01*
X56867230Y49687561D01*
X56870613Y49691687D01*
X56870617Y49691691D01*
X56969776Y49812626D01*
X57014872Y49867624D01*
X57040845Y49913252D01*
X57091927Y49962558D01*
X57161558Y49976420D01*
X57227629Y49950437D01*
X57254867Y49921287D01*
X57346804Y49784728D01*
X57350483Y49780871D01*
X57350485Y49780869D01*
X57435223Y49692041D01*
X57507532Y49616242D01*
X57694350Y49477246D01*
X57699102Y49474830D01*
X57896244Y49374598D01*
X57901916Y49371714D01*
X58002815Y49340384D01*
X58119193Y49304247D01*
X58119199Y49304246D01*
X58124296Y49302663D01*
X58248660Y49286180D01*
X58349848Y49272768D01*
X58349852Y49272768D01*
X58355132Y49272068D01*
X58360462Y49272268D01*
X58360463Y49272268D01*
X58471477Y49276436D01*
X58587822Y49280803D01*
X58692005Y49302663D01*
X58810486Y49327523D01*
X58810489Y49327524D01*
X58815713Y49328620D01*
X59032290Y49414150D01*
X59231359Y49534949D01*
X59235855Y49538850D01*
X59403197Y49684061D01*
X59403199Y49684063D01*
X59407230Y49687561D01*
X59410613Y49691687D01*
X59410617Y49691691D01*
X59509776Y49812626D01*
X59554872Y49867624D01*
X59580845Y49913252D01*
X59631927Y49962558D01*
X59701558Y49976420D01*
X59767629Y49950437D01*
X59794867Y49921287D01*
X59886804Y49784728D01*
X59890483Y49780871D01*
X59890485Y49780869D01*
X59975223Y49692041D01*
X60047532Y49616242D01*
X60234350Y49477246D01*
X60239102Y49474830D01*
X60436244Y49374598D01*
X60441916Y49371714D01*
X60542815Y49340384D01*
X60659193Y49304247D01*
X60659199Y49304246D01*
X60664296Y49302663D01*
X60788660Y49286180D01*
X60889848Y49272768D01*
X60889852Y49272768D01*
X60895132Y49272068D01*
X60900462Y49272268D01*
X60900463Y49272268D01*
X61011477Y49276436D01*
X61127822Y49280803D01*
X61232005Y49302663D01*
X61350486Y49327523D01*
X61350489Y49327524D01*
X61355713Y49328620D01*
X61572290Y49414150D01*
X61771359Y49534949D01*
X61775855Y49538850D01*
X61943197Y49684061D01*
X61943199Y49684063D01*
X61947230Y49687561D01*
X61950613Y49691687D01*
X61950617Y49691691D01*
X62049776Y49812626D01*
X62094872Y49867624D01*
X62120845Y49913252D01*
X62171927Y49962558D01*
X62241558Y49976420D01*
X62307629Y49950437D01*
G37*
%TD.AperFunction*%
%TD*%
M02*
